%TF.GenerationSoftware,KiCad,Pcbnew,8.0.7*%
%TF.CreationDate,2025-02-10T18:12:55+08:00*%
%TF.ProjectId,bb-0.4,62622d30-2e34-42e6-9b69-6361645f7063,rev?*%
%TF.SameCoordinates,Original*%
%TF.FileFunction,Drillmap*%
%TF.FilePolarity,Positive*%
%FSLAX45Y45*%
G04 Gerber Fmt 4.5, Leading zero omitted, Abs format (unit mm)*
G04 Created by KiCad (PCBNEW 8.0.7) date 2025-02-10 18:12:55*
%MOMM*%
%LPD*%
G01*
G04 APERTURE LIST*
%ADD10C,0.100000*%
%ADD11C,0.200000*%
%ADD12C,0.120000*%
%ADD13C,0.264000*%
G04 APERTURE END LIST*
D10*
X12553986Y-18249978D02*
X12552986Y-18948858D01*
X8922000Y-18254810D02*
X8921000Y-18953691D01*
X12329000Y-19143881D02*
X10061779Y-19144652D01*
X9116023Y-19143881D02*
G75*
G02*
X8921000Y-18953691I-4773J190190D01*
G01*
X12550077Y-10249979D02*
X18539959Y-4099919D01*
X10895000Y-18010000D02*
G75*
G02*
X10685000Y-18010000I-105000J0D01*
G01*
X10685000Y-18010000D02*
G75*
G02*
X10895000Y-18010000I105000J0D01*
G01*
X10740000Y-6270000D02*
X6840000Y-6270000D01*
X16510000Y-4810000D02*
X4940000Y-4840000D01*
X12856878Y-8093122D02*
X14640000Y-6270000D01*
X2640000Y-3610000D02*
G75*
G02*
X3740000Y-3610000I550000J0D01*
G01*
X9579000Y-18995000D02*
X9587636Y-18995000D01*
X10061779Y-19144652D02*
X10061867Y-18994864D01*
X11756522Y-13265000D02*
G75*
G02*
X11496522Y-13265000I-130000J0D01*
G01*
X11496522Y-13265000D02*
G75*
G02*
X11756522Y-13265000I130000J0D01*
G01*
X7700000Y-5210000D02*
G75*
G02*
X7490000Y-5210000I-105000J0D01*
G01*
X7490000Y-5210000D02*
G75*
G02*
X7700000Y-5210000I105000J0D01*
G01*
X16510000Y-4810000D02*
X17740000Y-3610000D01*
X2901191Y-4078070D02*
X8920045Y-10254810D01*
X2901191Y-4078070D02*
G75*
G02*
X2640000Y-3610000I288809J468070D01*
G01*
X12362796Y-19143881D02*
X12349704Y-19143881D01*
X3740000Y-3610000D02*
X4940000Y-4840000D01*
X10740000Y-6270000D02*
X14640000Y-6270000D01*
X6840000Y-6270000D02*
X8643122Y-8073122D01*
X8922000Y-18254810D02*
X8920045Y-10254810D01*
X12553986Y-18249978D02*
X12550077Y-10249979D01*
X9987023Y-13265000D02*
G75*
G02*
X9727023Y-13265000I-130000J0D01*
G01*
X9727023Y-13265000D02*
G75*
G02*
X9987023Y-13265000I130000J0D01*
G01*
X14045000Y-5210000D02*
G75*
G02*
X13835000Y-5210000I-105000J0D01*
G01*
X13835000Y-5210000D02*
G75*
G02*
X14045000Y-5210000I105000J0D01*
G01*
X12856878Y-8093122D02*
X8643122Y-8073122D01*
X10061867Y-18994864D02*
X10039000Y-18994864D01*
X17740000Y-3610000D02*
G75*
G02*
X18840000Y-3610000I550000J0D01*
G01*
X10039000Y-18994864D02*
X9587636Y-18995000D01*
X9116023Y-19143881D02*
X9579000Y-19143873D01*
X9579000Y-19143873D02*
X9579000Y-18995000D01*
X12552986Y-18948858D02*
G75*
G02*
X12362796Y-19143877I-190186J-4772D01*
G01*
X18840000Y-3610000D02*
G75*
G02*
X18539959Y-4099919I-550000J0D01*
G01*
X12329000Y-19143881D02*
X12349704Y-19143881D01*
D11*
D12*
X9270000Y-18634000D02*
X9390000Y-18754000D01*
X9390000Y-18634000D02*
X9270000Y-18754000D01*
X9270000Y-18884000D02*
X9390000Y-19004000D01*
X9390000Y-18884000D02*
X9270000Y-19004000D01*
X9770000Y-18134000D02*
X9890000Y-18254000D01*
X9890000Y-18134000D02*
X9770000Y-18254000D01*
X10270000Y-18634000D02*
X10390000Y-18754000D01*
X10390000Y-18634000D02*
X10270000Y-18754000D01*
X10270000Y-18884000D02*
X10390000Y-19004000D01*
X10390000Y-18884000D02*
X10270000Y-19004000D01*
D13*
X9389523Y-10942000D02*
G75*
G02*
X9125523Y-10942000I-132000J0D01*
G01*
X9125523Y-10942000D02*
G75*
G02*
X9389523Y-10942000I132000J0D01*
G01*
X10588523Y-15590000D02*
G75*
G02*
X10324523Y-15590000I-132000J0D01*
G01*
X10324523Y-15590000D02*
G75*
G02*
X10588523Y-15590000I132000J0D01*
G01*
X11159023Y-10942000D02*
G75*
G02*
X10895023Y-10942000I-132000J0D01*
G01*
X10895023Y-10942000D02*
G75*
G02*
X11159023Y-10942000I132000J0D01*
G01*
X12358022Y-15590000D02*
G75*
G02*
X12094022Y-15590000I-132000J0D01*
G01*
X12094022Y-15590000D02*
G75*
G02*
X12358022Y-15590000I132000J0D01*
G01*
D11*
X2895777Y-19461135D02*
X2895777Y-19261135D01*
X2895777Y-19261135D02*
X2943396Y-19261135D01*
X2943396Y-19261135D02*
X2971967Y-19270659D01*
X2971967Y-19270659D02*
X2991015Y-19289707D01*
X2991015Y-19289707D02*
X3000539Y-19308754D01*
X3000539Y-19308754D02*
X3010062Y-19346850D01*
X3010062Y-19346850D02*
X3010062Y-19375421D01*
X3010062Y-19375421D02*
X3000539Y-19413516D01*
X3000539Y-19413516D02*
X2991015Y-19432564D01*
X2991015Y-19432564D02*
X2971967Y-19451612D01*
X2971967Y-19451612D02*
X2943396Y-19461135D01*
X2943396Y-19461135D02*
X2895777Y-19461135D01*
X3095777Y-19461135D02*
X3095777Y-19327802D01*
X3095777Y-19365897D02*
X3105301Y-19346850D01*
X3105301Y-19346850D02*
X3114824Y-19337326D01*
X3114824Y-19337326D02*
X3133872Y-19327802D01*
X3133872Y-19327802D02*
X3152920Y-19327802D01*
X3219586Y-19461135D02*
X3219586Y-19327802D01*
X3219586Y-19261135D02*
X3210062Y-19270659D01*
X3210062Y-19270659D02*
X3219586Y-19280183D01*
X3219586Y-19280183D02*
X3229110Y-19270659D01*
X3229110Y-19270659D02*
X3219586Y-19261135D01*
X3219586Y-19261135D02*
X3219586Y-19280183D01*
X3343396Y-19461135D02*
X3324348Y-19451612D01*
X3324348Y-19451612D02*
X3314824Y-19432564D01*
X3314824Y-19432564D02*
X3314824Y-19261135D01*
X3448158Y-19461135D02*
X3429110Y-19451612D01*
X3429110Y-19451612D02*
X3419586Y-19432564D01*
X3419586Y-19432564D02*
X3419586Y-19261135D01*
X3676729Y-19461135D02*
X3676729Y-19261135D01*
X3676729Y-19261135D02*
X3743396Y-19403993D01*
X3743396Y-19403993D02*
X3810062Y-19261135D01*
X3810062Y-19261135D02*
X3810062Y-19461135D01*
X3991015Y-19461135D02*
X3991015Y-19356374D01*
X3991015Y-19356374D02*
X3981491Y-19337326D01*
X3981491Y-19337326D02*
X3962443Y-19327802D01*
X3962443Y-19327802D02*
X3924348Y-19327802D01*
X3924348Y-19327802D02*
X3905301Y-19337326D01*
X3991015Y-19451612D02*
X3971967Y-19461135D01*
X3971967Y-19461135D02*
X3924348Y-19461135D01*
X3924348Y-19461135D02*
X3905301Y-19451612D01*
X3905301Y-19451612D02*
X3895777Y-19432564D01*
X3895777Y-19432564D02*
X3895777Y-19413516D01*
X3895777Y-19413516D02*
X3905301Y-19394469D01*
X3905301Y-19394469D02*
X3924348Y-19384945D01*
X3924348Y-19384945D02*
X3971967Y-19384945D01*
X3971967Y-19384945D02*
X3991015Y-19375421D01*
X4086253Y-19327802D02*
X4086253Y-19527802D01*
X4086253Y-19337326D02*
X4105301Y-19327802D01*
X4105301Y-19327802D02*
X4143396Y-19327802D01*
X4143396Y-19327802D02*
X4162443Y-19337326D01*
X4162443Y-19337326D02*
X4171967Y-19346850D01*
X4171967Y-19346850D02*
X4181491Y-19365897D01*
X4181491Y-19365897D02*
X4181491Y-19423040D01*
X4181491Y-19423040D02*
X4171967Y-19442088D01*
X4171967Y-19442088D02*
X4162443Y-19451612D01*
X4162443Y-19451612D02*
X4143396Y-19461135D01*
X4143396Y-19461135D02*
X4105301Y-19461135D01*
X4105301Y-19461135D02*
X4086253Y-19451612D01*
X4267205Y-19442088D02*
X4276729Y-19451612D01*
X4276729Y-19451612D02*
X4267205Y-19461135D01*
X4267205Y-19461135D02*
X4257682Y-19451612D01*
X4257682Y-19451612D02*
X4267205Y-19442088D01*
X4267205Y-19442088D02*
X4267205Y-19461135D01*
X4267205Y-19337326D02*
X4276729Y-19346850D01*
X4276729Y-19346850D02*
X4267205Y-19356374D01*
X4267205Y-19356374D02*
X4257682Y-19346850D01*
X4257682Y-19346850D02*
X4267205Y-19337326D01*
X4267205Y-19337326D02*
X4267205Y-19356374D01*
D12*
X2515000Y-19729652D02*
X2635000Y-19849652D01*
X2635000Y-19729652D02*
X2515000Y-19849652D01*
D11*
X3000539Y-19881135D02*
X2886253Y-19881135D01*
X2943396Y-19881135D02*
X2943396Y-19681135D01*
X2943396Y-19681135D02*
X2924348Y-19709707D01*
X2924348Y-19709707D02*
X2905301Y-19728754D01*
X2905301Y-19728754D02*
X2886253Y-19738278D01*
X3086253Y-19862088D02*
X3095777Y-19871612D01*
X3095777Y-19871612D02*
X3086253Y-19881135D01*
X3086253Y-19881135D02*
X3076729Y-19871612D01*
X3076729Y-19871612D02*
X3086253Y-19862088D01*
X3086253Y-19862088D02*
X3086253Y-19881135D01*
X3171967Y-19700183D02*
X3181491Y-19690659D01*
X3181491Y-19690659D02*
X3200539Y-19681135D01*
X3200539Y-19681135D02*
X3248158Y-19681135D01*
X3248158Y-19681135D02*
X3267205Y-19690659D01*
X3267205Y-19690659D02*
X3276729Y-19700183D01*
X3276729Y-19700183D02*
X3286253Y-19719231D01*
X3286253Y-19719231D02*
X3286253Y-19738278D01*
X3286253Y-19738278D02*
X3276729Y-19766850D01*
X3276729Y-19766850D02*
X3162443Y-19881135D01*
X3162443Y-19881135D02*
X3286253Y-19881135D01*
X3410062Y-19681135D02*
X3429110Y-19681135D01*
X3429110Y-19681135D02*
X3448158Y-19690659D01*
X3448158Y-19690659D02*
X3457682Y-19700183D01*
X3457682Y-19700183D02*
X3467205Y-19719231D01*
X3467205Y-19719231D02*
X3476729Y-19757326D01*
X3476729Y-19757326D02*
X3476729Y-19804945D01*
X3476729Y-19804945D02*
X3467205Y-19843040D01*
X3467205Y-19843040D02*
X3457682Y-19862088D01*
X3457682Y-19862088D02*
X3448158Y-19871612D01*
X3448158Y-19871612D02*
X3429110Y-19881135D01*
X3429110Y-19881135D02*
X3410062Y-19881135D01*
X3410062Y-19881135D02*
X3391015Y-19871612D01*
X3391015Y-19871612D02*
X3381491Y-19862088D01*
X3381491Y-19862088D02*
X3371967Y-19843040D01*
X3371967Y-19843040D02*
X3362443Y-19804945D01*
X3362443Y-19804945D02*
X3362443Y-19757326D01*
X3362443Y-19757326D02*
X3371967Y-19719231D01*
X3371967Y-19719231D02*
X3381491Y-19700183D01*
X3381491Y-19700183D02*
X3391015Y-19690659D01*
X3391015Y-19690659D02*
X3410062Y-19681135D01*
X3600539Y-19681135D02*
X3619586Y-19681135D01*
X3619586Y-19681135D02*
X3638634Y-19690659D01*
X3638634Y-19690659D02*
X3648158Y-19700183D01*
X3648158Y-19700183D02*
X3657682Y-19719231D01*
X3657682Y-19719231D02*
X3667205Y-19757326D01*
X3667205Y-19757326D02*
X3667205Y-19804945D01*
X3667205Y-19804945D02*
X3657682Y-19843040D01*
X3657682Y-19843040D02*
X3648158Y-19862088D01*
X3648158Y-19862088D02*
X3638634Y-19871612D01*
X3638634Y-19871612D02*
X3619586Y-19881135D01*
X3619586Y-19881135D02*
X3600539Y-19881135D01*
X3600539Y-19881135D02*
X3581491Y-19871612D01*
X3581491Y-19871612D02*
X3571967Y-19862088D01*
X3571967Y-19862088D02*
X3562443Y-19843040D01*
X3562443Y-19843040D02*
X3552920Y-19804945D01*
X3552920Y-19804945D02*
X3552920Y-19757326D01*
X3552920Y-19757326D02*
X3562443Y-19719231D01*
X3562443Y-19719231D02*
X3571967Y-19700183D01*
X3571967Y-19700183D02*
X3581491Y-19690659D01*
X3581491Y-19690659D02*
X3600539Y-19681135D01*
X3752920Y-19881135D02*
X3752920Y-19747802D01*
X3752920Y-19766850D02*
X3762443Y-19757326D01*
X3762443Y-19757326D02*
X3781491Y-19747802D01*
X3781491Y-19747802D02*
X3810063Y-19747802D01*
X3810063Y-19747802D02*
X3829110Y-19757326D01*
X3829110Y-19757326D02*
X3838634Y-19776374D01*
X3838634Y-19776374D02*
X3838634Y-19881135D01*
X3838634Y-19776374D02*
X3848158Y-19757326D01*
X3848158Y-19757326D02*
X3867205Y-19747802D01*
X3867205Y-19747802D02*
X3895777Y-19747802D01*
X3895777Y-19747802D02*
X3914824Y-19757326D01*
X3914824Y-19757326D02*
X3924348Y-19776374D01*
X3924348Y-19776374D02*
X3924348Y-19881135D01*
X4019586Y-19881135D02*
X4019586Y-19747802D01*
X4019586Y-19766850D02*
X4029110Y-19757326D01*
X4029110Y-19757326D02*
X4048158Y-19747802D01*
X4048158Y-19747802D02*
X4076729Y-19747802D01*
X4076729Y-19747802D02*
X4095777Y-19757326D01*
X4095777Y-19757326D02*
X4105301Y-19776374D01*
X4105301Y-19776374D02*
X4105301Y-19881135D01*
X4105301Y-19776374D02*
X4114824Y-19757326D01*
X4114824Y-19757326D02*
X4133872Y-19747802D01*
X4133872Y-19747802D02*
X4162443Y-19747802D01*
X4162443Y-19747802D02*
X4181491Y-19757326D01*
X4181491Y-19757326D02*
X4191015Y-19776374D01*
X4191015Y-19776374D02*
X4191015Y-19881135D01*
X4581491Y-19671612D02*
X4410063Y-19928754D01*
X4838634Y-19681135D02*
X4857682Y-19681135D01*
X4857682Y-19681135D02*
X4876729Y-19690659D01*
X4876729Y-19690659D02*
X4886253Y-19700183D01*
X4886253Y-19700183D02*
X4895777Y-19719231D01*
X4895777Y-19719231D02*
X4905301Y-19757326D01*
X4905301Y-19757326D02*
X4905301Y-19804945D01*
X4905301Y-19804945D02*
X4895777Y-19843040D01*
X4895777Y-19843040D02*
X4886253Y-19862088D01*
X4886253Y-19862088D02*
X4876729Y-19871612D01*
X4876729Y-19871612D02*
X4857682Y-19881135D01*
X4857682Y-19881135D02*
X4838634Y-19881135D01*
X4838634Y-19881135D02*
X4819587Y-19871612D01*
X4819587Y-19871612D02*
X4810063Y-19862088D01*
X4810063Y-19862088D02*
X4800539Y-19843040D01*
X4800539Y-19843040D02*
X4791015Y-19804945D01*
X4791015Y-19804945D02*
X4791015Y-19757326D01*
X4791015Y-19757326D02*
X4800539Y-19719231D01*
X4800539Y-19719231D02*
X4810063Y-19700183D01*
X4810063Y-19700183D02*
X4819587Y-19690659D01*
X4819587Y-19690659D02*
X4838634Y-19681135D01*
X4991015Y-19862088D02*
X5000539Y-19871612D01*
X5000539Y-19871612D02*
X4991015Y-19881135D01*
X4991015Y-19881135D02*
X4981491Y-19871612D01*
X4981491Y-19871612D02*
X4991015Y-19862088D01*
X4991015Y-19862088D02*
X4991015Y-19881135D01*
X5124348Y-19681135D02*
X5143396Y-19681135D01*
X5143396Y-19681135D02*
X5162444Y-19690659D01*
X5162444Y-19690659D02*
X5171968Y-19700183D01*
X5171968Y-19700183D02*
X5181491Y-19719231D01*
X5181491Y-19719231D02*
X5191015Y-19757326D01*
X5191015Y-19757326D02*
X5191015Y-19804945D01*
X5191015Y-19804945D02*
X5181491Y-19843040D01*
X5181491Y-19843040D02*
X5171968Y-19862088D01*
X5171968Y-19862088D02*
X5162444Y-19871612D01*
X5162444Y-19871612D02*
X5143396Y-19881135D01*
X5143396Y-19881135D02*
X5124348Y-19881135D01*
X5124348Y-19881135D02*
X5105301Y-19871612D01*
X5105301Y-19871612D02*
X5095777Y-19862088D01*
X5095777Y-19862088D02*
X5086253Y-19843040D01*
X5086253Y-19843040D02*
X5076729Y-19804945D01*
X5076729Y-19804945D02*
X5076729Y-19757326D01*
X5076729Y-19757326D02*
X5086253Y-19719231D01*
X5086253Y-19719231D02*
X5095777Y-19700183D01*
X5095777Y-19700183D02*
X5105301Y-19690659D01*
X5105301Y-19690659D02*
X5124348Y-19681135D01*
X5362444Y-19747802D02*
X5362444Y-19881135D01*
X5314825Y-19671612D02*
X5267206Y-19814469D01*
X5267206Y-19814469D02*
X5391015Y-19814469D01*
X5448158Y-19681135D02*
X5581491Y-19681135D01*
X5581491Y-19681135D02*
X5495777Y-19881135D01*
X5648158Y-19700183D02*
X5657682Y-19690659D01*
X5657682Y-19690659D02*
X5676729Y-19681135D01*
X5676729Y-19681135D02*
X5724348Y-19681135D01*
X5724348Y-19681135D02*
X5743396Y-19690659D01*
X5743396Y-19690659D02*
X5752920Y-19700183D01*
X5752920Y-19700183D02*
X5762444Y-19719231D01*
X5762444Y-19719231D02*
X5762444Y-19738278D01*
X5762444Y-19738278D02*
X5752920Y-19766850D01*
X5752920Y-19766850D02*
X5638634Y-19881135D01*
X5638634Y-19881135D02*
X5762444Y-19881135D01*
X5838634Y-19681135D02*
X5838634Y-19719231D01*
X5914825Y-19681135D02*
X5914825Y-19719231D01*
X6210063Y-19957326D02*
X6200539Y-19947802D01*
X6200539Y-19947802D02*
X6181491Y-19919231D01*
X6181491Y-19919231D02*
X6171968Y-19900183D01*
X6171968Y-19900183D02*
X6162444Y-19871612D01*
X6162444Y-19871612D02*
X6152920Y-19823993D01*
X6152920Y-19823993D02*
X6152920Y-19785897D01*
X6152920Y-19785897D02*
X6162444Y-19738278D01*
X6162444Y-19738278D02*
X6171968Y-19709707D01*
X6171968Y-19709707D02*
X6181491Y-19690659D01*
X6181491Y-19690659D02*
X6200539Y-19662088D01*
X6200539Y-19662088D02*
X6210063Y-19652564D01*
X6381491Y-19681135D02*
X6286253Y-19681135D01*
X6286253Y-19681135D02*
X6276729Y-19776374D01*
X6276729Y-19776374D02*
X6286253Y-19766850D01*
X6286253Y-19766850D02*
X6305301Y-19757326D01*
X6305301Y-19757326D02*
X6352920Y-19757326D01*
X6352920Y-19757326D02*
X6371968Y-19766850D01*
X6371968Y-19766850D02*
X6381491Y-19776374D01*
X6381491Y-19776374D02*
X6391015Y-19795421D01*
X6391015Y-19795421D02*
X6391015Y-19843040D01*
X6391015Y-19843040D02*
X6381491Y-19862088D01*
X6381491Y-19862088D02*
X6371968Y-19871612D01*
X6371968Y-19871612D02*
X6352920Y-19881135D01*
X6352920Y-19881135D02*
X6305301Y-19881135D01*
X6305301Y-19881135D02*
X6286253Y-19871612D01*
X6286253Y-19871612D02*
X6276729Y-19862088D01*
X6629110Y-19881135D02*
X6629110Y-19681135D01*
X6714825Y-19881135D02*
X6714825Y-19776374D01*
X6714825Y-19776374D02*
X6705301Y-19757326D01*
X6705301Y-19757326D02*
X6686253Y-19747802D01*
X6686253Y-19747802D02*
X6657682Y-19747802D01*
X6657682Y-19747802D02*
X6638634Y-19757326D01*
X6638634Y-19757326D02*
X6629110Y-19766850D01*
X6838634Y-19881135D02*
X6819587Y-19871612D01*
X6819587Y-19871612D02*
X6810063Y-19862088D01*
X6810063Y-19862088D02*
X6800539Y-19843040D01*
X6800539Y-19843040D02*
X6800539Y-19785897D01*
X6800539Y-19785897D02*
X6810063Y-19766850D01*
X6810063Y-19766850D02*
X6819587Y-19757326D01*
X6819587Y-19757326D02*
X6838634Y-19747802D01*
X6838634Y-19747802D02*
X6867206Y-19747802D01*
X6867206Y-19747802D02*
X6886253Y-19757326D01*
X6886253Y-19757326D02*
X6895777Y-19766850D01*
X6895777Y-19766850D02*
X6905301Y-19785897D01*
X6905301Y-19785897D02*
X6905301Y-19843040D01*
X6905301Y-19843040D02*
X6895777Y-19862088D01*
X6895777Y-19862088D02*
X6886253Y-19871612D01*
X6886253Y-19871612D02*
X6867206Y-19881135D01*
X6867206Y-19881135D02*
X6838634Y-19881135D01*
X7019587Y-19881135D02*
X7000539Y-19871612D01*
X7000539Y-19871612D02*
X6991015Y-19852564D01*
X6991015Y-19852564D02*
X6991015Y-19681135D01*
X7171968Y-19871612D02*
X7152920Y-19881135D01*
X7152920Y-19881135D02*
X7114825Y-19881135D01*
X7114825Y-19881135D02*
X7095777Y-19871612D01*
X7095777Y-19871612D02*
X7086253Y-19852564D01*
X7086253Y-19852564D02*
X7086253Y-19776374D01*
X7086253Y-19776374D02*
X7095777Y-19757326D01*
X7095777Y-19757326D02*
X7114825Y-19747802D01*
X7114825Y-19747802D02*
X7152920Y-19747802D01*
X7152920Y-19747802D02*
X7171968Y-19757326D01*
X7171968Y-19757326D02*
X7181491Y-19776374D01*
X7181491Y-19776374D02*
X7181491Y-19795421D01*
X7181491Y-19795421D02*
X7086253Y-19814469D01*
X7257682Y-19871612D02*
X7276730Y-19881135D01*
X7276730Y-19881135D02*
X7314825Y-19881135D01*
X7314825Y-19881135D02*
X7333872Y-19871612D01*
X7333872Y-19871612D02*
X7343396Y-19852564D01*
X7343396Y-19852564D02*
X7343396Y-19843040D01*
X7343396Y-19843040D02*
X7333872Y-19823993D01*
X7333872Y-19823993D02*
X7314825Y-19814469D01*
X7314825Y-19814469D02*
X7286253Y-19814469D01*
X7286253Y-19814469D02*
X7267206Y-19804945D01*
X7267206Y-19804945D02*
X7257682Y-19785897D01*
X7257682Y-19785897D02*
X7257682Y-19776374D01*
X7257682Y-19776374D02*
X7267206Y-19757326D01*
X7267206Y-19757326D02*
X7286253Y-19747802D01*
X7286253Y-19747802D02*
X7314825Y-19747802D01*
X7314825Y-19747802D02*
X7333872Y-19757326D01*
X7410063Y-19957326D02*
X7419587Y-19947802D01*
X7419587Y-19947802D02*
X7438634Y-19919231D01*
X7438634Y-19919231D02*
X7448158Y-19900183D01*
X7448158Y-19900183D02*
X7457682Y-19871612D01*
X7457682Y-19871612D02*
X7467206Y-19823993D01*
X7467206Y-19823993D02*
X7467206Y-19785897D01*
X7467206Y-19785897D02*
X7457682Y-19738278D01*
X7457682Y-19738278D02*
X7448158Y-19709707D01*
X7448158Y-19709707D02*
X7438634Y-19690659D01*
X7438634Y-19690659D02*
X7419587Y-19662088D01*
X7419587Y-19662088D02*
X7410063Y-19652564D01*
X7771968Y-19957326D02*
X7762444Y-19947802D01*
X7762444Y-19947802D02*
X7743396Y-19919231D01*
X7743396Y-19919231D02*
X7733872Y-19900183D01*
X7733872Y-19900183D02*
X7724349Y-19871612D01*
X7724349Y-19871612D02*
X7714825Y-19823993D01*
X7714825Y-19823993D02*
X7714825Y-19785897D01*
X7714825Y-19785897D02*
X7724349Y-19738278D01*
X7724349Y-19738278D02*
X7733872Y-19709707D01*
X7733872Y-19709707D02*
X7743396Y-19690659D01*
X7743396Y-19690659D02*
X7762444Y-19662088D01*
X7762444Y-19662088D02*
X7771968Y-19652564D01*
X7848158Y-19747802D02*
X7848158Y-19881135D01*
X7848158Y-19766850D02*
X7857682Y-19757326D01*
X7857682Y-19757326D02*
X7876730Y-19747802D01*
X7876730Y-19747802D02*
X7905301Y-19747802D01*
X7905301Y-19747802D02*
X7924349Y-19757326D01*
X7924349Y-19757326D02*
X7933872Y-19776374D01*
X7933872Y-19776374D02*
X7933872Y-19881135D01*
X8057682Y-19881135D02*
X8038634Y-19871612D01*
X8038634Y-19871612D02*
X8029111Y-19862088D01*
X8029111Y-19862088D02*
X8019587Y-19843040D01*
X8019587Y-19843040D02*
X8019587Y-19785897D01*
X8019587Y-19785897D02*
X8029111Y-19766850D01*
X8029111Y-19766850D02*
X8038634Y-19757326D01*
X8038634Y-19757326D02*
X8057682Y-19747802D01*
X8057682Y-19747802D02*
X8086253Y-19747802D01*
X8086253Y-19747802D02*
X8105301Y-19757326D01*
X8105301Y-19757326D02*
X8114825Y-19766850D01*
X8114825Y-19766850D02*
X8124349Y-19785897D01*
X8124349Y-19785897D02*
X8124349Y-19843040D01*
X8124349Y-19843040D02*
X8114825Y-19862088D01*
X8114825Y-19862088D02*
X8105301Y-19871612D01*
X8105301Y-19871612D02*
X8086253Y-19881135D01*
X8086253Y-19881135D02*
X8057682Y-19881135D01*
X8181492Y-19747802D02*
X8257682Y-19747802D01*
X8210063Y-19681135D02*
X8210063Y-19852564D01*
X8210063Y-19852564D02*
X8219587Y-19871612D01*
X8219587Y-19871612D02*
X8238634Y-19881135D01*
X8238634Y-19881135D02*
X8257682Y-19881135D01*
X8476730Y-19747802D02*
X8476730Y-19947802D01*
X8476730Y-19757326D02*
X8495777Y-19747802D01*
X8495777Y-19747802D02*
X8533873Y-19747802D01*
X8533873Y-19747802D02*
X8552920Y-19757326D01*
X8552920Y-19757326D02*
X8562444Y-19766850D01*
X8562444Y-19766850D02*
X8571968Y-19785897D01*
X8571968Y-19785897D02*
X8571968Y-19843040D01*
X8571968Y-19843040D02*
X8562444Y-19862088D01*
X8562444Y-19862088D02*
X8552920Y-19871612D01*
X8552920Y-19871612D02*
X8533873Y-19881135D01*
X8533873Y-19881135D02*
X8495777Y-19881135D01*
X8495777Y-19881135D02*
X8476730Y-19871612D01*
X8686254Y-19881135D02*
X8667206Y-19871612D01*
X8667206Y-19871612D02*
X8657682Y-19852564D01*
X8657682Y-19852564D02*
X8657682Y-19681135D01*
X8848158Y-19881135D02*
X8848158Y-19776374D01*
X8848158Y-19776374D02*
X8838635Y-19757326D01*
X8838635Y-19757326D02*
X8819587Y-19747802D01*
X8819587Y-19747802D02*
X8781492Y-19747802D01*
X8781492Y-19747802D02*
X8762444Y-19757326D01*
X8848158Y-19871612D02*
X8829111Y-19881135D01*
X8829111Y-19881135D02*
X8781492Y-19881135D01*
X8781492Y-19881135D02*
X8762444Y-19871612D01*
X8762444Y-19871612D02*
X8752920Y-19852564D01*
X8752920Y-19852564D02*
X8752920Y-19833516D01*
X8752920Y-19833516D02*
X8762444Y-19814469D01*
X8762444Y-19814469D02*
X8781492Y-19804945D01*
X8781492Y-19804945D02*
X8829111Y-19804945D01*
X8829111Y-19804945D02*
X8848158Y-19795421D01*
X8914825Y-19747802D02*
X8991015Y-19747802D01*
X8943396Y-19681135D02*
X8943396Y-19852564D01*
X8943396Y-19852564D02*
X8952920Y-19871612D01*
X8952920Y-19871612D02*
X8971968Y-19881135D01*
X8971968Y-19881135D02*
X8991015Y-19881135D01*
X9133873Y-19871612D02*
X9114825Y-19881135D01*
X9114825Y-19881135D02*
X9076730Y-19881135D01*
X9076730Y-19881135D02*
X9057682Y-19871612D01*
X9057682Y-19871612D02*
X9048158Y-19852564D01*
X9048158Y-19852564D02*
X9048158Y-19776374D01*
X9048158Y-19776374D02*
X9057682Y-19757326D01*
X9057682Y-19757326D02*
X9076730Y-19747802D01*
X9076730Y-19747802D02*
X9114825Y-19747802D01*
X9114825Y-19747802D02*
X9133873Y-19757326D01*
X9133873Y-19757326D02*
X9143396Y-19776374D01*
X9143396Y-19776374D02*
X9143396Y-19795421D01*
X9143396Y-19795421D02*
X9048158Y-19814469D01*
X9314825Y-19881135D02*
X9314825Y-19681135D01*
X9314825Y-19871612D02*
X9295777Y-19881135D01*
X9295777Y-19881135D02*
X9257682Y-19881135D01*
X9257682Y-19881135D02*
X9238635Y-19871612D01*
X9238635Y-19871612D02*
X9229111Y-19862088D01*
X9229111Y-19862088D02*
X9219587Y-19843040D01*
X9219587Y-19843040D02*
X9219587Y-19785897D01*
X9219587Y-19785897D02*
X9229111Y-19766850D01*
X9229111Y-19766850D02*
X9238635Y-19757326D01*
X9238635Y-19757326D02*
X9257682Y-19747802D01*
X9257682Y-19747802D02*
X9295777Y-19747802D01*
X9295777Y-19747802D02*
X9314825Y-19757326D01*
X9391016Y-19957326D02*
X9400539Y-19947802D01*
X9400539Y-19947802D02*
X9419587Y-19919231D01*
X9419587Y-19919231D02*
X9429111Y-19900183D01*
X9429111Y-19900183D02*
X9438635Y-19871612D01*
X9438635Y-19871612D02*
X9448158Y-19823993D01*
X9448158Y-19823993D02*
X9448158Y-19785897D01*
X9448158Y-19785897D02*
X9438635Y-19738278D01*
X9438635Y-19738278D02*
X9429111Y-19709707D01*
X9429111Y-19709707D02*
X9419587Y-19690659D01*
X9419587Y-19690659D02*
X9400539Y-19662088D01*
X9400539Y-19662088D02*
X9391016Y-19652564D01*
X2635000Y-20053652D02*
G75*
G02*
X2435000Y-20053652I-100000J0D01*
G01*
X2435000Y-20053652D02*
G75*
G02*
X2635000Y-20053652I100000J0D01*
G01*
X2886253Y-19964183D02*
X2895777Y-19954659D01*
X2895777Y-19954659D02*
X2914824Y-19945135D01*
X2914824Y-19945135D02*
X2962443Y-19945135D01*
X2962443Y-19945135D02*
X2981491Y-19954659D01*
X2981491Y-19954659D02*
X2991015Y-19964183D01*
X2991015Y-19964183D02*
X3000539Y-19983231D01*
X3000539Y-19983231D02*
X3000539Y-20002278D01*
X3000539Y-20002278D02*
X2991015Y-20030850D01*
X2991015Y-20030850D02*
X2876729Y-20145135D01*
X2876729Y-20145135D02*
X3000539Y-20145135D01*
X3086253Y-20126088D02*
X3095777Y-20135612D01*
X3095777Y-20135612D02*
X3086253Y-20145135D01*
X3086253Y-20145135D02*
X3076729Y-20135612D01*
X3076729Y-20135612D02*
X3086253Y-20126088D01*
X3086253Y-20126088D02*
X3086253Y-20145135D01*
X3267205Y-19945135D02*
X3229110Y-19945135D01*
X3229110Y-19945135D02*
X3210062Y-19954659D01*
X3210062Y-19954659D02*
X3200539Y-19964183D01*
X3200539Y-19964183D02*
X3181491Y-19992754D01*
X3181491Y-19992754D02*
X3171967Y-20030850D01*
X3171967Y-20030850D02*
X3171967Y-20107040D01*
X3171967Y-20107040D02*
X3181491Y-20126088D01*
X3181491Y-20126088D02*
X3191015Y-20135612D01*
X3191015Y-20135612D02*
X3210062Y-20145135D01*
X3210062Y-20145135D02*
X3248158Y-20145135D01*
X3248158Y-20145135D02*
X3267205Y-20135612D01*
X3267205Y-20135612D02*
X3276729Y-20126088D01*
X3276729Y-20126088D02*
X3286253Y-20107040D01*
X3286253Y-20107040D02*
X3286253Y-20059421D01*
X3286253Y-20059421D02*
X3276729Y-20040374D01*
X3276729Y-20040374D02*
X3267205Y-20030850D01*
X3267205Y-20030850D02*
X3248158Y-20021326D01*
X3248158Y-20021326D02*
X3210062Y-20021326D01*
X3210062Y-20021326D02*
X3191015Y-20030850D01*
X3191015Y-20030850D02*
X3181491Y-20040374D01*
X3181491Y-20040374D02*
X3171967Y-20059421D01*
X3457682Y-20011802D02*
X3457682Y-20145135D01*
X3410062Y-19935612D02*
X3362443Y-20078469D01*
X3362443Y-20078469D02*
X3486253Y-20078469D01*
X3600539Y-19945135D02*
X3619586Y-19945135D01*
X3619586Y-19945135D02*
X3638634Y-19954659D01*
X3638634Y-19954659D02*
X3648158Y-19964183D01*
X3648158Y-19964183D02*
X3657682Y-19983231D01*
X3657682Y-19983231D02*
X3667205Y-20021326D01*
X3667205Y-20021326D02*
X3667205Y-20068945D01*
X3667205Y-20068945D02*
X3657682Y-20107040D01*
X3657682Y-20107040D02*
X3648158Y-20126088D01*
X3648158Y-20126088D02*
X3638634Y-20135612D01*
X3638634Y-20135612D02*
X3619586Y-20145135D01*
X3619586Y-20145135D02*
X3600539Y-20145135D01*
X3600539Y-20145135D02*
X3581491Y-20135612D01*
X3581491Y-20135612D02*
X3571967Y-20126088D01*
X3571967Y-20126088D02*
X3562443Y-20107040D01*
X3562443Y-20107040D02*
X3552920Y-20068945D01*
X3552920Y-20068945D02*
X3552920Y-20021326D01*
X3552920Y-20021326D02*
X3562443Y-19983231D01*
X3562443Y-19983231D02*
X3571967Y-19964183D01*
X3571967Y-19964183D02*
X3581491Y-19954659D01*
X3581491Y-19954659D02*
X3600539Y-19945135D01*
X3752920Y-20145135D02*
X3752920Y-20011802D01*
X3752920Y-20030850D02*
X3762443Y-20021326D01*
X3762443Y-20021326D02*
X3781491Y-20011802D01*
X3781491Y-20011802D02*
X3810063Y-20011802D01*
X3810063Y-20011802D02*
X3829110Y-20021326D01*
X3829110Y-20021326D02*
X3838634Y-20040374D01*
X3838634Y-20040374D02*
X3838634Y-20145135D01*
X3838634Y-20040374D02*
X3848158Y-20021326D01*
X3848158Y-20021326D02*
X3867205Y-20011802D01*
X3867205Y-20011802D02*
X3895777Y-20011802D01*
X3895777Y-20011802D02*
X3914824Y-20021326D01*
X3914824Y-20021326D02*
X3924348Y-20040374D01*
X3924348Y-20040374D02*
X3924348Y-20145135D01*
X4019586Y-20145135D02*
X4019586Y-20011802D01*
X4019586Y-20030850D02*
X4029110Y-20021326D01*
X4029110Y-20021326D02*
X4048158Y-20011802D01*
X4048158Y-20011802D02*
X4076729Y-20011802D01*
X4076729Y-20011802D02*
X4095777Y-20021326D01*
X4095777Y-20021326D02*
X4105301Y-20040374D01*
X4105301Y-20040374D02*
X4105301Y-20145135D01*
X4105301Y-20040374D02*
X4114824Y-20021326D01*
X4114824Y-20021326D02*
X4133872Y-20011802D01*
X4133872Y-20011802D02*
X4162443Y-20011802D01*
X4162443Y-20011802D02*
X4181491Y-20021326D01*
X4181491Y-20021326D02*
X4191015Y-20040374D01*
X4191015Y-20040374D02*
X4191015Y-20145135D01*
X4581491Y-19935612D02*
X4410063Y-20192754D01*
X4838634Y-19945135D02*
X4857682Y-19945135D01*
X4857682Y-19945135D02*
X4876729Y-19954659D01*
X4876729Y-19954659D02*
X4886253Y-19964183D01*
X4886253Y-19964183D02*
X4895777Y-19983231D01*
X4895777Y-19983231D02*
X4905301Y-20021326D01*
X4905301Y-20021326D02*
X4905301Y-20068945D01*
X4905301Y-20068945D02*
X4895777Y-20107040D01*
X4895777Y-20107040D02*
X4886253Y-20126088D01*
X4886253Y-20126088D02*
X4876729Y-20135612D01*
X4876729Y-20135612D02*
X4857682Y-20145135D01*
X4857682Y-20145135D02*
X4838634Y-20145135D01*
X4838634Y-20145135D02*
X4819587Y-20135612D01*
X4819587Y-20135612D02*
X4810063Y-20126088D01*
X4810063Y-20126088D02*
X4800539Y-20107040D01*
X4800539Y-20107040D02*
X4791015Y-20068945D01*
X4791015Y-20068945D02*
X4791015Y-20021326D01*
X4791015Y-20021326D02*
X4800539Y-19983231D01*
X4800539Y-19983231D02*
X4810063Y-19964183D01*
X4810063Y-19964183D02*
X4819587Y-19954659D01*
X4819587Y-19954659D02*
X4838634Y-19945135D01*
X4991015Y-20126088D02*
X5000539Y-20135612D01*
X5000539Y-20135612D02*
X4991015Y-20145135D01*
X4991015Y-20145135D02*
X4981491Y-20135612D01*
X4981491Y-20135612D02*
X4991015Y-20126088D01*
X4991015Y-20126088D02*
X4991015Y-20145135D01*
X5191015Y-20145135D02*
X5076729Y-20145135D01*
X5133872Y-20145135D02*
X5133872Y-19945135D01*
X5133872Y-19945135D02*
X5114825Y-19973707D01*
X5114825Y-19973707D02*
X5095777Y-19992754D01*
X5095777Y-19992754D02*
X5076729Y-20002278D01*
X5314825Y-19945135D02*
X5333872Y-19945135D01*
X5333872Y-19945135D02*
X5352920Y-19954659D01*
X5352920Y-19954659D02*
X5362444Y-19964183D01*
X5362444Y-19964183D02*
X5371968Y-19983231D01*
X5371968Y-19983231D02*
X5381491Y-20021326D01*
X5381491Y-20021326D02*
X5381491Y-20068945D01*
X5381491Y-20068945D02*
X5371968Y-20107040D01*
X5371968Y-20107040D02*
X5362444Y-20126088D01*
X5362444Y-20126088D02*
X5352920Y-20135612D01*
X5352920Y-20135612D02*
X5333872Y-20145135D01*
X5333872Y-20145135D02*
X5314825Y-20145135D01*
X5314825Y-20145135D02*
X5295777Y-20135612D01*
X5295777Y-20135612D02*
X5286253Y-20126088D01*
X5286253Y-20126088D02*
X5276729Y-20107040D01*
X5276729Y-20107040D02*
X5267206Y-20068945D01*
X5267206Y-20068945D02*
X5267206Y-20021326D01*
X5267206Y-20021326D02*
X5276729Y-19983231D01*
X5276729Y-19983231D02*
X5286253Y-19964183D01*
X5286253Y-19964183D02*
X5295777Y-19954659D01*
X5295777Y-19954659D02*
X5314825Y-19945135D01*
X5448158Y-19945135D02*
X5571968Y-19945135D01*
X5571968Y-19945135D02*
X5505301Y-20021326D01*
X5505301Y-20021326D02*
X5533872Y-20021326D01*
X5533872Y-20021326D02*
X5552920Y-20030850D01*
X5552920Y-20030850D02*
X5562444Y-20040374D01*
X5562444Y-20040374D02*
X5571968Y-20059421D01*
X5571968Y-20059421D02*
X5571968Y-20107040D01*
X5571968Y-20107040D02*
X5562444Y-20126088D01*
X5562444Y-20126088D02*
X5552920Y-20135612D01*
X5552920Y-20135612D02*
X5533872Y-20145135D01*
X5533872Y-20145135D02*
X5476729Y-20145135D01*
X5476729Y-20145135D02*
X5457682Y-20135612D01*
X5457682Y-20135612D02*
X5448158Y-20126088D01*
X5667206Y-20145135D02*
X5705301Y-20145135D01*
X5705301Y-20145135D02*
X5724348Y-20135612D01*
X5724348Y-20135612D02*
X5733872Y-20126088D01*
X5733872Y-20126088D02*
X5752920Y-20097516D01*
X5752920Y-20097516D02*
X5762444Y-20059421D01*
X5762444Y-20059421D02*
X5762444Y-19983231D01*
X5762444Y-19983231D02*
X5752920Y-19964183D01*
X5752920Y-19964183D02*
X5743396Y-19954659D01*
X5743396Y-19954659D02*
X5724348Y-19945135D01*
X5724348Y-19945135D02*
X5686253Y-19945135D01*
X5686253Y-19945135D02*
X5667206Y-19954659D01*
X5667206Y-19954659D02*
X5657682Y-19964183D01*
X5657682Y-19964183D02*
X5648158Y-19983231D01*
X5648158Y-19983231D02*
X5648158Y-20030850D01*
X5648158Y-20030850D02*
X5657682Y-20049897D01*
X5657682Y-20049897D02*
X5667206Y-20059421D01*
X5667206Y-20059421D02*
X5686253Y-20068945D01*
X5686253Y-20068945D02*
X5724348Y-20068945D01*
X5724348Y-20068945D02*
X5743396Y-20059421D01*
X5743396Y-20059421D02*
X5752920Y-20049897D01*
X5752920Y-20049897D02*
X5762444Y-20030850D01*
X5838634Y-19945135D02*
X5838634Y-19983231D01*
X5914825Y-19945135D02*
X5914825Y-19983231D01*
X6210063Y-20221326D02*
X6200539Y-20211802D01*
X6200539Y-20211802D02*
X6181491Y-20183231D01*
X6181491Y-20183231D02*
X6171968Y-20164183D01*
X6171968Y-20164183D02*
X6162444Y-20135612D01*
X6162444Y-20135612D02*
X6152920Y-20087993D01*
X6152920Y-20087993D02*
X6152920Y-20049897D01*
X6152920Y-20049897D02*
X6162444Y-20002278D01*
X6162444Y-20002278D02*
X6171968Y-19973707D01*
X6171968Y-19973707D02*
X6181491Y-19954659D01*
X6181491Y-19954659D02*
X6200539Y-19926088D01*
X6200539Y-19926088D02*
X6210063Y-19916564D01*
X6371968Y-20011802D02*
X6371968Y-20145135D01*
X6324348Y-19935612D02*
X6276729Y-20078469D01*
X6276729Y-20078469D02*
X6400539Y-20078469D01*
X6629110Y-20145135D02*
X6629110Y-19945135D01*
X6714825Y-20145135D02*
X6714825Y-20040374D01*
X6714825Y-20040374D02*
X6705301Y-20021326D01*
X6705301Y-20021326D02*
X6686253Y-20011802D01*
X6686253Y-20011802D02*
X6657682Y-20011802D01*
X6657682Y-20011802D02*
X6638634Y-20021326D01*
X6638634Y-20021326D02*
X6629110Y-20030850D01*
X6838634Y-20145135D02*
X6819587Y-20135612D01*
X6819587Y-20135612D02*
X6810063Y-20126088D01*
X6810063Y-20126088D02*
X6800539Y-20107040D01*
X6800539Y-20107040D02*
X6800539Y-20049897D01*
X6800539Y-20049897D02*
X6810063Y-20030850D01*
X6810063Y-20030850D02*
X6819587Y-20021326D01*
X6819587Y-20021326D02*
X6838634Y-20011802D01*
X6838634Y-20011802D02*
X6867206Y-20011802D01*
X6867206Y-20011802D02*
X6886253Y-20021326D01*
X6886253Y-20021326D02*
X6895777Y-20030850D01*
X6895777Y-20030850D02*
X6905301Y-20049897D01*
X6905301Y-20049897D02*
X6905301Y-20107040D01*
X6905301Y-20107040D02*
X6895777Y-20126088D01*
X6895777Y-20126088D02*
X6886253Y-20135612D01*
X6886253Y-20135612D02*
X6867206Y-20145135D01*
X6867206Y-20145135D02*
X6838634Y-20145135D01*
X7019587Y-20145135D02*
X7000539Y-20135612D01*
X7000539Y-20135612D02*
X6991015Y-20116564D01*
X6991015Y-20116564D02*
X6991015Y-19945135D01*
X7171968Y-20135612D02*
X7152920Y-20145135D01*
X7152920Y-20145135D02*
X7114825Y-20145135D01*
X7114825Y-20145135D02*
X7095777Y-20135612D01*
X7095777Y-20135612D02*
X7086253Y-20116564D01*
X7086253Y-20116564D02*
X7086253Y-20040374D01*
X7086253Y-20040374D02*
X7095777Y-20021326D01*
X7095777Y-20021326D02*
X7114825Y-20011802D01*
X7114825Y-20011802D02*
X7152920Y-20011802D01*
X7152920Y-20011802D02*
X7171968Y-20021326D01*
X7171968Y-20021326D02*
X7181491Y-20040374D01*
X7181491Y-20040374D02*
X7181491Y-20059421D01*
X7181491Y-20059421D02*
X7086253Y-20078469D01*
X7257682Y-20135612D02*
X7276730Y-20145135D01*
X7276730Y-20145135D02*
X7314825Y-20145135D01*
X7314825Y-20145135D02*
X7333872Y-20135612D01*
X7333872Y-20135612D02*
X7343396Y-20116564D01*
X7343396Y-20116564D02*
X7343396Y-20107040D01*
X7343396Y-20107040D02*
X7333872Y-20087993D01*
X7333872Y-20087993D02*
X7314825Y-20078469D01*
X7314825Y-20078469D02*
X7286253Y-20078469D01*
X7286253Y-20078469D02*
X7267206Y-20068945D01*
X7267206Y-20068945D02*
X7257682Y-20049897D01*
X7257682Y-20049897D02*
X7257682Y-20040374D01*
X7257682Y-20040374D02*
X7267206Y-20021326D01*
X7267206Y-20021326D02*
X7286253Y-20011802D01*
X7286253Y-20011802D02*
X7314825Y-20011802D01*
X7314825Y-20011802D02*
X7333872Y-20021326D01*
X7410063Y-20221326D02*
X7419587Y-20211802D01*
X7419587Y-20211802D02*
X7438634Y-20183231D01*
X7438634Y-20183231D02*
X7448158Y-20164183D01*
X7448158Y-20164183D02*
X7457682Y-20135612D01*
X7457682Y-20135612D02*
X7467206Y-20087993D01*
X7467206Y-20087993D02*
X7467206Y-20049897D01*
X7467206Y-20049897D02*
X7457682Y-20002278D01*
X7457682Y-20002278D02*
X7448158Y-19973707D01*
X7448158Y-19973707D02*
X7438634Y-19954659D01*
X7438634Y-19954659D02*
X7419587Y-19926088D01*
X7419587Y-19926088D02*
X7410063Y-19916564D01*
X7771968Y-20221326D02*
X7762444Y-20211802D01*
X7762444Y-20211802D02*
X7743396Y-20183231D01*
X7743396Y-20183231D02*
X7733872Y-20164183D01*
X7733872Y-20164183D02*
X7724349Y-20135612D01*
X7724349Y-20135612D02*
X7714825Y-20087993D01*
X7714825Y-20087993D02*
X7714825Y-20049897D01*
X7714825Y-20049897D02*
X7724349Y-20002278D01*
X7724349Y-20002278D02*
X7733872Y-19973707D01*
X7733872Y-19973707D02*
X7743396Y-19954659D01*
X7743396Y-19954659D02*
X7762444Y-19926088D01*
X7762444Y-19926088D02*
X7771968Y-19916564D01*
X7848158Y-20011802D02*
X7848158Y-20145135D01*
X7848158Y-20030850D02*
X7857682Y-20021326D01*
X7857682Y-20021326D02*
X7876730Y-20011802D01*
X7876730Y-20011802D02*
X7905301Y-20011802D01*
X7905301Y-20011802D02*
X7924349Y-20021326D01*
X7924349Y-20021326D02*
X7933872Y-20040374D01*
X7933872Y-20040374D02*
X7933872Y-20145135D01*
X8057682Y-20145135D02*
X8038634Y-20135612D01*
X8038634Y-20135612D02*
X8029111Y-20126088D01*
X8029111Y-20126088D02*
X8019587Y-20107040D01*
X8019587Y-20107040D02*
X8019587Y-20049897D01*
X8019587Y-20049897D02*
X8029111Y-20030850D01*
X8029111Y-20030850D02*
X8038634Y-20021326D01*
X8038634Y-20021326D02*
X8057682Y-20011802D01*
X8057682Y-20011802D02*
X8086253Y-20011802D01*
X8086253Y-20011802D02*
X8105301Y-20021326D01*
X8105301Y-20021326D02*
X8114825Y-20030850D01*
X8114825Y-20030850D02*
X8124349Y-20049897D01*
X8124349Y-20049897D02*
X8124349Y-20107040D01*
X8124349Y-20107040D02*
X8114825Y-20126088D01*
X8114825Y-20126088D02*
X8105301Y-20135612D01*
X8105301Y-20135612D02*
X8086253Y-20145135D01*
X8086253Y-20145135D02*
X8057682Y-20145135D01*
X8181492Y-20011802D02*
X8257682Y-20011802D01*
X8210063Y-19945135D02*
X8210063Y-20116564D01*
X8210063Y-20116564D02*
X8219587Y-20135612D01*
X8219587Y-20135612D02*
X8238634Y-20145135D01*
X8238634Y-20145135D02*
X8257682Y-20145135D01*
X8476730Y-20011802D02*
X8476730Y-20211802D01*
X8476730Y-20021326D02*
X8495777Y-20011802D01*
X8495777Y-20011802D02*
X8533873Y-20011802D01*
X8533873Y-20011802D02*
X8552920Y-20021326D01*
X8552920Y-20021326D02*
X8562444Y-20030850D01*
X8562444Y-20030850D02*
X8571968Y-20049897D01*
X8571968Y-20049897D02*
X8571968Y-20107040D01*
X8571968Y-20107040D02*
X8562444Y-20126088D01*
X8562444Y-20126088D02*
X8552920Y-20135612D01*
X8552920Y-20135612D02*
X8533873Y-20145135D01*
X8533873Y-20145135D02*
X8495777Y-20145135D01*
X8495777Y-20145135D02*
X8476730Y-20135612D01*
X8686254Y-20145135D02*
X8667206Y-20135612D01*
X8667206Y-20135612D02*
X8657682Y-20116564D01*
X8657682Y-20116564D02*
X8657682Y-19945135D01*
X8848158Y-20145135D02*
X8848158Y-20040374D01*
X8848158Y-20040374D02*
X8838635Y-20021326D01*
X8838635Y-20021326D02*
X8819587Y-20011802D01*
X8819587Y-20011802D02*
X8781492Y-20011802D01*
X8781492Y-20011802D02*
X8762444Y-20021326D01*
X8848158Y-20135612D02*
X8829111Y-20145135D01*
X8829111Y-20145135D02*
X8781492Y-20145135D01*
X8781492Y-20145135D02*
X8762444Y-20135612D01*
X8762444Y-20135612D02*
X8752920Y-20116564D01*
X8752920Y-20116564D02*
X8752920Y-20097516D01*
X8752920Y-20097516D02*
X8762444Y-20078469D01*
X8762444Y-20078469D02*
X8781492Y-20068945D01*
X8781492Y-20068945D02*
X8829111Y-20068945D01*
X8829111Y-20068945D02*
X8848158Y-20059421D01*
X8914825Y-20011802D02*
X8991015Y-20011802D01*
X8943396Y-19945135D02*
X8943396Y-20116564D01*
X8943396Y-20116564D02*
X8952920Y-20135612D01*
X8952920Y-20135612D02*
X8971968Y-20145135D01*
X8971968Y-20145135D02*
X8991015Y-20145135D01*
X9133873Y-20135612D02*
X9114825Y-20145135D01*
X9114825Y-20145135D02*
X9076730Y-20145135D01*
X9076730Y-20145135D02*
X9057682Y-20135612D01*
X9057682Y-20135612D02*
X9048158Y-20116564D01*
X9048158Y-20116564D02*
X9048158Y-20040374D01*
X9048158Y-20040374D02*
X9057682Y-20021326D01*
X9057682Y-20021326D02*
X9076730Y-20011802D01*
X9076730Y-20011802D02*
X9114825Y-20011802D01*
X9114825Y-20011802D02*
X9133873Y-20021326D01*
X9133873Y-20021326D02*
X9143396Y-20040374D01*
X9143396Y-20040374D02*
X9143396Y-20059421D01*
X9143396Y-20059421D02*
X9048158Y-20078469D01*
X9314825Y-20145135D02*
X9314825Y-19945135D01*
X9314825Y-20135612D02*
X9295777Y-20145135D01*
X9295777Y-20145135D02*
X9257682Y-20145135D01*
X9257682Y-20145135D02*
X9238635Y-20135612D01*
X9238635Y-20135612D02*
X9229111Y-20126088D01*
X9229111Y-20126088D02*
X9219587Y-20107040D01*
X9219587Y-20107040D02*
X9219587Y-20049897D01*
X9219587Y-20049897D02*
X9229111Y-20030850D01*
X9229111Y-20030850D02*
X9238635Y-20021326D01*
X9238635Y-20021326D02*
X9257682Y-20011802D01*
X9257682Y-20011802D02*
X9295777Y-20011802D01*
X9295777Y-20011802D02*
X9314825Y-20021326D01*
X9391016Y-20221326D02*
X9400539Y-20211802D01*
X9400539Y-20211802D02*
X9419587Y-20183231D01*
X9419587Y-20183231D02*
X9429111Y-20164183D01*
X9429111Y-20164183D02*
X9438635Y-20135612D01*
X9438635Y-20135612D02*
X9448158Y-20087993D01*
X9448158Y-20087993D02*
X9448158Y-20049897D01*
X9448158Y-20049897D02*
X9438635Y-20002278D01*
X9438635Y-20002278D02*
X9429111Y-19973707D01*
X9429111Y-19973707D02*
X9419587Y-19954659D01*
X9419587Y-19954659D02*
X9400539Y-19926088D01*
X9400539Y-19926088D02*
X9391016Y-19916564D01*
M02*
