%TF.GenerationSoftware,KiCad,Pcbnew,8.0.7*%
%TF.CreationDate,2025-02-10T18:12:50+08:00*%
%TF.ProjectId,bb-0.4,62622d30-2e34-42e6-9b69-6361645f7063,rev?*%
%TF.SameCoordinates,Original*%
%TF.FileFunction,Copper,L1,Top*%
%TF.FilePolarity,Positive*%
%FSLAX46Y46*%
G04 Gerber Fmt 4.6, Leading zero omitted, Abs format (unit mm)*
G04 Created by KiCad (PCBNEW 8.0.7) date 2025-02-10 18:12:50*
%MOMM*%
%LPD*%
G01*
G04 APERTURE LIST*
G04 Aperture macros list*
%AMRoundRect*
0 Rectangle with rounded corners*
0 $1 Rounding radius*
0 $2 $3 $4 $5 $6 $7 $8 $9 X,Y pos of 4 corners*
0 Add a 4 corners polygon primitive as box body*
4,1,4,$2,$3,$4,$5,$6,$7,$8,$9,$2,$3,0*
0 Add four circle primitives for the rounded corners*
1,1,$1+$1,$2,$3*
1,1,$1+$1,$4,$5*
1,1,$1+$1,$6,$7*
1,1,$1+$1,$8,$9*
0 Add four rect primitives between the rounded corners*
20,1,$1+$1,$2,$3,$4,$5,0*
20,1,$1+$1,$4,$5,$6,$7,0*
20,1,$1+$1,$6,$7,$8,$9,0*
20,1,$1+$1,$8,$9,$2,$3,0*%
%AMHorizOval*
0 Thick line with rounded ends*
0 $1 width*
0 $2 $3 position (X,Y) of the first rounded end (center of the circle)*
0 $4 $5 position (X,Y) of the second rounded end (center of the circle)*
0 Add line between two ends*
20,1,$1,$2,$3,$4,$5,0*
0 Add two circle primitives to create the rounded ends*
1,1,$1,$2,$3*
1,1,$1,$4,$5*%
%AMRotRect*
0 Rectangle, with rotation*
0 The origin of the aperture is its center*
0 $1 length*
0 $2 width*
0 $3 Rotation angle, in degrees counterclockwise*
0 Add horizontal line*
21,1,$1,$2,0,0,$3*%
G04 Aperture macros list end*
%TA.AperFunction,ComponentPad*%
%ADD10RotRect,1.500000X1.500000X45.000000*%
%TD*%
%TA.AperFunction,ComponentPad*%
%ADD11C,1.500000*%
%TD*%
%TA.AperFunction,ComponentPad*%
%ADD12RotRect,1.500000X1.500000X315.000000*%
%TD*%
%TA.AperFunction,ComponentPad*%
%ADD13R,1.800000X1.800000*%
%TD*%
%TA.AperFunction,ComponentPad*%
%ADD14C,1.800000*%
%TD*%
%TA.AperFunction,ComponentPad*%
%ADD15C,1.600000*%
%TD*%
%TA.AperFunction,ComponentPad*%
%ADD16O,1.600000X1.600000*%
%TD*%
%TA.AperFunction,ComponentPad*%
%ADD17O,1.000000X1.700000*%
%TD*%
%TA.AperFunction,SMDPad,CuDef*%
%ADD18RoundRect,0.225000X-0.225000X-0.575000X0.225000X-0.575000X0.225000X0.575000X-0.225000X0.575000X0*%
%TD*%
%TA.AperFunction,SMDPad,CuDef*%
%ADD19RoundRect,0.200000X-0.200000X-0.600000X0.200000X-0.600000X0.200000X0.600000X-0.200000X0.600000X0*%
%TD*%
%TA.AperFunction,SMDPad,CuDef*%
%ADD20RoundRect,0.175000X-0.175000X-0.625000X0.175000X-0.625000X0.175000X0.625000X-0.175000X0.625000X0*%
%TD*%
%TA.AperFunction,ComponentPad*%
%ADD21R,1.600000X1.600000*%
%TD*%
%TA.AperFunction,ComponentPad*%
%ADD22HorizOval,1.600000X0.000000X0.000000X0.000000X0.000000X0*%
%TD*%
%TA.AperFunction,ComponentPad*%
%ADD23HorizOval,1.600000X0.000000X0.000000X0.000000X0.000000X0*%
%TD*%
%TA.AperFunction,ComponentPad*%
%ADD24HorizOval,1.600000X0.000000X0.000000X0.000000X0.000000X0*%
%TD*%
%TA.AperFunction,ComponentPad*%
%ADD25RotRect,1.600000X1.600000X135.000000*%
%TD*%
%TA.AperFunction,ComponentPad*%
%ADD26RotRect,1.560000X1.560000X135.000000*%
%TD*%
%TA.AperFunction,ComponentPad*%
%ADD27C,1.560000*%
%TD*%
%TA.AperFunction,ComponentPad*%
%ADD28C,2.000000*%
%TD*%
%TA.AperFunction,ComponentPad*%
%ADD29HorizOval,1.600000X0.000000X0.000000X0.000000X0.000000X0*%
%TD*%
%TA.AperFunction,SMDPad,CuDef*%
%ADD30RoundRect,0.375000X-0.375000X0.625000X-0.375000X-0.625000X0.375000X-0.625000X0.375000X0.625000X0*%
%TD*%
%TA.AperFunction,SMDPad,CuDef*%
%ADD31RoundRect,0.500000X-1.400000X0.500000X-1.400000X-0.500000X1.400000X-0.500000X1.400000X0.500000X0*%
%TD*%
%TA.AperFunction,ComponentPad*%
%ADD32RotRect,1.560000X1.560000X225.000000*%
%TD*%
%TA.AperFunction,ComponentPad*%
%ADD33RotRect,1.600000X1.600000X45.000000*%
%TD*%
%TA.AperFunction,SMDPad,CuDef*%
%ADD34R,1.000000X2.500000*%
%TD*%
%TA.AperFunction,SMDPad,CuDef*%
%ADD35R,1.800000X1.000000*%
%TD*%
%TA.AperFunction,ComponentPad*%
%ADD36O,1.600000X2.500000*%
%TD*%
%TA.AperFunction,ComponentPad*%
%ADD37O,1.200000X2.200000*%
%TD*%
%TA.AperFunction,ComponentPad*%
%ADD38O,2.200000X1.200000*%
%TD*%
%TA.AperFunction,ComponentPad*%
%ADD39O,1.600000X2.300000*%
%TD*%
%TA.AperFunction,ComponentPad*%
%ADD40R,2.000000X2.000000*%
%TD*%
%TA.AperFunction,ViaPad*%
%ADD41C,0.800000*%
%TD*%
%TA.AperFunction,Conductor*%
%ADD42C,1.000000*%
%TD*%
%TA.AperFunction,Conductor*%
%ADD43C,0.500000*%
%TD*%
%TA.AperFunction,Conductor*%
%ADD44C,0.300000*%
%TD*%
G04 APERTURE END LIST*
D10*
%TO.P,Q1,1,C*%
%TO.N,Net-(Q1-C)*%
X44658507Y-53450610D03*
D11*
%TO.P,Q1,2,B*%
%TO.N,Net-(Q1-B)*%
X46454558Y-51654559D03*
%TO.P,Q1,3,E*%
%TO.N,GND1*%
X48250609Y-49858508D03*
%TD*%
D12*
%TO.P,Q2,1,C*%
%TO.N,Net-(Q2-C)*%
X165607898Y-50207898D03*
D11*
%TO.P,Q2,2,B*%
%TO.N,Net-(Q2-B)*%
X167403949Y-52003949D03*
%TO.P,Q2,3,E*%
%TO.N,GND2*%
X169200000Y-53800000D03*
%TD*%
D13*
%TO.P,SW1,1,A*%
%TO.N,Net-(Battery1--)*%
X91700000Y-93600000D03*
D14*
%TO.P,SW1,2,B*%
%TO.N,GND1*%
X91700000Y-89100000D03*
%TO.P,SW1,3,A*%
%TO.N,Net-(Battery2--)*%
X96500000Y-93600000D03*
%TO.P,SW1,4,B*%
%TO.N,GND2*%
X96500000Y-89100000D03*
%TD*%
D15*
%TO.P,R19,1*%
%TO.N,Net-(U1-GND)*%
X122500000Y-171110000D03*
D16*
%TO.P,R19,2*%
%TO.N,L-*%
X112340000Y-171110000D03*
%TD*%
D15*
%TO.P,R18,1*%
%TO.N,Net-(U1-ADC)*%
X112430000Y-163920000D03*
D16*
%TO.P,R18,2*%
%TO.N,R+*%
X122590000Y-163920000D03*
%TD*%
%TO.P,R17,2*%
%TO.N,L-*%
X112379999Y-167530000D03*
D15*
%TO.P,R17,1*%
%TO.N,R+*%
X122539999Y-167530000D03*
%TD*%
D17*
%TO.P,J4,S1,SHIELD*%
%TO.N,unconnected-(J4-SHIELD-PadS1)_2*%
X120910000Y-188350000D03*
%TO.N,unconnected-(J4-SHIELD-PadS1)_3*%
X120910000Y-184550000D03*
%TO.N,unconnected-(J4-SHIELD-PadS1)*%
X112270000Y-188350000D03*
%TO.N,unconnected-(J4-SHIELD-PadS1)_1*%
X112270000Y-184550000D03*
D18*
%TO.P,J4,B12,GND*%
%TO.N,Net-(U1-GND)*%
X113840000Y-184370000D03*
D19*
%TO.P,J4,B9,VBUS*%
%TO.N,Net-(U2-VI)*%
X115070000Y-184370000D03*
D20*
%TO.P,J4,B5,CC2*%
%TO.N,Net-(J4-CC2)*%
X117090000Y-184370000D03*
D18*
%TO.P,J4,A12,GND*%
%TO.N,Net-(U1-GND)*%
X119340000Y-184370000D03*
D19*
%TO.P,J4,A9,VBUS*%
%TO.N,Net-(U2-VI)*%
X118110000Y-184370000D03*
D20*
%TO.P,J4,A5,CC1*%
%TO.N,Net-(J4-CC1)*%
X116090000Y-184370000D03*
%TD*%
D15*
%TO.P,C4,1*%
%TO.N,L+*%
X57832233Y-66467767D03*
%TO.P,C4,2*%
%TO.N,L-*%
X61367767Y-62932233D03*
%TD*%
D21*
%TO.P,D3,1,K*%
%TO.N,GND2*%
X160900000Y-50300000D03*
D16*
%TO.P,D3,2,A*%
%TO.N,Net-(D3-A)*%
X153280000Y-50300000D03*
%TD*%
D15*
%TO.P,R15,1*%
%TO.N,Net-(U1-GND)*%
X144392103Y-53557898D03*
D22*
%TO.P,R15,2*%
%TO.N,Net-(D9-K)*%
X137207898Y-60742103D03*
%TD*%
D15*
%TO.P,R16,1*%
%TO.N,Net-(U1-GND)*%
X153342103Y-53600000D03*
D22*
%TO.P,R16,2*%
%TO.N,Net-(D10-K)*%
X146157898Y-60784205D03*
%TD*%
D15*
%TO.P,R12,1*%
%TO.N,Net-(U1-GND)*%
X70361846Y-53715795D03*
D23*
%TO.P,R12,2*%
%TO.N,Net-(D6-K)*%
X77546051Y-60900000D03*
%TD*%
D13*
%TO.P,D6,1,K*%
%TO.N,Net-(D6-K)*%
X97303673Y-53760000D03*
D14*
%TO.P,D6,2,A*%
%TO.N,Net-(D6-A)*%
X97303673Y-56300000D03*
%TD*%
D21*
%TO.P,D2,1,K*%
%TO.N,Net-(D1-A)*%
X63990001Y-50200000D03*
D16*
%TO.P,D2,2,A*%
%TO.N,Net-(D2-A)*%
X71610001Y-50200000D03*
%TD*%
D15*
%TO.P,R10,1*%
%TO.N,Net-(J4-CC1)*%
X112425000Y-176125000D03*
D16*
%TO.P,R10,2*%
%TO.N,Net-(U1-GND)*%
X122585000Y-176125000D03*
%TD*%
D15*
%TO.P,R13,1*%
%TO.N,Net-(U1-GND)*%
X79415794Y-53515795D03*
D23*
%TO.P,R13,2*%
%TO.N,Net-(D7-K)*%
X86599999Y-60700000D03*
%TD*%
D15*
%TO.P,R1,1*%
%TO.N,Net-(D2-A)*%
X73600000Y-80600000D03*
D24*
%TO.P,R1,2*%
%TO.N,Net-(C1-Pad2)*%
X66415795Y-73415795D03*
%TD*%
D15*
%TO.P,R14,1*%
%TO.N,Net-(U1-GND)*%
X135792103Y-53607898D03*
D22*
%TO.P,R14,2*%
%TO.N,Net-(D8-K)*%
X128607898Y-60792103D03*
%TD*%
D15*
%TO.P,R4,1*%
%TO.N,Net-(C10-Pad1)*%
X145082103Y-70447898D03*
D22*
%TO.P,R4,2*%
%TO.N,Net-(R4-Pad2)*%
X137897898Y-77632103D03*
%TD*%
D15*
%TO.P,C12,1*%
%TO.N,R+*%
X153314466Y-63514466D03*
%TO.P,C12,2*%
%TO.N,L-*%
X156850000Y-67050000D03*
%TD*%
%TO.P,R7,1*%
%TO.N,L-*%
X102710000Y-170420000D03*
D16*
%TO.P,R7,2*%
%TO.N,L+*%
X92550000Y-170420000D03*
%TD*%
D25*
%TO.P,C10,1*%
%TO.N,Net-(C10-Pad1)*%
X152500000Y-70000000D03*
D15*
%TO.P,C10,2*%
%TO.N,Net-(D4-A)*%
X150732233Y-68232233D03*
%TD*%
%TO.P,C11,1*%
%TO.N,Net-(D3-A)*%
X161832233Y-54032233D03*
%TO.P,C11,2*%
%TO.N,Net-(Q2-C)*%
X165367767Y-57567767D03*
%TD*%
D26*
%TO.P,RV1,1,1*%
%TO.N,Net-(R2-Pad2)*%
X79291745Y-87835534D03*
D27*
%TO.P,RV1,2,2*%
X81059512Y-82532233D03*
%TO.P,RV1,3,3*%
%TO.N,L+*%
X75756211Y-84300000D03*
%TD*%
D13*
%TO.P,D5,1,K*%
%TO.N,Net-(D5-K)*%
X90550000Y-53760000D03*
D14*
%TO.P,D5,2,A*%
%TO.N,Net-(D5-A)*%
X90550000Y-56300000D03*
%TD*%
D21*
%TO.P,D4,1,K*%
%TO.N,Net-(D3-A)*%
X150500000Y-50400000D03*
D16*
%TO.P,D4,2,A*%
%TO.N,Net-(D4-A)*%
X142880000Y-50400000D03*
%TD*%
D13*
%TO.P,D10,1,K*%
%TO.N,Net-(D10-K)*%
X124439775Y-53760000D03*
D14*
%TO.P,D10,2,A*%
%TO.N,Net-(D10-A)*%
X124439775Y-56300000D03*
%TD*%
D15*
%TO.P,R11,1*%
%TO.N,Net-(U1-GND)*%
X61307898Y-53707898D03*
D23*
%TO.P,R11,2*%
%TO.N,Net-(D5-K)*%
X68492103Y-60892103D03*
%TD*%
D28*
%TO.P,L4,1,1*%
%TO.N,Net-(Q2-C)*%
X157303949Y-58453949D03*
%TO.P,L4,2,2*%
%TO.N,L-*%
X160896051Y-62046051D03*
%TD*%
D15*
%TO.P,R3,1*%
%TO.N,Net-(D4-A)*%
X141177898Y-80962103D03*
D29*
%TO.P,R3,2*%
%TO.N,Net-(C10-Pad1)*%
X148362103Y-73777898D03*
%TD*%
D21*
%TO.P,D1,1,K*%
%TO.N,GND1*%
X53890000Y-50200000D03*
D16*
%TO.P,D1,2,A*%
%TO.N,Net-(D1-A)*%
X61510000Y-50200000D03*
%TD*%
D15*
%TO.P,R5,1*%
%TO.N,Net-(C1-Pad2)*%
X37507898Y-39407898D03*
D23*
%TO.P,R5,2*%
%TO.N,Net-(Q1-B)*%
X44692103Y-46592103D03*
%TD*%
D15*
%TO.P,C3,1*%
%TO.N,Net-(D1-A)*%
X52335534Y-54064466D03*
%TO.P,C3,2*%
%TO.N,Net-(Q1-C)*%
X48800000Y-57600000D03*
%TD*%
D30*
%TO.P,U2,1,GND*%
%TO.N,Net-(U1-GND)*%
X114600000Y-138650000D03*
%TO.P,U2,2,VO*%
%TO.N,Net-(U1-EN)*%
X112300000Y-138650001D03*
D31*
X112300000Y-144949999D03*
D30*
%TO.P,U2,3,VI*%
%TO.N,Net-(U2-VI)*%
X110000000Y-138650000D03*
%TD*%
D28*
%TO.P,L1,1,1*%
%TO.N,Net-(C1-Pad2)*%
X33600000Y-34200000D03*
%TO.P,L1,2,2*%
%TO.N,Net-(Q1-B)*%
X30007898Y-37792102D03*
%TD*%
%TO.P,L5,1,1*%
%TO.N,Net-(C10-Pad1)*%
X184700000Y-37700000D03*
%TO.P,L5,2,2*%
%TO.N,Net-(Q2-B)*%
X181107898Y-34107898D03*
%TD*%
D16*
%TO.P,R9,2*%
%TO.N,Net-(U1-GND)*%
X122465000Y-180425000D03*
D15*
%TO.P,R9,1*%
%TO.N,Net-(J4-CC2)*%
X112305000Y-180425000D03*
%TD*%
%TO.P,R6,1*%
%TO.N,Net-(C10-Pad1)*%
X177200000Y-40100000D03*
D22*
%TO.P,R6,2*%
%TO.N,Net-(Q2-B)*%
X170015795Y-47284205D03*
%TD*%
D32*
%TO.P,RV2,1,1*%
%TO.N,Net-(R4-Pad2)*%
X139100000Y-84300000D03*
D27*
%TO.P,RV2,2,2*%
X133796699Y-82532233D03*
%TO.P,RV2,3,3*%
%TO.N,R+*%
X135564466Y-87835534D03*
%TD*%
D33*
%TO.P,C2,1*%
%TO.N,Net-(C1-Pad2)*%
X62447856Y-70352144D03*
D15*
%TO.P,C2,2*%
%TO.N,Net-(D2-A)*%
X64215623Y-68584377D03*
%TD*%
%TO.P,C1,1*%
%TO.N,GND1*%
X39567767Y-47967767D03*
%TO.P,C1,2*%
%TO.N,Net-(C1-Pad2)*%
X36032233Y-44432233D03*
%TD*%
%TO.P,R8,1*%
%TO.N,L-*%
X102840000Y-175020000D03*
D16*
%TO.P,R8,2*%
%TO.N,R+*%
X92680000Y-175020000D03*
%TD*%
D13*
%TO.P,D8,1,K*%
%TO.N,Net-(D8-K)*%
X110839775Y-53760000D03*
D14*
%TO.P,D8,2,A*%
%TO.N,Net-(D8-A)*%
X110839775Y-56300000D03*
%TD*%
D34*
%TO.P,U1,1,~{RST}*%
%TO.N,unconnected-(U1-~{RST}-Pad1)*%
X103950000Y-128600000D03*
%TO.P,U1,2,ADC*%
%TO.N,Net-(U1-ADC)*%
X105950000Y-128600000D03*
%TO.P,U1,3,EN*%
%TO.N,Net-(U1-EN)*%
X107950000Y-128600000D03*
%TO.P,U1,4,GPIO16*%
%TO.N,Net-(D5-A)*%
X109949999Y-128600000D03*
%TO.P,U1,5,GPIO14*%
%TO.N,unconnected-(U1-GPIO14-Pad5)*%
X111950000Y-128600000D03*
%TO.P,U1,6,GPIO12*%
%TO.N,Net-(D7-A)*%
X113950001Y-128600000D03*
%TO.P,U1,7,GPIO13*%
%TO.N,Net-(D6-A)*%
X115950000Y-128600000D03*
%TO.P,U1,8,VCC*%
%TO.N,Net-(U1-EN)*%
X117950000Y-128600000D03*
D35*
%TO.P,U1,9,CS0*%
%TO.N,unconnected-(U1-CS0-Pad9)*%
X119449999Y-126000000D03*
%TO.P,U1,10,MISO*%
%TO.N,unconnected-(U1-MISO-Pad10)*%
X119450000Y-124000000D03*
%TO.P,U1,11,GPIO9*%
%TO.N,unconnected-(U1-GPIO9-Pad11)*%
X119450000Y-122000000D03*
%TO.P,U1,12,GPIO10*%
%TO.N,unconnected-(U1-GPIO10-Pad12)*%
X119450000Y-120000000D03*
%TO.P,U1,13,MOSI*%
%TO.N,unconnected-(U1-MOSI-Pad13)*%
X119450000Y-118000000D03*
%TO.P,U1,14,SCLK*%
%TO.N,unconnected-(U1-SCLK-Pad14)*%
X119449999Y-116000000D03*
D34*
%TO.P,U1,15,GND*%
%TO.N,Net-(U1-GND)*%
X117950000Y-113400000D03*
%TO.P,U1,16,GPIO15*%
X115950000Y-113400000D03*
%TO.P,U1,17,GPIO2*%
%TO.N,unconnected-(U1-GPIO2-Pad17)*%
X113950001Y-113400000D03*
%TO.P,U1,18,GPIO0*%
%TO.N,Net-(D8-A)*%
X111950000Y-113400000D03*
%TO.P,U1,19,GPIO4*%
%TO.N,Net-(D9-A)*%
X109949999Y-113400000D03*
%TO.P,U1,20,GPIO5*%
%TO.N,Net-(D10-A)*%
X107950000Y-113400000D03*
%TO.P,U1,21,GPIO3/RXD*%
%TO.N,unconnected-(U1-GPIO3{slash}RXD-Pad21)*%
X105950000Y-113400000D03*
%TO.P,U1,22,GPIO1/TXD*%
%TO.N,unconnected-(U1-GPIO1{slash}TXD-Pad22)*%
X103950000Y-113400000D03*
%TD*%
D36*
%TO.P,J2,TN*%
%TO.N,unconnected-(J2-PadTN)*%
X100800000Y-181940000D03*
D37*
%TO.P,J2,T*%
%TO.N,R+*%
X103300000Y-181940000D03*
D38*
%TO.P,J2,S*%
%TO.N,L-*%
X98300000Y-186940000D03*
D39*
%TO.P,J2,RN*%
%TO.N,unconnected-(J2-PadRN)*%
X95800000Y-181940000D03*
D37*
%TO.P,J2,R*%
%TO.N,L+*%
X93300000Y-181940000D03*
%TD*%
D13*
%TO.P,D9,1,K*%
%TO.N,Net-(D9-K)*%
X117639775Y-53760000D03*
D14*
%TO.P,D9,2,A*%
%TO.N,Net-(D9-A)*%
X117639775Y-56300000D03*
%TD*%
D13*
%TO.P,D7,1,K*%
%TO.N,Net-(D7-K)*%
X104057346Y-53760000D03*
D14*
%TO.P,D7,2,A*%
%TO.N,Net-(D7-A)*%
X104057346Y-56300000D03*
%TD*%
D15*
%TO.P,R2,1*%
%TO.N,Net-(C1-Pad2)*%
X69507898Y-70507898D03*
D23*
%TO.P,R2,2*%
%TO.N,Net-(R2-Pad2)*%
X76692103Y-77692103D03*
%TD*%
D15*
%TO.P,C8,1*%
%TO.N,GND2*%
X174832233Y-48167767D03*
%TO.P,C8,2*%
%TO.N,Net-(C10-Pad1)*%
X178367767Y-44632233D03*
%TD*%
D28*
%TO.P,L2,1,1*%
%TO.N,Net-(Q1-C)*%
X53503949Y-62196051D03*
%TO.P,L2,2,2*%
%TO.N,L-*%
X57096051Y-58603949D03*
%TD*%
D40*
%TO.P,Battery2,1,+*%
%TO.N,R+*%
X116265225Y-158650000D03*
D28*
%TO.P,Battery2,2,-*%
%TO.N,Net-(Battery2--)*%
X116265225Y-106660000D03*
%TD*%
D40*
%TO.P,Battery1,1,+*%
%TO.N,L+*%
X98570225Y-158650000D03*
D28*
%TO.P,Battery1,2,-*%
%TO.N,Net-(Battery1--)*%
X98570225Y-106660000D03*
%TD*%
D41*
%TO.N,Net-(U1-GND)*%
X117070000Y-139590000D03*
X120010000Y-163350000D03*
X119990000Y-159620000D03*
X100600000Y-105200000D03*
%TO.N,Net-(D8-A)*%
X112100000Y-111200000D03*
%TO.N,Net-(D6-A)*%
X115900000Y-126400000D03*
%TO.N,Net-(D5-A)*%
X110000000Y-126400000D03*
%TO.N,Net-(D7-A)*%
X113800000Y-122300000D03*
%TO.N,Net-(D9-A)*%
X113200000Y-107200000D03*
%TO.N,Net-(D10-A)*%
X110800000Y-116300000D03*
%TD*%
D42*
%TO.N,Net-(C10-Pad1)*%
X152500000Y-66360000D02*
X152500000Y-70000000D01*
X151120000Y-64980000D02*
X152500000Y-66360000D01*
X151200000Y-64900000D02*
X151120000Y-64980000D01*
X151200000Y-62260000D02*
X151200000Y-64900000D01*
X152510000Y-60950000D02*
X151200000Y-62260000D01*
X154450000Y-61150000D02*
X154450000Y-60950000D01*
X154450000Y-60950000D02*
X152510000Y-60950000D01*
X155350000Y-62050000D02*
X154450000Y-61150000D01*
X158150000Y-62050000D02*
X155350000Y-62050000D01*
X162700000Y-59800000D02*
X160400000Y-59800000D01*
X163246051Y-60346051D02*
X162700000Y-59800000D01*
X160400000Y-59800000D02*
X158150000Y-62050000D01*
X165503949Y-60346051D02*
X163246051Y-60346051D01*
X176930000Y-48520000D02*
X165503949Y-60346051D01*
X178190000Y-47220000D02*
X176930000Y-48520000D01*
X178367767Y-44632233D02*
X178190000Y-47220000D01*
D43*
%TO.N,Net-(U1-GND)*%
X116850000Y-139370000D02*
X116663503Y-139370000D01*
X117070000Y-139590000D02*
X116850000Y-139370000D01*
X116663503Y-139370000D02*
X115393503Y-138100000D01*
X120010000Y-159640000D02*
X119990000Y-159620000D01*
X120010000Y-163350000D02*
X120010000Y-159640000D01*
X122465000Y-176245000D02*
X122585000Y-176125000D01*
X122465000Y-180425000D02*
X122465000Y-176245000D01*
X114960000Y-186600000D02*
X113840000Y-185480000D01*
X117910000Y-186600000D02*
X114960000Y-186600000D01*
X119340000Y-185170000D02*
X117910000Y-186600000D01*
X113840000Y-185480000D02*
X113840000Y-184370000D01*
X119340000Y-184370000D02*
X119340000Y-185170000D01*
%TO.N,Net-(U2-VI)*%
X115260000Y-185900000D02*
X115070000Y-185710000D01*
X117380000Y-185900000D02*
X115260000Y-185900000D01*
X118110000Y-185170000D02*
X117380000Y-185900000D01*
X115070000Y-185710000D02*
X115070000Y-184370000D01*
X118110000Y-184370000D02*
X118110000Y-185170000D01*
X118110000Y-163460000D02*
X118110000Y-184370000D01*
X114400000Y-159750000D02*
X118110000Y-163460000D01*
%TO.N,Net-(U1-GND)*%
X119340000Y-183550000D02*
X119340000Y-184370000D01*
X122465000Y-180425000D02*
X119340000Y-183550000D01*
%TO.N,Net-(J4-CC1)*%
X116090000Y-183570000D02*
X116090000Y-184370000D01*
X114590000Y-182070000D02*
X116090000Y-183570000D01*
X112182233Y-182070000D02*
X114590000Y-182070000D01*
X110805000Y-177745000D02*
X110805000Y-180692767D01*
X110805000Y-180692767D02*
X112182233Y-182070000D01*
X112425000Y-176125000D02*
X110805000Y-177745000D01*
%TO.N,Net-(J4-CC2)*%
X117090000Y-183327714D02*
X117090000Y-184370000D01*
X114187286Y-180425000D02*
X117090000Y-183327714D01*
X112305000Y-180425000D02*
X114187286Y-180425000D01*
D42*
%TO.N,GND2*%
X104120001Y-81479999D02*
X96500000Y-89100000D01*
X129720001Y-81479999D02*
X104120001Y-81479999D01*
X160900000Y-50300000D02*
X129720001Y-81479999D01*
%TO.N,GND1*%
X90900000Y-88300000D02*
X91700000Y-89100000D01*
X90900000Y-87210000D02*
X90900000Y-88300000D01*
%TO.N,Net-(Battery2--)*%
X108250000Y-93800000D02*
X108050000Y-93600000D01*
X108050000Y-93600000D02*
X96500000Y-93600000D01*
%TO.N,L-*%
X112379999Y-167530000D02*
X104600000Y-175309999D01*
X104600000Y-175309999D02*
X104600000Y-178750000D01*
X104600000Y-178750000D02*
X104600000Y-183750000D01*
X104600000Y-169789550D02*
X104600000Y-178750000D01*
%TO.N,R+*%
X124020000Y-167530000D02*
X122539999Y-167530000D01*
X124520000Y-168030000D02*
X124020000Y-167530000D01*
X124520000Y-190250000D02*
X124520000Y-168030000D01*
X123980000Y-190790000D02*
X124520000Y-190250000D01*
X101022285Y-189448519D02*
X102363766Y-190790000D01*
X96499744Y-189449812D02*
X96501037Y-189448519D01*
X96499744Y-186401778D02*
X96499744Y-189449812D01*
X98611522Y-184290000D02*
X96499744Y-186401778D01*
X102162944Y-184290000D02*
X98611522Y-184290000D01*
X103300000Y-183152944D02*
X102162944Y-184290000D01*
X102363766Y-190790000D02*
X123980000Y-190790000D01*
X103300000Y-181940000D02*
X103300000Y-183152944D01*
X96501037Y-189448519D02*
X101022285Y-189448519D01*
X122590000Y-167479999D02*
X122539999Y-167530000D01*
X122590000Y-163920000D02*
X122590000Y-167479999D01*
%TO.N,Net-(U1-ADC)*%
X109525225Y-163920000D02*
X112430000Y-163920000D01*
X106635225Y-161030000D02*
X109525225Y-163920000D01*
X106635225Y-129285225D02*
X106635225Y-161030000D01*
X105950000Y-128600000D02*
X106635225Y-129285225D01*
%TO.N,Net-(U1-GND)*%
X115290000Y-136610000D02*
X115290000Y-137642944D01*
X121460000Y-114450000D02*
X121460000Y-130440000D01*
X121460000Y-130440000D02*
X115290000Y-136610000D01*
X121500000Y-114410000D02*
X121460000Y-114450000D01*
X120490000Y-113400000D02*
X121500000Y-114410000D01*
X115290000Y-137642944D02*
X115448528Y-137801472D01*
X117950000Y-113400000D02*
X120490000Y-113400000D01*
X132924205Y-50740000D02*
X135792103Y-53607898D01*
X82191589Y-50740000D02*
X132924205Y-50740000D01*
X79415794Y-53515795D02*
X82191589Y-50740000D01*
X115950000Y-108748939D02*
X115950000Y-113400000D01*
X114565225Y-107364164D02*
X115950000Y-108748939D01*
X114200000Y-106000000D02*
X114565225Y-107364164D01*
X100600000Y-105200000D02*
X113550000Y-105250000D01*
X113550000Y-105250000D02*
X114200000Y-106000000D01*
%TO.N,Net-(R4-Pad2)*%
X137332233Y-82532233D02*
X139100000Y-84300000D01*
X133796699Y-82532233D02*
X137332233Y-82532233D01*
X137897898Y-78431034D02*
X133796699Y-82532233D01*
X137897898Y-77632103D02*
X137897898Y-78431034D01*
%TO.N,Net-(D4-A)*%
X141177898Y-77786568D02*
X150732233Y-68232233D01*
X141177898Y-80962103D02*
X141177898Y-77786568D01*
%TO.N,Net-(C10-Pad1)*%
X152140001Y-70000000D02*
X148362103Y-73777898D01*
X152500000Y-70000000D02*
X152140001Y-70000000D01*
%TO.N,L+*%
X90450000Y-179090000D02*
X93300000Y-181940000D01*
X90450000Y-169900000D02*
X90450000Y-179090000D01*
X90840000Y-169900000D02*
X91360000Y-170420000D01*
X90450000Y-169900000D02*
X90840000Y-169900000D01*
X90280000Y-169730000D02*
X90450000Y-169900000D01*
X90280000Y-163770000D02*
X90280000Y-169730000D01*
X90330000Y-163720000D02*
X90280000Y-163770000D01*
X90330000Y-162920000D02*
X90330000Y-163720000D01*
X94600000Y-158650000D02*
X90330000Y-162920000D01*
X98570225Y-158650000D02*
X94600000Y-158650000D01*
X91360000Y-170420000D02*
X92550000Y-170420000D01*
%TO.N,L-*%
X99750000Y-185490000D02*
X98300000Y-186940000D01*
X102860000Y-185490000D02*
X99750000Y-185490000D01*
X104600000Y-183750000D02*
X102860000Y-185490000D01*
X104570225Y-169759775D02*
X104600000Y-169789550D01*
X103910000Y-170420000D02*
X102710000Y-170420000D01*
X104570225Y-169759775D02*
X103910000Y-170420000D01*
X104570225Y-161250000D02*
X104570225Y-169759775D01*
X94700000Y-151379775D02*
X104570225Y-161250000D01*
X89300000Y-89462742D02*
X90250000Y-90700000D01*
X89300000Y-88178679D02*
X89300000Y-89462742D01*
X64053554Y-62932233D02*
X89300000Y-88178679D01*
X93900000Y-90700000D02*
X94700000Y-91500000D01*
X90250000Y-90700000D02*
X93900000Y-90700000D01*
X94700000Y-91500000D02*
X94700000Y-151379775D01*
X61367767Y-62932233D02*
X64053554Y-62932233D01*
%TO.N,R+*%
X116265225Y-157134775D02*
X116265225Y-158650000D01*
X120900000Y-152500000D02*
X116265225Y-157134775D01*
X122850000Y-152500000D02*
X120900000Y-152500000D01*
X124750000Y-150600000D02*
X122850000Y-152500000D01*
%TO.N,Net-(Battery2--)*%
X116265225Y-102384775D02*
X116265225Y-106660000D01*
X113750000Y-99800000D02*
X116265225Y-102384775D01*
X108250000Y-93800000D02*
X113750000Y-99800000D01*
%TO.N,Net-(C1-Pad2)*%
X61845712Y-69750000D02*
X62447856Y-70352144D01*
X33600000Y-34200000D02*
X33600000Y-35500000D01*
X63352144Y-70352144D02*
X66415795Y-73415795D01*
X59835787Y-66350000D02*
X60000000Y-66350000D01*
X60000000Y-66350000D02*
X60000000Y-68700000D01*
X58035787Y-64550000D02*
X59835787Y-66350000D01*
X36032233Y-47128499D02*
X53453734Y-64550000D01*
X61050000Y-69750000D02*
X61845712Y-69750000D01*
X36032233Y-44432233D02*
X36032233Y-47128499D01*
X53453734Y-64550000D02*
X58035787Y-64550000D01*
X37507898Y-39407898D02*
X37507898Y-42956568D01*
X37507898Y-42956568D02*
X36032233Y-44432233D01*
X33600000Y-35500000D02*
X37507898Y-39407898D01*
X60000000Y-68700000D02*
X61050000Y-69750000D01*
X62447856Y-70352144D02*
X63352144Y-70352144D01*
%TO.N,Net-(D2-A)*%
X64215623Y-68584377D02*
X73600000Y-77968754D01*
X73600000Y-77968754D02*
X73600000Y-80600000D01*
%TO.N,Net-(Q1-C)*%
X48907898Y-57600000D02*
X53503949Y-62196051D01*
X48800000Y-57600000D02*
X48907898Y-57600000D01*
X44658507Y-53450610D02*
X44658507Y-53458507D01*
X44658507Y-53458507D02*
X48800000Y-57600000D01*
%TO.N,Net-(D1-A)*%
X61510000Y-50200000D02*
X63990001Y-50200000D01*
%TO.N,Net-(U1-GND)*%
X70361846Y-53715795D02*
X71248503Y-54602452D01*
X144392103Y-53557898D02*
X143499340Y-54450661D01*
X139578979Y-54602452D02*
X136786657Y-54602452D01*
%TO.N,R+*%
X124750000Y-102047107D02*
X124750000Y-150600000D01*
%TO.N,Net-(U1-GND)*%
X144434205Y-53600000D02*
X144392103Y-53557898D01*
%TO.N,R+*%
X138664466Y-87835534D02*
X154700000Y-71800000D01*
X154700000Y-71800000D02*
X154700000Y-64900000D01*
X135564466Y-87835534D02*
X138664466Y-87835534D01*
%TO.N,Net-(U1-GND)*%
X140276751Y-54450661D02*
X139933294Y-54551510D01*
%TO.N,R+*%
X154700000Y-64900000D02*
X153314466Y-63514466D01*
%TO.N,Net-(U1-GND)*%
X143499340Y-54450661D02*
X140276751Y-54450661D01*
X139933294Y-54551510D02*
X139578979Y-54602452D01*
X117950000Y-113400000D02*
X115950000Y-113400000D01*
X136786657Y-54602452D02*
X135792103Y-53607898D01*
X153342103Y-53600000D02*
X144434205Y-53600000D01*
X78329137Y-54602452D02*
X79415794Y-53515795D01*
%TO.N,R+*%
X135564466Y-87835534D02*
X135564466Y-91232641D01*
X135564466Y-91232641D02*
X124750000Y-102047107D01*
%TO.N,Net-(U1-GND)*%
X71248503Y-54602452D02*
X78329137Y-54602452D01*
X70353949Y-53707898D02*
X70361846Y-53715795D01*
X61307898Y-53707898D02*
X70353949Y-53707898D01*
%TO.N,Net-(C10-Pad1)*%
X177200000Y-40100000D02*
X177200000Y-43464466D01*
X179600000Y-37700000D02*
X177200000Y-40100000D01*
X184700000Y-37700000D02*
X179600000Y-37700000D01*
X177200000Y-43464466D02*
X178367767Y-44632233D01*
%TO.N,Net-(Q2-C)*%
X158190131Y-57567767D02*
X157303949Y-58453949D01*
X165367767Y-57567767D02*
X158190131Y-57567767D01*
X165607898Y-50207898D02*
X165607898Y-57327636D01*
X165607898Y-57327636D02*
X165367767Y-57567767D01*
%TO.N,Net-(D3-A)*%
X153280000Y-50300000D02*
X150600000Y-50300000D01*
X150600000Y-50300000D02*
X150500000Y-50400000D01*
%TO.N,GND1*%
X48250609Y-49858508D02*
X53548508Y-49858508D01*
X53890000Y-50200000D02*
X90900000Y-87210000D01*
X41458508Y-49858508D02*
X48250609Y-49858508D01*
X39567767Y-47967767D02*
X41458508Y-49858508D01*
X53548508Y-49858508D02*
X53890000Y-50200000D01*
%TO.N,Net-(Q2-B)*%
X170015795Y-49392103D02*
X167403949Y-52003949D01*
X181107898Y-34107898D02*
X181070781Y-34107898D01*
X170015795Y-45162884D02*
X170015795Y-47284205D01*
X170015795Y-47284205D02*
X170015795Y-49392103D01*
X181070781Y-34107898D02*
X170015795Y-45162884D01*
%TO.N,Net-(R2-Pad2)*%
X76692103Y-78164824D02*
X81059512Y-82532233D01*
X81059512Y-86067767D02*
X79291745Y-87835534D01*
X81059512Y-82532233D02*
X81059512Y-86067767D01*
X76692103Y-77692103D02*
X76692103Y-78164824D01*
%TO.N,GND2*%
X174832233Y-48167767D02*
X169200000Y-53800000D01*
%TO.N,Net-(D8-K)*%
X118050000Y-60800000D02*
X120642103Y-60792103D01*
X117679775Y-60600000D02*
X118050000Y-60800000D01*
X120642103Y-60792103D02*
X128607898Y-60792103D01*
X110839775Y-53760000D02*
X117679775Y-60600000D01*
D44*
%TO.N,Net-(D8-A)*%
X112100000Y-111200000D02*
X112100000Y-113250000D01*
X112100000Y-113250000D02*
X111950000Y-113400000D01*
D42*
%TO.N,Net-(D9-K)*%
X117639775Y-53760000D02*
X121779775Y-57900000D01*
X121779775Y-57900000D02*
X134365795Y-57900000D01*
X134365795Y-57900000D02*
X137207898Y-60742103D01*
%TO.N,L+*%
X75250000Y-86900000D02*
X74850000Y-86500000D01*
X74850000Y-86500000D02*
X57832233Y-69482233D01*
X75756211Y-85593789D02*
X74850000Y-86500000D01*
X90750000Y-102700000D02*
X89150000Y-101100000D01*
X89150000Y-101100000D02*
X89150000Y-100800000D01*
X75756211Y-84300000D02*
X75756211Y-85593789D01*
X89150000Y-100800000D02*
X75250000Y-86900000D01*
X57832233Y-69482233D02*
X57832233Y-66467767D01*
X98570225Y-158650000D02*
X90750000Y-150829775D01*
X90750000Y-150829775D02*
X90750000Y-102700000D01*
X75250000Y-84130261D02*
X75756211Y-83624050D01*
D43*
%TO.N,Net-(U2-VI)*%
X109100000Y-139550000D02*
X110000000Y-138650000D01*
X114400000Y-159750000D02*
X114400000Y-153050000D01*
X114400000Y-153050000D02*
X109100000Y-147750000D01*
X109100000Y-147750000D02*
X109100000Y-139550000D01*
D42*
%TO.N,L-*%
X160896051Y-63003949D02*
X156850000Y-67050000D01*
X160896051Y-62046051D02*
X160896051Y-63003949D01*
X57096051Y-58660517D02*
X61367767Y-62932233D01*
X57096051Y-58603949D02*
X57096051Y-58660517D01*
%TO.N,Net-(U1-EN)*%
X117950000Y-128600000D02*
X117950000Y-129450000D01*
X112300000Y-138650001D02*
X112300000Y-144949999D01*
X112300000Y-133600000D02*
X112300000Y-136100000D01*
X115200000Y-130700000D02*
X112300000Y-133600000D01*
X112300000Y-136100000D02*
X112300000Y-138650001D01*
X107950000Y-128600000D02*
X107950000Y-131750000D01*
X117950000Y-129450000D02*
X116700000Y-130700000D01*
X107950000Y-131750000D02*
X112300000Y-136100000D01*
X116700000Y-130700000D02*
X115200000Y-130700000D01*
%TO.N,Net-(D5-K)*%
X90550000Y-53760000D02*
X87960000Y-56350000D01*
X73050000Y-56350000D02*
X71950000Y-57434206D01*
X87960000Y-56350000D02*
X73050000Y-56350000D01*
X71950000Y-57434206D02*
X68492103Y-60892103D01*
%TO.N,Net-(D6-K)*%
X92563673Y-58500000D02*
X97303673Y-53760000D01*
X77546051Y-60900000D02*
X79946051Y-58500000D01*
X79946051Y-58500000D02*
X92563673Y-58500000D01*
%TO.N,Net-(D7-K)*%
X97117346Y-60700000D02*
X104057346Y-53760000D01*
X86599999Y-60700000D02*
X97117346Y-60700000D01*
D44*
%TO.N,Net-(D6-A)*%
X115900000Y-126400000D02*
X115900000Y-128550000D01*
X115900000Y-128550000D02*
X115950000Y-128600000D01*
%TO.N,Net-(D5-A)*%
X110000000Y-128549999D02*
X109949999Y-128600000D01*
X110000000Y-126400000D02*
X110000000Y-128549999D01*
%TO.N,Net-(D7-A)*%
X113800000Y-128449999D02*
X113950001Y-128600000D01*
X113800000Y-122300000D02*
X113800000Y-128449999D01*
%TO.N,Net-(D9-A)*%
X113200000Y-107200000D02*
X108900000Y-107200000D01*
X108900000Y-107200000D02*
X107700000Y-108400000D01*
X107700000Y-108400000D02*
X107700000Y-110200000D01*
X109949999Y-112449999D02*
X109949999Y-113400000D01*
X107700000Y-110200000D02*
X109949999Y-112449999D01*
D42*
%TO.N,Net-(D10-K)*%
X145400000Y-60026307D02*
X146157898Y-60784205D01*
X142750000Y-56550000D02*
X145350000Y-59150000D01*
X145350000Y-59150000D02*
X145400000Y-59150000D01*
X142700000Y-56600000D02*
X142750000Y-56550000D01*
X124439775Y-53760000D02*
X133110000Y-53760000D01*
X145400000Y-59150000D02*
X145400000Y-60026307D01*
X133110000Y-53760000D02*
X135950000Y-56600000D01*
X135950000Y-56600000D02*
X142700000Y-56600000D01*
D44*
%TO.N,Net-(D10-A)*%
X108600000Y-114050000D02*
X107950000Y-113400000D01*
X108600000Y-115800000D02*
X108600000Y-114050000D01*
X109100000Y-116300000D02*
X108600000Y-115800000D01*
X110800000Y-116300000D02*
X109100000Y-116300000D01*
%TD*%
M02*
