M48
; DRILL file {KiCad 8.0.7} date 2025-02-10T18:12:54+0800
; FORMAT={-:-/ absolute / inch / decimal}
; #@! TF.CreationDate,2025-02-10T18:12:54+08:00
; #@! TF.GenerationSoftware,Kicad,Pcbnew,8.0.7
; #@! TF.FileFunction,Plated,1,2,PTH
FMAT,2
INCH
; #@! TA.AperFunction,Plated,PTH,ViaDrill
T1C0.0157
; #@! TA.AperFunction,Plated,PTH,ComponentDrill
T2C0.0157
; #@! TA.AperFunction,Plated,PTH,ComponentDrill
T3C0.0197
; #@! TA.AperFunction,Plated,PTH,ComponentDrill
T4C0.0315
; #@! TA.AperFunction,Plated,PTH,ComponentDrill
T5C0.0354
; #@! TA.AperFunction,Plated,PTH,ComponentDrill
T6C0.0394
; #@! TA.AperFunction,Plated,PTH,ComponentDrill
T7C0.0402
%
G90
G05
T1
X3.9606Y-4.1417
X4.3307Y-4.9764
X4.3622Y-4.5787
X4.4134Y-4.378
X4.4567Y-4.2205
X4.4803Y-4.815
X4.563Y-4.9764
X4.6091Y-5.4957
X4.724Y-6.2843
X4.7248Y-6.4311
T4
X1.1814Y-1.4879
X1.3228Y-1.3465
X1.4186Y-1.7493
X1.4767Y-1.5515
X1.5578Y-1.8885
X1.7582Y-2.1044
X1.7595Y-1.8343
X1.8289Y-2.0336
X1.8996Y-1.9629
X1.9213Y-2.2677
X2.0605Y-2.1285
X2.1065Y-2.4487
X2.1217Y-1.9764
X2.2479Y-2.3072
X2.2769Y-2.6168
X2.4137Y-2.1145
X2.4161Y-2.4776
X2.4217Y-1.9764
X2.4586Y-2.7698
X2.5193Y-1.9764
X2.5282Y-2.7002
X2.6148Y-2.8904
X2.6965Y-2.3973
X2.7365Y-2.7759
X2.7702Y-2.1148
X2.8193Y-1.9764
X2.8976Y-3.1732
X3.0194Y-3.0587
X3.053Y-2.3976
X3.1266Y-2.1069
X3.4094Y-2.3898
X3.6437Y-6.7094
X3.6488Y-6.8906
X4.0437Y-6.7094
X4.0488Y-6.8906
X4.4215Y-7.1033
X4.4228Y-6.7366
X4.4244Y-6.5957
X4.4262Y-6.9341
X4.4264Y-6.4535
X4.8215Y-7.1033
X4.8228Y-6.7366
X4.8244Y-6.5957
X4.8262Y-6.9341
X4.8264Y-6.4535
X5.0633Y-2.3934
X5.3461Y-2.1105
X5.4019Y-2.3914
X5.4291Y-3.0564
X5.5582Y-3.1875
X5.6252Y-1.9843
X5.6847Y-2.1086
X5.7119Y-2.7735
X5.7542Y-2.3931
X5.841Y-2.9046
X5.9252Y-1.9843
X5.9343Y-2.6863
X6.0039Y-2.7559
X6.0346Y-1.9803
X6.036Y-2.5006
X6.0371Y-2.1102
X6.1752Y-2.6398
X6.1931Y-2.3013
X6.3345Y-2.4428
X6.3346Y-1.9803
X6.3713Y-2.1273
X6.5105Y-2.2664
X6.52Y-1.9767
X6.5907Y-2.0474
X6.6614Y-2.1181
X6.6935Y-1.8616
X6.8832Y-1.8964
X6.9764Y-1.5787
X7.0224Y-1.7572
X7.1302Y-1.3428
X7.2717Y-1.4843
T5
X3.565Y-2.1165
X3.565Y-2.2165
X3.6102Y-3.5079
X3.6102Y-3.685
X3.7992Y-3.5079
X3.7992Y-3.685
X3.8309Y-2.1165
X3.8309Y-2.2165
X4.0967Y-2.1165
X4.0967Y-2.2165
X4.3638Y-2.1165
X4.3638Y-2.2165
X4.6315Y-2.1165
X4.6315Y-2.2165
X4.8992Y-2.1165
X4.8992Y-2.2165
T6
X2.9825Y-3.3189
X3.1217Y-3.4581
X3.1913Y-3.2493
X5.2676Y-3.2493
X5.3372Y-3.4581
X5.4764Y-3.3189
T7
X3.8807Y-4.1992
X3.8807Y-6.2461
X4.5774Y-4.1992
X4.5774Y-6.2461
T2
G00X3.6732Y-7.1433
M15
G01X3.6732Y-7.1827
M16
G05
G00X3.8504Y-7.3598
M15
G01X3.8898Y-7.3598
M16
G05
G00X4.0669Y-7.1827
M15
G01X4.0669Y-7.1433
M16
G05
T3
G00X4.4201Y-7.252
M15
G01X4.4201Y-7.2795
M16
G05
G00X4.4201Y-7.4016
M15
G01X4.4201Y-7.4291
M16
G05
G00X4.7602Y-7.252
M15
G01X4.7602Y-7.2795
M16
G05
G00X4.7602Y-7.4016
M15
G01X4.7602Y-7.4291
M16
G05
T4
G00X3.7717Y-7.1492
M15
G01X3.7717Y-7.1768
M16
G05
G00X3.9685Y-7.1768
M15
G01X3.9685Y-7.1492
M16
G05
M30
