%TF.GenerationSoftware,KiCad,Pcbnew,8.0.7*%
%TF.CreationDate,2025-02-10T18:12:50+08:00*%
%TF.ProjectId,bb-0.4,62622d30-2e34-42e6-9b69-6361645f7063,rev?*%
%TF.SameCoordinates,Original*%
%TF.FileFunction,Copper,L2,Bot*%
%TF.FilePolarity,Positive*%
%FSLAX46Y46*%
G04 Gerber Fmt 4.6, Leading zero omitted, Abs format (unit mm)*
G04 Created by KiCad (PCBNEW 8.0.7) date 2025-02-10 18:12:50*
%MOMM*%
%LPD*%
G01*
G04 APERTURE LIST*
G04 Aperture macros list*
%AMHorizOval*
0 Thick line with rounded ends*
0 $1 width*
0 $2 $3 position (X,Y) of the first rounded end (center of the circle)*
0 $4 $5 position (X,Y) of the second rounded end (center of the circle)*
0 Add line between two ends*
20,1,$1,$2,$3,$4,$5,0*
0 Add two circle primitives to create the rounded ends*
1,1,$1,$2,$3*
1,1,$1,$4,$5*%
%AMRotRect*
0 Rectangle, with rotation*
0 The origin of the aperture is its center*
0 $1 length*
0 $2 width*
0 $3 Rotation angle, in degrees counterclockwise*
0 Add horizontal line*
21,1,$1,$2,0,0,$3*%
G04 Aperture macros list end*
%TA.AperFunction,ComponentPad*%
%ADD10RotRect,1.500000X1.500000X45.000000*%
%TD*%
%TA.AperFunction,ComponentPad*%
%ADD11C,1.500000*%
%TD*%
%TA.AperFunction,ComponentPad*%
%ADD12RotRect,1.500000X1.500000X315.000000*%
%TD*%
%TA.AperFunction,ComponentPad*%
%ADD13R,1.800000X1.800000*%
%TD*%
%TA.AperFunction,ComponentPad*%
%ADD14C,1.800000*%
%TD*%
%TA.AperFunction,ComponentPad*%
%ADD15C,1.600000*%
%TD*%
%TA.AperFunction,ComponentPad*%
%ADD16O,1.600000X1.600000*%
%TD*%
%TA.AperFunction,ComponentPad*%
%ADD17O,1.000000X1.700000*%
%TD*%
%TA.AperFunction,ComponentPad*%
%ADD18R,1.600000X1.600000*%
%TD*%
%TA.AperFunction,ComponentPad*%
%ADD19HorizOval,1.600000X0.000000X0.000000X0.000000X0.000000X0*%
%TD*%
%TA.AperFunction,ComponentPad*%
%ADD20HorizOval,1.600000X0.000000X0.000000X0.000000X0.000000X0*%
%TD*%
%TA.AperFunction,ComponentPad*%
%ADD21HorizOval,1.600000X0.000000X0.000000X0.000000X0.000000X0*%
%TD*%
%TA.AperFunction,ComponentPad*%
%ADD22RotRect,1.600000X1.600000X135.000000*%
%TD*%
%TA.AperFunction,ComponentPad*%
%ADD23RotRect,1.560000X1.560000X135.000000*%
%TD*%
%TA.AperFunction,ComponentPad*%
%ADD24C,1.560000*%
%TD*%
%TA.AperFunction,ComponentPad*%
%ADD25C,2.000000*%
%TD*%
%TA.AperFunction,ComponentPad*%
%ADD26HorizOval,1.600000X0.000000X0.000000X0.000000X0.000000X0*%
%TD*%
%TA.AperFunction,ComponentPad*%
%ADD27RotRect,1.560000X1.560000X225.000000*%
%TD*%
%TA.AperFunction,ComponentPad*%
%ADD28RotRect,1.600000X1.600000X45.000000*%
%TD*%
%TA.AperFunction,ComponentPad*%
%ADD29O,1.600000X2.500000*%
%TD*%
%TA.AperFunction,ComponentPad*%
%ADD30O,1.200000X2.200000*%
%TD*%
%TA.AperFunction,ComponentPad*%
%ADD31O,2.200000X1.200000*%
%TD*%
%TA.AperFunction,ComponentPad*%
%ADD32O,1.600000X2.300000*%
%TD*%
%TA.AperFunction,ComponentPad*%
%ADD33R,2.000000X2.000000*%
%TD*%
%TA.AperFunction,ViaPad*%
%ADD34C,0.800000*%
%TD*%
%TA.AperFunction,Conductor*%
%ADD35C,0.300000*%
%TD*%
%TA.AperFunction,Conductor*%
%ADD36C,0.500000*%
%TD*%
%TA.AperFunction,Conductor*%
%ADD37C,1.000000*%
%TD*%
G04 APERTURE END LIST*
D10*
%TO.P,Q1,1,C*%
%TO.N,Net-(Q1-C)*%
X44658507Y-53450610D03*
D11*
%TO.P,Q1,2,B*%
%TO.N,Net-(Q1-B)*%
X46454558Y-51654559D03*
%TO.P,Q1,3,E*%
%TO.N,GND1*%
X48250609Y-49858508D03*
%TD*%
D12*
%TO.P,Q2,1,C*%
%TO.N,Net-(Q2-C)*%
X165607898Y-50207898D03*
D11*
%TO.P,Q2,2,B*%
%TO.N,Net-(Q2-B)*%
X167403949Y-52003949D03*
%TO.P,Q2,3,E*%
%TO.N,GND2*%
X169200000Y-53800000D03*
%TD*%
D13*
%TO.P,SW1,1,A*%
%TO.N,Net-(Battery1--)*%
X91700000Y-93600000D03*
D14*
%TO.P,SW1,2,B*%
%TO.N,GND1*%
X91700000Y-89100000D03*
%TO.P,SW1,3,A*%
%TO.N,Net-(Battery2--)*%
X96500000Y-93600000D03*
%TO.P,SW1,4,B*%
%TO.N,GND2*%
X96500000Y-89100000D03*
%TD*%
D15*
%TO.P,R19,1*%
%TO.N,Net-(U1-GND)*%
X122500000Y-171110000D03*
D16*
%TO.P,R19,2*%
%TO.N,L-*%
X112340000Y-171110000D03*
%TD*%
D15*
%TO.P,R18,1*%
%TO.N,Net-(U1-ADC)*%
X112430000Y-163920000D03*
D16*
%TO.P,R18,2*%
%TO.N,R+*%
X122590000Y-163920000D03*
%TD*%
%TO.P,R17,2*%
%TO.N,L-*%
X112379999Y-167530000D03*
D15*
%TO.P,R17,1*%
%TO.N,R+*%
X122539999Y-167530000D03*
%TD*%
D17*
%TO.P,J4,S1,SHIELD*%
%TO.N,unconnected-(J4-SHIELD-PadS1)_2*%
X120910000Y-188350000D03*
%TO.N,unconnected-(J4-SHIELD-PadS1)_3*%
X120910000Y-184550000D03*
%TO.N,unconnected-(J4-SHIELD-PadS1)*%
X112270000Y-188350000D03*
%TO.N,unconnected-(J4-SHIELD-PadS1)_1*%
X112270000Y-184550000D03*
%TD*%
D15*
%TO.P,C4,1*%
%TO.N,L+*%
X57832233Y-66467767D03*
%TO.P,C4,2*%
%TO.N,L-*%
X61367767Y-62932233D03*
%TD*%
D18*
%TO.P,D3,1,K*%
%TO.N,GND2*%
X160900000Y-50300000D03*
D16*
%TO.P,D3,2,A*%
%TO.N,Net-(D3-A)*%
X153280000Y-50300000D03*
%TD*%
D15*
%TO.P,R15,1*%
%TO.N,Net-(U1-GND)*%
X144392103Y-53557898D03*
D19*
%TO.P,R15,2*%
%TO.N,Net-(D9-K)*%
X137207898Y-60742103D03*
%TD*%
D15*
%TO.P,R16,1*%
%TO.N,Net-(U1-GND)*%
X153342103Y-53600000D03*
D19*
%TO.P,R16,2*%
%TO.N,Net-(D10-K)*%
X146157898Y-60784205D03*
%TD*%
D15*
%TO.P,R12,1*%
%TO.N,Net-(U1-GND)*%
X70361846Y-53715795D03*
D20*
%TO.P,R12,2*%
%TO.N,Net-(D6-K)*%
X77546051Y-60900000D03*
%TD*%
D13*
%TO.P,D6,1,K*%
%TO.N,Net-(D6-K)*%
X97303673Y-53760000D03*
D14*
%TO.P,D6,2,A*%
%TO.N,Net-(D6-A)*%
X97303673Y-56300000D03*
%TD*%
D18*
%TO.P,D2,1,K*%
%TO.N,Net-(D1-A)*%
X63990001Y-50200000D03*
D16*
%TO.P,D2,2,A*%
%TO.N,Net-(D2-A)*%
X71610001Y-50200000D03*
%TD*%
D15*
%TO.P,R10,1*%
%TO.N,Net-(J4-CC1)*%
X112425000Y-176125000D03*
D16*
%TO.P,R10,2*%
%TO.N,Net-(U1-GND)*%
X122585000Y-176125000D03*
%TD*%
D15*
%TO.P,R13,1*%
%TO.N,Net-(U1-GND)*%
X79415794Y-53515795D03*
D20*
%TO.P,R13,2*%
%TO.N,Net-(D7-K)*%
X86599999Y-60700000D03*
%TD*%
D15*
%TO.P,R1,1*%
%TO.N,Net-(D2-A)*%
X73600000Y-80600000D03*
D21*
%TO.P,R1,2*%
%TO.N,Net-(C1-Pad2)*%
X66415795Y-73415795D03*
%TD*%
D15*
%TO.P,R14,1*%
%TO.N,Net-(U1-GND)*%
X135792103Y-53607898D03*
D19*
%TO.P,R14,2*%
%TO.N,Net-(D8-K)*%
X128607898Y-60792103D03*
%TD*%
D15*
%TO.P,R4,1*%
%TO.N,Net-(C10-Pad1)*%
X145082103Y-70447898D03*
D19*
%TO.P,R4,2*%
%TO.N,Net-(R4-Pad2)*%
X137897898Y-77632103D03*
%TD*%
D15*
%TO.P,C12,1*%
%TO.N,R+*%
X153314466Y-63514466D03*
%TO.P,C12,2*%
%TO.N,L-*%
X156850000Y-67050000D03*
%TD*%
%TO.P,R7,1*%
%TO.N,L-*%
X102710000Y-170420000D03*
D16*
%TO.P,R7,2*%
%TO.N,L+*%
X92550000Y-170420000D03*
%TD*%
D22*
%TO.P,C10,1*%
%TO.N,Net-(C10-Pad1)*%
X152500000Y-70000000D03*
D15*
%TO.P,C10,2*%
%TO.N,Net-(D4-A)*%
X150732233Y-68232233D03*
%TD*%
%TO.P,C11,1*%
%TO.N,Net-(D3-A)*%
X161832233Y-54032233D03*
%TO.P,C11,2*%
%TO.N,Net-(Q2-C)*%
X165367767Y-57567767D03*
%TD*%
D23*
%TO.P,RV1,1,1*%
%TO.N,Net-(R2-Pad2)*%
X79291745Y-87835534D03*
D24*
%TO.P,RV1,2,2*%
X81059512Y-82532233D03*
%TO.P,RV1,3,3*%
%TO.N,L+*%
X75756211Y-84300000D03*
%TD*%
D13*
%TO.P,D5,1,K*%
%TO.N,Net-(D5-K)*%
X90550000Y-53760000D03*
D14*
%TO.P,D5,2,A*%
%TO.N,Net-(D5-A)*%
X90550000Y-56300000D03*
%TD*%
D18*
%TO.P,D4,1,K*%
%TO.N,Net-(D3-A)*%
X150500000Y-50400000D03*
D16*
%TO.P,D4,2,A*%
%TO.N,Net-(D4-A)*%
X142880000Y-50400000D03*
%TD*%
D13*
%TO.P,D10,1,K*%
%TO.N,Net-(D10-K)*%
X124439775Y-53760000D03*
D14*
%TO.P,D10,2,A*%
%TO.N,Net-(D10-A)*%
X124439775Y-56300000D03*
%TD*%
D15*
%TO.P,R11,1*%
%TO.N,Net-(U1-GND)*%
X61307898Y-53707898D03*
D20*
%TO.P,R11,2*%
%TO.N,Net-(D5-K)*%
X68492103Y-60892103D03*
%TD*%
D25*
%TO.P,L4,1,1*%
%TO.N,Net-(Q2-C)*%
X157303949Y-58453949D03*
%TO.P,L4,2,2*%
%TO.N,L-*%
X160896051Y-62046051D03*
%TD*%
D15*
%TO.P,R3,1*%
%TO.N,Net-(D4-A)*%
X141177898Y-80962103D03*
D26*
%TO.P,R3,2*%
%TO.N,Net-(C10-Pad1)*%
X148362103Y-73777898D03*
%TD*%
D18*
%TO.P,D1,1,K*%
%TO.N,GND1*%
X53890000Y-50200000D03*
D16*
%TO.P,D1,2,A*%
%TO.N,Net-(D1-A)*%
X61510000Y-50200000D03*
%TD*%
D15*
%TO.P,R5,1*%
%TO.N,Net-(C1-Pad2)*%
X37507898Y-39407898D03*
D20*
%TO.P,R5,2*%
%TO.N,Net-(Q1-B)*%
X44692103Y-46592103D03*
%TD*%
D15*
%TO.P,C3,1*%
%TO.N,Net-(D1-A)*%
X52335534Y-54064466D03*
%TO.P,C3,2*%
%TO.N,Net-(Q1-C)*%
X48800000Y-57600000D03*
%TD*%
D25*
%TO.P,L1,1,1*%
%TO.N,Net-(C1-Pad2)*%
X33600000Y-34200000D03*
%TO.P,L1,2,2*%
%TO.N,Net-(Q1-B)*%
X30007898Y-37792102D03*
%TD*%
%TO.P,L5,1,1*%
%TO.N,Net-(C10-Pad1)*%
X184700000Y-37700000D03*
%TO.P,L5,2,2*%
%TO.N,Net-(Q2-B)*%
X181107898Y-34107898D03*
%TD*%
D16*
%TO.P,R9,2*%
%TO.N,Net-(U1-GND)*%
X122465000Y-180425000D03*
D15*
%TO.P,R9,1*%
%TO.N,Net-(J4-CC2)*%
X112305000Y-180425000D03*
%TD*%
%TO.P,R6,1*%
%TO.N,Net-(C10-Pad1)*%
X177200000Y-40100000D03*
D19*
%TO.P,R6,2*%
%TO.N,Net-(Q2-B)*%
X170015795Y-47284205D03*
%TD*%
D27*
%TO.P,RV2,1,1*%
%TO.N,Net-(R4-Pad2)*%
X139100000Y-84300000D03*
D24*
%TO.P,RV2,2,2*%
X133796699Y-82532233D03*
%TO.P,RV2,3,3*%
%TO.N,R+*%
X135564466Y-87835534D03*
%TD*%
D28*
%TO.P,C2,1*%
%TO.N,Net-(C1-Pad2)*%
X62447856Y-70352144D03*
D15*
%TO.P,C2,2*%
%TO.N,Net-(D2-A)*%
X64215623Y-68584377D03*
%TD*%
%TO.P,C1,1*%
%TO.N,GND1*%
X39567767Y-47967767D03*
%TO.P,C1,2*%
%TO.N,Net-(C1-Pad2)*%
X36032233Y-44432233D03*
%TD*%
%TO.P,R8,1*%
%TO.N,L-*%
X102840000Y-175020000D03*
D16*
%TO.P,R8,2*%
%TO.N,R+*%
X92680000Y-175020000D03*
%TD*%
D13*
%TO.P,D8,1,K*%
%TO.N,Net-(D8-K)*%
X110839775Y-53760000D03*
D14*
%TO.P,D8,2,A*%
%TO.N,Net-(D8-A)*%
X110839775Y-56300000D03*
%TD*%
D29*
%TO.P,J2,TN*%
%TO.N,unconnected-(J2-PadTN)*%
X100800000Y-181940000D03*
D30*
%TO.P,J2,T*%
%TO.N,R+*%
X103300000Y-181940000D03*
D31*
%TO.P,J2,S*%
%TO.N,L-*%
X98300000Y-186940000D03*
D32*
%TO.P,J2,RN*%
%TO.N,unconnected-(J2-PadRN)*%
X95800000Y-181940000D03*
D30*
%TO.P,J2,R*%
%TO.N,L+*%
X93300000Y-181940000D03*
%TD*%
D13*
%TO.P,D9,1,K*%
%TO.N,Net-(D9-K)*%
X117639775Y-53760000D03*
D14*
%TO.P,D9,2,A*%
%TO.N,Net-(D9-A)*%
X117639775Y-56300000D03*
%TD*%
D13*
%TO.P,D7,1,K*%
%TO.N,Net-(D7-K)*%
X104057346Y-53760000D03*
D14*
%TO.P,D7,2,A*%
%TO.N,Net-(D7-A)*%
X104057346Y-56300000D03*
%TD*%
D15*
%TO.P,R2,1*%
%TO.N,Net-(C1-Pad2)*%
X69507898Y-70507898D03*
D20*
%TO.P,R2,2*%
%TO.N,Net-(R2-Pad2)*%
X76692103Y-77692103D03*
%TD*%
D15*
%TO.P,C8,1*%
%TO.N,GND2*%
X174832233Y-48167767D03*
%TO.P,C8,2*%
%TO.N,Net-(C10-Pad1)*%
X178367767Y-44632233D03*
%TD*%
D25*
%TO.P,L2,1,1*%
%TO.N,Net-(Q1-C)*%
X53503949Y-62196051D03*
%TO.P,L2,2,2*%
%TO.N,L-*%
X57096051Y-58603949D03*
%TD*%
D33*
%TO.P,Battery2,1,+*%
%TO.N,R+*%
X116265225Y-158650000D03*
D25*
%TO.P,Battery2,2,-*%
%TO.N,Net-(Battery2--)*%
X116265225Y-106660000D03*
%TD*%
D33*
%TO.P,Battery1,1,+*%
%TO.N,L+*%
X98570225Y-158650000D03*
D25*
%TO.P,Battery1,2,-*%
%TO.N,Net-(Battery1--)*%
X98570225Y-106660000D03*
%TD*%
D34*
%TO.N,Net-(U1-GND)*%
X117070000Y-139590000D03*
X120010000Y-163350000D03*
X119990000Y-159620000D03*
X100600000Y-105200000D03*
%TO.N,Net-(D8-A)*%
X112100000Y-111200000D03*
%TO.N,Net-(D6-A)*%
X115900000Y-126400000D03*
%TO.N,Net-(D5-A)*%
X110000000Y-126400000D03*
%TO.N,Net-(D7-A)*%
X113800000Y-122300000D03*
%TO.N,Net-(D9-A)*%
X113200000Y-107200000D03*
%TO.N,Net-(D10-A)*%
X110800000Y-116300000D03*
%TD*%
D35*
%TO.N,Net-(D7-A)*%
X113700000Y-122200000D02*
X113800000Y-122300000D01*
X108300000Y-116600000D02*
X113700000Y-122000000D01*
X108300000Y-84500000D02*
X108300000Y-116600000D01*
X104800000Y-81000000D02*
X108300000Y-84500000D01*
X68250000Y-62900000D02*
X86300000Y-81000000D01*
X113700000Y-122000000D02*
X113700000Y-122200000D01*
X68537868Y-62350000D02*
X67810000Y-62450000D01*
X67810000Y-62450000D02*
X68250000Y-62900000D01*
X98000000Y-62350000D02*
X68537868Y-62350000D01*
X99050000Y-61300000D02*
X98000000Y-62350000D01*
X99057346Y-61300000D02*
X99050000Y-61300000D01*
X86300000Y-81000000D02*
X104800000Y-81000000D01*
X104057346Y-56300000D02*
X99057346Y-61300000D01*
D36*
%TO.N,Net-(U1-GND)*%
X119990000Y-142510000D02*
X117070000Y-139590000D01*
X119990000Y-159620000D02*
X119990000Y-142510000D01*
X120010000Y-168620000D02*
X120010000Y-163350000D01*
X122500000Y-171110000D02*
X120010000Y-168620000D01*
D37*
%TO.N,L-*%
X112340000Y-167569999D02*
X112379999Y-167530000D01*
X112340000Y-171110000D02*
X112340000Y-167569999D01*
D36*
%TO.N,Net-(U1-GND)*%
X122500000Y-175560000D02*
X122500000Y-171110000D01*
X122585000Y-176125000D02*
X122585000Y-175645000D01*
X122585000Y-175645000D02*
X122500000Y-175560000D01*
D37*
%TO.N,Net-(Battery1--)*%
X91700000Y-94490000D02*
X91700000Y-93600000D01*
X90900000Y-95290000D02*
X91700000Y-94490000D01*
X98570225Y-106660000D02*
X90900000Y-98989775D01*
X90900000Y-98989775D02*
X90900000Y-95290000D01*
%TO.N,L-*%
X103450000Y-185010000D02*
X100230000Y-185010000D01*
X100230000Y-185010000D02*
X98300000Y-186940000D01*
X104650000Y-183650000D02*
X103450000Y-185010000D01*
X104510000Y-174120000D02*
X104650000Y-183650000D01*
%TO.N,Net-(C10-Pad1)*%
X148362103Y-73727898D02*
X145082103Y-70447898D01*
X148362103Y-73777898D02*
X148362103Y-73727898D01*
%TO.N,R+*%
X103300000Y-180840000D02*
X103300000Y-181940000D01*
X97480000Y-175020000D02*
X103300000Y-180840000D01*
X92680000Y-175020000D02*
X97480000Y-175020000D01*
X95482944Y-175020000D02*
X92680000Y-175020000D01*
X111852944Y-158650000D02*
X95482944Y-175020000D01*
X116265225Y-158650000D02*
X111852944Y-158650000D01*
%TO.N,L-*%
X103740000Y-174120000D02*
X102840000Y-175020000D01*
X110900000Y-161300000D02*
X107020000Y-165180000D01*
X124330225Y-101669775D02*
X124440000Y-161300000D01*
X124440000Y-161300000D02*
X110900000Y-161300000D01*
X138700000Y-87300000D02*
X124330225Y-101669775D01*
X107020000Y-171610000D02*
X104510000Y-174120000D01*
X107020000Y-165180000D02*
X107020000Y-171610000D01*
X156850000Y-67050000D02*
X156850000Y-69020000D01*
X156850000Y-69020000D02*
X138700000Y-87300000D01*
X104510000Y-174120000D02*
X103740000Y-174120000D01*
%TO.N,Net-(C1-Pad2)*%
X66600001Y-73415795D02*
X69507898Y-70507898D01*
X66415795Y-73415795D02*
X66600001Y-73415795D01*
%TO.N,Net-(D2-A)*%
X64215623Y-68584377D02*
X64215623Y-57594378D01*
X64215623Y-57594378D02*
X71610001Y-50200000D01*
%TO.N,Net-(D1-A)*%
X57645534Y-54064466D02*
X61510000Y-50200000D01*
X52335534Y-54064466D02*
X57645534Y-54064466D01*
%TO.N,Net-(U1-GND)*%
X96300000Y-108350000D02*
X96310000Y-108360000D01*
X59867767Y-71729522D02*
X61325717Y-73225717D01*
%TO.N,R+*%
X153342103Y-63486829D02*
X153314466Y-63514466D01*
%TO.N,Net-(U1-GND)*%
X61307898Y-53707898D02*
X59867767Y-55148029D01*
X100600000Y-107800000D02*
X100600000Y-105200000D01*
X122465000Y-176245000D02*
X122585000Y-176125000D01*
X59867767Y-55148029D02*
X59867767Y-71729522D01*
X96310000Y-108360000D02*
X100000000Y-108400000D01*
X61325717Y-73225717D02*
X96300000Y-108350000D01*
X100000000Y-108400000D02*
X100600000Y-107800000D01*
%TO.N,Net-(D4-A)*%
X150732233Y-68232233D02*
X150732233Y-57776707D01*
X143355526Y-50400000D02*
X142880000Y-50400000D01*
X150732233Y-57776707D02*
X143355526Y-50400000D01*
%TO.N,Net-(D3-A)*%
X154100000Y-51600000D02*
X154100000Y-51120000D01*
X154100000Y-51120000D02*
X153280000Y-50300000D01*
X161832233Y-54032233D02*
X156532233Y-54032233D01*
X156532233Y-54032233D02*
X154100000Y-51600000D01*
%TO.N,Net-(Q1-B)*%
X41392103Y-46592103D02*
X44692103Y-46592103D01*
X30007898Y-37792102D02*
X32592102Y-37792102D01*
X32592102Y-37792102D02*
X41392103Y-46592103D01*
X44692103Y-49892104D02*
X46454558Y-51654559D01*
X44692103Y-46592103D02*
X44692103Y-49892104D01*
%TO.N,GND2*%
X169200000Y-53800000D02*
X163721321Y-53800000D01*
X163721321Y-53800000D02*
X160900000Y-50978679D01*
X160900000Y-50978679D02*
X160900000Y-50300000D01*
D35*
%TO.N,Net-(D8-A)*%
X128612546Y-81100000D02*
X112450000Y-81100000D01*
X116200000Y-61650000D02*
X116850000Y-62300000D01*
X145444016Y-63891953D02*
X145444016Y-64268530D01*
X109100000Y-104200000D02*
X112000000Y-107100000D01*
X146550680Y-62760464D02*
X145444016Y-63891953D01*
X116850000Y-62300000D02*
X146213094Y-62300000D01*
X146213094Y-62300000D02*
X146550680Y-62637586D01*
X112000000Y-111100000D02*
X112100000Y-111200000D01*
X146550680Y-62637586D02*
X146550680Y-62760464D01*
X110839775Y-56300000D02*
X116189775Y-61650000D01*
X109100000Y-84450000D02*
X109100000Y-104200000D01*
X116189775Y-61650000D02*
X116200000Y-61650000D01*
X112450000Y-81100000D02*
X109100000Y-84450000D01*
X145444016Y-64268530D02*
X128612546Y-81100000D01*
X112000000Y-107100000D02*
X112000000Y-111100000D01*
%TO.N,Net-(D6-A)*%
X97303673Y-56300000D02*
X94053673Y-59550000D01*
X115900000Y-126200000D02*
X115900000Y-126400000D01*
X68207860Y-59550000D02*
X67300000Y-60457860D01*
X86300000Y-82000000D02*
X104300000Y-82000000D01*
X104300000Y-82000000D02*
X106400000Y-84100000D01*
X106400000Y-84100000D02*
X106400000Y-116700000D01*
X115700000Y-126000000D02*
X115900000Y-126200000D01*
X106400000Y-116700000D02*
X115700000Y-126000000D01*
X94053673Y-59550000D02*
X68207860Y-59550000D01*
X67300000Y-60457860D02*
X67300000Y-62900000D01*
X67300000Y-62900000D02*
X86300000Y-82000000D01*
%TO.N,Net-(D5-A)*%
X104700000Y-119100000D02*
X110000000Y-124400000D01*
X90550000Y-56300000D02*
X88350000Y-58500000D01*
X66800000Y-60250754D02*
X66800000Y-65850000D01*
X85500000Y-83200000D02*
X103400000Y-83200000D01*
X66800000Y-65850000D02*
X85500000Y-83200000D01*
X103400000Y-83200000D02*
X104700000Y-84500000D01*
X104700000Y-84500000D02*
X104700000Y-119100000D01*
X110000000Y-124400000D02*
X110000000Y-126400000D01*
X68550754Y-58500000D02*
X66800000Y-60250754D01*
X88350000Y-58500000D02*
X68550754Y-58500000D01*
%TO.N,Net-(D9-A)*%
X117639775Y-56300000D02*
X120839775Y-59500000D01*
X111100001Y-105200001D02*
X113100000Y-107200000D01*
X111100001Y-83999999D02*
X111100001Y-105200001D01*
X147350000Y-63570000D02*
X128870000Y-82050000D01*
X147350000Y-60349961D02*
X147350000Y-63570000D01*
X128870000Y-82050000D02*
X113050000Y-82050000D01*
X120839775Y-59500000D02*
X146500039Y-59500000D01*
X146500039Y-59500000D02*
X147350000Y-60349961D01*
X113100000Y-107200000D02*
X113200000Y-107200000D01*
X113050000Y-82050000D02*
X111100001Y-83999999D01*
%TO.N,Net-(D10-A)*%
X111000000Y-116500000D02*
X110800000Y-116300000D01*
X126689775Y-58550000D02*
X146257145Y-58550000D01*
X116200000Y-115900000D02*
X116100000Y-116000000D01*
X147850000Y-60142855D02*
X147850000Y-63777106D01*
X124439775Y-56300000D02*
X126689775Y-58550000D01*
X113100000Y-84000000D02*
X113100000Y-85200000D01*
X115600000Y-116500000D02*
X112000000Y-116500000D01*
X147850000Y-63777106D02*
X128577106Y-83050000D01*
X113100000Y-106000000D02*
X116200000Y-109100000D01*
X146257145Y-58550000D02*
X147850000Y-60142855D01*
X113100000Y-85200000D02*
X113100000Y-106000000D01*
X114050000Y-83050000D02*
X113100000Y-84000000D01*
X116100000Y-116000000D02*
X115600000Y-116500000D01*
X116200000Y-109100000D02*
X116200000Y-115900000D01*
X128577106Y-83050000D02*
X114050000Y-83050000D01*
X112000000Y-116500000D02*
X111000000Y-116500000D01*
%TD*%
M02*
