%TF.GenerationSoftware,KiCad,Pcbnew,8.0.7*%
%TF.CreationDate,2025-02-10T18:12:50+08:00*%
%TF.ProjectId,bb-0.4,62622d30-2e34-42e6-9b69-6361645f7063,rev?*%
%TF.SameCoordinates,Original*%
%TF.FileFunction,Soldermask,Top*%
%TF.FilePolarity,Negative*%
%FSLAX46Y46*%
G04 Gerber Fmt 4.6, Leading zero omitted, Abs format (unit mm)*
G04 Created by KiCad (PCBNEW 8.0.7) date 2025-02-10 18:12:50*
%MOMM*%
%LPD*%
G01*
G04 APERTURE LIST*
G04 Aperture macros list*
%AMRoundRect*
0 Rectangle with rounded corners*
0 $1 Rounding radius*
0 $2 $3 $4 $5 $6 $7 $8 $9 X,Y pos of 4 corners*
0 Add a 4 corners polygon primitive as box body*
4,1,4,$2,$3,$4,$5,$6,$7,$8,$9,$2,$3,0*
0 Add four circle primitives for the rounded corners*
1,1,$1+$1,$2,$3*
1,1,$1+$1,$4,$5*
1,1,$1+$1,$6,$7*
1,1,$1+$1,$8,$9*
0 Add four rect primitives between the rounded corners*
20,1,$1+$1,$2,$3,$4,$5,0*
20,1,$1+$1,$4,$5,$6,$7,0*
20,1,$1+$1,$6,$7,$8,$9,0*
20,1,$1+$1,$8,$9,$2,$3,0*%
%AMHorizOval*
0 Thick line with rounded ends*
0 $1 width*
0 $2 $3 position (X,Y) of the first rounded end (center of the circle)*
0 $4 $5 position (X,Y) of the second rounded end (center of the circle)*
0 Add line between two ends*
20,1,$1,$2,$3,$4,$5,0*
0 Add two circle primitives to create the rounded ends*
1,1,$1,$2,$3*
1,1,$1,$4,$5*%
%AMRotRect*
0 Rectangle, with rotation*
0 The origin of the aperture is its center*
0 $1 length*
0 $2 width*
0 $3 Rotation angle, in degrees counterclockwise*
0 Add horizontal line*
21,1,$1,$2,0,0,$3*%
G04 Aperture macros list end*
%ADD10RotRect,1.500000X1.500000X45.000000*%
%ADD11C,1.500000*%
%ADD12RotRect,1.500000X1.500000X315.000000*%
%ADD13R,1.800000X1.800000*%
%ADD14C,1.800000*%
%ADD15C,1.600000*%
%ADD16O,1.600000X1.600000*%
%ADD17O,1.000000X1.700000*%
%ADD18RoundRect,0.225000X-0.225000X-0.575000X0.225000X-0.575000X0.225000X0.575000X-0.225000X0.575000X0*%
%ADD19RoundRect,0.200000X-0.200000X-0.600000X0.200000X-0.600000X0.200000X0.600000X-0.200000X0.600000X0*%
%ADD20RoundRect,0.175000X-0.175000X-0.625000X0.175000X-0.625000X0.175000X0.625000X-0.175000X0.625000X0*%
%ADD21R,1.600000X1.600000*%
%ADD22HorizOval,1.600000X0.000000X0.000000X0.000000X0.000000X0*%
%ADD23HorizOval,1.600000X0.000000X0.000000X0.000000X0.000000X0*%
%ADD24HorizOval,1.600000X0.000000X0.000000X0.000000X0.000000X0*%
%ADD25RotRect,1.600000X1.600000X135.000000*%
%ADD26RotRect,1.560000X1.560000X135.000000*%
%ADD27C,1.560000*%
%ADD28C,2.000000*%
%ADD29HorizOval,1.600000X0.000000X0.000000X0.000000X0.000000X0*%
%ADD30RoundRect,0.375000X-0.375000X0.625000X-0.375000X-0.625000X0.375000X-0.625000X0.375000X0.625000X0*%
%ADD31RoundRect,0.500000X-1.400000X0.500000X-1.400000X-0.500000X1.400000X-0.500000X1.400000X0.500000X0*%
%ADD32RotRect,1.560000X1.560000X225.000000*%
%ADD33RotRect,1.600000X1.600000X45.000000*%
%ADD34R,1.000000X2.500000*%
%ADD35R,1.800000X1.000000*%
%ADD36O,1.600000X2.500000*%
%ADD37O,1.200000X2.200000*%
%ADD38O,2.200000X1.200000*%
%ADD39O,1.600000X2.300000*%
%ADD40C,1.200000*%
%ADD41C,2.640000*%
%ADD42R,2.000000X2.000000*%
G04 APERTURE END LIST*
D10*
%TO.C,Q1*%
X44658507Y-53450610D03*
D11*
X46454558Y-51654559D03*
X48250609Y-49858508D03*
%TD*%
D12*
%TO.C,Q2*%
X165607898Y-50207898D03*
D11*
X167403949Y-52003949D03*
X169200000Y-53800000D03*
%TD*%
D13*
%TO.C,SW1*%
X91700000Y-93600000D03*
D14*
X91700000Y-89100000D03*
X96500000Y-93600000D03*
X96500000Y-89100000D03*
%TD*%
D15*
%TO.C,R19*%
X122500000Y-171110000D03*
D16*
X112340000Y-171110000D03*
%TD*%
D15*
%TO.C,R18*%
X112430000Y-163920000D03*
D16*
X122590000Y-163920000D03*
%TD*%
%TO.C,R17*%
X112379999Y-167530000D03*
D15*
X122539999Y-167530000D03*
%TD*%
D17*
%TO.C,J4*%
X120910000Y-188350000D03*
X120910000Y-184550000D03*
X112270000Y-188350000D03*
X112270000Y-184550000D03*
D18*
X113840000Y-184370000D03*
D19*
X115070000Y-184370000D03*
D20*
X117090000Y-184370000D03*
D18*
X119340000Y-184370000D03*
D19*
X118110000Y-184370000D03*
D20*
X116090000Y-184370000D03*
%TD*%
D15*
%TO.C,C4*%
X57832233Y-66467767D03*
X61367767Y-62932233D03*
%TD*%
D21*
%TO.C,D3*%
X160900000Y-50300000D03*
D16*
X153280000Y-50300000D03*
%TD*%
D15*
%TO.C,R15*%
X144392103Y-53557898D03*
D22*
X137207898Y-60742103D03*
%TD*%
D15*
%TO.C,R16*%
X153342103Y-53600000D03*
D22*
X146157898Y-60784205D03*
%TD*%
D15*
%TO.C,R12*%
X70361846Y-53715795D03*
D23*
X77546051Y-60900000D03*
%TD*%
D13*
%TO.C,D6*%
X97303673Y-53760000D03*
D14*
X97303673Y-56300000D03*
%TD*%
D21*
%TO.C,D2*%
X63990001Y-50200000D03*
D16*
X71610001Y-50200000D03*
%TD*%
D15*
%TO.C,R10*%
X112425000Y-176125000D03*
D16*
X122585000Y-176125000D03*
%TD*%
D15*
%TO.C,R13*%
X79415794Y-53515795D03*
D23*
X86599999Y-60700000D03*
%TD*%
D15*
%TO.C,R1*%
X73600000Y-80600000D03*
D24*
X66415795Y-73415795D03*
%TD*%
D15*
%TO.C,R14*%
X135792103Y-53607898D03*
D22*
X128607898Y-60792103D03*
%TD*%
D15*
%TO.C,R4*%
X145082103Y-70447898D03*
D22*
X137897898Y-77632103D03*
%TD*%
D15*
%TO.C,C12*%
X153314466Y-63514466D03*
X156850000Y-67050000D03*
%TD*%
%TO.C,R7*%
X102710000Y-170420000D03*
D16*
X92550000Y-170420000D03*
%TD*%
D25*
%TO.C,C10*%
X152500000Y-70000000D03*
D15*
X150732233Y-68232233D03*
%TD*%
%TO.C,C11*%
X161832233Y-54032233D03*
X165367767Y-57567767D03*
%TD*%
D26*
%TO.C,RV1*%
X79291745Y-87835534D03*
D27*
X81059512Y-82532233D03*
X75756211Y-84300000D03*
%TD*%
D13*
%TO.C,D5*%
X90550000Y-53760000D03*
D14*
X90550000Y-56300000D03*
%TD*%
D21*
%TO.C,D4*%
X150500000Y-50400000D03*
D16*
X142880000Y-50400000D03*
%TD*%
D13*
%TO.C,D10*%
X124439775Y-53760000D03*
D14*
X124439775Y-56300000D03*
%TD*%
D15*
%TO.C,R11*%
X61307898Y-53707898D03*
D23*
X68492103Y-60892103D03*
%TD*%
D28*
%TO.C,L4*%
X157303949Y-58453949D03*
X160896051Y-62046051D03*
%TD*%
D15*
%TO.C,R3*%
X141177898Y-80962103D03*
D29*
X148362103Y-73777898D03*
%TD*%
D21*
%TO.C,D1*%
X53890000Y-50200000D03*
D16*
X61510000Y-50200000D03*
%TD*%
D15*
%TO.C,R5*%
X37507898Y-39407898D03*
D23*
X44692103Y-46592103D03*
%TD*%
D15*
%TO.C,C3*%
X52335534Y-54064466D03*
X48800000Y-57600000D03*
%TD*%
D30*
%TO.C,U2*%
X114600000Y-138650000D03*
X112300000Y-138650001D03*
D31*
X112300000Y-144949999D03*
D30*
X110000000Y-138650000D03*
%TD*%
D28*
%TO.C,L1*%
X33600000Y-34200000D03*
X30007898Y-37792102D03*
%TD*%
%TO.C,L5*%
X184700000Y-37700000D03*
X181107898Y-34107898D03*
%TD*%
D16*
%TO.C,R9*%
X122465000Y-180425000D03*
D15*
X112305000Y-180425000D03*
%TD*%
%TO.C,R6*%
X177200000Y-40100000D03*
D22*
X170015795Y-47284205D03*
%TD*%
D32*
%TO.C,RV2*%
X139100000Y-84300000D03*
D27*
X133796699Y-82532233D03*
X135564466Y-87835534D03*
%TD*%
D33*
%TO.C,C2*%
X62447856Y-70352144D03*
D15*
X64215623Y-68584377D03*
%TD*%
%TO.C,C1*%
X39567767Y-47967767D03*
X36032233Y-44432233D03*
%TD*%
%TO.C,R8*%
X102840000Y-175020000D03*
D16*
X92680000Y-175020000D03*
%TD*%
D13*
%TO.C,D8*%
X110839775Y-53760000D03*
D14*
X110839775Y-56300000D03*
%TD*%
D34*
%TO.C,U1*%
X103950000Y-128600000D03*
X105950000Y-128600000D03*
X107950000Y-128600000D03*
X109949999Y-128600000D03*
X111950000Y-128600000D03*
X113950001Y-128600000D03*
X115950000Y-128600000D03*
X117950000Y-128600000D03*
D35*
X119449999Y-126000000D03*
X119450000Y-124000000D03*
X119450000Y-122000000D03*
X119450000Y-120000000D03*
X119450000Y-118000000D03*
X119449999Y-116000000D03*
D34*
X117950000Y-113400000D03*
X115950000Y-113400000D03*
X113950001Y-113400000D03*
X111950000Y-113400000D03*
X109949999Y-113400000D03*
X107950000Y-113400000D03*
X105950000Y-113400000D03*
X103950000Y-113400000D03*
%TD*%
D36*
%TO.C,J2*%
X100800000Y-181940000D03*
D37*
X103300000Y-181940000D03*
D38*
X98300000Y-186940000D03*
D39*
X95800000Y-181940000D03*
D37*
X93300000Y-181940000D03*
D40*
X103300000Y-189440000D03*
X103300000Y-186940000D03*
X98300000Y-181940000D03*
X93300000Y-189440000D03*
X93300000Y-186940000D03*
%TD*%
D13*
%TO.C,D9*%
X117639775Y-53760000D03*
D14*
X117639775Y-56300000D03*
%TD*%
D13*
%TO.C,D7*%
X104057346Y-53760000D03*
D14*
X104057346Y-56300000D03*
%TD*%
D15*
%TO.C,R2*%
X69507898Y-70507898D03*
D23*
X76692103Y-77692103D03*
%TD*%
D15*
%TO.C,C8*%
X174832233Y-48167767D03*
X178367767Y-44632233D03*
%TD*%
D28*
%TO.C,L2*%
X53503949Y-62196051D03*
X57096051Y-58603949D03*
%TD*%
D41*
%TO.C,Battery2*%
X122260225Y-155900000D03*
X110270225Y-109420000D03*
D42*
X116265225Y-158650000D03*
D28*
X116265225Y-106660000D03*
%TD*%
D41*
%TO.C,Battery1*%
X104565225Y-155900000D03*
X92575225Y-109420000D03*
D42*
X98570225Y-158650000D03*
D28*
X98570225Y-106660000D03*
%TD*%
M02*
