%TF.GenerationSoftware,KiCad,Pcbnew,8.0.5*%
%TF.CreationDate,2025-01-18T17:06:14+08:00*%
%TF.ProjectId,cheap2,63686561-7032-42e6-9b69-6361645f7063,rev?*%
%TF.SameCoordinates,Original*%
%TF.FileFunction,Drillmap*%
%TF.FilePolarity,Positive*%
%FSLAX45Y45*%
G04 Gerber Fmt 4.5, Leading zero omitted, Abs format (unit mm)*
G04 Created by KiCad (PCBNEW 8.0.5) date 2025-01-18 17:06:14*
%MOMM*%
%LPD*%
G01*
G04 APERTURE LIST*
%ADD10C,0.100000*%
%ADD11C,0.200000*%
%ADD12C,0.102000*%
G04 APERTURE END LIST*
D10*
X12330000Y-18445000D02*
X10062779Y-18445771D01*
X9117023Y-18445000D02*
G75*
G02*
X8922000Y-18254810I-4773J190190D01*
G01*
X12550077Y-10249979D02*
X18539959Y-4099919D01*
X10740000Y-6270000D02*
X6840000Y-6270000D01*
X16510000Y-4810000D02*
X4940000Y-4840000D01*
X12856878Y-8093122D02*
X14640000Y-6270000D01*
X2640000Y-3610000D02*
G75*
G02*
X3740000Y-3610000I550000J0D01*
G01*
X9580000Y-18296119D02*
X9588636Y-18296119D01*
X10062779Y-18445771D02*
X10062867Y-18295983D01*
X11756522Y-13265000D02*
G75*
G02*
X11496522Y-13265000I-130000J0D01*
G01*
X11496522Y-13265000D02*
G75*
G02*
X11756522Y-13265000I130000J0D01*
G01*
X7795000Y-5210000D02*
G75*
G02*
X7395000Y-5210000I-200000J0D01*
G01*
X7395000Y-5210000D02*
G75*
G02*
X7795000Y-5210000I200000J0D01*
G01*
X16510000Y-4810000D02*
X17740000Y-3610000D01*
X2901191Y-4078070D02*
X8920045Y-10254810D01*
X2901191Y-4078070D02*
G75*
G02*
X2640000Y-3610000I288809J468070D01*
G01*
X12363796Y-18445000D02*
X12350704Y-18445000D01*
X3740000Y-3610000D02*
X4940000Y-4840000D01*
X10740000Y-6270000D02*
X14640000Y-6270000D01*
X6840000Y-6270000D02*
X8643122Y-8073122D01*
X8922000Y-18254810D02*
X8920045Y-10254810D01*
X12553986Y-18249978D02*
X12550077Y-10249979D01*
X9987023Y-13265000D02*
G75*
G02*
X9727023Y-13265000I-130000J0D01*
G01*
X9727023Y-13265000D02*
G75*
G02*
X9987023Y-13265000I130000J0D01*
G01*
X14140000Y-5210000D02*
G75*
G02*
X13740000Y-5210000I-200000J0D01*
G01*
X13740000Y-5210000D02*
G75*
G02*
X14140000Y-5210000I200000J0D01*
G01*
X12856878Y-8093122D02*
X8643122Y-8073122D01*
X10062867Y-18295983D02*
X10040000Y-18295983D01*
X17740000Y-3610000D02*
G75*
G02*
X18840000Y-3610000I550000J0D01*
G01*
X10040000Y-18295983D02*
X9588636Y-18296119D01*
X9117023Y-18445000D02*
X9580000Y-18444992D01*
X9580000Y-18444992D02*
X9580000Y-18296119D01*
X12553986Y-18249978D02*
G75*
G02*
X12363796Y-18444996I-190186J-4772D01*
G01*
X18840000Y-3610000D02*
G75*
G02*
X18539959Y-4099919I-550000J0D01*
G01*
X12330000Y-18445000D02*
X12350704Y-18445000D01*
D11*
D10*
X11155000Y-10505000D02*
X11195000Y-10545000D01*
X11195000Y-10505000D02*
X11155000Y-10545000D01*
X11245000Y-15110000D02*
X11285000Y-15150000D01*
X11285000Y-15110000D02*
X11245000Y-15150000D01*
X11260000Y-17500000D02*
X11300000Y-17540000D01*
X11300000Y-17500000D02*
X11260000Y-17540000D01*
X11405000Y-9675000D02*
X11445000Y-9715000D01*
X11445000Y-9675000D02*
X11405000Y-9715000D01*
X11480000Y-15085000D02*
X11520000Y-15125000D01*
X11520000Y-15085000D02*
X11480000Y-15125000D01*
X11860000Y-9800000D02*
X11900000Y-9840000D01*
X11900000Y-9800000D02*
X11860000Y-9840000D01*
X12135000Y-10305000D02*
X12175000Y-10345000D01*
X12175000Y-10305000D02*
X12135000Y-10345000D01*
X9347023Y-17495000D02*
G75*
G02*
X9307023Y-17495000I-20000J0D01*
G01*
X9307023Y-17495000D02*
G75*
G02*
X9347023Y-17495000I20000J0D01*
G01*
X9307023Y-17445000D02*
X9307023Y-17545000D01*
X9347023Y-17545000D02*
G75*
G02*
X9307023Y-17545000I-20000J0D01*
G01*
X9347023Y-17545000D02*
X9347023Y-17445000D01*
X9347023Y-17445000D02*
G75*
G03*
X9307023Y-17445000I-20000J0D01*
G01*
X9847023Y-17995000D02*
G75*
G02*
X9807023Y-17995000I-20000J0D01*
G01*
X9807023Y-17995000D02*
G75*
G02*
X9847023Y-17995000I20000J0D01*
G01*
X9777023Y-18015000D02*
X9877023Y-18015000D01*
X9877023Y-17975000D02*
G75*
G02*
X9877023Y-18015000I0J-20000D01*
G01*
X9877023Y-17975000D02*
X9777023Y-17975000D01*
X9777023Y-17975000D02*
G75*
G03*
X9777023Y-18015000I0J-20000D01*
G01*
X10347023Y-17495000D02*
G75*
G02*
X10307023Y-17495000I-20000J0D01*
G01*
X10307023Y-17495000D02*
G75*
G02*
X10347023Y-17495000I20000J0D01*
G01*
X10347023Y-17545000D02*
X10347023Y-17445000D01*
X10307023Y-17445000D02*
G75*
G02*
X10347023Y-17445000I20000J0D01*
G01*
X10307023Y-17445000D02*
X10307023Y-17545000D01*
X10307023Y-17545000D02*
G75*
G03*
X10347023Y-17545000I20000J0D01*
G01*
X11245022Y-17720000D02*
X11245022Y-17770000D01*
X11220022Y-17745000D02*
X11270022Y-17745000D01*
X11220022Y-17710000D02*
X11220022Y-17780000D01*
X11270022Y-17780000D02*
G75*
G02*
X11220022Y-17780000I-25000J0D01*
G01*
X11270022Y-17780000D02*
X11270022Y-17710000D01*
X11270022Y-17710000D02*
G75*
G03*
X11220022Y-17710000I-25000J0D01*
G01*
X11245022Y-18100000D02*
X11245022Y-18150000D01*
X11220022Y-18125000D02*
X11270022Y-18125000D01*
X11220022Y-18090000D02*
X11220022Y-18160000D01*
X11270022Y-18160000D02*
G75*
G02*
X11220022Y-18160000I-25000J0D01*
G01*
X11270022Y-18160000D02*
X11270022Y-18090000D01*
X11270022Y-18090000D02*
G75*
G03*
X11220022Y-18090000I-25000J0D01*
G01*
X12109022Y-17720000D02*
X12109022Y-17770000D01*
X12084022Y-17745000D02*
X12134022Y-17745000D01*
X12084022Y-17710000D02*
X12084022Y-17780000D01*
X12134022Y-17780000D02*
G75*
G02*
X12084022Y-17780000I-25000J0D01*
G01*
X12134022Y-17780000D02*
X12134022Y-17710000D01*
X12134022Y-17710000D02*
G75*
G03*
X12084022Y-17710000I-25000J0D01*
G01*
X12109022Y-18100000D02*
X12109022Y-18150000D01*
X12084022Y-18125000D02*
X12134022Y-18125000D01*
X12084022Y-18090000D02*
X12084022Y-18160000D01*
X12134022Y-18160000D02*
G75*
G02*
X12084022Y-18160000I-25000J0D01*
G01*
X12134022Y-18160000D02*
X12134022Y-18090000D01*
X12134022Y-18090000D02*
G75*
G03*
X12084022Y-18090000I-25000J0D01*
G01*
X3029074Y-3807495D02*
X3029074Y-3750926D01*
X2972505Y-3750926D01*
X2972505Y-3807495D01*
X3029074Y-3807495D01*
X3388284Y-3448284D02*
X3388284Y-3391715D01*
X3331715Y-3391715D01*
X3331715Y-3448284D01*
X3388284Y-3448284D01*
X3631508Y-4471508D02*
X3631508Y-4414939D01*
X3574939Y-4414939D01*
X3574939Y-4471508D01*
X3631508Y-4471508D01*
X3779074Y-3969074D02*
X3779074Y-3912505D01*
X3722505Y-3912505D01*
X3722505Y-3969074D01*
X3779074Y-3969074D01*
X3985061Y-4825061D02*
X3985061Y-4768492D01*
X3928492Y-4768492D01*
X3928492Y-4825061D01*
X3985061Y-4825061D01*
X4494135Y-5373346D02*
X4494135Y-5316777D01*
X4437566Y-5316777D01*
X4437566Y-5373346D01*
X4494135Y-5373346D01*
X4497495Y-4687495D02*
X4497495Y-4630926D01*
X4440926Y-4630926D01*
X4440926Y-4687495D01*
X4497495Y-4687495D01*
X4673740Y-5193740D02*
X4673740Y-5137171D01*
X4617171Y-5137171D01*
X4617171Y-5193740D01*
X4673740Y-5193740D01*
X4853345Y-5014135D02*
X4853345Y-4957566D01*
X4796776Y-4957566D01*
X4796776Y-5014135D01*
X4853345Y-5014135D01*
X4908285Y-5788284D02*
X4908285Y-5731715D01*
X4851716Y-5731715D01*
X4851716Y-5788284D01*
X4908285Y-5788284D01*
X5261838Y-5434731D02*
X5261838Y-5378162D01*
X5205269Y-5378162D01*
X5205269Y-5434731D01*
X5261838Y-5434731D01*
X5378679Y-6247890D02*
X5378679Y-6191321D01*
X5322110Y-6191321D01*
X5322110Y-6247890D01*
X5378679Y-6247890D01*
X5417285Y-5048285D02*
X5417285Y-4991716D01*
X5360716Y-4991716D01*
X5360716Y-5048285D01*
X5417285Y-5048285D01*
X5737890Y-5888679D02*
X5737890Y-5832110D01*
X5681321Y-5832110D01*
X5681321Y-5888679D01*
X5737890Y-5888679D01*
X5811508Y-6675061D02*
X5811508Y-6618492D01*
X5754939Y-6618492D01*
X5754939Y-6675061D01*
X5811508Y-6675061D01*
X6159074Y-5399074D02*
X6159074Y-5342505D01*
X6102505Y-5342505D01*
X6102505Y-5399074D01*
X6159074Y-5399074D01*
X6165061Y-6321508D02*
X6165061Y-6264939D01*
X6108492Y-6264939D01*
X6108492Y-6321508D01*
X6165061Y-6321508D01*
X6179284Y-5048285D02*
X6179284Y-4991716D01*
X6122715Y-4991716D01*
X6122715Y-5048285D01*
X6179284Y-5048285D01*
X6273070Y-7063499D02*
X6273070Y-7006930D01*
X6216501Y-7006930D01*
X6216501Y-7063499D01*
X6273070Y-7063499D01*
X6427285Y-5048285D02*
X6427285Y-4991716D01*
X6370716Y-4991716D01*
X6370716Y-5048285D01*
X6427285Y-5048285D01*
X6449847Y-6886722D02*
X6449847Y-6830153D01*
X6393278Y-6830153D01*
X6393278Y-6886722D01*
X6449847Y-6886722D01*
X6669864Y-7369864D02*
X6669864Y-7313295D01*
X6613295Y-7313295D01*
X6613295Y-7369864D01*
X6669864Y-7369864D01*
X6877495Y-6117495D02*
X6877495Y-6060926D01*
X6820926Y-6060926D01*
X6820926Y-6117495D01*
X6877495Y-6117495D01*
X6979074Y-7079074D02*
X6979074Y-7022505D01*
X6922505Y-7022505D01*
X6922505Y-7079074D01*
X6979074Y-7079074D01*
X7064469Y-5399864D02*
X7064469Y-5343295D01*
X7007900Y-5343295D01*
X7007900Y-5399864D01*
X7064469Y-5399864D01*
X7189285Y-5048285D02*
X7189285Y-4991716D01*
X7132716Y-4991716D01*
X7132716Y-5048285D01*
X7189285Y-5048285D01*
X7388284Y-8088284D02*
X7388284Y-8031715D01*
X7331715Y-8031715D01*
X7331715Y-8088284D01*
X7388284Y-8088284D01*
X7697495Y-7797495D02*
X7697495Y-7740926D01*
X7640926Y-7740926D01*
X7640926Y-7797495D01*
X7697495Y-7797495D01*
X7782890Y-6118284D02*
X7782890Y-6061715D01*
X7726321Y-6061715D01*
X7726321Y-6118284D01*
X7782890Y-6118284D01*
X7969864Y-5379864D02*
X7969864Y-5323295D01*
X7913295Y-5323295D01*
X7913295Y-5379864D01*
X7969864Y-5379864D01*
X8688284Y-6098284D02*
X8688284Y-6041715D01*
X8631715Y-6041715D01*
X8631715Y-6098284D01*
X8688284Y-6098284D01*
X9357307Y-16503284D02*
X9357307Y-16446715D01*
X9300738Y-16446715D01*
X9300738Y-16503284D01*
X9357307Y-16503284D01*
X9357307Y-16933285D02*
X9357307Y-16876716D01*
X9300738Y-16876716D01*
X9300738Y-16933285D01*
X9357307Y-16933285D01*
X9605307Y-17523285D02*
X9605307Y-17466716D01*
X9548738Y-17466716D01*
X9548738Y-17523285D01*
X9605307Y-17523285D01*
X9537023Y-17460000D02*
X9537023Y-17530000D01*
X9617023Y-17530000D02*
G75*
G02*
X9537023Y-17530000I-40000J0D01*
G01*
X9617023Y-17530000D02*
X9617023Y-17460000D01*
X9617023Y-17460000D02*
G75*
G03*
X9537023Y-17460000I-40000J0D01*
G01*
X10105307Y-17523285D02*
X10105307Y-17466716D01*
X10048738Y-17466716D01*
X10048738Y-17523285D01*
X10105307Y-17523285D01*
X10117023Y-17530000D02*
X10117023Y-17460000D01*
X10037023Y-17460000D02*
G75*
G02*
X10117023Y-17460000I40000J0D01*
G01*
X10037023Y-17460000D02*
X10037023Y-17530000D01*
X10037023Y-17530000D02*
G75*
G03*
X10117023Y-17530000I40000J0D01*
G01*
X10373307Y-16503284D02*
X10373307Y-16446715D01*
X10316738Y-16446715D01*
X10316738Y-16503284D01*
X10373307Y-16503284D01*
X10373307Y-16933285D02*
X10373307Y-16876716D01*
X10316738Y-16876716D01*
X10316738Y-16933285D01*
X10373307Y-16933285D01*
X11177307Y-16933285D02*
X11177307Y-16876716D01*
X11120738Y-16876716D01*
X11120738Y-16933285D01*
X11177307Y-16933285D01*
X11189307Y-16503284D02*
X11189307Y-16446715D01*
X11132738Y-16446715D01*
X11132738Y-16503284D01*
X11189307Y-16503284D01*
X12193307Y-16933285D02*
X12193307Y-16876716D01*
X12136738Y-16876716D01*
X12136738Y-16933285D01*
X12193307Y-16933285D01*
X12205307Y-16503284D02*
X12205307Y-16446715D01*
X12148738Y-16446715D01*
X12148738Y-16503284D01*
X12205307Y-16503284D01*
X12889074Y-6107495D02*
X12889074Y-6050926D01*
X12832505Y-6050926D01*
X12832505Y-6107495D01*
X12889074Y-6107495D01*
X13607495Y-5389074D02*
X13607495Y-5332505D01*
X13550926Y-5332505D01*
X13550926Y-5389074D01*
X13607495Y-5389074D01*
X13749074Y-6102495D02*
X13749074Y-6045926D01*
X13692505Y-6045926D01*
X13692505Y-6102495D01*
X13749074Y-6102495D01*
X13834074Y-7927495D02*
X13834074Y-7870926D01*
X13777505Y-7870926D01*
X13777505Y-7927495D01*
X13834074Y-7927495D01*
X14134864Y-8251705D02*
X14134864Y-8195136D01*
X14078295Y-8195136D01*
X14078295Y-8251705D01*
X14134864Y-8251705D01*
X14316284Y-5068285D02*
X14316284Y-5011716D01*
X14259715Y-5011716D01*
X14259715Y-5068285D01*
X14316284Y-5068285D01*
X14467495Y-5384074D02*
X14467495Y-5327505D01*
X14410926Y-5327505D01*
X14410926Y-5384074D01*
X14467495Y-5384074D01*
X14552495Y-7209074D02*
X14552495Y-7152505D01*
X14495926Y-7152505D01*
X14495926Y-7209074D01*
X14552495Y-7209074D01*
X14644074Y-6106705D02*
X14644074Y-6050136D01*
X14587505Y-6050136D01*
X14587505Y-6106705D01*
X14644074Y-6106705D01*
X14853284Y-7533284D02*
X14853284Y-7476715D01*
X14796715Y-7476715D01*
X14796715Y-7533284D01*
X14853284Y-7533284D01*
X15078284Y-5068285D02*
X15078284Y-5011716D01*
X15021715Y-5011716D01*
X15021715Y-5068285D01*
X15078284Y-5068285D01*
X15101508Y-6851508D02*
X15101508Y-6794939D01*
X15044939Y-6794939D01*
X15044939Y-6851508D01*
X15101508Y-6851508D01*
X15278284Y-7028284D02*
X15278284Y-6971715D01*
X15221715Y-6971715D01*
X15221715Y-7028284D01*
X15278284Y-7028284D01*
X15356284Y-5058285D02*
X15356284Y-5001716D01*
X15299715Y-5001716D01*
X15299715Y-5058285D01*
X15356284Y-5058285D01*
X15359731Y-6379731D02*
X15359731Y-6323162D01*
X15303162Y-6323162D01*
X15303162Y-6379731D01*
X15359731Y-6379731D01*
X15362495Y-5388285D02*
X15362495Y-5331716D01*
X15305926Y-5331716D01*
X15305926Y-5388285D01*
X15362495Y-5388285D01*
X15713284Y-6733284D02*
X15713284Y-6676715D01*
X15656715Y-6676715D01*
X15656715Y-6733284D01*
X15713284Y-6733284D01*
X15758679Y-5873679D02*
X15758679Y-5817110D01*
X15702110Y-5817110D01*
X15702110Y-5873679D01*
X15758679Y-5873679D01*
X16117890Y-6232890D02*
X16117890Y-6176321D01*
X16061321Y-6176321D01*
X16061321Y-6232890D01*
X16117890Y-6232890D01*
X16118284Y-5058285D02*
X16118284Y-5001716D01*
X16061715Y-5001716D01*
X16061715Y-5058285D01*
X16118284Y-5058285D01*
X16211508Y-5431508D02*
X16211508Y-5374939D01*
X16154939Y-5374939D01*
X16154939Y-5431508D01*
X16211508Y-5431508D01*
X16565061Y-5785061D02*
X16565061Y-5728492D01*
X16508492Y-5728492D01*
X16508492Y-5785061D01*
X16565061Y-5785061D01*
X16589074Y-5049074D02*
X16589074Y-4992505D01*
X16532505Y-4992505D01*
X16532505Y-5049074D01*
X16589074Y-5049074D01*
X16768679Y-5228679D02*
X16768679Y-5172110D01*
X16712110Y-5172110D01*
X16712110Y-5228679D01*
X16768679Y-5228679D01*
X16948285Y-5408285D02*
X16948285Y-5351716D01*
X16891716Y-5351716D01*
X16891716Y-5408285D01*
X16948285Y-5408285D01*
X17029864Y-4756705D02*
X17029864Y-4700136D01*
X16973295Y-4700136D01*
X16973295Y-4756705D01*
X17029864Y-4756705D01*
X17511508Y-4845061D02*
X17511508Y-4788492D01*
X17454939Y-4788492D01*
X17454939Y-4845061D01*
X17511508Y-4845061D01*
X17748285Y-4038284D02*
X17748285Y-3981715D01*
X17691716Y-3981715D01*
X17691716Y-4038284D01*
X17748285Y-4038284D01*
X17865061Y-4491508D02*
X17865061Y-4434939D01*
X17808492Y-4434939D01*
X17808492Y-4491508D01*
X17865061Y-4491508D01*
X18139074Y-3439074D02*
X18139074Y-3382505D01*
X18082505Y-3382505D01*
X18082505Y-3439074D01*
X18139074Y-3439074D01*
X18498285Y-3798284D02*
X18498285Y-3741715D01*
X18441716Y-3741715D01*
X18441716Y-3798284D01*
X18498285Y-3798284D01*
X9055000Y-5421000D02*
X9100000Y-5376000D01*
X9055000Y-5331000D01*
X9010000Y-5376000D01*
X9055000Y-5421000D01*
X9055000Y-5675000D02*
X9100000Y-5630000D01*
X9055000Y-5585000D01*
X9010000Y-5630000D01*
X9055000Y-5675000D01*
X9090000Y-8925000D02*
X9135000Y-8880000D01*
X9090000Y-8835000D01*
X9045000Y-8880000D01*
X9090000Y-8925000D01*
X9090000Y-9425000D02*
X9135000Y-9380000D01*
X9090000Y-9335000D01*
X9045000Y-9380000D01*
X9090000Y-9425000D01*
X9690000Y-8925000D02*
X9735000Y-8880000D01*
X9690000Y-8835000D01*
X9645000Y-8880000D01*
X9690000Y-8925000D01*
X9690000Y-9425000D02*
X9735000Y-9380000D01*
X9690000Y-9335000D01*
X9645000Y-9380000D01*
X9690000Y-9425000D01*
X9730367Y-5421000D02*
X9775367Y-5376000D01*
X9730367Y-5331000D01*
X9685367Y-5376000D01*
X9730367Y-5421000D01*
X9730367Y-5675000D02*
X9775367Y-5630000D01*
X9730367Y-5585000D01*
X9685367Y-5630000D01*
X9730367Y-5675000D01*
X10405735Y-5421000D02*
X10450735Y-5376000D01*
X10405735Y-5331000D01*
X10360735Y-5376000D01*
X10405735Y-5421000D01*
X10405735Y-5675000D02*
X10450735Y-5630000D01*
X10405735Y-5585000D01*
X10360735Y-5630000D01*
X10405735Y-5675000D01*
X11083978Y-5421000D02*
X11128978Y-5376000D01*
X11083978Y-5331000D01*
X11038978Y-5376000D01*
X11083978Y-5421000D01*
X11083978Y-5675000D02*
X11128978Y-5630000D01*
X11083978Y-5585000D01*
X11038978Y-5630000D01*
X11083978Y-5675000D01*
X11763977Y-5421000D02*
X11808977Y-5376000D01*
X11763977Y-5331000D01*
X11718977Y-5376000D01*
X11763977Y-5421000D01*
X11763977Y-5675000D02*
X11808977Y-5630000D01*
X11763977Y-5585000D01*
X11718977Y-5630000D01*
X11763977Y-5675000D01*
X12443977Y-5421000D02*
X12488977Y-5376000D01*
X12443977Y-5331000D01*
X12398977Y-5376000D01*
X12443977Y-5421000D01*
X12443977Y-5675000D02*
X12488977Y-5630000D01*
X12443977Y-5585000D01*
X12398977Y-5630000D01*
X12443977Y-5675000D01*
X7525621Y-8380000D02*
X7625621Y-8480000D01*
X7625621Y-8380000D02*
X7525621Y-8480000D01*
X7625621Y-8430000D02*
G75*
G02*
X7525621Y-8430000I-50000J0D01*
G01*
X7525621Y-8430000D02*
G75*
G02*
X7625621Y-8430000I50000J0D01*
G01*
X7879174Y-8733553D02*
X7979174Y-8833553D01*
X7979174Y-8733553D02*
X7879174Y-8833553D01*
X7979174Y-8783553D02*
G75*
G02*
X7879174Y-8783553I-50000J0D01*
G01*
X7879174Y-8783553D02*
G75*
G02*
X7979174Y-8783553I50000J0D01*
G01*
X8055951Y-8203223D02*
X8155951Y-8303223D01*
X8155951Y-8203223D02*
X8055951Y-8303223D01*
X8155951Y-8253223D02*
G75*
G02*
X8055951Y-8253223I-50000J0D01*
G01*
X8055951Y-8253223D02*
G75*
G02*
X8155951Y-8253223I50000J0D01*
G01*
X13329670Y-8203223D02*
X13429670Y-8303223D01*
X13429670Y-8203223D02*
X13329670Y-8303223D01*
X13429670Y-8253223D02*
G75*
G02*
X13329670Y-8253223I-50000J0D01*
G01*
X13329670Y-8253223D02*
G75*
G02*
X13429670Y-8253223I50000J0D01*
G01*
X13506447Y-8733553D02*
X13606447Y-8833553D01*
X13606447Y-8733553D02*
X13506447Y-8833553D01*
X13606447Y-8783553D02*
G75*
G02*
X13506447Y-8783553I-50000J0D01*
G01*
X13506447Y-8783553D02*
G75*
G02*
X13606447Y-8783553I50000J0D01*
G01*
X13860000Y-8380000D02*
X13960000Y-8480000D01*
X13960000Y-8380000D02*
X13860000Y-8480000D01*
X13960000Y-8430000D02*
G75*
G02*
X13860000Y-8430000I-50000J0D01*
G01*
X13860000Y-8430000D02*
G75*
G02*
X13960000Y-8430000I50000J0D01*
G01*
D12*
X9806023Y-10615000D02*
X9908023Y-10717000D01*
X9908023Y-10615000D02*
X9806023Y-10717000D01*
X9857023Y-10615000D02*
X9857023Y-10717000D01*
X9806023Y-10666000D02*
X9908023Y-10666000D01*
X9806023Y-15814000D02*
X9908023Y-15916000D01*
X9908023Y-15814000D02*
X9806023Y-15916000D01*
X9857023Y-15814000D02*
X9857023Y-15916000D01*
X9806023Y-15865000D02*
X9908023Y-15865000D01*
X11575522Y-10615000D02*
X11677522Y-10717000D01*
X11677522Y-10615000D02*
X11575522Y-10717000D01*
X11626522Y-10615000D02*
X11626522Y-10717000D01*
X11575522Y-10666000D02*
X11677522Y-10666000D01*
X11575522Y-15814000D02*
X11677522Y-15916000D01*
X11677522Y-15814000D02*
X11575522Y-15916000D01*
X11626522Y-15814000D02*
X11626522Y-15916000D01*
X11575522Y-15865000D02*
X11677522Y-15865000D01*
D11*
X2895777Y-18762255D02*
X2895777Y-18562255D01*
X2895777Y-18562255D02*
X2943396Y-18562255D01*
X2943396Y-18562255D02*
X2971967Y-18571779D01*
X2971967Y-18571779D02*
X2991015Y-18590826D01*
X2991015Y-18590826D02*
X3000539Y-18609874D01*
X3000539Y-18609874D02*
X3010062Y-18647969D01*
X3010062Y-18647969D02*
X3010062Y-18676541D01*
X3010062Y-18676541D02*
X3000539Y-18714636D01*
X3000539Y-18714636D02*
X2991015Y-18733683D01*
X2991015Y-18733683D02*
X2971967Y-18752731D01*
X2971967Y-18752731D02*
X2943396Y-18762255D01*
X2943396Y-18762255D02*
X2895777Y-18762255D01*
X3095777Y-18762255D02*
X3095777Y-18628921D01*
X3095777Y-18667017D02*
X3105301Y-18647969D01*
X3105301Y-18647969D02*
X3114824Y-18638445D01*
X3114824Y-18638445D02*
X3133872Y-18628921D01*
X3133872Y-18628921D02*
X3152920Y-18628921D01*
X3219586Y-18762255D02*
X3219586Y-18628921D01*
X3219586Y-18562255D02*
X3210062Y-18571779D01*
X3210062Y-18571779D02*
X3219586Y-18581302D01*
X3219586Y-18581302D02*
X3229110Y-18571779D01*
X3229110Y-18571779D02*
X3219586Y-18562255D01*
X3219586Y-18562255D02*
X3219586Y-18581302D01*
X3343396Y-18762255D02*
X3324348Y-18752731D01*
X3324348Y-18752731D02*
X3314824Y-18733683D01*
X3314824Y-18733683D02*
X3314824Y-18562255D01*
X3448158Y-18762255D02*
X3429110Y-18752731D01*
X3429110Y-18752731D02*
X3419586Y-18733683D01*
X3419586Y-18733683D02*
X3419586Y-18562255D01*
X3676729Y-18762255D02*
X3676729Y-18562255D01*
X3676729Y-18562255D02*
X3743396Y-18705112D01*
X3743396Y-18705112D02*
X3810062Y-18562255D01*
X3810062Y-18562255D02*
X3810062Y-18762255D01*
X3991015Y-18762255D02*
X3991015Y-18657493D01*
X3991015Y-18657493D02*
X3981491Y-18638445D01*
X3981491Y-18638445D02*
X3962443Y-18628921D01*
X3962443Y-18628921D02*
X3924348Y-18628921D01*
X3924348Y-18628921D02*
X3905301Y-18638445D01*
X3991015Y-18752731D02*
X3971967Y-18762255D01*
X3971967Y-18762255D02*
X3924348Y-18762255D01*
X3924348Y-18762255D02*
X3905301Y-18752731D01*
X3905301Y-18752731D02*
X3895777Y-18733683D01*
X3895777Y-18733683D02*
X3895777Y-18714636D01*
X3895777Y-18714636D02*
X3905301Y-18695588D01*
X3905301Y-18695588D02*
X3924348Y-18686064D01*
X3924348Y-18686064D02*
X3971967Y-18686064D01*
X3971967Y-18686064D02*
X3991015Y-18676541D01*
X4086253Y-18628921D02*
X4086253Y-18828921D01*
X4086253Y-18638445D02*
X4105301Y-18628921D01*
X4105301Y-18628921D02*
X4143396Y-18628921D01*
X4143396Y-18628921D02*
X4162443Y-18638445D01*
X4162443Y-18638445D02*
X4171967Y-18647969D01*
X4171967Y-18647969D02*
X4181491Y-18667017D01*
X4181491Y-18667017D02*
X4181491Y-18724160D01*
X4181491Y-18724160D02*
X4171967Y-18743207D01*
X4171967Y-18743207D02*
X4162443Y-18752731D01*
X4162443Y-18752731D02*
X4143396Y-18762255D01*
X4143396Y-18762255D02*
X4105301Y-18762255D01*
X4105301Y-18762255D02*
X4086253Y-18752731D01*
X4267205Y-18743207D02*
X4276729Y-18752731D01*
X4276729Y-18752731D02*
X4267205Y-18762255D01*
X4267205Y-18762255D02*
X4257682Y-18752731D01*
X4257682Y-18752731D02*
X4267205Y-18743207D01*
X4267205Y-18743207D02*
X4267205Y-18762255D01*
X4267205Y-18638445D02*
X4276729Y-18647969D01*
X4276729Y-18647969D02*
X4267205Y-18657493D01*
X4267205Y-18657493D02*
X4257682Y-18647969D01*
X4257682Y-18647969D02*
X4267205Y-18638445D01*
X4267205Y-18638445D02*
X4267205Y-18657493D01*
D10*
X2595000Y-19070771D02*
X2635000Y-19110771D01*
X2635000Y-19070771D02*
X2595000Y-19110771D01*
D11*
X2933872Y-18982255D02*
X2952920Y-18982255D01*
X2952920Y-18982255D02*
X2971967Y-18991779D01*
X2971967Y-18991779D02*
X2981491Y-19001302D01*
X2981491Y-19001302D02*
X2991015Y-19020350D01*
X2991015Y-19020350D02*
X3000539Y-19058445D01*
X3000539Y-19058445D02*
X3000539Y-19106064D01*
X3000539Y-19106064D02*
X2991015Y-19144160D01*
X2991015Y-19144160D02*
X2981491Y-19163207D01*
X2981491Y-19163207D02*
X2971967Y-19172731D01*
X2971967Y-19172731D02*
X2952920Y-19182255D01*
X2952920Y-19182255D02*
X2933872Y-19182255D01*
X2933872Y-19182255D02*
X2914824Y-19172731D01*
X2914824Y-19172731D02*
X2905301Y-19163207D01*
X2905301Y-19163207D02*
X2895777Y-19144160D01*
X2895777Y-19144160D02*
X2886253Y-19106064D01*
X2886253Y-19106064D02*
X2886253Y-19058445D01*
X2886253Y-19058445D02*
X2895777Y-19020350D01*
X2895777Y-19020350D02*
X2905301Y-19001302D01*
X2905301Y-19001302D02*
X2914824Y-18991779D01*
X2914824Y-18991779D02*
X2933872Y-18982255D01*
X3086253Y-19163207D02*
X3095777Y-19172731D01*
X3095777Y-19172731D02*
X3086253Y-19182255D01*
X3086253Y-19182255D02*
X3076729Y-19172731D01*
X3076729Y-19172731D02*
X3086253Y-19163207D01*
X3086253Y-19163207D02*
X3086253Y-19182255D01*
X3267205Y-19048921D02*
X3267205Y-19182255D01*
X3219586Y-18972731D02*
X3171967Y-19115588D01*
X3171967Y-19115588D02*
X3295777Y-19115588D01*
X3410062Y-18982255D02*
X3429110Y-18982255D01*
X3429110Y-18982255D02*
X3448158Y-18991779D01*
X3448158Y-18991779D02*
X3457682Y-19001302D01*
X3457682Y-19001302D02*
X3467205Y-19020350D01*
X3467205Y-19020350D02*
X3476729Y-19058445D01*
X3476729Y-19058445D02*
X3476729Y-19106064D01*
X3476729Y-19106064D02*
X3467205Y-19144160D01*
X3467205Y-19144160D02*
X3457682Y-19163207D01*
X3457682Y-19163207D02*
X3448158Y-19172731D01*
X3448158Y-19172731D02*
X3429110Y-19182255D01*
X3429110Y-19182255D02*
X3410062Y-19182255D01*
X3410062Y-19182255D02*
X3391015Y-19172731D01*
X3391015Y-19172731D02*
X3381491Y-19163207D01*
X3381491Y-19163207D02*
X3371967Y-19144160D01*
X3371967Y-19144160D02*
X3362443Y-19106064D01*
X3362443Y-19106064D02*
X3362443Y-19058445D01*
X3362443Y-19058445D02*
X3371967Y-19020350D01*
X3371967Y-19020350D02*
X3381491Y-19001302D01*
X3381491Y-19001302D02*
X3391015Y-18991779D01*
X3391015Y-18991779D02*
X3410062Y-18982255D01*
X3600539Y-18982255D02*
X3619586Y-18982255D01*
X3619586Y-18982255D02*
X3638634Y-18991779D01*
X3638634Y-18991779D02*
X3648158Y-19001302D01*
X3648158Y-19001302D02*
X3657682Y-19020350D01*
X3657682Y-19020350D02*
X3667205Y-19058445D01*
X3667205Y-19058445D02*
X3667205Y-19106064D01*
X3667205Y-19106064D02*
X3657682Y-19144160D01*
X3657682Y-19144160D02*
X3648158Y-19163207D01*
X3648158Y-19163207D02*
X3638634Y-19172731D01*
X3638634Y-19172731D02*
X3619586Y-19182255D01*
X3619586Y-19182255D02*
X3600539Y-19182255D01*
X3600539Y-19182255D02*
X3581491Y-19172731D01*
X3581491Y-19172731D02*
X3571967Y-19163207D01*
X3571967Y-19163207D02*
X3562443Y-19144160D01*
X3562443Y-19144160D02*
X3552920Y-19106064D01*
X3552920Y-19106064D02*
X3552920Y-19058445D01*
X3552920Y-19058445D02*
X3562443Y-19020350D01*
X3562443Y-19020350D02*
X3571967Y-19001302D01*
X3571967Y-19001302D02*
X3581491Y-18991779D01*
X3581491Y-18991779D02*
X3600539Y-18982255D01*
X3752920Y-19182255D02*
X3752920Y-19048921D01*
X3752920Y-19067969D02*
X3762443Y-19058445D01*
X3762443Y-19058445D02*
X3781491Y-19048921D01*
X3781491Y-19048921D02*
X3810063Y-19048921D01*
X3810063Y-19048921D02*
X3829110Y-19058445D01*
X3829110Y-19058445D02*
X3838634Y-19077493D01*
X3838634Y-19077493D02*
X3838634Y-19182255D01*
X3838634Y-19077493D02*
X3848158Y-19058445D01*
X3848158Y-19058445D02*
X3867205Y-19048921D01*
X3867205Y-19048921D02*
X3895777Y-19048921D01*
X3895777Y-19048921D02*
X3914824Y-19058445D01*
X3914824Y-19058445D02*
X3924348Y-19077493D01*
X3924348Y-19077493D02*
X3924348Y-19182255D01*
X4019586Y-19182255D02*
X4019586Y-19048921D01*
X4019586Y-19067969D02*
X4029110Y-19058445D01*
X4029110Y-19058445D02*
X4048158Y-19048921D01*
X4048158Y-19048921D02*
X4076729Y-19048921D01*
X4076729Y-19048921D02*
X4095777Y-19058445D01*
X4095777Y-19058445D02*
X4105301Y-19077493D01*
X4105301Y-19077493D02*
X4105301Y-19182255D01*
X4105301Y-19077493D02*
X4114824Y-19058445D01*
X4114824Y-19058445D02*
X4133872Y-19048921D01*
X4133872Y-19048921D02*
X4162443Y-19048921D01*
X4162443Y-19048921D02*
X4181491Y-19058445D01*
X4181491Y-19058445D02*
X4191015Y-19077493D01*
X4191015Y-19077493D02*
X4191015Y-19182255D01*
X4581491Y-18972731D02*
X4410063Y-19229874D01*
X4838634Y-18982255D02*
X4857682Y-18982255D01*
X4857682Y-18982255D02*
X4876729Y-18991779D01*
X4876729Y-18991779D02*
X4886253Y-19001302D01*
X4886253Y-19001302D02*
X4895777Y-19020350D01*
X4895777Y-19020350D02*
X4905301Y-19058445D01*
X4905301Y-19058445D02*
X4905301Y-19106064D01*
X4905301Y-19106064D02*
X4895777Y-19144160D01*
X4895777Y-19144160D02*
X4886253Y-19163207D01*
X4886253Y-19163207D02*
X4876729Y-19172731D01*
X4876729Y-19172731D02*
X4857682Y-19182255D01*
X4857682Y-19182255D02*
X4838634Y-19182255D01*
X4838634Y-19182255D02*
X4819587Y-19172731D01*
X4819587Y-19172731D02*
X4810063Y-19163207D01*
X4810063Y-19163207D02*
X4800539Y-19144160D01*
X4800539Y-19144160D02*
X4791015Y-19106064D01*
X4791015Y-19106064D02*
X4791015Y-19058445D01*
X4791015Y-19058445D02*
X4800539Y-19020350D01*
X4800539Y-19020350D02*
X4810063Y-19001302D01*
X4810063Y-19001302D02*
X4819587Y-18991779D01*
X4819587Y-18991779D02*
X4838634Y-18982255D01*
X4991015Y-19163207D02*
X5000539Y-19172731D01*
X5000539Y-19172731D02*
X4991015Y-19182255D01*
X4991015Y-19182255D02*
X4981491Y-19172731D01*
X4981491Y-19172731D02*
X4991015Y-19163207D01*
X4991015Y-19163207D02*
X4991015Y-19182255D01*
X5124348Y-18982255D02*
X5143396Y-18982255D01*
X5143396Y-18982255D02*
X5162444Y-18991779D01*
X5162444Y-18991779D02*
X5171968Y-19001302D01*
X5171968Y-19001302D02*
X5181491Y-19020350D01*
X5181491Y-19020350D02*
X5191015Y-19058445D01*
X5191015Y-19058445D02*
X5191015Y-19106064D01*
X5191015Y-19106064D02*
X5181491Y-19144160D01*
X5181491Y-19144160D02*
X5171968Y-19163207D01*
X5171968Y-19163207D02*
X5162444Y-19172731D01*
X5162444Y-19172731D02*
X5143396Y-19182255D01*
X5143396Y-19182255D02*
X5124348Y-19182255D01*
X5124348Y-19182255D02*
X5105301Y-19172731D01*
X5105301Y-19172731D02*
X5095777Y-19163207D01*
X5095777Y-19163207D02*
X5086253Y-19144160D01*
X5086253Y-19144160D02*
X5076729Y-19106064D01*
X5076729Y-19106064D02*
X5076729Y-19058445D01*
X5076729Y-19058445D02*
X5086253Y-19020350D01*
X5086253Y-19020350D02*
X5095777Y-19001302D01*
X5095777Y-19001302D02*
X5105301Y-18991779D01*
X5105301Y-18991779D02*
X5124348Y-18982255D01*
X5381491Y-19182255D02*
X5267206Y-19182255D01*
X5324348Y-19182255D02*
X5324348Y-18982255D01*
X5324348Y-18982255D02*
X5305301Y-19010826D01*
X5305301Y-19010826D02*
X5286253Y-19029874D01*
X5286253Y-19029874D02*
X5267206Y-19039398D01*
X5562444Y-18982255D02*
X5467206Y-18982255D01*
X5467206Y-18982255D02*
X5457682Y-19077493D01*
X5457682Y-19077493D02*
X5467206Y-19067969D01*
X5467206Y-19067969D02*
X5486253Y-19058445D01*
X5486253Y-19058445D02*
X5533872Y-19058445D01*
X5533872Y-19058445D02*
X5552920Y-19067969D01*
X5552920Y-19067969D02*
X5562444Y-19077493D01*
X5562444Y-19077493D02*
X5571968Y-19096541D01*
X5571968Y-19096541D02*
X5571968Y-19144160D01*
X5571968Y-19144160D02*
X5562444Y-19163207D01*
X5562444Y-19163207D02*
X5552920Y-19172731D01*
X5552920Y-19172731D02*
X5533872Y-19182255D01*
X5533872Y-19182255D02*
X5486253Y-19182255D01*
X5486253Y-19182255D02*
X5467206Y-19172731D01*
X5467206Y-19172731D02*
X5457682Y-19163207D01*
X5638634Y-18982255D02*
X5771967Y-18982255D01*
X5771967Y-18982255D02*
X5686253Y-19182255D01*
X5838634Y-18982255D02*
X5838634Y-19020350D01*
X5914825Y-18982255D02*
X5914825Y-19020350D01*
X6210063Y-19258445D02*
X6200539Y-19248921D01*
X6200539Y-19248921D02*
X6181491Y-19220350D01*
X6181491Y-19220350D02*
X6171968Y-19201302D01*
X6171968Y-19201302D02*
X6162444Y-19172731D01*
X6162444Y-19172731D02*
X6152920Y-19125112D01*
X6152920Y-19125112D02*
X6152920Y-19087017D01*
X6152920Y-19087017D02*
X6162444Y-19039398D01*
X6162444Y-19039398D02*
X6171968Y-19010826D01*
X6171968Y-19010826D02*
X6181491Y-18991779D01*
X6181491Y-18991779D02*
X6200539Y-18963207D01*
X6200539Y-18963207D02*
X6210063Y-18953683D01*
X6267206Y-18982255D02*
X6400539Y-18982255D01*
X6400539Y-18982255D02*
X6314825Y-19182255D01*
X6629110Y-19182255D02*
X6629110Y-18982255D01*
X6714825Y-19182255D02*
X6714825Y-19077493D01*
X6714825Y-19077493D02*
X6705301Y-19058445D01*
X6705301Y-19058445D02*
X6686253Y-19048921D01*
X6686253Y-19048921D02*
X6657682Y-19048921D01*
X6657682Y-19048921D02*
X6638634Y-19058445D01*
X6638634Y-19058445D02*
X6629110Y-19067969D01*
X6838634Y-19182255D02*
X6819587Y-19172731D01*
X6819587Y-19172731D02*
X6810063Y-19163207D01*
X6810063Y-19163207D02*
X6800539Y-19144160D01*
X6800539Y-19144160D02*
X6800539Y-19087017D01*
X6800539Y-19087017D02*
X6810063Y-19067969D01*
X6810063Y-19067969D02*
X6819587Y-19058445D01*
X6819587Y-19058445D02*
X6838634Y-19048921D01*
X6838634Y-19048921D02*
X6867206Y-19048921D01*
X6867206Y-19048921D02*
X6886253Y-19058445D01*
X6886253Y-19058445D02*
X6895777Y-19067969D01*
X6895777Y-19067969D02*
X6905301Y-19087017D01*
X6905301Y-19087017D02*
X6905301Y-19144160D01*
X6905301Y-19144160D02*
X6895777Y-19163207D01*
X6895777Y-19163207D02*
X6886253Y-19172731D01*
X6886253Y-19172731D02*
X6867206Y-19182255D01*
X6867206Y-19182255D02*
X6838634Y-19182255D01*
X7019587Y-19182255D02*
X7000539Y-19172731D01*
X7000539Y-19172731D02*
X6991015Y-19153683D01*
X6991015Y-19153683D02*
X6991015Y-18982255D01*
X7171968Y-19172731D02*
X7152920Y-19182255D01*
X7152920Y-19182255D02*
X7114825Y-19182255D01*
X7114825Y-19182255D02*
X7095777Y-19172731D01*
X7095777Y-19172731D02*
X7086253Y-19153683D01*
X7086253Y-19153683D02*
X7086253Y-19077493D01*
X7086253Y-19077493D02*
X7095777Y-19058445D01*
X7095777Y-19058445D02*
X7114825Y-19048921D01*
X7114825Y-19048921D02*
X7152920Y-19048921D01*
X7152920Y-19048921D02*
X7171968Y-19058445D01*
X7171968Y-19058445D02*
X7181491Y-19077493D01*
X7181491Y-19077493D02*
X7181491Y-19096541D01*
X7181491Y-19096541D02*
X7086253Y-19115588D01*
X7257682Y-19172731D02*
X7276730Y-19182255D01*
X7276730Y-19182255D02*
X7314825Y-19182255D01*
X7314825Y-19182255D02*
X7333872Y-19172731D01*
X7333872Y-19172731D02*
X7343396Y-19153683D01*
X7343396Y-19153683D02*
X7343396Y-19144160D01*
X7343396Y-19144160D02*
X7333872Y-19125112D01*
X7333872Y-19125112D02*
X7314825Y-19115588D01*
X7314825Y-19115588D02*
X7286253Y-19115588D01*
X7286253Y-19115588D02*
X7267206Y-19106064D01*
X7267206Y-19106064D02*
X7257682Y-19087017D01*
X7257682Y-19087017D02*
X7257682Y-19077493D01*
X7257682Y-19077493D02*
X7267206Y-19058445D01*
X7267206Y-19058445D02*
X7286253Y-19048921D01*
X7286253Y-19048921D02*
X7314825Y-19048921D01*
X7314825Y-19048921D02*
X7333872Y-19058445D01*
X7410063Y-19258445D02*
X7419587Y-19248921D01*
X7419587Y-19248921D02*
X7438634Y-19220350D01*
X7438634Y-19220350D02*
X7448158Y-19201302D01*
X7448158Y-19201302D02*
X7457682Y-19172731D01*
X7457682Y-19172731D02*
X7467206Y-19125112D01*
X7467206Y-19125112D02*
X7467206Y-19087017D01*
X7467206Y-19087017D02*
X7457682Y-19039398D01*
X7457682Y-19039398D02*
X7448158Y-19010826D01*
X7448158Y-19010826D02*
X7438634Y-18991779D01*
X7438634Y-18991779D02*
X7419587Y-18963207D01*
X7419587Y-18963207D02*
X7410063Y-18953683D01*
D10*
X2635000Y-19354771D02*
G75*
G02*
X2595000Y-19354771I-20000J0D01*
G01*
X2595000Y-19354771D02*
G75*
G02*
X2635000Y-19354771I20000J0D01*
G01*
D11*
X2933872Y-19246255D02*
X2952920Y-19246255D01*
X2952920Y-19246255D02*
X2971967Y-19255779D01*
X2971967Y-19255779D02*
X2981491Y-19265302D01*
X2981491Y-19265302D02*
X2991015Y-19284350D01*
X2991015Y-19284350D02*
X3000539Y-19322445D01*
X3000539Y-19322445D02*
X3000539Y-19370064D01*
X3000539Y-19370064D02*
X2991015Y-19408160D01*
X2991015Y-19408160D02*
X2981491Y-19427207D01*
X2981491Y-19427207D02*
X2971967Y-19436731D01*
X2971967Y-19436731D02*
X2952920Y-19446255D01*
X2952920Y-19446255D02*
X2933872Y-19446255D01*
X2933872Y-19446255D02*
X2914824Y-19436731D01*
X2914824Y-19436731D02*
X2905301Y-19427207D01*
X2905301Y-19427207D02*
X2895777Y-19408160D01*
X2895777Y-19408160D02*
X2886253Y-19370064D01*
X2886253Y-19370064D02*
X2886253Y-19322445D01*
X2886253Y-19322445D02*
X2895777Y-19284350D01*
X2895777Y-19284350D02*
X2905301Y-19265302D01*
X2905301Y-19265302D02*
X2914824Y-19255779D01*
X2914824Y-19255779D02*
X2933872Y-19246255D01*
X3086253Y-19427207D02*
X3095777Y-19436731D01*
X3095777Y-19436731D02*
X3086253Y-19446255D01*
X3086253Y-19446255D02*
X3076729Y-19436731D01*
X3076729Y-19436731D02*
X3086253Y-19427207D01*
X3086253Y-19427207D02*
X3086253Y-19446255D01*
X3267205Y-19312921D02*
X3267205Y-19446255D01*
X3219586Y-19236731D02*
X3171967Y-19379588D01*
X3171967Y-19379588D02*
X3295777Y-19379588D01*
X3410062Y-19246255D02*
X3429110Y-19246255D01*
X3429110Y-19246255D02*
X3448158Y-19255779D01*
X3448158Y-19255779D02*
X3457682Y-19265302D01*
X3457682Y-19265302D02*
X3467205Y-19284350D01*
X3467205Y-19284350D02*
X3476729Y-19322445D01*
X3476729Y-19322445D02*
X3476729Y-19370064D01*
X3476729Y-19370064D02*
X3467205Y-19408160D01*
X3467205Y-19408160D02*
X3457682Y-19427207D01*
X3457682Y-19427207D02*
X3448158Y-19436731D01*
X3448158Y-19436731D02*
X3429110Y-19446255D01*
X3429110Y-19446255D02*
X3410062Y-19446255D01*
X3410062Y-19446255D02*
X3391015Y-19436731D01*
X3391015Y-19436731D02*
X3381491Y-19427207D01*
X3381491Y-19427207D02*
X3371967Y-19408160D01*
X3371967Y-19408160D02*
X3362443Y-19370064D01*
X3362443Y-19370064D02*
X3362443Y-19322445D01*
X3362443Y-19322445D02*
X3371967Y-19284350D01*
X3371967Y-19284350D02*
X3381491Y-19265302D01*
X3381491Y-19265302D02*
X3391015Y-19255779D01*
X3391015Y-19255779D02*
X3410062Y-19246255D01*
X3600539Y-19246255D02*
X3619586Y-19246255D01*
X3619586Y-19246255D02*
X3638634Y-19255779D01*
X3638634Y-19255779D02*
X3648158Y-19265302D01*
X3648158Y-19265302D02*
X3657682Y-19284350D01*
X3657682Y-19284350D02*
X3667205Y-19322445D01*
X3667205Y-19322445D02*
X3667205Y-19370064D01*
X3667205Y-19370064D02*
X3657682Y-19408160D01*
X3657682Y-19408160D02*
X3648158Y-19427207D01*
X3648158Y-19427207D02*
X3638634Y-19436731D01*
X3638634Y-19436731D02*
X3619586Y-19446255D01*
X3619586Y-19446255D02*
X3600539Y-19446255D01*
X3600539Y-19446255D02*
X3581491Y-19436731D01*
X3581491Y-19436731D02*
X3571967Y-19427207D01*
X3571967Y-19427207D02*
X3562443Y-19408160D01*
X3562443Y-19408160D02*
X3552920Y-19370064D01*
X3552920Y-19370064D02*
X3552920Y-19322445D01*
X3552920Y-19322445D02*
X3562443Y-19284350D01*
X3562443Y-19284350D02*
X3571967Y-19265302D01*
X3571967Y-19265302D02*
X3581491Y-19255779D01*
X3581491Y-19255779D02*
X3600539Y-19246255D01*
X3752920Y-19446255D02*
X3752920Y-19312921D01*
X3752920Y-19331969D02*
X3762443Y-19322445D01*
X3762443Y-19322445D02*
X3781491Y-19312921D01*
X3781491Y-19312921D02*
X3810063Y-19312921D01*
X3810063Y-19312921D02*
X3829110Y-19322445D01*
X3829110Y-19322445D02*
X3838634Y-19341493D01*
X3838634Y-19341493D02*
X3838634Y-19446255D01*
X3838634Y-19341493D02*
X3848158Y-19322445D01*
X3848158Y-19322445D02*
X3867205Y-19312921D01*
X3867205Y-19312921D02*
X3895777Y-19312921D01*
X3895777Y-19312921D02*
X3914824Y-19322445D01*
X3914824Y-19322445D02*
X3924348Y-19341493D01*
X3924348Y-19341493D02*
X3924348Y-19446255D01*
X4019586Y-19446255D02*
X4019586Y-19312921D01*
X4019586Y-19331969D02*
X4029110Y-19322445D01*
X4029110Y-19322445D02*
X4048158Y-19312921D01*
X4048158Y-19312921D02*
X4076729Y-19312921D01*
X4076729Y-19312921D02*
X4095777Y-19322445D01*
X4095777Y-19322445D02*
X4105301Y-19341493D01*
X4105301Y-19341493D02*
X4105301Y-19446255D01*
X4105301Y-19341493D02*
X4114824Y-19322445D01*
X4114824Y-19322445D02*
X4133872Y-19312921D01*
X4133872Y-19312921D02*
X4162443Y-19312921D01*
X4162443Y-19312921D02*
X4181491Y-19322445D01*
X4181491Y-19322445D02*
X4191015Y-19341493D01*
X4191015Y-19341493D02*
X4191015Y-19446255D01*
X4581491Y-19236731D02*
X4410063Y-19493874D01*
X4838634Y-19246255D02*
X4857682Y-19246255D01*
X4857682Y-19246255D02*
X4876729Y-19255779D01*
X4876729Y-19255779D02*
X4886253Y-19265302D01*
X4886253Y-19265302D02*
X4895777Y-19284350D01*
X4895777Y-19284350D02*
X4905301Y-19322445D01*
X4905301Y-19322445D02*
X4905301Y-19370064D01*
X4905301Y-19370064D02*
X4895777Y-19408160D01*
X4895777Y-19408160D02*
X4886253Y-19427207D01*
X4886253Y-19427207D02*
X4876729Y-19436731D01*
X4876729Y-19436731D02*
X4857682Y-19446255D01*
X4857682Y-19446255D02*
X4838634Y-19446255D01*
X4838634Y-19446255D02*
X4819587Y-19436731D01*
X4819587Y-19436731D02*
X4810063Y-19427207D01*
X4810063Y-19427207D02*
X4800539Y-19408160D01*
X4800539Y-19408160D02*
X4791015Y-19370064D01*
X4791015Y-19370064D02*
X4791015Y-19322445D01*
X4791015Y-19322445D02*
X4800539Y-19284350D01*
X4800539Y-19284350D02*
X4810063Y-19265302D01*
X4810063Y-19265302D02*
X4819587Y-19255779D01*
X4819587Y-19255779D02*
X4838634Y-19246255D01*
X4991015Y-19427207D02*
X5000539Y-19436731D01*
X5000539Y-19436731D02*
X4991015Y-19446255D01*
X4991015Y-19446255D02*
X4981491Y-19436731D01*
X4981491Y-19436731D02*
X4991015Y-19427207D01*
X4991015Y-19427207D02*
X4991015Y-19446255D01*
X5124348Y-19246255D02*
X5143396Y-19246255D01*
X5143396Y-19246255D02*
X5162444Y-19255779D01*
X5162444Y-19255779D02*
X5171968Y-19265302D01*
X5171968Y-19265302D02*
X5181491Y-19284350D01*
X5181491Y-19284350D02*
X5191015Y-19322445D01*
X5191015Y-19322445D02*
X5191015Y-19370064D01*
X5191015Y-19370064D02*
X5181491Y-19408160D01*
X5181491Y-19408160D02*
X5171968Y-19427207D01*
X5171968Y-19427207D02*
X5162444Y-19436731D01*
X5162444Y-19436731D02*
X5143396Y-19446255D01*
X5143396Y-19446255D02*
X5124348Y-19446255D01*
X5124348Y-19446255D02*
X5105301Y-19436731D01*
X5105301Y-19436731D02*
X5095777Y-19427207D01*
X5095777Y-19427207D02*
X5086253Y-19408160D01*
X5086253Y-19408160D02*
X5076729Y-19370064D01*
X5076729Y-19370064D02*
X5076729Y-19322445D01*
X5076729Y-19322445D02*
X5086253Y-19284350D01*
X5086253Y-19284350D02*
X5095777Y-19265302D01*
X5095777Y-19265302D02*
X5105301Y-19255779D01*
X5105301Y-19255779D02*
X5124348Y-19246255D01*
X5381491Y-19446255D02*
X5267206Y-19446255D01*
X5324348Y-19446255D02*
X5324348Y-19246255D01*
X5324348Y-19246255D02*
X5305301Y-19274826D01*
X5305301Y-19274826D02*
X5286253Y-19293874D01*
X5286253Y-19293874D02*
X5267206Y-19303398D01*
X5562444Y-19246255D02*
X5467206Y-19246255D01*
X5467206Y-19246255D02*
X5457682Y-19341493D01*
X5457682Y-19341493D02*
X5467206Y-19331969D01*
X5467206Y-19331969D02*
X5486253Y-19322445D01*
X5486253Y-19322445D02*
X5533872Y-19322445D01*
X5533872Y-19322445D02*
X5552920Y-19331969D01*
X5552920Y-19331969D02*
X5562444Y-19341493D01*
X5562444Y-19341493D02*
X5571968Y-19360541D01*
X5571968Y-19360541D02*
X5571968Y-19408160D01*
X5571968Y-19408160D02*
X5562444Y-19427207D01*
X5562444Y-19427207D02*
X5552920Y-19436731D01*
X5552920Y-19436731D02*
X5533872Y-19446255D01*
X5533872Y-19446255D02*
X5486253Y-19446255D01*
X5486253Y-19446255D02*
X5467206Y-19436731D01*
X5467206Y-19436731D02*
X5457682Y-19427207D01*
X5638634Y-19246255D02*
X5771967Y-19246255D01*
X5771967Y-19246255D02*
X5686253Y-19446255D01*
X5838634Y-19246255D02*
X5838634Y-19284350D01*
X5914825Y-19246255D02*
X5914825Y-19284350D01*
X6210063Y-19522445D02*
X6200539Y-19512921D01*
X6200539Y-19512921D02*
X6181491Y-19484350D01*
X6181491Y-19484350D02*
X6171968Y-19465302D01*
X6171968Y-19465302D02*
X6162444Y-19436731D01*
X6162444Y-19436731D02*
X6152920Y-19389112D01*
X6152920Y-19389112D02*
X6152920Y-19351017D01*
X6152920Y-19351017D02*
X6162444Y-19303398D01*
X6162444Y-19303398D02*
X6171968Y-19274826D01*
X6171968Y-19274826D02*
X6181491Y-19255779D01*
X6181491Y-19255779D02*
X6200539Y-19227207D01*
X6200539Y-19227207D02*
X6210063Y-19217683D01*
X6324348Y-19246255D02*
X6343396Y-19246255D01*
X6343396Y-19246255D02*
X6362444Y-19255779D01*
X6362444Y-19255779D02*
X6371968Y-19265302D01*
X6371968Y-19265302D02*
X6381491Y-19284350D01*
X6381491Y-19284350D02*
X6391015Y-19322445D01*
X6391015Y-19322445D02*
X6391015Y-19370064D01*
X6391015Y-19370064D02*
X6381491Y-19408160D01*
X6381491Y-19408160D02*
X6371968Y-19427207D01*
X6371968Y-19427207D02*
X6362444Y-19436731D01*
X6362444Y-19436731D02*
X6343396Y-19446255D01*
X6343396Y-19446255D02*
X6324348Y-19446255D01*
X6324348Y-19446255D02*
X6305301Y-19436731D01*
X6305301Y-19436731D02*
X6295777Y-19427207D01*
X6295777Y-19427207D02*
X6286253Y-19408160D01*
X6286253Y-19408160D02*
X6276729Y-19370064D01*
X6276729Y-19370064D02*
X6276729Y-19322445D01*
X6276729Y-19322445D02*
X6286253Y-19284350D01*
X6286253Y-19284350D02*
X6295777Y-19265302D01*
X6295777Y-19265302D02*
X6305301Y-19255779D01*
X6305301Y-19255779D02*
X6324348Y-19246255D01*
X6629110Y-19446255D02*
X6629110Y-19246255D01*
X6714825Y-19446255D02*
X6714825Y-19341493D01*
X6714825Y-19341493D02*
X6705301Y-19322445D01*
X6705301Y-19322445D02*
X6686253Y-19312921D01*
X6686253Y-19312921D02*
X6657682Y-19312921D01*
X6657682Y-19312921D02*
X6638634Y-19322445D01*
X6638634Y-19322445D02*
X6629110Y-19331969D01*
X6838634Y-19446255D02*
X6819587Y-19436731D01*
X6819587Y-19436731D02*
X6810063Y-19427207D01*
X6810063Y-19427207D02*
X6800539Y-19408160D01*
X6800539Y-19408160D02*
X6800539Y-19351017D01*
X6800539Y-19351017D02*
X6810063Y-19331969D01*
X6810063Y-19331969D02*
X6819587Y-19322445D01*
X6819587Y-19322445D02*
X6838634Y-19312921D01*
X6838634Y-19312921D02*
X6867206Y-19312921D01*
X6867206Y-19312921D02*
X6886253Y-19322445D01*
X6886253Y-19322445D02*
X6895777Y-19331969D01*
X6895777Y-19331969D02*
X6905301Y-19351017D01*
X6905301Y-19351017D02*
X6905301Y-19408160D01*
X6905301Y-19408160D02*
X6895777Y-19427207D01*
X6895777Y-19427207D02*
X6886253Y-19436731D01*
X6886253Y-19436731D02*
X6867206Y-19446255D01*
X6867206Y-19446255D02*
X6838634Y-19446255D01*
X7019587Y-19446255D02*
X7000539Y-19436731D01*
X7000539Y-19436731D02*
X6991015Y-19417683D01*
X6991015Y-19417683D02*
X6991015Y-19246255D01*
X7171968Y-19436731D02*
X7152920Y-19446255D01*
X7152920Y-19446255D02*
X7114825Y-19446255D01*
X7114825Y-19446255D02*
X7095777Y-19436731D01*
X7095777Y-19436731D02*
X7086253Y-19417683D01*
X7086253Y-19417683D02*
X7086253Y-19341493D01*
X7086253Y-19341493D02*
X7095777Y-19322445D01*
X7095777Y-19322445D02*
X7114825Y-19312921D01*
X7114825Y-19312921D02*
X7152920Y-19312921D01*
X7152920Y-19312921D02*
X7171968Y-19322445D01*
X7171968Y-19322445D02*
X7181491Y-19341493D01*
X7181491Y-19341493D02*
X7181491Y-19360541D01*
X7181491Y-19360541D02*
X7086253Y-19379588D01*
X7257682Y-19436731D02*
X7276730Y-19446255D01*
X7276730Y-19446255D02*
X7314825Y-19446255D01*
X7314825Y-19446255D02*
X7333872Y-19436731D01*
X7333872Y-19436731D02*
X7343396Y-19417683D01*
X7343396Y-19417683D02*
X7343396Y-19408160D01*
X7343396Y-19408160D02*
X7333872Y-19389112D01*
X7333872Y-19389112D02*
X7314825Y-19379588D01*
X7314825Y-19379588D02*
X7286253Y-19379588D01*
X7286253Y-19379588D02*
X7267206Y-19370064D01*
X7267206Y-19370064D02*
X7257682Y-19351017D01*
X7257682Y-19351017D02*
X7257682Y-19341493D01*
X7257682Y-19341493D02*
X7267206Y-19322445D01*
X7267206Y-19322445D02*
X7286253Y-19312921D01*
X7286253Y-19312921D02*
X7314825Y-19312921D01*
X7314825Y-19312921D02*
X7333872Y-19322445D01*
X7581492Y-19370064D02*
X7733873Y-19370064D01*
X7657682Y-19446255D02*
X7657682Y-19293874D01*
X7962444Y-19246255D02*
X8086253Y-19246255D01*
X8086253Y-19246255D02*
X8019587Y-19322445D01*
X8019587Y-19322445D02*
X8048158Y-19322445D01*
X8048158Y-19322445D02*
X8067206Y-19331969D01*
X8067206Y-19331969D02*
X8076730Y-19341493D01*
X8076730Y-19341493D02*
X8086253Y-19360541D01*
X8086253Y-19360541D02*
X8086253Y-19408160D01*
X8086253Y-19408160D02*
X8076730Y-19427207D01*
X8076730Y-19427207D02*
X8067206Y-19436731D01*
X8067206Y-19436731D02*
X8048158Y-19446255D01*
X8048158Y-19446255D02*
X7991015Y-19446255D01*
X7991015Y-19446255D02*
X7971968Y-19436731D01*
X7971968Y-19436731D02*
X7962444Y-19427207D01*
X8314825Y-19436731D02*
X8333873Y-19446255D01*
X8333873Y-19446255D02*
X8371968Y-19446255D01*
X8371968Y-19446255D02*
X8391016Y-19436731D01*
X8391016Y-19436731D02*
X8400539Y-19417683D01*
X8400539Y-19417683D02*
X8400539Y-19408160D01*
X8400539Y-19408160D02*
X8391016Y-19389112D01*
X8391016Y-19389112D02*
X8371968Y-19379588D01*
X8371968Y-19379588D02*
X8343396Y-19379588D01*
X8343396Y-19379588D02*
X8324349Y-19370064D01*
X8324349Y-19370064D02*
X8314825Y-19351017D01*
X8314825Y-19351017D02*
X8314825Y-19341493D01*
X8314825Y-19341493D02*
X8324349Y-19322445D01*
X8324349Y-19322445D02*
X8343396Y-19312921D01*
X8343396Y-19312921D02*
X8371968Y-19312921D01*
X8371968Y-19312921D02*
X8391016Y-19322445D01*
X8514825Y-19446255D02*
X8495777Y-19436731D01*
X8495777Y-19436731D02*
X8486254Y-19417683D01*
X8486254Y-19417683D02*
X8486254Y-19246255D01*
X8619587Y-19446255D02*
X8600539Y-19436731D01*
X8600539Y-19436731D02*
X8591016Y-19427207D01*
X8591016Y-19427207D02*
X8581492Y-19408160D01*
X8581492Y-19408160D02*
X8581492Y-19351017D01*
X8581492Y-19351017D02*
X8591016Y-19331969D01*
X8591016Y-19331969D02*
X8600539Y-19322445D01*
X8600539Y-19322445D02*
X8619587Y-19312921D01*
X8619587Y-19312921D02*
X8648158Y-19312921D01*
X8648158Y-19312921D02*
X8667206Y-19322445D01*
X8667206Y-19322445D02*
X8676730Y-19331969D01*
X8676730Y-19331969D02*
X8686254Y-19351017D01*
X8686254Y-19351017D02*
X8686254Y-19408160D01*
X8686254Y-19408160D02*
X8676730Y-19427207D01*
X8676730Y-19427207D02*
X8667206Y-19436731D01*
X8667206Y-19436731D02*
X8648158Y-19446255D01*
X8648158Y-19446255D02*
X8619587Y-19446255D01*
X8743397Y-19312921D02*
X8819587Y-19312921D01*
X8771968Y-19246255D02*
X8771968Y-19417683D01*
X8771968Y-19417683D02*
X8781492Y-19436731D01*
X8781492Y-19436731D02*
X8800539Y-19446255D01*
X8800539Y-19446255D02*
X8819587Y-19446255D01*
X8876730Y-19436731D02*
X8895777Y-19446255D01*
X8895777Y-19446255D02*
X8933873Y-19446255D01*
X8933873Y-19446255D02*
X8952920Y-19436731D01*
X8952920Y-19436731D02*
X8962444Y-19417683D01*
X8962444Y-19417683D02*
X8962444Y-19408160D01*
X8962444Y-19408160D02*
X8952920Y-19389112D01*
X8952920Y-19389112D02*
X8933873Y-19379588D01*
X8933873Y-19379588D02*
X8905301Y-19379588D01*
X8905301Y-19379588D02*
X8886254Y-19370064D01*
X8886254Y-19370064D02*
X8876730Y-19351017D01*
X8876730Y-19351017D02*
X8876730Y-19341493D01*
X8876730Y-19341493D02*
X8886254Y-19322445D01*
X8886254Y-19322445D02*
X8905301Y-19312921D01*
X8905301Y-19312921D02*
X8933873Y-19312921D01*
X8933873Y-19312921D02*
X8952920Y-19322445D01*
X9029111Y-19522445D02*
X9038635Y-19512921D01*
X9038635Y-19512921D02*
X9057682Y-19484350D01*
X9057682Y-19484350D02*
X9067206Y-19465302D01*
X9067206Y-19465302D02*
X9076730Y-19436731D01*
X9076730Y-19436731D02*
X9086254Y-19389112D01*
X9086254Y-19389112D02*
X9086254Y-19351017D01*
X9086254Y-19351017D02*
X9076730Y-19303398D01*
X9076730Y-19303398D02*
X9067206Y-19274826D01*
X9067206Y-19274826D02*
X9057682Y-19255779D01*
X9057682Y-19255779D02*
X9038635Y-19227207D01*
X9038635Y-19227207D02*
X9029111Y-19217683D01*
D10*
X2610000Y-19593771D02*
X2610000Y-19643771D01*
X2585000Y-19618771D02*
X2635000Y-19618771D01*
D11*
X2933872Y-19510255D02*
X2952920Y-19510255D01*
X2952920Y-19510255D02*
X2971967Y-19519779D01*
X2971967Y-19519779D02*
X2981491Y-19529302D01*
X2981491Y-19529302D02*
X2991015Y-19548350D01*
X2991015Y-19548350D02*
X3000539Y-19586445D01*
X3000539Y-19586445D02*
X3000539Y-19634064D01*
X3000539Y-19634064D02*
X2991015Y-19672160D01*
X2991015Y-19672160D02*
X2981491Y-19691207D01*
X2981491Y-19691207D02*
X2971967Y-19700731D01*
X2971967Y-19700731D02*
X2952920Y-19710255D01*
X2952920Y-19710255D02*
X2933872Y-19710255D01*
X2933872Y-19710255D02*
X2914824Y-19700731D01*
X2914824Y-19700731D02*
X2905301Y-19691207D01*
X2905301Y-19691207D02*
X2895777Y-19672160D01*
X2895777Y-19672160D02*
X2886253Y-19634064D01*
X2886253Y-19634064D02*
X2886253Y-19586445D01*
X2886253Y-19586445D02*
X2895777Y-19548350D01*
X2895777Y-19548350D02*
X2905301Y-19529302D01*
X2905301Y-19529302D02*
X2914824Y-19519779D01*
X2914824Y-19519779D02*
X2933872Y-19510255D01*
X3086253Y-19691207D02*
X3095777Y-19700731D01*
X3095777Y-19700731D02*
X3086253Y-19710255D01*
X3086253Y-19710255D02*
X3076729Y-19700731D01*
X3076729Y-19700731D02*
X3086253Y-19691207D01*
X3086253Y-19691207D02*
X3086253Y-19710255D01*
X3276729Y-19510255D02*
X3181491Y-19510255D01*
X3181491Y-19510255D02*
X3171967Y-19605493D01*
X3171967Y-19605493D02*
X3181491Y-19595969D01*
X3181491Y-19595969D02*
X3200539Y-19586445D01*
X3200539Y-19586445D02*
X3248158Y-19586445D01*
X3248158Y-19586445D02*
X3267205Y-19595969D01*
X3267205Y-19595969D02*
X3276729Y-19605493D01*
X3276729Y-19605493D02*
X3286253Y-19624541D01*
X3286253Y-19624541D02*
X3286253Y-19672160D01*
X3286253Y-19672160D02*
X3276729Y-19691207D01*
X3276729Y-19691207D02*
X3267205Y-19700731D01*
X3267205Y-19700731D02*
X3248158Y-19710255D01*
X3248158Y-19710255D02*
X3200539Y-19710255D01*
X3200539Y-19710255D02*
X3181491Y-19700731D01*
X3181491Y-19700731D02*
X3171967Y-19691207D01*
X3410062Y-19510255D02*
X3429110Y-19510255D01*
X3429110Y-19510255D02*
X3448158Y-19519779D01*
X3448158Y-19519779D02*
X3457682Y-19529302D01*
X3457682Y-19529302D02*
X3467205Y-19548350D01*
X3467205Y-19548350D02*
X3476729Y-19586445D01*
X3476729Y-19586445D02*
X3476729Y-19634064D01*
X3476729Y-19634064D02*
X3467205Y-19672160D01*
X3467205Y-19672160D02*
X3457682Y-19691207D01*
X3457682Y-19691207D02*
X3448158Y-19700731D01*
X3448158Y-19700731D02*
X3429110Y-19710255D01*
X3429110Y-19710255D02*
X3410062Y-19710255D01*
X3410062Y-19710255D02*
X3391015Y-19700731D01*
X3391015Y-19700731D02*
X3381491Y-19691207D01*
X3381491Y-19691207D02*
X3371967Y-19672160D01*
X3371967Y-19672160D02*
X3362443Y-19634064D01*
X3362443Y-19634064D02*
X3362443Y-19586445D01*
X3362443Y-19586445D02*
X3371967Y-19548350D01*
X3371967Y-19548350D02*
X3381491Y-19529302D01*
X3381491Y-19529302D02*
X3391015Y-19519779D01*
X3391015Y-19519779D02*
X3410062Y-19510255D01*
X3600539Y-19510255D02*
X3619586Y-19510255D01*
X3619586Y-19510255D02*
X3638634Y-19519779D01*
X3638634Y-19519779D02*
X3648158Y-19529302D01*
X3648158Y-19529302D02*
X3657682Y-19548350D01*
X3657682Y-19548350D02*
X3667205Y-19586445D01*
X3667205Y-19586445D02*
X3667205Y-19634064D01*
X3667205Y-19634064D02*
X3657682Y-19672160D01*
X3657682Y-19672160D02*
X3648158Y-19691207D01*
X3648158Y-19691207D02*
X3638634Y-19700731D01*
X3638634Y-19700731D02*
X3619586Y-19710255D01*
X3619586Y-19710255D02*
X3600539Y-19710255D01*
X3600539Y-19710255D02*
X3581491Y-19700731D01*
X3581491Y-19700731D02*
X3571967Y-19691207D01*
X3571967Y-19691207D02*
X3562443Y-19672160D01*
X3562443Y-19672160D02*
X3552920Y-19634064D01*
X3552920Y-19634064D02*
X3552920Y-19586445D01*
X3552920Y-19586445D02*
X3562443Y-19548350D01*
X3562443Y-19548350D02*
X3571967Y-19529302D01*
X3571967Y-19529302D02*
X3581491Y-19519779D01*
X3581491Y-19519779D02*
X3600539Y-19510255D01*
X3752920Y-19710255D02*
X3752920Y-19576921D01*
X3752920Y-19595969D02*
X3762443Y-19586445D01*
X3762443Y-19586445D02*
X3781491Y-19576921D01*
X3781491Y-19576921D02*
X3810063Y-19576921D01*
X3810063Y-19576921D02*
X3829110Y-19586445D01*
X3829110Y-19586445D02*
X3838634Y-19605493D01*
X3838634Y-19605493D02*
X3838634Y-19710255D01*
X3838634Y-19605493D02*
X3848158Y-19586445D01*
X3848158Y-19586445D02*
X3867205Y-19576921D01*
X3867205Y-19576921D02*
X3895777Y-19576921D01*
X3895777Y-19576921D02*
X3914824Y-19586445D01*
X3914824Y-19586445D02*
X3924348Y-19605493D01*
X3924348Y-19605493D02*
X3924348Y-19710255D01*
X4019586Y-19710255D02*
X4019586Y-19576921D01*
X4019586Y-19595969D02*
X4029110Y-19586445D01*
X4029110Y-19586445D02*
X4048158Y-19576921D01*
X4048158Y-19576921D02*
X4076729Y-19576921D01*
X4076729Y-19576921D02*
X4095777Y-19586445D01*
X4095777Y-19586445D02*
X4105301Y-19605493D01*
X4105301Y-19605493D02*
X4105301Y-19710255D01*
X4105301Y-19605493D02*
X4114824Y-19586445D01*
X4114824Y-19586445D02*
X4133872Y-19576921D01*
X4133872Y-19576921D02*
X4162443Y-19576921D01*
X4162443Y-19576921D02*
X4181491Y-19586445D01*
X4181491Y-19586445D02*
X4191015Y-19605493D01*
X4191015Y-19605493D02*
X4191015Y-19710255D01*
X4581491Y-19500731D02*
X4410063Y-19757874D01*
X4838634Y-19510255D02*
X4857682Y-19510255D01*
X4857682Y-19510255D02*
X4876729Y-19519779D01*
X4876729Y-19519779D02*
X4886253Y-19529302D01*
X4886253Y-19529302D02*
X4895777Y-19548350D01*
X4895777Y-19548350D02*
X4905301Y-19586445D01*
X4905301Y-19586445D02*
X4905301Y-19634064D01*
X4905301Y-19634064D02*
X4895777Y-19672160D01*
X4895777Y-19672160D02*
X4886253Y-19691207D01*
X4886253Y-19691207D02*
X4876729Y-19700731D01*
X4876729Y-19700731D02*
X4857682Y-19710255D01*
X4857682Y-19710255D02*
X4838634Y-19710255D01*
X4838634Y-19710255D02*
X4819587Y-19700731D01*
X4819587Y-19700731D02*
X4810063Y-19691207D01*
X4810063Y-19691207D02*
X4800539Y-19672160D01*
X4800539Y-19672160D02*
X4791015Y-19634064D01*
X4791015Y-19634064D02*
X4791015Y-19586445D01*
X4791015Y-19586445D02*
X4800539Y-19548350D01*
X4800539Y-19548350D02*
X4810063Y-19529302D01*
X4810063Y-19529302D02*
X4819587Y-19519779D01*
X4819587Y-19519779D02*
X4838634Y-19510255D01*
X4991015Y-19691207D02*
X5000539Y-19700731D01*
X5000539Y-19700731D02*
X4991015Y-19710255D01*
X4991015Y-19710255D02*
X4981491Y-19700731D01*
X4981491Y-19700731D02*
X4991015Y-19691207D01*
X4991015Y-19691207D02*
X4991015Y-19710255D01*
X5124348Y-19510255D02*
X5143396Y-19510255D01*
X5143396Y-19510255D02*
X5162444Y-19519779D01*
X5162444Y-19519779D02*
X5171968Y-19529302D01*
X5171968Y-19529302D02*
X5181491Y-19548350D01*
X5181491Y-19548350D02*
X5191015Y-19586445D01*
X5191015Y-19586445D02*
X5191015Y-19634064D01*
X5191015Y-19634064D02*
X5181491Y-19672160D01*
X5181491Y-19672160D02*
X5171968Y-19691207D01*
X5171968Y-19691207D02*
X5162444Y-19700731D01*
X5162444Y-19700731D02*
X5143396Y-19710255D01*
X5143396Y-19710255D02*
X5124348Y-19710255D01*
X5124348Y-19710255D02*
X5105301Y-19700731D01*
X5105301Y-19700731D02*
X5095777Y-19691207D01*
X5095777Y-19691207D02*
X5086253Y-19672160D01*
X5086253Y-19672160D02*
X5076729Y-19634064D01*
X5076729Y-19634064D02*
X5076729Y-19586445D01*
X5076729Y-19586445D02*
X5086253Y-19548350D01*
X5086253Y-19548350D02*
X5095777Y-19529302D01*
X5095777Y-19529302D02*
X5105301Y-19519779D01*
X5105301Y-19519779D02*
X5124348Y-19510255D01*
X5381491Y-19710255D02*
X5267206Y-19710255D01*
X5324348Y-19710255D02*
X5324348Y-19510255D01*
X5324348Y-19510255D02*
X5305301Y-19538826D01*
X5305301Y-19538826D02*
X5286253Y-19557874D01*
X5286253Y-19557874D02*
X5267206Y-19567398D01*
X5476729Y-19710255D02*
X5514825Y-19710255D01*
X5514825Y-19710255D02*
X5533872Y-19700731D01*
X5533872Y-19700731D02*
X5543396Y-19691207D01*
X5543396Y-19691207D02*
X5562444Y-19662636D01*
X5562444Y-19662636D02*
X5571968Y-19624541D01*
X5571968Y-19624541D02*
X5571968Y-19548350D01*
X5571968Y-19548350D02*
X5562444Y-19529302D01*
X5562444Y-19529302D02*
X5552920Y-19519779D01*
X5552920Y-19519779D02*
X5533872Y-19510255D01*
X5533872Y-19510255D02*
X5495777Y-19510255D01*
X5495777Y-19510255D02*
X5476729Y-19519779D01*
X5476729Y-19519779D02*
X5467206Y-19529302D01*
X5467206Y-19529302D02*
X5457682Y-19548350D01*
X5457682Y-19548350D02*
X5457682Y-19595969D01*
X5457682Y-19595969D02*
X5467206Y-19615017D01*
X5467206Y-19615017D02*
X5476729Y-19624541D01*
X5476729Y-19624541D02*
X5495777Y-19634064D01*
X5495777Y-19634064D02*
X5533872Y-19634064D01*
X5533872Y-19634064D02*
X5552920Y-19624541D01*
X5552920Y-19624541D02*
X5562444Y-19615017D01*
X5562444Y-19615017D02*
X5571968Y-19595969D01*
X5638634Y-19510255D02*
X5771967Y-19510255D01*
X5771967Y-19510255D02*
X5686253Y-19710255D01*
X5838634Y-19510255D02*
X5838634Y-19548350D01*
X5914825Y-19510255D02*
X5914825Y-19548350D01*
X6210063Y-19786445D02*
X6200539Y-19776921D01*
X6200539Y-19776921D02*
X6181491Y-19748350D01*
X6181491Y-19748350D02*
X6171968Y-19729302D01*
X6171968Y-19729302D02*
X6162444Y-19700731D01*
X6162444Y-19700731D02*
X6152920Y-19653112D01*
X6152920Y-19653112D02*
X6152920Y-19615017D01*
X6152920Y-19615017D02*
X6162444Y-19567398D01*
X6162444Y-19567398D02*
X6171968Y-19538826D01*
X6171968Y-19538826D02*
X6181491Y-19519779D01*
X6181491Y-19519779D02*
X6200539Y-19491207D01*
X6200539Y-19491207D02*
X6210063Y-19481683D01*
X6324348Y-19510255D02*
X6343396Y-19510255D01*
X6343396Y-19510255D02*
X6362444Y-19519779D01*
X6362444Y-19519779D02*
X6371968Y-19529302D01*
X6371968Y-19529302D02*
X6381491Y-19548350D01*
X6381491Y-19548350D02*
X6391015Y-19586445D01*
X6391015Y-19586445D02*
X6391015Y-19634064D01*
X6391015Y-19634064D02*
X6381491Y-19672160D01*
X6381491Y-19672160D02*
X6371968Y-19691207D01*
X6371968Y-19691207D02*
X6362444Y-19700731D01*
X6362444Y-19700731D02*
X6343396Y-19710255D01*
X6343396Y-19710255D02*
X6324348Y-19710255D01*
X6324348Y-19710255D02*
X6305301Y-19700731D01*
X6305301Y-19700731D02*
X6295777Y-19691207D01*
X6295777Y-19691207D02*
X6286253Y-19672160D01*
X6286253Y-19672160D02*
X6276729Y-19634064D01*
X6276729Y-19634064D02*
X6276729Y-19586445D01*
X6276729Y-19586445D02*
X6286253Y-19548350D01*
X6286253Y-19548350D02*
X6295777Y-19529302D01*
X6295777Y-19529302D02*
X6305301Y-19519779D01*
X6305301Y-19519779D02*
X6324348Y-19510255D01*
X6629110Y-19710255D02*
X6629110Y-19510255D01*
X6714825Y-19710255D02*
X6714825Y-19605493D01*
X6714825Y-19605493D02*
X6705301Y-19586445D01*
X6705301Y-19586445D02*
X6686253Y-19576921D01*
X6686253Y-19576921D02*
X6657682Y-19576921D01*
X6657682Y-19576921D02*
X6638634Y-19586445D01*
X6638634Y-19586445D02*
X6629110Y-19595969D01*
X6838634Y-19710255D02*
X6819587Y-19700731D01*
X6819587Y-19700731D02*
X6810063Y-19691207D01*
X6810063Y-19691207D02*
X6800539Y-19672160D01*
X6800539Y-19672160D02*
X6800539Y-19615017D01*
X6800539Y-19615017D02*
X6810063Y-19595969D01*
X6810063Y-19595969D02*
X6819587Y-19586445D01*
X6819587Y-19586445D02*
X6838634Y-19576921D01*
X6838634Y-19576921D02*
X6867206Y-19576921D01*
X6867206Y-19576921D02*
X6886253Y-19586445D01*
X6886253Y-19586445D02*
X6895777Y-19595969D01*
X6895777Y-19595969D02*
X6905301Y-19615017D01*
X6905301Y-19615017D02*
X6905301Y-19672160D01*
X6905301Y-19672160D02*
X6895777Y-19691207D01*
X6895777Y-19691207D02*
X6886253Y-19700731D01*
X6886253Y-19700731D02*
X6867206Y-19710255D01*
X6867206Y-19710255D02*
X6838634Y-19710255D01*
X7019587Y-19710255D02*
X7000539Y-19700731D01*
X7000539Y-19700731D02*
X6991015Y-19681683D01*
X6991015Y-19681683D02*
X6991015Y-19510255D01*
X7171968Y-19700731D02*
X7152920Y-19710255D01*
X7152920Y-19710255D02*
X7114825Y-19710255D01*
X7114825Y-19710255D02*
X7095777Y-19700731D01*
X7095777Y-19700731D02*
X7086253Y-19681683D01*
X7086253Y-19681683D02*
X7086253Y-19605493D01*
X7086253Y-19605493D02*
X7095777Y-19586445D01*
X7095777Y-19586445D02*
X7114825Y-19576921D01*
X7114825Y-19576921D02*
X7152920Y-19576921D01*
X7152920Y-19576921D02*
X7171968Y-19586445D01*
X7171968Y-19586445D02*
X7181491Y-19605493D01*
X7181491Y-19605493D02*
X7181491Y-19624541D01*
X7181491Y-19624541D02*
X7086253Y-19643588D01*
X7257682Y-19700731D02*
X7276730Y-19710255D01*
X7276730Y-19710255D02*
X7314825Y-19710255D01*
X7314825Y-19710255D02*
X7333872Y-19700731D01*
X7333872Y-19700731D02*
X7343396Y-19681683D01*
X7343396Y-19681683D02*
X7343396Y-19672160D01*
X7343396Y-19672160D02*
X7333872Y-19653112D01*
X7333872Y-19653112D02*
X7314825Y-19643588D01*
X7314825Y-19643588D02*
X7286253Y-19643588D01*
X7286253Y-19643588D02*
X7267206Y-19634064D01*
X7267206Y-19634064D02*
X7257682Y-19615017D01*
X7257682Y-19615017D02*
X7257682Y-19605493D01*
X7257682Y-19605493D02*
X7267206Y-19586445D01*
X7267206Y-19586445D02*
X7286253Y-19576921D01*
X7286253Y-19576921D02*
X7314825Y-19576921D01*
X7314825Y-19576921D02*
X7333872Y-19586445D01*
X7581492Y-19634064D02*
X7733873Y-19634064D01*
X7657682Y-19710255D02*
X7657682Y-19557874D01*
X8067206Y-19576921D02*
X8067206Y-19710255D01*
X8019587Y-19500731D02*
X7971968Y-19643588D01*
X7971968Y-19643588D02*
X8095777Y-19643588D01*
X8314825Y-19700731D02*
X8333873Y-19710255D01*
X8333873Y-19710255D02*
X8371968Y-19710255D01*
X8371968Y-19710255D02*
X8391016Y-19700731D01*
X8391016Y-19700731D02*
X8400539Y-19681683D01*
X8400539Y-19681683D02*
X8400539Y-19672160D01*
X8400539Y-19672160D02*
X8391016Y-19653112D01*
X8391016Y-19653112D02*
X8371968Y-19643588D01*
X8371968Y-19643588D02*
X8343396Y-19643588D01*
X8343396Y-19643588D02*
X8324349Y-19634064D01*
X8324349Y-19634064D02*
X8314825Y-19615017D01*
X8314825Y-19615017D02*
X8314825Y-19605493D01*
X8314825Y-19605493D02*
X8324349Y-19586445D01*
X8324349Y-19586445D02*
X8343396Y-19576921D01*
X8343396Y-19576921D02*
X8371968Y-19576921D01*
X8371968Y-19576921D02*
X8391016Y-19586445D01*
X8514825Y-19710255D02*
X8495777Y-19700731D01*
X8495777Y-19700731D02*
X8486254Y-19681683D01*
X8486254Y-19681683D02*
X8486254Y-19510255D01*
X8619587Y-19710255D02*
X8600539Y-19700731D01*
X8600539Y-19700731D02*
X8591016Y-19691207D01*
X8591016Y-19691207D02*
X8581492Y-19672160D01*
X8581492Y-19672160D02*
X8581492Y-19615017D01*
X8581492Y-19615017D02*
X8591016Y-19595969D01*
X8591016Y-19595969D02*
X8600539Y-19586445D01*
X8600539Y-19586445D02*
X8619587Y-19576921D01*
X8619587Y-19576921D02*
X8648158Y-19576921D01*
X8648158Y-19576921D02*
X8667206Y-19586445D01*
X8667206Y-19586445D02*
X8676730Y-19595969D01*
X8676730Y-19595969D02*
X8686254Y-19615017D01*
X8686254Y-19615017D02*
X8686254Y-19672160D01*
X8686254Y-19672160D02*
X8676730Y-19691207D01*
X8676730Y-19691207D02*
X8667206Y-19700731D01*
X8667206Y-19700731D02*
X8648158Y-19710255D01*
X8648158Y-19710255D02*
X8619587Y-19710255D01*
X8743397Y-19576921D02*
X8819587Y-19576921D01*
X8771968Y-19510255D02*
X8771968Y-19681683D01*
X8771968Y-19681683D02*
X8781492Y-19700731D01*
X8781492Y-19700731D02*
X8800539Y-19710255D01*
X8800539Y-19710255D02*
X8819587Y-19710255D01*
X8876730Y-19700731D02*
X8895777Y-19710255D01*
X8895777Y-19710255D02*
X8933873Y-19710255D01*
X8933873Y-19710255D02*
X8952920Y-19700731D01*
X8952920Y-19700731D02*
X8962444Y-19681683D01*
X8962444Y-19681683D02*
X8962444Y-19672160D01*
X8962444Y-19672160D02*
X8952920Y-19653112D01*
X8952920Y-19653112D02*
X8933873Y-19643588D01*
X8933873Y-19643588D02*
X8905301Y-19643588D01*
X8905301Y-19643588D02*
X8886254Y-19634064D01*
X8886254Y-19634064D02*
X8876730Y-19615017D01*
X8876730Y-19615017D02*
X8876730Y-19605493D01*
X8876730Y-19605493D02*
X8886254Y-19586445D01*
X8886254Y-19586445D02*
X8905301Y-19576921D01*
X8905301Y-19576921D02*
X8933873Y-19576921D01*
X8933873Y-19576921D02*
X8952920Y-19586445D01*
X9029111Y-19786445D02*
X9038635Y-19776921D01*
X9038635Y-19776921D02*
X9057682Y-19748350D01*
X9057682Y-19748350D02*
X9067206Y-19729302D01*
X9067206Y-19729302D02*
X9076730Y-19700731D01*
X9076730Y-19700731D02*
X9086254Y-19653112D01*
X9086254Y-19653112D02*
X9086254Y-19615017D01*
X9086254Y-19615017D02*
X9076730Y-19567398D01*
X9076730Y-19567398D02*
X9067206Y-19538826D01*
X9067206Y-19538826D02*
X9057682Y-19519779D01*
X9057682Y-19519779D02*
X9038635Y-19491207D01*
X9038635Y-19491207D02*
X9029111Y-19481683D01*
D10*
X2623285Y-19911056D02*
X2623285Y-19854487D01*
X2566716Y-19854487D01*
X2566716Y-19911056D01*
X2623285Y-19911056D01*
D11*
X2933872Y-19774255D02*
X2952920Y-19774255D01*
X2952920Y-19774255D02*
X2971967Y-19783779D01*
X2971967Y-19783779D02*
X2981491Y-19793302D01*
X2981491Y-19793302D02*
X2991015Y-19812350D01*
X2991015Y-19812350D02*
X3000539Y-19850445D01*
X3000539Y-19850445D02*
X3000539Y-19898064D01*
X3000539Y-19898064D02*
X2991015Y-19936160D01*
X2991015Y-19936160D02*
X2981491Y-19955207D01*
X2981491Y-19955207D02*
X2971967Y-19964731D01*
X2971967Y-19964731D02*
X2952920Y-19974255D01*
X2952920Y-19974255D02*
X2933872Y-19974255D01*
X2933872Y-19974255D02*
X2914824Y-19964731D01*
X2914824Y-19964731D02*
X2905301Y-19955207D01*
X2905301Y-19955207D02*
X2895777Y-19936160D01*
X2895777Y-19936160D02*
X2886253Y-19898064D01*
X2886253Y-19898064D02*
X2886253Y-19850445D01*
X2886253Y-19850445D02*
X2895777Y-19812350D01*
X2895777Y-19812350D02*
X2905301Y-19793302D01*
X2905301Y-19793302D02*
X2914824Y-19783779D01*
X2914824Y-19783779D02*
X2933872Y-19774255D01*
X3086253Y-19955207D02*
X3095777Y-19964731D01*
X3095777Y-19964731D02*
X3086253Y-19974255D01*
X3086253Y-19974255D02*
X3076729Y-19964731D01*
X3076729Y-19964731D02*
X3086253Y-19955207D01*
X3086253Y-19955207D02*
X3086253Y-19974255D01*
X3210062Y-19859969D02*
X3191015Y-19850445D01*
X3191015Y-19850445D02*
X3181491Y-19840921D01*
X3181491Y-19840921D02*
X3171967Y-19821874D01*
X3171967Y-19821874D02*
X3171967Y-19812350D01*
X3171967Y-19812350D02*
X3181491Y-19793302D01*
X3181491Y-19793302D02*
X3191015Y-19783779D01*
X3191015Y-19783779D02*
X3210062Y-19774255D01*
X3210062Y-19774255D02*
X3248158Y-19774255D01*
X3248158Y-19774255D02*
X3267205Y-19783779D01*
X3267205Y-19783779D02*
X3276729Y-19793302D01*
X3276729Y-19793302D02*
X3286253Y-19812350D01*
X3286253Y-19812350D02*
X3286253Y-19821874D01*
X3286253Y-19821874D02*
X3276729Y-19840921D01*
X3276729Y-19840921D02*
X3267205Y-19850445D01*
X3267205Y-19850445D02*
X3248158Y-19859969D01*
X3248158Y-19859969D02*
X3210062Y-19859969D01*
X3210062Y-19859969D02*
X3191015Y-19869493D01*
X3191015Y-19869493D02*
X3181491Y-19879017D01*
X3181491Y-19879017D02*
X3171967Y-19898064D01*
X3171967Y-19898064D02*
X3171967Y-19936160D01*
X3171967Y-19936160D02*
X3181491Y-19955207D01*
X3181491Y-19955207D02*
X3191015Y-19964731D01*
X3191015Y-19964731D02*
X3210062Y-19974255D01*
X3210062Y-19974255D02*
X3248158Y-19974255D01*
X3248158Y-19974255D02*
X3267205Y-19964731D01*
X3267205Y-19964731D02*
X3276729Y-19955207D01*
X3276729Y-19955207D02*
X3286253Y-19936160D01*
X3286253Y-19936160D02*
X3286253Y-19898064D01*
X3286253Y-19898064D02*
X3276729Y-19879017D01*
X3276729Y-19879017D02*
X3267205Y-19869493D01*
X3267205Y-19869493D02*
X3248158Y-19859969D01*
X3410062Y-19774255D02*
X3429110Y-19774255D01*
X3429110Y-19774255D02*
X3448158Y-19783779D01*
X3448158Y-19783779D02*
X3457682Y-19793302D01*
X3457682Y-19793302D02*
X3467205Y-19812350D01*
X3467205Y-19812350D02*
X3476729Y-19850445D01*
X3476729Y-19850445D02*
X3476729Y-19898064D01*
X3476729Y-19898064D02*
X3467205Y-19936160D01*
X3467205Y-19936160D02*
X3457682Y-19955207D01*
X3457682Y-19955207D02*
X3448158Y-19964731D01*
X3448158Y-19964731D02*
X3429110Y-19974255D01*
X3429110Y-19974255D02*
X3410062Y-19974255D01*
X3410062Y-19974255D02*
X3391015Y-19964731D01*
X3391015Y-19964731D02*
X3381491Y-19955207D01*
X3381491Y-19955207D02*
X3371967Y-19936160D01*
X3371967Y-19936160D02*
X3362443Y-19898064D01*
X3362443Y-19898064D02*
X3362443Y-19850445D01*
X3362443Y-19850445D02*
X3371967Y-19812350D01*
X3371967Y-19812350D02*
X3381491Y-19793302D01*
X3381491Y-19793302D02*
X3391015Y-19783779D01*
X3391015Y-19783779D02*
X3410062Y-19774255D01*
X3600539Y-19774255D02*
X3619586Y-19774255D01*
X3619586Y-19774255D02*
X3638634Y-19783779D01*
X3638634Y-19783779D02*
X3648158Y-19793302D01*
X3648158Y-19793302D02*
X3657682Y-19812350D01*
X3657682Y-19812350D02*
X3667205Y-19850445D01*
X3667205Y-19850445D02*
X3667205Y-19898064D01*
X3667205Y-19898064D02*
X3657682Y-19936160D01*
X3657682Y-19936160D02*
X3648158Y-19955207D01*
X3648158Y-19955207D02*
X3638634Y-19964731D01*
X3638634Y-19964731D02*
X3619586Y-19974255D01*
X3619586Y-19974255D02*
X3600539Y-19974255D01*
X3600539Y-19974255D02*
X3581491Y-19964731D01*
X3581491Y-19964731D02*
X3571967Y-19955207D01*
X3571967Y-19955207D02*
X3562443Y-19936160D01*
X3562443Y-19936160D02*
X3552920Y-19898064D01*
X3552920Y-19898064D02*
X3552920Y-19850445D01*
X3552920Y-19850445D02*
X3562443Y-19812350D01*
X3562443Y-19812350D02*
X3571967Y-19793302D01*
X3571967Y-19793302D02*
X3581491Y-19783779D01*
X3581491Y-19783779D02*
X3600539Y-19774255D01*
X3752920Y-19974255D02*
X3752920Y-19840921D01*
X3752920Y-19859969D02*
X3762443Y-19850445D01*
X3762443Y-19850445D02*
X3781491Y-19840921D01*
X3781491Y-19840921D02*
X3810063Y-19840921D01*
X3810063Y-19840921D02*
X3829110Y-19850445D01*
X3829110Y-19850445D02*
X3838634Y-19869493D01*
X3838634Y-19869493D02*
X3838634Y-19974255D01*
X3838634Y-19869493D02*
X3848158Y-19850445D01*
X3848158Y-19850445D02*
X3867205Y-19840921D01*
X3867205Y-19840921D02*
X3895777Y-19840921D01*
X3895777Y-19840921D02*
X3914824Y-19850445D01*
X3914824Y-19850445D02*
X3924348Y-19869493D01*
X3924348Y-19869493D02*
X3924348Y-19974255D01*
X4019586Y-19974255D02*
X4019586Y-19840921D01*
X4019586Y-19859969D02*
X4029110Y-19850445D01*
X4029110Y-19850445D02*
X4048158Y-19840921D01*
X4048158Y-19840921D02*
X4076729Y-19840921D01*
X4076729Y-19840921D02*
X4095777Y-19850445D01*
X4095777Y-19850445D02*
X4105301Y-19869493D01*
X4105301Y-19869493D02*
X4105301Y-19974255D01*
X4105301Y-19869493D02*
X4114824Y-19850445D01*
X4114824Y-19850445D02*
X4133872Y-19840921D01*
X4133872Y-19840921D02*
X4162443Y-19840921D01*
X4162443Y-19840921D02*
X4181491Y-19850445D01*
X4181491Y-19850445D02*
X4191015Y-19869493D01*
X4191015Y-19869493D02*
X4191015Y-19974255D01*
X4581491Y-19764731D02*
X4410063Y-20021874D01*
X4838634Y-19774255D02*
X4857682Y-19774255D01*
X4857682Y-19774255D02*
X4876729Y-19783779D01*
X4876729Y-19783779D02*
X4886253Y-19793302D01*
X4886253Y-19793302D02*
X4895777Y-19812350D01*
X4895777Y-19812350D02*
X4905301Y-19850445D01*
X4905301Y-19850445D02*
X4905301Y-19898064D01*
X4905301Y-19898064D02*
X4895777Y-19936160D01*
X4895777Y-19936160D02*
X4886253Y-19955207D01*
X4886253Y-19955207D02*
X4876729Y-19964731D01*
X4876729Y-19964731D02*
X4857682Y-19974255D01*
X4857682Y-19974255D02*
X4838634Y-19974255D01*
X4838634Y-19974255D02*
X4819587Y-19964731D01*
X4819587Y-19964731D02*
X4810063Y-19955207D01*
X4810063Y-19955207D02*
X4800539Y-19936160D01*
X4800539Y-19936160D02*
X4791015Y-19898064D01*
X4791015Y-19898064D02*
X4791015Y-19850445D01*
X4791015Y-19850445D02*
X4800539Y-19812350D01*
X4800539Y-19812350D02*
X4810063Y-19793302D01*
X4810063Y-19793302D02*
X4819587Y-19783779D01*
X4819587Y-19783779D02*
X4838634Y-19774255D01*
X4991015Y-19955207D02*
X5000539Y-19964731D01*
X5000539Y-19964731D02*
X4991015Y-19974255D01*
X4991015Y-19974255D02*
X4981491Y-19964731D01*
X4981491Y-19964731D02*
X4991015Y-19955207D01*
X4991015Y-19955207D02*
X4991015Y-19974255D01*
X5124348Y-19774255D02*
X5143396Y-19774255D01*
X5143396Y-19774255D02*
X5162444Y-19783779D01*
X5162444Y-19783779D02*
X5171968Y-19793302D01*
X5171968Y-19793302D02*
X5181491Y-19812350D01*
X5181491Y-19812350D02*
X5191015Y-19850445D01*
X5191015Y-19850445D02*
X5191015Y-19898064D01*
X5191015Y-19898064D02*
X5181491Y-19936160D01*
X5181491Y-19936160D02*
X5171968Y-19955207D01*
X5171968Y-19955207D02*
X5162444Y-19964731D01*
X5162444Y-19964731D02*
X5143396Y-19974255D01*
X5143396Y-19974255D02*
X5124348Y-19974255D01*
X5124348Y-19974255D02*
X5105301Y-19964731D01*
X5105301Y-19964731D02*
X5095777Y-19955207D01*
X5095777Y-19955207D02*
X5086253Y-19936160D01*
X5086253Y-19936160D02*
X5076729Y-19898064D01*
X5076729Y-19898064D02*
X5076729Y-19850445D01*
X5076729Y-19850445D02*
X5086253Y-19812350D01*
X5086253Y-19812350D02*
X5095777Y-19793302D01*
X5095777Y-19793302D02*
X5105301Y-19783779D01*
X5105301Y-19783779D02*
X5124348Y-19774255D01*
X5257682Y-19774255D02*
X5381491Y-19774255D01*
X5381491Y-19774255D02*
X5314825Y-19850445D01*
X5314825Y-19850445D02*
X5343396Y-19850445D01*
X5343396Y-19850445D02*
X5362444Y-19859969D01*
X5362444Y-19859969D02*
X5371968Y-19869493D01*
X5371968Y-19869493D02*
X5381491Y-19888541D01*
X5381491Y-19888541D02*
X5381491Y-19936160D01*
X5381491Y-19936160D02*
X5371968Y-19955207D01*
X5371968Y-19955207D02*
X5362444Y-19964731D01*
X5362444Y-19964731D02*
X5343396Y-19974255D01*
X5343396Y-19974255D02*
X5286253Y-19974255D01*
X5286253Y-19974255D02*
X5267206Y-19964731D01*
X5267206Y-19964731D02*
X5257682Y-19955207D01*
X5571968Y-19974255D02*
X5457682Y-19974255D01*
X5514825Y-19974255D02*
X5514825Y-19774255D01*
X5514825Y-19774255D02*
X5495777Y-19802826D01*
X5495777Y-19802826D02*
X5476729Y-19821874D01*
X5476729Y-19821874D02*
X5457682Y-19831398D01*
X5752920Y-19774255D02*
X5657682Y-19774255D01*
X5657682Y-19774255D02*
X5648158Y-19869493D01*
X5648158Y-19869493D02*
X5657682Y-19859969D01*
X5657682Y-19859969D02*
X5676729Y-19850445D01*
X5676729Y-19850445D02*
X5724348Y-19850445D01*
X5724348Y-19850445D02*
X5743396Y-19859969D01*
X5743396Y-19859969D02*
X5752920Y-19869493D01*
X5752920Y-19869493D02*
X5762444Y-19888541D01*
X5762444Y-19888541D02*
X5762444Y-19936160D01*
X5762444Y-19936160D02*
X5752920Y-19955207D01*
X5752920Y-19955207D02*
X5743396Y-19964731D01*
X5743396Y-19964731D02*
X5724348Y-19974255D01*
X5724348Y-19974255D02*
X5676729Y-19974255D01*
X5676729Y-19974255D02*
X5657682Y-19964731D01*
X5657682Y-19964731D02*
X5648158Y-19955207D01*
X5838634Y-19774255D02*
X5838634Y-19812350D01*
X5914825Y-19774255D02*
X5914825Y-19812350D01*
X6210063Y-20050445D02*
X6200539Y-20040921D01*
X6200539Y-20040921D02*
X6181491Y-20012350D01*
X6181491Y-20012350D02*
X6171968Y-19993302D01*
X6171968Y-19993302D02*
X6162444Y-19964731D01*
X6162444Y-19964731D02*
X6152920Y-19917112D01*
X6152920Y-19917112D02*
X6152920Y-19879017D01*
X6152920Y-19879017D02*
X6162444Y-19831398D01*
X6162444Y-19831398D02*
X6171968Y-19802826D01*
X6171968Y-19802826D02*
X6181491Y-19783779D01*
X6181491Y-19783779D02*
X6200539Y-19755207D01*
X6200539Y-19755207D02*
X6210063Y-19745683D01*
X6267206Y-19774255D02*
X6400539Y-19774255D01*
X6400539Y-19774255D02*
X6314825Y-19974255D01*
X6514825Y-19774255D02*
X6533872Y-19774255D01*
X6533872Y-19774255D02*
X6552920Y-19783779D01*
X6552920Y-19783779D02*
X6562444Y-19793302D01*
X6562444Y-19793302D02*
X6571968Y-19812350D01*
X6571968Y-19812350D02*
X6581491Y-19850445D01*
X6581491Y-19850445D02*
X6581491Y-19898064D01*
X6581491Y-19898064D02*
X6571968Y-19936160D01*
X6571968Y-19936160D02*
X6562444Y-19955207D01*
X6562444Y-19955207D02*
X6552920Y-19964731D01*
X6552920Y-19964731D02*
X6533872Y-19974255D01*
X6533872Y-19974255D02*
X6514825Y-19974255D01*
X6514825Y-19974255D02*
X6495777Y-19964731D01*
X6495777Y-19964731D02*
X6486253Y-19955207D01*
X6486253Y-19955207D02*
X6476729Y-19936160D01*
X6476729Y-19936160D02*
X6467206Y-19898064D01*
X6467206Y-19898064D02*
X6467206Y-19850445D01*
X6467206Y-19850445D02*
X6476729Y-19812350D01*
X6476729Y-19812350D02*
X6486253Y-19793302D01*
X6486253Y-19793302D02*
X6495777Y-19783779D01*
X6495777Y-19783779D02*
X6514825Y-19774255D01*
X6819587Y-19974255D02*
X6819587Y-19774255D01*
X6905301Y-19974255D02*
X6905301Y-19869493D01*
X6905301Y-19869493D02*
X6895777Y-19850445D01*
X6895777Y-19850445D02*
X6876730Y-19840921D01*
X6876730Y-19840921D02*
X6848158Y-19840921D01*
X6848158Y-19840921D02*
X6829110Y-19850445D01*
X6829110Y-19850445D02*
X6819587Y-19859969D01*
X7029110Y-19974255D02*
X7010063Y-19964731D01*
X7010063Y-19964731D02*
X7000539Y-19955207D01*
X7000539Y-19955207D02*
X6991015Y-19936160D01*
X6991015Y-19936160D02*
X6991015Y-19879017D01*
X6991015Y-19879017D02*
X7000539Y-19859969D01*
X7000539Y-19859969D02*
X7010063Y-19850445D01*
X7010063Y-19850445D02*
X7029110Y-19840921D01*
X7029110Y-19840921D02*
X7057682Y-19840921D01*
X7057682Y-19840921D02*
X7076730Y-19850445D01*
X7076730Y-19850445D02*
X7086253Y-19859969D01*
X7086253Y-19859969D02*
X7095777Y-19879017D01*
X7095777Y-19879017D02*
X7095777Y-19936160D01*
X7095777Y-19936160D02*
X7086253Y-19955207D01*
X7086253Y-19955207D02*
X7076730Y-19964731D01*
X7076730Y-19964731D02*
X7057682Y-19974255D01*
X7057682Y-19974255D02*
X7029110Y-19974255D01*
X7210063Y-19974255D02*
X7191015Y-19964731D01*
X7191015Y-19964731D02*
X7181491Y-19945683D01*
X7181491Y-19945683D02*
X7181491Y-19774255D01*
X7362444Y-19964731D02*
X7343396Y-19974255D01*
X7343396Y-19974255D02*
X7305301Y-19974255D01*
X7305301Y-19974255D02*
X7286253Y-19964731D01*
X7286253Y-19964731D02*
X7276730Y-19945683D01*
X7276730Y-19945683D02*
X7276730Y-19869493D01*
X7276730Y-19869493D02*
X7286253Y-19850445D01*
X7286253Y-19850445D02*
X7305301Y-19840921D01*
X7305301Y-19840921D02*
X7343396Y-19840921D01*
X7343396Y-19840921D02*
X7362444Y-19850445D01*
X7362444Y-19850445D02*
X7371968Y-19869493D01*
X7371968Y-19869493D02*
X7371968Y-19888541D01*
X7371968Y-19888541D02*
X7276730Y-19907588D01*
X7448158Y-19964731D02*
X7467206Y-19974255D01*
X7467206Y-19974255D02*
X7505301Y-19974255D01*
X7505301Y-19974255D02*
X7524349Y-19964731D01*
X7524349Y-19964731D02*
X7533872Y-19945683D01*
X7533872Y-19945683D02*
X7533872Y-19936160D01*
X7533872Y-19936160D02*
X7524349Y-19917112D01*
X7524349Y-19917112D02*
X7505301Y-19907588D01*
X7505301Y-19907588D02*
X7476730Y-19907588D01*
X7476730Y-19907588D02*
X7457682Y-19898064D01*
X7457682Y-19898064D02*
X7448158Y-19879017D01*
X7448158Y-19879017D02*
X7448158Y-19869493D01*
X7448158Y-19869493D02*
X7457682Y-19850445D01*
X7457682Y-19850445D02*
X7476730Y-19840921D01*
X7476730Y-19840921D02*
X7505301Y-19840921D01*
X7505301Y-19840921D02*
X7524349Y-19850445D01*
X7771968Y-19898064D02*
X7924349Y-19898064D01*
X7848158Y-19974255D02*
X7848158Y-19821874D01*
X8162444Y-19793302D02*
X8171968Y-19783779D01*
X8171968Y-19783779D02*
X8191015Y-19774255D01*
X8191015Y-19774255D02*
X8238634Y-19774255D01*
X8238634Y-19774255D02*
X8257682Y-19783779D01*
X8257682Y-19783779D02*
X8267206Y-19793302D01*
X8267206Y-19793302D02*
X8276730Y-19812350D01*
X8276730Y-19812350D02*
X8276730Y-19831398D01*
X8276730Y-19831398D02*
X8267206Y-19859969D01*
X8267206Y-19859969D02*
X8152920Y-19974255D01*
X8152920Y-19974255D02*
X8276730Y-19974255D01*
X8505301Y-19964731D02*
X8524349Y-19974255D01*
X8524349Y-19974255D02*
X8562444Y-19974255D01*
X8562444Y-19974255D02*
X8581492Y-19964731D01*
X8581492Y-19964731D02*
X8591016Y-19945683D01*
X8591016Y-19945683D02*
X8591016Y-19936160D01*
X8591016Y-19936160D02*
X8581492Y-19917112D01*
X8581492Y-19917112D02*
X8562444Y-19907588D01*
X8562444Y-19907588D02*
X8533873Y-19907588D01*
X8533873Y-19907588D02*
X8514825Y-19898064D01*
X8514825Y-19898064D02*
X8505301Y-19879017D01*
X8505301Y-19879017D02*
X8505301Y-19869493D01*
X8505301Y-19869493D02*
X8514825Y-19850445D01*
X8514825Y-19850445D02*
X8533873Y-19840921D01*
X8533873Y-19840921D02*
X8562444Y-19840921D01*
X8562444Y-19840921D02*
X8581492Y-19850445D01*
X8705301Y-19974255D02*
X8686254Y-19964731D01*
X8686254Y-19964731D02*
X8676730Y-19945683D01*
X8676730Y-19945683D02*
X8676730Y-19774255D01*
X8810063Y-19974255D02*
X8791016Y-19964731D01*
X8791016Y-19964731D02*
X8781492Y-19955207D01*
X8781492Y-19955207D02*
X8771968Y-19936160D01*
X8771968Y-19936160D02*
X8771968Y-19879017D01*
X8771968Y-19879017D02*
X8781492Y-19859969D01*
X8781492Y-19859969D02*
X8791016Y-19850445D01*
X8791016Y-19850445D02*
X8810063Y-19840921D01*
X8810063Y-19840921D02*
X8838635Y-19840921D01*
X8838635Y-19840921D02*
X8857682Y-19850445D01*
X8857682Y-19850445D02*
X8867206Y-19859969D01*
X8867206Y-19859969D02*
X8876730Y-19879017D01*
X8876730Y-19879017D02*
X8876730Y-19936160D01*
X8876730Y-19936160D02*
X8867206Y-19955207D01*
X8867206Y-19955207D02*
X8857682Y-19964731D01*
X8857682Y-19964731D02*
X8838635Y-19974255D01*
X8838635Y-19974255D02*
X8810063Y-19974255D01*
X8933873Y-19840921D02*
X9010063Y-19840921D01*
X8962444Y-19774255D02*
X8962444Y-19945683D01*
X8962444Y-19945683D02*
X8971968Y-19964731D01*
X8971968Y-19964731D02*
X8991016Y-19974255D01*
X8991016Y-19974255D02*
X9010063Y-19974255D01*
X9067206Y-19964731D02*
X9086254Y-19974255D01*
X9086254Y-19974255D02*
X9124349Y-19974255D01*
X9124349Y-19974255D02*
X9143397Y-19964731D01*
X9143397Y-19964731D02*
X9152920Y-19945683D01*
X9152920Y-19945683D02*
X9152920Y-19936160D01*
X9152920Y-19936160D02*
X9143397Y-19917112D01*
X9143397Y-19917112D02*
X9124349Y-19907588D01*
X9124349Y-19907588D02*
X9095777Y-19907588D01*
X9095777Y-19907588D02*
X9076730Y-19898064D01*
X9076730Y-19898064D02*
X9067206Y-19879017D01*
X9067206Y-19879017D02*
X9067206Y-19869493D01*
X9067206Y-19869493D02*
X9076730Y-19850445D01*
X9076730Y-19850445D02*
X9095777Y-19840921D01*
X9095777Y-19840921D02*
X9124349Y-19840921D01*
X9124349Y-19840921D02*
X9143397Y-19850445D01*
X9219587Y-20050445D02*
X9229111Y-20040921D01*
X9229111Y-20040921D02*
X9248158Y-20012350D01*
X9248158Y-20012350D02*
X9257682Y-19993302D01*
X9257682Y-19993302D02*
X9267206Y-19964731D01*
X9267206Y-19964731D02*
X9276730Y-19917112D01*
X9276730Y-19917112D02*
X9276730Y-19879017D01*
X9276730Y-19879017D02*
X9267206Y-19831398D01*
X9267206Y-19831398D02*
X9257682Y-19802826D01*
X9257682Y-19802826D02*
X9248158Y-19783779D01*
X9248158Y-19783779D02*
X9229111Y-19755207D01*
X9229111Y-19755207D02*
X9219587Y-19745683D01*
D10*
X2590000Y-20191771D02*
X2635000Y-20146771D01*
X2590000Y-20101771D01*
X2545000Y-20146771D01*
X2590000Y-20191771D01*
D11*
X2933872Y-20038255D02*
X2952920Y-20038255D01*
X2952920Y-20038255D02*
X2971967Y-20047779D01*
X2971967Y-20047779D02*
X2981491Y-20057302D01*
X2981491Y-20057302D02*
X2991015Y-20076350D01*
X2991015Y-20076350D02*
X3000539Y-20114445D01*
X3000539Y-20114445D02*
X3000539Y-20162064D01*
X3000539Y-20162064D02*
X2991015Y-20200160D01*
X2991015Y-20200160D02*
X2981491Y-20219207D01*
X2981491Y-20219207D02*
X2971967Y-20228731D01*
X2971967Y-20228731D02*
X2952920Y-20238255D01*
X2952920Y-20238255D02*
X2933872Y-20238255D01*
X2933872Y-20238255D02*
X2914824Y-20228731D01*
X2914824Y-20228731D02*
X2905301Y-20219207D01*
X2905301Y-20219207D02*
X2895777Y-20200160D01*
X2895777Y-20200160D02*
X2886253Y-20162064D01*
X2886253Y-20162064D02*
X2886253Y-20114445D01*
X2886253Y-20114445D02*
X2895777Y-20076350D01*
X2895777Y-20076350D02*
X2905301Y-20057302D01*
X2905301Y-20057302D02*
X2914824Y-20047779D01*
X2914824Y-20047779D02*
X2933872Y-20038255D01*
X3086253Y-20219207D02*
X3095777Y-20228731D01*
X3095777Y-20228731D02*
X3086253Y-20238255D01*
X3086253Y-20238255D02*
X3076729Y-20228731D01*
X3076729Y-20228731D02*
X3086253Y-20219207D01*
X3086253Y-20219207D02*
X3086253Y-20238255D01*
X3191015Y-20238255D02*
X3229110Y-20238255D01*
X3229110Y-20238255D02*
X3248158Y-20228731D01*
X3248158Y-20228731D02*
X3257682Y-20219207D01*
X3257682Y-20219207D02*
X3276729Y-20190636D01*
X3276729Y-20190636D02*
X3286253Y-20152541D01*
X3286253Y-20152541D02*
X3286253Y-20076350D01*
X3286253Y-20076350D02*
X3276729Y-20057302D01*
X3276729Y-20057302D02*
X3267205Y-20047779D01*
X3267205Y-20047779D02*
X3248158Y-20038255D01*
X3248158Y-20038255D02*
X3210062Y-20038255D01*
X3210062Y-20038255D02*
X3191015Y-20047779D01*
X3191015Y-20047779D02*
X3181491Y-20057302D01*
X3181491Y-20057302D02*
X3171967Y-20076350D01*
X3171967Y-20076350D02*
X3171967Y-20123969D01*
X3171967Y-20123969D02*
X3181491Y-20143017D01*
X3181491Y-20143017D02*
X3191015Y-20152541D01*
X3191015Y-20152541D02*
X3210062Y-20162064D01*
X3210062Y-20162064D02*
X3248158Y-20162064D01*
X3248158Y-20162064D02*
X3267205Y-20152541D01*
X3267205Y-20152541D02*
X3276729Y-20143017D01*
X3276729Y-20143017D02*
X3286253Y-20123969D01*
X3410062Y-20038255D02*
X3429110Y-20038255D01*
X3429110Y-20038255D02*
X3448158Y-20047779D01*
X3448158Y-20047779D02*
X3457682Y-20057302D01*
X3457682Y-20057302D02*
X3467205Y-20076350D01*
X3467205Y-20076350D02*
X3476729Y-20114445D01*
X3476729Y-20114445D02*
X3476729Y-20162064D01*
X3476729Y-20162064D02*
X3467205Y-20200160D01*
X3467205Y-20200160D02*
X3457682Y-20219207D01*
X3457682Y-20219207D02*
X3448158Y-20228731D01*
X3448158Y-20228731D02*
X3429110Y-20238255D01*
X3429110Y-20238255D02*
X3410062Y-20238255D01*
X3410062Y-20238255D02*
X3391015Y-20228731D01*
X3391015Y-20228731D02*
X3381491Y-20219207D01*
X3381491Y-20219207D02*
X3371967Y-20200160D01*
X3371967Y-20200160D02*
X3362443Y-20162064D01*
X3362443Y-20162064D02*
X3362443Y-20114445D01*
X3362443Y-20114445D02*
X3371967Y-20076350D01*
X3371967Y-20076350D02*
X3381491Y-20057302D01*
X3381491Y-20057302D02*
X3391015Y-20047779D01*
X3391015Y-20047779D02*
X3410062Y-20038255D01*
X3600539Y-20038255D02*
X3619586Y-20038255D01*
X3619586Y-20038255D02*
X3638634Y-20047779D01*
X3638634Y-20047779D02*
X3648158Y-20057302D01*
X3648158Y-20057302D02*
X3657682Y-20076350D01*
X3657682Y-20076350D02*
X3667205Y-20114445D01*
X3667205Y-20114445D02*
X3667205Y-20162064D01*
X3667205Y-20162064D02*
X3657682Y-20200160D01*
X3657682Y-20200160D02*
X3648158Y-20219207D01*
X3648158Y-20219207D02*
X3638634Y-20228731D01*
X3638634Y-20228731D02*
X3619586Y-20238255D01*
X3619586Y-20238255D02*
X3600539Y-20238255D01*
X3600539Y-20238255D02*
X3581491Y-20228731D01*
X3581491Y-20228731D02*
X3571967Y-20219207D01*
X3571967Y-20219207D02*
X3562443Y-20200160D01*
X3562443Y-20200160D02*
X3552920Y-20162064D01*
X3552920Y-20162064D02*
X3552920Y-20114445D01*
X3552920Y-20114445D02*
X3562443Y-20076350D01*
X3562443Y-20076350D02*
X3571967Y-20057302D01*
X3571967Y-20057302D02*
X3581491Y-20047779D01*
X3581491Y-20047779D02*
X3600539Y-20038255D01*
X3752920Y-20238255D02*
X3752920Y-20104921D01*
X3752920Y-20123969D02*
X3762443Y-20114445D01*
X3762443Y-20114445D02*
X3781491Y-20104921D01*
X3781491Y-20104921D02*
X3810063Y-20104921D01*
X3810063Y-20104921D02*
X3829110Y-20114445D01*
X3829110Y-20114445D02*
X3838634Y-20133493D01*
X3838634Y-20133493D02*
X3838634Y-20238255D01*
X3838634Y-20133493D02*
X3848158Y-20114445D01*
X3848158Y-20114445D02*
X3867205Y-20104921D01*
X3867205Y-20104921D02*
X3895777Y-20104921D01*
X3895777Y-20104921D02*
X3914824Y-20114445D01*
X3914824Y-20114445D02*
X3924348Y-20133493D01*
X3924348Y-20133493D02*
X3924348Y-20238255D01*
X4019586Y-20238255D02*
X4019586Y-20104921D01*
X4019586Y-20123969D02*
X4029110Y-20114445D01*
X4029110Y-20114445D02*
X4048158Y-20104921D01*
X4048158Y-20104921D02*
X4076729Y-20104921D01*
X4076729Y-20104921D02*
X4095777Y-20114445D01*
X4095777Y-20114445D02*
X4105301Y-20133493D01*
X4105301Y-20133493D02*
X4105301Y-20238255D01*
X4105301Y-20133493D02*
X4114824Y-20114445D01*
X4114824Y-20114445D02*
X4133872Y-20104921D01*
X4133872Y-20104921D02*
X4162443Y-20104921D01*
X4162443Y-20104921D02*
X4181491Y-20114445D01*
X4181491Y-20114445D02*
X4191015Y-20133493D01*
X4191015Y-20133493D02*
X4191015Y-20238255D01*
X4581491Y-20028731D02*
X4410063Y-20285874D01*
X4838634Y-20038255D02*
X4857682Y-20038255D01*
X4857682Y-20038255D02*
X4876729Y-20047779D01*
X4876729Y-20047779D02*
X4886253Y-20057302D01*
X4886253Y-20057302D02*
X4895777Y-20076350D01*
X4895777Y-20076350D02*
X4905301Y-20114445D01*
X4905301Y-20114445D02*
X4905301Y-20162064D01*
X4905301Y-20162064D02*
X4895777Y-20200160D01*
X4895777Y-20200160D02*
X4886253Y-20219207D01*
X4886253Y-20219207D02*
X4876729Y-20228731D01*
X4876729Y-20228731D02*
X4857682Y-20238255D01*
X4857682Y-20238255D02*
X4838634Y-20238255D01*
X4838634Y-20238255D02*
X4819587Y-20228731D01*
X4819587Y-20228731D02*
X4810063Y-20219207D01*
X4810063Y-20219207D02*
X4800539Y-20200160D01*
X4800539Y-20200160D02*
X4791015Y-20162064D01*
X4791015Y-20162064D02*
X4791015Y-20114445D01*
X4791015Y-20114445D02*
X4800539Y-20076350D01*
X4800539Y-20076350D02*
X4810063Y-20057302D01*
X4810063Y-20057302D02*
X4819587Y-20047779D01*
X4819587Y-20047779D02*
X4838634Y-20038255D01*
X4991015Y-20219207D02*
X5000539Y-20228731D01*
X5000539Y-20228731D02*
X4991015Y-20238255D01*
X4991015Y-20238255D02*
X4981491Y-20228731D01*
X4981491Y-20228731D02*
X4991015Y-20219207D01*
X4991015Y-20219207D02*
X4991015Y-20238255D01*
X5124348Y-20038255D02*
X5143396Y-20038255D01*
X5143396Y-20038255D02*
X5162444Y-20047779D01*
X5162444Y-20047779D02*
X5171968Y-20057302D01*
X5171968Y-20057302D02*
X5181491Y-20076350D01*
X5181491Y-20076350D02*
X5191015Y-20114445D01*
X5191015Y-20114445D02*
X5191015Y-20162064D01*
X5191015Y-20162064D02*
X5181491Y-20200160D01*
X5181491Y-20200160D02*
X5171968Y-20219207D01*
X5171968Y-20219207D02*
X5162444Y-20228731D01*
X5162444Y-20228731D02*
X5143396Y-20238255D01*
X5143396Y-20238255D02*
X5124348Y-20238255D01*
X5124348Y-20238255D02*
X5105301Y-20228731D01*
X5105301Y-20228731D02*
X5095777Y-20219207D01*
X5095777Y-20219207D02*
X5086253Y-20200160D01*
X5086253Y-20200160D02*
X5076729Y-20162064D01*
X5076729Y-20162064D02*
X5076729Y-20114445D01*
X5076729Y-20114445D02*
X5086253Y-20076350D01*
X5086253Y-20076350D02*
X5095777Y-20057302D01*
X5095777Y-20057302D02*
X5105301Y-20047779D01*
X5105301Y-20047779D02*
X5124348Y-20038255D01*
X5257682Y-20038255D02*
X5381491Y-20038255D01*
X5381491Y-20038255D02*
X5314825Y-20114445D01*
X5314825Y-20114445D02*
X5343396Y-20114445D01*
X5343396Y-20114445D02*
X5362444Y-20123969D01*
X5362444Y-20123969D02*
X5371968Y-20133493D01*
X5371968Y-20133493D02*
X5381491Y-20152541D01*
X5381491Y-20152541D02*
X5381491Y-20200160D01*
X5381491Y-20200160D02*
X5371968Y-20219207D01*
X5371968Y-20219207D02*
X5362444Y-20228731D01*
X5362444Y-20228731D02*
X5343396Y-20238255D01*
X5343396Y-20238255D02*
X5286253Y-20238255D01*
X5286253Y-20238255D02*
X5267206Y-20228731D01*
X5267206Y-20228731D02*
X5257682Y-20219207D01*
X5562444Y-20038255D02*
X5467206Y-20038255D01*
X5467206Y-20038255D02*
X5457682Y-20133493D01*
X5457682Y-20133493D02*
X5467206Y-20123969D01*
X5467206Y-20123969D02*
X5486253Y-20114445D01*
X5486253Y-20114445D02*
X5533872Y-20114445D01*
X5533872Y-20114445D02*
X5552920Y-20123969D01*
X5552920Y-20123969D02*
X5562444Y-20133493D01*
X5562444Y-20133493D02*
X5571968Y-20152541D01*
X5571968Y-20152541D02*
X5571968Y-20200160D01*
X5571968Y-20200160D02*
X5562444Y-20219207D01*
X5562444Y-20219207D02*
X5552920Y-20228731D01*
X5552920Y-20228731D02*
X5533872Y-20238255D01*
X5533872Y-20238255D02*
X5486253Y-20238255D01*
X5486253Y-20238255D02*
X5467206Y-20228731D01*
X5467206Y-20228731D02*
X5457682Y-20219207D01*
X5743396Y-20104921D02*
X5743396Y-20238255D01*
X5695777Y-20028731D02*
X5648158Y-20171588D01*
X5648158Y-20171588D02*
X5771967Y-20171588D01*
X5838634Y-20038255D02*
X5838634Y-20076350D01*
X5914825Y-20038255D02*
X5914825Y-20076350D01*
X6210063Y-20314445D02*
X6200539Y-20304921D01*
X6200539Y-20304921D02*
X6181491Y-20276350D01*
X6181491Y-20276350D02*
X6171968Y-20257302D01*
X6171968Y-20257302D02*
X6162444Y-20228731D01*
X6162444Y-20228731D02*
X6152920Y-20181112D01*
X6152920Y-20181112D02*
X6152920Y-20143017D01*
X6152920Y-20143017D02*
X6162444Y-20095398D01*
X6162444Y-20095398D02*
X6171968Y-20066826D01*
X6171968Y-20066826D02*
X6181491Y-20047779D01*
X6181491Y-20047779D02*
X6200539Y-20019207D01*
X6200539Y-20019207D02*
X6210063Y-20009683D01*
X6391015Y-20238255D02*
X6276729Y-20238255D01*
X6333872Y-20238255D02*
X6333872Y-20038255D01*
X6333872Y-20038255D02*
X6314825Y-20066826D01*
X6314825Y-20066826D02*
X6295777Y-20085874D01*
X6295777Y-20085874D02*
X6276729Y-20095398D01*
X6562444Y-20038255D02*
X6524348Y-20038255D01*
X6524348Y-20038255D02*
X6505301Y-20047779D01*
X6505301Y-20047779D02*
X6495777Y-20057302D01*
X6495777Y-20057302D02*
X6476729Y-20085874D01*
X6476729Y-20085874D02*
X6467206Y-20123969D01*
X6467206Y-20123969D02*
X6467206Y-20200160D01*
X6467206Y-20200160D02*
X6476729Y-20219207D01*
X6476729Y-20219207D02*
X6486253Y-20228731D01*
X6486253Y-20228731D02*
X6505301Y-20238255D01*
X6505301Y-20238255D02*
X6543396Y-20238255D01*
X6543396Y-20238255D02*
X6562444Y-20228731D01*
X6562444Y-20228731D02*
X6571968Y-20219207D01*
X6571968Y-20219207D02*
X6581491Y-20200160D01*
X6581491Y-20200160D02*
X6581491Y-20152541D01*
X6581491Y-20152541D02*
X6571968Y-20133493D01*
X6571968Y-20133493D02*
X6562444Y-20123969D01*
X6562444Y-20123969D02*
X6543396Y-20114445D01*
X6543396Y-20114445D02*
X6505301Y-20114445D01*
X6505301Y-20114445D02*
X6486253Y-20123969D01*
X6486253Y-20123969D02*
X6476729Y-20133493D01*
X6476729Y-20133493D02*
X6467206Y-20152541D01*
X6819587Y-20238255D02*
X6819587Y-20038255D01*
X6905301Y-20238255D02*
X6905301Y-20133493D01*
X6905301Y-20133493D02*
X6895777Y-20114445D01*
X6895777Y-20114445D02*
X6876730Y-20104921D01*
X6876730Y-20104921D02*
X6848158Y-20104921D01*
X6848158Y-20104921D02*
X6829110Y-20114445D01*
X6829110Y-20114445D02*
X6819587Y-20123969D01*
X7029110Y-20238255D02*
X7010063Y-20228731D01*
X7010063Y-20228731D02*
X7000539Y-20219207D01*
X7000539Y-20219207D02*
X6991015Y-20200160D01*
X6991015Y-20200160D02*
X6991015Y-20143017D01*
X6991015Y-20143017D02*
X7000539Y-20123969D01*
X7000539Y-20123969D02*
X7010063Y-20114445D01*
X7010063Y-20114445D02*
X7029110Y-20104921D01*
X7029110Y-20104921D02*
X7057682Y-20104921D01*
X7057682Y-20104921D02*
X7076730Y-20114445D01*
X7076730Y-20114445D02*
X7086253Y-20123969D01*
X7086253Y-20123969D02*
X7095777Y-20143017D01*
X7095777Y-20143017D02*
X7095777Y-20200160D01*
X7095777Y-20200160D02*
X7086253Y-20219207D01*
X7086253Y-20219207D02*
X7076730Y-20228731D01*
X7076730Y-20228731D02*
X7057682Y-20238255D01*
X7057682Y-20238255D02*
X7029110Y-20238255D01*
X7210063Y-20238255D02*
X7191015Y-20228731D01*
X7191015Y-20228731D02*
X7181491Y-20209683D01*
X7181491Y-20209683D02*
X7181491Y-20038255D01*
X7362444Y-20228731D02*
X7343396Y-20238255D01*
X7343396Y-20238255D02*
X7305301Y-20238255D01*
X7305301Y-20238255D02*
X7286253Y-20228731D01*
X7286253Y-20228731D02*
X7276730Y-20209683D01*
X7276730Y-20209683D02*
X7276730Y-20133493D01*
X7276730Y-20133493D02*
X7286253Y-20114445D01*
X7286253Y-20114445D02*
X7305301Y-20104921D01*
X7305301Y-20104921D02*
X7343396Y-20104921D01*
X7343396Y-20104921D02*
X7362444Y-20114445D01*
X7362444Y-20114445D02*
X7371968Y-20133493D01*
X7371968Y-20133493D02*
X7371968Y-20152541D01*
X7371968Y-20152541D02*
X7276730Y-20171588D01*
X7448158Y-20228731D02*
X7467206Y-20238255D01*
X7467206Y-20238255D02*
X7505301Y-20238255D01*
X7505301Y-20238255D02*
X7524349Y-20228731D01*
X7524349Y-20228731D02*
X7533872Y-20209683D01*
X7533872Y-20209683D02*
X7533872Y-20200160D01*
X7533872Y-20200160D02*
X7524349Y-20181112D01*
X7524349Y-20181112D02*
X7505301Y-20171588D01*
X7505301Y-20171588D02*
X7476730Y-20171588D01*
X7476730Y-20171588D02*
X7457682Y-20162064D01*
X7457682Y-20162064D02*
X7448158Y-20143017D01*
X7448158Y-20143017D02*
X7448158Y-20133493D01*
X7448158Y-20133493D02*
X7457682Y-20114445D01*
X7457682Y-20114445D02*
X7476730Y-20104921D01*
X7476730Y-20104921D02*
X7505301Y-20104921D01*
X7505301Y-20104921D02*
X7524349Y-20114445D01*
X7600539Y-20314445D02*
X7610063Y-20304921D01*
X7610063Y-20304921D02*
X7629111Y-20276350D01*
X7629111Y-20276350D02*
X7638634Y-20257302D01*
X7638634Y-20257302D02*
X7648158Y-20228731D01*
X7648158Y-20228731D02*
X7657682Y-20181112D01*
X7657682Y-20181112D02*
X7657682Y-20143017D01*
X7657682Y-20143017D02*
X7648158Y-20095398D01*
X7648158Y-20095398D02*
X7638634Y-20066826D01*
X7638634Y-20066826D02*
X7629111Y-20047779D01*
X7629111Y-20047779D02*
X7610063Y-20019207D01*
X7610063Y-20019207D02*
X7600539Y-20009683D01*
D10*
X2535000Y-20360771D02*
X2635000Y-20460771D01*
X2635000Y-20360771D02*
X2535000Y-20460771D01*
X2635000Y-20410771D02*
G75*
G02*
X2535000Y-20410771I-50000J0D01*
G01*
X2535000Y-20410771D02*
G75*
G02*
X2635000Y-20410771I50000J0D01*
G01*
D11*
X3000539Y-20502255D02*
X2886253Y-20502255D01*
X2943396Y-20502255D02*
X2943396Y-20302255D01*
X2943396Y-20302255D02*
X2924348Y-20330826D01*
X2924348Y-20330826D02*
X2905301Y-20349874D01*
X2905301Y-20349874D02*
X2886253Y-20359398D01*
X3086253Y-20483207D02*
X3095777Y-20492731D01*
X3095777Y-20492731D02*
X3086253Y-20502255D01*
X3086253Y-20502255D02*
X3076729Y-20492731D01*
X3076729Y-20492731D02*
X3086253Y-20483207D01*
X3086253Y-20483207D02*
X3086253Y-20502255D01*
X3219586Y-20302255D02*
X3238634Y-20302255D01*
X3238634Y-20302255D02*
X3257682Y-20311779D01*
X3257682Y-20311779D02*
X3267205Y-20321302D01*
X3267205Y-20321302D02*
X3276729Y-20340350D01*
X3276729Y-20340350D02*
X3286253Y-20378445D01*
X3286253Y-20378445D02*
X3286253Y-20426064D01*
X3286253Y-20426064D02*
X3276729Y-20464160D01*
X3276729Y-20464160D02*
X3267205Y-20483207D01*
X3267205Y-20483207D02*
X3257682Y-20492731D01*
X3257682Y-20492731D02*
X3238634Y-20502255D01*
X3238634Y-20502255D02*
X3219586Y-20502255D01*
X3219586Y-20502255D02*
X3200539Y-20492731D01*
X3200539Y-20492731D02*
X3191015Y-20483207D01*
X3191015Y-20483207D02*
X3181491Y-20464160D01*
X3181491Y-20464160D02*
X3171967Y-20426064D01*
X3171967Y-20426064D02*
X3171967Y-20378445D01*
X3171967Y-20378445D02*
X3181491Y-20340350D01*
X3181491Y-20340350D02*
X3191015Y-20321302D01*
X3191015Y-20321302D02*
X3200539Y-20311779D01*
X3200539Y-20311779D02*
X3219586Y-20302255D01*
X3410062Y-20302255D02*
X3429110Y-20302255D01*
X3429110Y-20302255D02*
X3448158Y-20311779D01*
X3448158Y-20311779D02*
X3457682Y-20321302D01*
X3457682Y-20321302D02*
X3467205Y-20340350D01*
X3467205Y-20340350D02*
X3476729Y-20378445D01*
X3476729Y-20378445D02*
X3476729Y-20426064D01*
X3476729Y-20426064D02*
X3467205Y-20464160D01*
X3467205Y-20464160D02*
X3457682Y-20483207D01*
X3457682Y-20483207D02*
X3448158Y-20492731D01*
X3448158Y-20492731D02*
X3429110Y-20502255D01*
X3429110Y-20502255D02*
X3410062Y-20502255D01*
X3410062Y-20502255D02*
X3391015Y-20492731D01*
X3391015Y-20492731D02*
X3381491Y-20483207D01*
X3381491Y-20483207D02*
X3371967Y-20464160D01*
X3371967Y-20464160D02*
X3362443Y-20426064D01*
X3362443Y-20426064D02*
X3362443Y-20378445D01*
X3362443Y-20378445D02*
X3371967Y-20340350D01*
X3371967Y-20340350D02*
X3381491Y-20321302D01*
X3381491Y-20321302D02*
X3391015Y-20311779D01*
X3391015Y-20311779D02*
X3410062Y-20302255D01*
X3600539Y-20302255D02*
X3619586Y-20302255D01*
X3619586Y-20302255D02*
X3638634Y-20311779D01*
X3638634Y-20311779D02*
X3648158Y-20321302D01*
X3648158Y-20321302D02*
X3657682Y-20340350D01*
X3657682Y-20340350D02*
X3667205Y-20378445D01*
X3667205Y-20378445D02*
X3667205Y-20426064D01*
X3667205Y-20426064D02*
X3657682Y-20464160D01*
X3657682Y-20464160D02*
X3648158Y-20483207D01*
X3648158Y-20483207D02*
X3638634Y-20492731D01*
X3638634Y-20492731D02*
X3619586Y-20502255D01*
X3619586Y-20502255D02*
X3600539Y-20502255D01*
X3600539Y-20502255D02*
X3581491Y-20492731D01*
X3581491Y-20492731D02*
X3571967Y-20483207D01*
X3571967Y-20483207D02*
X3562443Y-20464160D01*
X3562443Y-20464160D02*
X3552920Y-20426064D01*
X3552920Y-20426064D02*
X3552920Y-20378445D01*
X3552920Y-20378445D02*
X3562443Y-20340350D01*
X3562443Y-20340350D02*
X3571967Y-20321302D01*
X3571967Y-20321302D02*
X3581491Y-20311779D01*
X3581491Y-20311779D02*
X3600539Y-20302255D01*
X3752920Y-20502255D02*
X3752920Y-20368921D01*
X3752920Y-20387969D02*
X3762443Y-20378445D01*
X3762443Y-20378445D02*
X3781491Y-20368921D01*
X3781491Y-20368921D02*
X3810063Y-20368921D01*
X3810063Y-20368921D02*
X3829110Y-20378445D01*
X3829110Y-20378445D02*
X3838634Y-20397493D01*
X3838634Y-20397493D02*
X3838634Y-20502255D01*
X3838634Y-20397493D02*
X3848158Y-20378445D01*
X3848158Y-20378445D02*
X3867205Y-20368921D01*
X3867205Y-20368921D02*
X3895777Y-20368921D01*
X3895777Y-20368921D02*
X3914824Y-20378445D01*
X3914824Y-20378445D02*
X3924348Y-20397493D01*
X3924348Y-20397493D02*
X3924348Y-20502255D01*
X4019586Y-20502255D02*
X4019586Y-20368921D01*
X4019586Y-20387969D02*
X4029110Y-20378445D01*
X4029110Y-20378445D02*
X4048158Y-20368921D01*
X4048158Y-20368921D02*
X4076729Y-20368921D01*
X4076729Y-20368921D02*
X4095777Y-20378445D01*
X4095777Y-20378445D02*
X4105301Y-20397493D01*
X4105301Y-20397493D02*
X4105301Y-20502255D01*
X4105301Y-20397493D02*
X4114824Y-20378445D01*
X4114824Y-20378445D02*
X4133872Y-20368921D01*
X4133872Y-20368921D02*
X4162443Y-20368921D01*
X4162443Y-20368921D02*
X4181491Y-20378445D01*
X4181491Y-20378445D02*
X4191015Y-20397493D01*
X4191015Y-20397493D02*
X4191015Y-20502255D01*
X4581491Y-20292731D02*
X4410063Y-20549874D01*
X4838634Y-20302255D02*
X4857682Y-20302255D01*
X4857682Y-20302255D02*
X4876729Y-20311779D01*
X4876729Y-20311779D02*
X4886253Y-20321302D01*
X4886253Y-20321302D02*
X4895777Y-20340350D01*
X4895777Y-20340350D02*
X4905301Y-20378445D01*
X4905301Y-20378445D02*
X4905301Y-20426064D01*
X4905301Y-20426064D02*
X4895777Y-20464160D01*
X4895777Y-20464160D02*
X4886253Y-20483207D01*
X4886253Y-20483207D02*
X4876729Y-20492731D01*
X4876729Y-20492731D02*
X4857682Y-20502255D01*
X4857682Y-20502255D02*
X4838634Y-20502255D01*
X4838634Y-20502255D02*
X4819587Y-20492731D01*
X4819587Y-20492731D02*
X4810063Y-20483207D01*
X4810063Y-20483207D02*
X4800539Y-20464160D01*
X4800539Y-20464160D02*
X4791015Y-20426064D01*
X4791015Y-20426064D02*
X4791015Y-20378445D01*
X4791015Y-20378445D02*
X4800539Y-20340350D01*
X4800539Y-20340350D02*
X4810063Y-20321302D01*
X4810063Y-20321302D02*
X4819587Y-20311779D01*
X4819587Y-20311779D02*
X4838634Y-20302255D01*
X4991015Y-20483207D02*
X5000539Y-20492731D01*
X5000539Y-20492731D02*
X4991015Y-20502255D01*
X4991015Y-20502255D02*
X4981491Y-20492731D01*
X4981491Y-20492731D02*
X4991015Y-20483207D01*
X4991015Y-20483207D02*
X4991015Y-20502255D01*
X5124348Y-20302255D02*
X5143396Y-20302255D01*
X5143396Y-20302255D02*
X5162444Y-20311779D01*
X5162444Y-20311779D02*
X5171968Y-20321302D01*
X5171968Y-20321302D02*
X5181491Y-20340350D01*
X5181491Y-20340350D02*
X5191015Y-20378445D01*
X5191015Y-20378445D02*
X5191015Y-20426064D01*
X5191015Y-20426064D02*
X5181491Y-20464160D01*
X5181491Y-20464160D02*
X5171968Y-20483207D01*
X5171968Y-20483207D02*
X5162444Y-20492731D01*
X5162444Y-20492731D02*
X5143396Y-20502255D01*
X5143396Y-20502255D02*
X5124348Y-20502255D01*
X5124348Y-20502255D02*
X5105301Y-20492731D01*
X5105301Y-20492731D02*
X5095777Y-20483207D01*
X5095777Y-20483207D02*
X5086253Y-20464160D01*
X5086253Y-20464160D02*
X5076729Y-20426064D01*
X5076729Y-20426064D02*
X5076729Y-20378445D01*
X5076729Y-20378445D02*
X5086253Y-20340350D01*
X5086253Y-20340350D02*
X5095777Y-20321302D01*
X5095777Y-20321302D02*
X5105301Y-20311779D01*
X5105301Y-20311779D02*
X5124348Y-20302255D01*
X5257682Y-20302255D02*
X5381491Y-20302255D01*
X5381491Y-20302255D02*
X5314825Y-20378445D01*
X5314825Y-20378445D02*
X5343396Y-20378445D01*
X5343396Y-20378445D02*
X5362444Y-20387969D01*
X5362444Y-20387969D02*
X5371968Y-20397493D01*
X5371968Y-20397493D02*
X5381491Y-20416541D01*
X5381491Y-20416541D02*
X5381491Y-20464160D01*
X5381491Y-20464160D02*
X5371968Y-20483207D01*
X5371968Y-20483207D02*
X5362444Y-20492731D01*
X5362444Y-20492731D02*
X5343396Y-20502255D01*
X5343396Y-20502255D02*
X5286253Y-20502255D01*
X5286253Y-20502255D02*
X5267206Y-20492731D01*
X5267206Y-20492731D02*
X5257682Y-20483207D01*
X5476729Y-20502255D02*
X5514825Y-20502255D01*
X5514825Y-20502255D02*
X5533872Y-20492731D01*
X5533872Y-20492731D02*
X5543396Y-20483207D01*
X5543396Y-20483207D02*
X5562444Y-20454636D01*
X5562444Y-20454636D02*
X5571968Y-20416541D01*
X5571968Y-20416541D02*
X5571968Y-20340350D01*
X5571968Y-20340350D02*
X5562444Y-20321302D01*
X5562444Y-20321302D02*
X5552920Y-20311779D01*
X5552920Y-20311779D02*
X5533872Y-20302255D01*
X5533872Y-20302255D02*
X5495777Y-20302255D01*
X5495777Y-20302255D02*
X5476729Y-20311779D01*
X5476729Y-20311779D02*
X5467206Y-20321302D01*
X5467206Y-20321302D02*
X5457682Y-20340350D01*
X5457682Y-20340350D02*
X5457682Y-20387969D01*
X5457682Y-20387969D02*
X5467206Y-20407017D01*
X5467206Y-20407017D02*
X5476729Y-20416541D01*
X5476729Y-20416541D02*
X5495777Y-20426064D01*
X5495777Y-20426064D02*
X5533872Y-20426064D01*
X5533872Y-20426064D02*
X5552920Y-20416541D01*
X5552920Y-20416541D02*
X5562444Y-20407017D01*
X5562444Y-20407017D02*
X5571968Y-20387969D01*
X5743396Y-20368921D02*
X5743396Y-20502255D01*
X5695777Y-20292731D02*
X5648158Y-20435588D01*
X5648158Y-20435588D02*
X5771967Y-20435588D01*
X5838634Y-20302255D02*
X5838634Y-20340350D01*
X5914825Y-20302255D02*
X5914825Y-20340350D01*
X6210063Y-20578445D02*
X6200539Y-20568921D01*
X6200539Y-20568921D02*
X6181491Y-20540350D01*
X6181491Y-20540350D02*
X6171968Y-20521302D01*
X6171968Y-20521302D02*
X6162444Y-20492731D01*
X6162444Y-20492731D02*
X6152920Y-20445112D01*
X6152920Y-20445112D02*
X6152920Y-20407017D01*
X6152920Y-20407017D02*
X6162444Y-20359398D01*
X6162444Y-20359398D02*
X6171968Y-20330826D01*
X6171968Y-20330826D02*
X6181491Y-20311779D01*
X6181491Y-20311779D02*
X6200539Y-20283207D01*
X6200539Y-20283207D02*
X6210063Y-20273683D01*
X6371968Y-20302255D02*
X6333872Y-20302255D01*
X6333872Y-20302255D02*
X6314825Y-20311779D01*
X6314825Y-20311779D02*
X6305301Y-20321302D01*
X6305301Y-20321302D02*
X6286253Y-20349874D01*
X6286253Y-20349874D02*
X6276729Y-20387969D01*
X6276729Y-20387969D02*
X6276729Y-20464160D01*
X6276729Y-20464160D02*
X6286253Y-20483207D01*
X6286253Y-20483207D02*
X6295777Y-20492731D01*
X6295777Y-20492731D02*
X6314825Y-20502255D01*
X6314825Y-20502255D02*
X6352920Y-20502255D01*
X6352920Y-20502255D02*
X6371968Y-20492731D01*
X6371968Y-20492731D02*
X6381491Y-20483207D01*
X6381491Y-20483207D02*
X6391015Y-20464160D01*
X6391015Y-20464160D02*
X6391015Y-20416541D01*
X6391015Y-20416541D02*
X6381491Y-20397493D01*
X6381491Y-20397493D02*
X6371968Y-20387969D01*
X6371968Y-20387969D02*
X6352920Y-20378445D01*
X6352920Y-20378445D02*
X6314825Y-20378445D01*
X6314825Y-20378445D02*
X6295777Y-20387969D01*
X6295777Y-20387969D02*
X6286253Y-20397493D01*
X6286253Y-20397493D02*
X6276729Y-20416541D01*
X6629110Y-20502255D02*
X6629110Y-20302255D01*
X6714825Y-20502255D02*
X6714825Y-20397493D01*
X6714825Y-20397493D02*
X6705301Y-20378445D01*
X6705301Y-20378445D02*
X6686253Y-20368921D01*
X6686253Y-20368921D02*
X6657682Y-20368921D01*
X6657682Y-20368921D02*
X6638634Y-20378445D01*
X6638634Y-20378445D02*
X6629110Y-20387969D01*
X6838634Y-20502255D02*
X6819587Y-20492731D01*
X6819587Y-20492731D02*
X6810063Y-20483207D01*
X6810063Y-20483207D02*
X6800539Y-20464160D01*
X6800539Y-20464160D02*
X6800539Y-20407017D01*
X6800539Y-20407017D02*
X6810063Y-20387969D01*
X6810063Y-20387969D02*
X6819587Y-20378445D01*
X6819587Y-20378445D02*
X6838634Y-20368921D01*
X6838634Y-20368921D02*
X6867206Y-20368921D01*
X6867206Y-20368921D02*
X6886253Y-20378445D01*
X6886253Y-20378445D02*
X6895777Y-20387969D01*
X6895777Y-20387969D02*
X6905301Y-20407017D01*
X6905301Y-20407017D02*
X6905301Y-20464160D01*
X6905301Y-20464160D02*
X6895777Y-20483207D01*
X6895777Y-20483207D02*
X6886253Y-20492731D01*
X6886253Y-20492731D02*
X6867206Y-20502255D01*
X6867206Y-20502255D02*
X6838634Y-20502255D01*
X7019587Y-20502255D02*
X7000539Y-20492731D01*
X7000539Y-20492731D02*
X6991015Y-20473683D01*
X6991015Y-20473683D02*
X6991015Y-20302255D01*
X7171968Y-20492731D02*
X7152920Y-20502255D01*
X7152920Y-20502255D02*
X7114825Y-20502255D01*
X7114825Y-20502255D02*
X7095777Y-20492731D01*
X7095777Y-20492731D02*
X7086253Y-20473683D01*
X7086253Y-20473683D02*
X7086253Y-20397493D01*
X7086253Y-20397493D02*
X7095777Y-20378445D01*
X7095777Y-20378445D02*
X7114825Y-20368921D01*
X7114825Y-20368921D02*
X7152920Y-20368921D01*
X7152920Y-20368921D02*
X7171968Y-20378445D01*
X7171968Y-20378445D02*
X7181491Y-20397493D01*
X7181491Y-20397493D02*
X7181491Y-20416541D01*
X7181491Y-20416541D02*
X7086253Y-20435588D01*
X7257682Y-20492731D02*
X7276730Y-20502255D01*
X7276730Y-20502255D02*
X7314825Y-20502255D01*
X7314825Y-20502255D02*
X7333872Y-20492731D01*
X7333872Y-20492731D02*
X7343396Y-20473683D01*
X7343396Y-20473683D02*
X7343396Y-20464160D01*
X7343396Y-20464160D02*
X7333872Y-20445112D01*
X7333872Y-20445112D02*
X7314825Y-20435588D01*
X7314825Y-20435588D02*
X7286253Y-20435588D01*
X7286253Y-20435588D02*
X7267206Y-20426064D01*
X7267206Y-20426064D02*
X7257682Y-20407017D01*
X7257682Y-20407017D02*
X7257682Y-20397493D01*
X7257682Y-20397493D02*
X7267206Y-20378445D01*
X7267206Y-20378445D02*
X7286253Y-20368921D01*
X7286253Y-20368921D02*
X7314825Y-20368921D01*
X7314825Y-20368921D02*
X7333872Y-20378445D01*
X7410063Y-20578445D02*
X7419587Y-20568921D01*
X7419587Y-20568921D02*
X7438634Y-20540350D01*
X7438634Y-20540350D02*
X7448158Y-20521302D01*
X7448158Y-20521302D02*
X7457682Y-20492731D01*
X7457682Y-20492731D02*
X7467206Y-20445112D01*
X7467206Y-20445112D02*
X7467206Y-20407017D01*
X7467206Y-20407017D02*
X7457682Y-20359398D01*
X7457682Y-20359398D02*
X7448158Y-20330826D01*
X7448158Y-20330826D02*
X7438634Y-20311779D01*
X7438634Y-20311779D02*
X7419587Y-20283207D01*
X7419587Y-20283207D02*
X7410063Y-20273683D01*
D12*
X2533000Y-20623771D02*
X2635000Y-20725771D01*
X2635000Y-20623771D02*
X2533000Y-20725771D01*
X2584000Y-20623771D02*
X2584000Y-20725771D01*
X2533000Y-20674771D02*
X2635000Y-20674771D01*
D11*
X3000539Y-20766255D02*
X2886253Y-20766255D01*
X2943396Y-20766255D02*
X2943396Y-20566255D01*
X2943396Y-20566255D02*
X2924348Y-20594826D01*
X2924348Y-20594826D02*
X2905301Y-20613874D01*
X2905301Y-20613874D02*
X2886253Y-20623398D01*
X3086253Y-20747207D02*
X3095777Y-20756731D01*
X3095777Y-20756731D02*
X3086253Y-20766255D01*
X3086253Y-20766255D02*
X3076729Y-20756731D01*
X3076729Y-20756731D02*
X3086253Y-20747207D01*
X3086253Y-20747207D02*
X3086253Y-20766255D01*
X3219586Y-20566255D02*
X3238634Y-20566255D01*
X3238634Y-20566255D02*
X3257682Y-20575779D01*
X3257682Y-20575779D02*
X3267205Y-20585302D01*
X3267205Y-20585302D02*
X3276729Y-20604350D01*
X3276729Y-20604350D02*
X3286253Y-20642445D01*
X3286253Y-20642445D02*
X3286253Y-20690064D01*
X3286253Y-20690064D02*
X3276729Y-20728160D01*
X3276729Y-20728160D02*
X3267205Y-20747207D01*
X3267205Y-20747207D02*
X3257682Y-20756731D01*
X3257682Y-20756731D02*
X3238634Y-20766255D01*
X3238634Y-20766255D02*
X3219586Y-20766255D01*
X3219586Y-20766255D02*
X3200539Y-20756731D01*
X3200539Y-20756731D02*
X3191015Y-20747207D01*
X3191015Y-20747207D02*
X3181491Y-20728160D01*
X3181491Y-20728160D02*
X3171967Y-20690064D01*
X3171967Y-20690064D02*
X3171967Y-20642445D01*
X3171967Y-20642445D02*
X3181491Y-20604350D01*
X3181491Y-20604350D02*
X3191015Y-20585302D01*
X3191015Y-20585302D02*
X3200539Y-20575779D01*
X3200539Y-20575779D02*
X3219586Y-20566255D01*
X3362443Y-20585302D02*
X3371967Y-20575779D01*
X3371967Y-20575779D02*
X3391015Y-20566255D01*
X3391015Y-20566255D02*
X3438634Y-20566255D01*
X3438634Y-20566255D02*
X3457682Y-20575779D01*
X3457682Y-20575779D02*
X3467205Y-20585302D01*
X3467205Y-20585302D02*
X3476729Y-20604350D01*
X3476729Y-20604350D02*
X3476729Y-20623398D01*
X3476729Y-20623398D02*
X3467205Y-20651969D01*
X3467205Y-20651969D02*
X3352920Y-20766255D01*
X3352920Y-20766255D02*
X3476729Y-20766255D01*
X3600539Y-20566255D02*
X3619586Y-20566255D01*
X3619586Y-20566255D02*
X3638634Y-20575779D01*
X3638634Y-20575779D02*
X3648158Y-20585302D01*
X3648158Y-20585302D02*
X3657682Y-20604350D01*
X3657682Y-20604350D02*
X3667205Y-20642445D01*
X3667205Y-20642445D02*
X3667205Y-20690064D01*
X3667205Y-20690064D02*
X3657682Y-20728160D01*
X3657682Y-20728160D02*
X3648158Y-20747207D01*
X3648158Y-20747207D02*
X3638634Y-20756731D01*
X3638634Y-20756731D02*
X3619586Y-20766255D01*
X3619586Y-20766255D02*
X3600539Y-20766255D01*
X3600539Y-20766255D02*
X3581491Y-20756731D01*
X3581491Y-20756731D02*
X3571967Y-20747207D01*
X3571967Y-20747207D02*
X3562443Y-20728160D01*
X3562443Y-20728160D02*
X3552920Y-20690064D01*
X3552920Y-20690064D02*
X3552920Y-20642445D01*
X3552920Y-20642445D02*
X3562443Y-20604350D01*
X3562443Y-20604350D02*
X3571967Y-20585302D01*
X3571967Y-20585302D02*
X3581491Y-20575779D01*
X3581491Y-20575779D02*
X3600539Y-20566255D01*
X3752920Y-20766255D02*
X3752920Y-20632921D01*
X3752920Y-20651969D02*
X3762443Y-20642445D01*
X3762443Y-20642445D02*
X3781491Y-20632921D01*
X3781491Y-20632921D02*
X3810063Y-20632921D01*
X3810063Y-20632921D02*
X3829110Y-20642445D01*
X3829110Y-20642445D02*
X3838634Y-20661493D01*
X3838634Y-20661493D02*
X3838634Y-20766255D01*
X3838634Y-20661493D02*
X3848158Y-20642445D01*
X3848158Y-20642445D02*
X3867205Y-20632921D01*
X3867205Y-20632921D02*
X3895777Y-20632921D01*
X3895777Y-20632921D02*
X3914824Y-20642445D01*
X3914824Y-20642445D02*
X3924348Y-20661493D01*
X3924348Y-20661493D02*
X3924348Y-20766255D01*
X4019586Y-20766255D02*
X4019586Y-20632921D01*
X4019586Y-20651969D02*
X4029110Y-20642445D01*
X4029110Y-20642445D02*
X4048158Y-20632921D01*
X4048158Y-20632921D02*
X4076729Y-20632921D01*
X4076729Y-20632921D02*
X4095777Y-20642445D01*
X4095777Y-20642445D02*
X4105301Y-20661493D01*
X4105301Y-20661493D02*
X4105301Y-20766255D01*
X4105301Y-20661493D02*
X4114824Y-20642445D01*
X4114824Y-20642445D02*
X4133872Y-20632921D01*
X4133872Y-20632921D02*
X4162443Y-20632921D01*
X4162443Y-20632921D02*
X4181491Y-20642445D01*
X4181491Y-20642445D02*
X4191015Y-20661493D01*
X4191015Y-20661493D02*
X4191015Y-20766255D01*
X4581491Y-20556731D02*
X4410063Y-20813874D01*
X4838634Y-20566255D02*
X4857682Y-20566255D01*
X4857682Y-20566255D02*
X4876729Y-20575779D01*
X4876729Y-20575779D02*
X4886253Y-20585302D01*
X4886253Y-20585302D02*
X4895777Y-20604350D01*
X4895777Y-20604350D02*
X4905301Y-20642445D01*
X4905301Y-20642445D02*
X4905301Y-20690064D01*
X4905301Y-20690064D02*
X4895777Y-20728160D01*
X4895777Y-20728160D02*
X4886253Y-20747207D01*
X4886253Y-20747207D02*
X4876729Y-20756731D01*
X4876729Y-20756731D02*
X4857682Y-20766255D01*
X4857682Y-20766255D02*
X4838634Y-20766255D01*
X4838634Y-20766255D02*
X4819587Y-20756731D01*
X4819587Y-20756731D02*
X4810063Y-20747207D01*
X4810063Y-20747207D02*
X4800539Y-20728160D01*
X4800539Y-20728160D02*
X4791015Y-20690064D01*
X4791015Y-20690064D02*
X4791015Y-20642445D01*
X4791015Y-20642445D02*
X4800539Y-20604350D01*
X4800539Y-20604350D02*
X4810063Y-20585302D01*
X4810063Y-20585302D02*
X4819587Y-20575779D01*
X4819587Y-20575779D02*
X4838634Y-20566255D01*
X4991015Y-20747207D02*
X5000539Y-20756731D01*
X5000539Y-20756731D02*
X4991015Y-20766255D01*
X4991015Y-20766255D02*
X4981491Y-20756731D01*
X4981491Y-20756731D02*
X4991015Y-20747207D01*
X4991015Y-20747207D02*
X4991015Y-20766255D01*
X5124348Y-20566255D02*
X5143396Y-20566255D01*
X5143396Y-20566255D02*
X5162444Y-20575779D01*
X5162444Y-20575779D02*
X5171968Y-20585302D01*
X5171968Y-20585302D02*
X5181491Y-20604350D01*
X5181491Y-20604350D02*
X5191015Y-20642445D01*
X5191015Y-20642445D02*
X5191015Y-20690064D01*
X5191015Y-20690064D02*
X5181491Y-20728160D01*
X5181491Y-20728160D02*
X5171968Y-20747207D01*
X5171968Y-20747207D02*
X5162444Y-20756731D01*
X5162444Y-20756731D02*
X5143396Y-20766255D01*
X5143396Y-20766255D02*
X5124348Y-20766255D01*
X5124348Y-20766255D02*
X5105301Y-20756731D01*
X5105301Y-20756731D02*
X5095777Y-20747207D01*
X5095777Y-20747207D02*
X5086253Y-20728160D01*
X5086253Y-20728160D02*
X5076729Y-20690064D01*
X5076729Y-20690064D02*
X5076729Y-20642445D01*
X5076729Y-20642445D02*
X5086253Y-20604350D01*
X5086253Y-20604350D02*
X5095777Y-20585302D01*
X5095777Y-20585302D02*
X5105301Y-20575779D01*
X5105301Y-20575779D02*
X5124348Y-20566255D01*
X5362444Y-20632921D02*
X5362444Y-20766255D01*
X5314825Y-20556731D02*
X5267206Y-20699588D01*
X5267206Y-20699588D02*
X5391015Y-20699588D01*
X5505301Y-20566255D02*
X5524349Y-20566255D01*
X5524349Y-20566255D02*
X5543396Y-20575779D01*
X5543396Y-20575779D02*
X5552920Y-20585302D01*
X5552920Y-20585302D02*
X5562444Y-20604350D01*
X5562444Y-20604350D02*
X5571968Y-20642445D01*
X5571968Y-20642445D02*
X5571968Y-20690064D01*
X5571968Y-20690064D02*
X5562444Y-20728160D01*
X5562444Y-20728160D02*
X5552920Y-20747207D01*
X5552920Y-20747207D02*
X5543396Y-20756731D01*
X5543396Y-20756731D02*
X5524349Y-20766255D01*
X5524349Y-20766255D02*
X5505301Y-20766255D01*
X5505301Y-20766255D02*
X5486253Y-20756731D01*
X5486253Y-20756731D02*
X5476729Y-20747207D01*
X5476729Y-20747207D02*
X5467206Y-20728160D01*
X5467206Y-20728160D02*
X5457682Y-20690064D01*
X5457682Y-20690064D02*
X5457682Y-20642445D01*
X5457682Y-20642445D02*
X5467206Y-20604350D01*
X5467206Y-20604350D02*
X5476729Y-20585302D01*
X5476729Y-20585302D02*
X5486253Y-20575779D01*
X5486253Y-20575779D02*
X5505301Y-20566255D01*
X5648158Y-20585302D02*
X5657682Y-20575779D01*
X5657682Y-20575779D02*
X5676729Y-20566255D01*
X5676729Y-20566255D02*
X5724348Y-20566255D01*
X5724348Y-20566255D02*
X5743396Y-20575779D01*
X5743396Y-20575779D02*
X5752920Y-20585302D01*
X5752920Y-20585302D02*
X5762444Y-20604350D01*
X5762444Y-20604350D02*
X5762444Y-20623398D01*
X5762444Y-20623398D02*
X5752920Y-20651969D01*
X5752920Y-20651969D02*
X5638634Y-20766255D01*
X5638634Y-20766255D02*
X5762444Y-20766255D01*
X5838634Y-20566255D02*
X5838634Y-20604350D01*
X5914825Y-20566255D02*
X5914825Y-20604350D01*
X6210063Y-20842445D02*
X6200539Y-20832921D01*
X6200539Y-20832921D02*
X6181491Y-20804350D01*
X6181491Y-20804350D02*
X6171968Y-20785302D01*
X6171968Y-20785302D02*
X6162444Y-20756731D01*
X6162444Y-20756731D02*
X6152920Y-20709112D01*
X6152920Y-20709112D02*
X6152920Y-20671017D01*
X6152920Y-20671017D02*
X6162444Y-20623398D01*
X6162444Y-20623398D02*
X6171968Y-20594826D01*
X6171968Y-20594826D02*
X6181491Y-20575779D01*
X6181491Y-20575779D02*
X6200539Y-20547207D01*
X6200539Y-20547207D02*
X6210063Y-20537683D01*
X6371968Y-20632921D02*
X6371968Y-20766255D01*
X6324348Y-20556731D02*
X6276729Y-20699588D01*
X6276729Y-20699588D02*
X6400539Y-20699588D01*
X6629110Y-20766255D02*
X6629110Y-20566255D01*
X6714825Y-20766255D02*
X6714825Y-20661493D01*
X6714825Y-20661493D02*
X6705301Y-20642445D01*
X6705301Y-20642445D02*
X6686253Y-20632921D01*
X6686253Y-20632921D02*
X6657682Y-20632921D01*
X6657682Y-20632921D02*
X6638634Y-20642445D01*
X6638634Y-20642445D02*
X6629110Y-20651969D01*
X6838634Y-20766255D02*
X6819587Y-20756731D01*
X6819587Y-20756731D02*
X6810063Y-20747207D01*
X6810063Y-20747207D02*
X6800539Y-20728160D01*
X6800539Y-20728160D02*
X6800539Y-20671017D01*
X6800539Y-20671017D02*
X6810063Y-20651969D01*
X6810063Y-20651969D02*
X6819587Y-20642445D01*
X6819587Y-20642445D02*
X6838634Y-20632921D01*
X6838634Y-20632921D02*
X6867206Y-20632921D01*
X6867206Y-20632921D02*
X6886253Y-20642445D01*
X6886253Y-20642445D02*
X6895777Y-20651969D01*
X6895777Y-20651969D02*
X6905301Y-20671017D01*
X6905301Y-20671017D02*
X6905301Y-20728160D01*
X6905301Y-20728160D02*
X6895777Y-20747207D01*
X6895777Y-20747207D02*
X6886253Y-20756731D01*
X6886253Y-20756731D02*
X6867206Y-20766255D01*
X6867206Y-20766255D02*
X6838634Y-20766255D01*
X7019587Y-20766255D02*
X7000539Y-20756731D01*
X7000539Y-20756731D02*
X6991015Y-20737683D01*
X6991015Y-20737683D02*
X6991015Y-20566255D01*
X7171968Y-20756731D02*
X7152920Y-20766255D01*
X7152920Y-20766255D02*
X7114825Y-20766255D01*
X7114825Y-20766255D02*
X7095777Y-20756731D01*
X7095777Y-20756731D02*
X7086253Y-20737683D01*
X7086253Y-20737683D02*
X7086253Y-20661493D01*
X7086253Y-20661493D02*
X7095777Y-20642445D01*
X7095777Y-20642445D02*
X7114825Y-20632921D01*
X7114825Y-20632921D02*
X7152920Y-20632921D01*
X7152920Y-20632921D02*
X7171968Y-20642445D01*
X7171968Y-20642445D02*
X7181491Y-20661493D01*
X7181491Y-20661493D02*
X7181491Y-20680541D01*
X7181491Y-20680541D02*
X7086253Y-20699588D01*
X7257682Y-20756731D02*
X7276730Y-20766255D01*
X7276730Y-20766255D02*
X7314825Y-20766255D01*
X7314825Y-20766255D02*
X7333872Y-20756731D01*
X7333872Y-20756731D02*
X7343396Y-20737683D01*
X7343396Y-20737683D02*
X7343396Y-20728160D01*
X7343396Y-20728160D02*
X7333872Y-20709112D01*
X7333872Y-20709112D02*
X7314825Y-20699588D01*
X7314825Y-20699588D02*
X7286253Y-20699588D01*
X7286253Y-20699588D02*
X7267206Y-20690064D01*
X7267206Y-20690064D02*
X7257682Y-20671017D01*
X7257682Y-20671017D02*
X7257682Y-20661493D01*
X7257682Y-20661493D02*
X7267206Y-20642445D01*
X7267206Y-20642445D02*
X7286253Y-20632921D01*
X7286253Y-20632921D02*
X7314825Y-20632921D01*
X7314825Y-20632921D02*
X7333872Y-20642445D01*
X7410063Y-20842445D02*
X7419587Y-20832921D01*
X7419587Y-20832921D02*
X7438634Y-20804350D01*
X7438634Y-20804350D02*
X7448158Y-20785302D01*
X7448158Y-20785302D02*
X7457682Y-20756731D01*
X7457682Y-20756731D02*
X7467206Y-20709112D01*
X7467206Y-20709112D02*
X7467206Y-20671017D01*
X7467206Y-20671017D02*
X7457682Y-20623398D01*
X7457682Y-20623398D02*
X7448158Y-20594826D01*
X7448158Y-20594826D02*
X7438634Y-20575779D01*
X7438634Y-20575779D02*
X7419587Y-20547207D01*
X7419587Y-20547207D02*
X7410063Y-20537683D01*
M02*
