M48
; DRILL file {KiCad 8.0.5} date 2025-01-18T17:06:13+0800
; FORMAT={-:-/ absolute / inch / decimal}
; #@! TF.CreationDate,2025-01-18T17:06:13+08:00
; #@! TF.GenerationSoftware,Kicad,Pcbnew,8.0.5
; #@! TF.FileFunction,Plated,1,2,PTH
FMAT,2
INCH
; #@! TA.AperFunction,Plated,PTH,ViaDrill
T1C0.0157
; #@! TA.AperFunction,Plated,PTH,ComponentDrill
T2C0.0157
; #@! TA.AperFunction,Plated,PTH,ComponentDrill
T3C0.0197
; #@! TA.AperFunction,Plated,PTH,ComponentDrill
T4C0.0315
; #@! TA.AperFunction,Plated,PTH,ComponentDrill
T5C0.0354
; #@! TA.AperFunction,Plated,PTH,ComponentDrill
T6C0.0394
; #@! TA.AperFunction,Plated,PTH,ComponentDrill
T7C0.0402
%
G90
G05
T1
X4.3996Y-4.1437
X4.435Y-5.9567
X4.4409Y-6.8976
X4.498Y-3.8169
X4.5276Y-5.9469
X4.6772Y-3.8661
X4.7854Y-4.065
T4
X1.1814Y-1.4879
X1.3228Y-1.3465
X1.4186Y-1.7493
X1.4767Y-1.5515
X1.5578Y-1.8885
X1.7582Y-2.1044
X1.7595Y-1.8343
X1.8289Y-2.0336
X1.8996Y-1.9629
X1.9213Y-2.2677
X2.0605Y-2.1285
X2.1065Y-2.4487
X2.1217Y-1.9764
X2.2479Y-2.3072
X2.2769Y-2.6168
X2.4137Y-2.1145
X2.4161Y-2.4776
X2.4217Y-1.9764
X2.4586Y-2.7698
X2.5193Y-1.9764
X2.5282Y-2.7002
X2.6148Y-2.8904
X2.6965Y-2.3973
X2.7365Y-2.7759
X2.7702Y-2.1148
X2.8193Y-1.9764
X2.8976Y-3.1732
X3.0194Y-3.0587
X3.053Y-2.3976
X3.1266Y-2.1069
X3.4094Y-2.3898
X3.6728Y-6.4862
X3.6728Y-6.6555
X4.0728Y-6.4862
X4.0728Y-6.6555
X4.3894Y-6.6555
X4.3941Y-6.4862
X4.7894Y-6.6555
X4.7941Y-6.4862
X5.0633Y-2.3934
X5.3461Y-2.1105
X5.4019Y-2.3914
X5.4354Y-3.1099
X5.5538Y-3.2376
X5.6252Y-1.9843
X5.6847Y-2.1086
X5.7182Y-2.8271
X5.7542Y-2.3931
X5.8366Y-2.9547
X5.9252Y-1.9843
X5.9343Y-2.6863
X6.0039Y-2.7559
X6.0346Y-1.9803
X6.036Y-2.5006
X6.0371Y-2.1102
X6.1752Y-2.6398
X6.1931Y-2.3013
X6.3345Y-2.4428
X6.3346Y-1.9803
X6.3713Y-2.1273
X6.5105Y-2.2664
X6.52Y-1.9767
X6.5907Y-2.0474
X6.6614Y-2.1181
X6.6935Y-1.8616
X6.8832Y-1.8964
X6.9764Y-1.5787
X7.0224Y-1.7572
X7.1302Y-1.3428
X7.2717Y-1.4843
T5
X3.565Y-2.1165
X3.565Y-2.2165
X3.5787Y-3.4961
X3.5787Y-3.6929
X3.815Y-3.4961
X3.815Y-3.6929
X3.8309Y-2.1165
X3.8309Y-2.2165
X4.0967Y-2.1165
X4.0967Y-2.2165
X4.3638Y-2.1165
X4.3638Y-2.2165
X4.6315Y-2.1165
X4.6315Y-2.2165
X4.8992Y-2.1165
X4.8992Y-2.2165
T6
X2.9825Y-3.3189
X3.1217Y-3.4581
X3.1913Y-3.2493
X5.2676Y-3.2493
X5.3372Y-3.4581
X5.4764Y-3.3189
T7
X3.8807Y-4.1992
X3.8807Y-6.2461
X4.5774Y-4.1992
X4.5774Y-6.2461
T2
G00X3.6721Y-6.8681
M15
G01X3.6721Y-6.9075
M16
G05
G00X3.8492Y-7.0846
M15
G01X3.8886Y-7.0846
M16
G05
G00X4.0658Y-6.9075
M15
G01X4.0658Y-6.8681
M16
G05
T3
G00X4.4272Y-6.9724
M15
G01X4.4272Y-7.0
M16
G05
G00X4.4272Y-7.122
M15
G01X4.4272Y-7.1496
M16
G05
G00X4.7673Y-6.9724
M15
G01X4.7673Y-7.0
M16
G05
G00X4.7673Y-7.122
M15
G01X4.7673Y-7.1496
M16
G05
T4
G00X3.7705Y-6.874
M15
G01X3.7705Y-6.9016
M16
G05
G00X3.9673Y-6.9016
M15
G01X3.9673Y-6.874
M16
G05
M30
