<?xml version="1.0" encoding="utf-8"?>
<!-- Generator: Adobe Illustrator 24.2.3, SVG Export Plug-In . SVG Version: 6.00 Build 0)  -->
<svg version="1.1"
	 id="svg261" inkscape:version="1.1 (c68e22c387, 2021-05-23)" sodipodi:docname="electro-magnetic-field-prop.svg" xmlns:inkscape="http://www.inkscape.org/namespaces/inkscape" xmlns:sodipodi="http://sodipodi.sourceforge.net/DTD/sodipodi-0.dtd" xmlns:svg="http://www.w3.org/2000/svg"
	 xmlns="http://www.w3.org/2000/svg" xmlns:xlink="http://www.w3.org/1999/xlink" x="0px" y="0px" viewBox="0 0 414.3 169.6"
	 style="enable-background:new 0 0 414.3 169.6;" xml:space="preserve">
<style type="text/css">
	.st0{stroke:#FFFFFF;stroke-miterlimit:10;}
	.st1{fill:#FFFFFF;stroke:#000000;stroke-miterlimit:10;}
	.st2{clip-path:url(#SVGID_2_);}
	.st3{clip-path:url(#SVGID_4_);}
	.st4{clip-path:url(#SVGID_6_);}
	.st5{clip-path:url(#SVGID_8_);}
	.st6{clip-path:url(#SVGID_10_);}
</style>
<sodipodi:namedview  bordercolor="#666666" borderopacity="1.0" id="namedview263" inkscape:current-layer="svg261" inkscape:pagecheckerboard="0" inkscape:pageopacity="0.0" inkscape:pageshadow="2" pagecolor="#ffffff" showgrid="false">
	</sodipodi:namedview>
<g id="g67" transform="matrix(-0.9817,-0.19044,0.61282,-0.40671,155.219,432.789)">
	<g id="g51" transform="matrix(0.3282,0,0,0.38861,-336.4,523.16)">
		<path id="path49" class="st0" d="M1822,370.5c2.6,6.2,2.6,6.1,6,12.5c1.8,6.6,5.3,10.4,7,18c3.2,3.8,4.2,9.8,7,14
			c2.2,7,6,11.5,8,19c3.3,4.3,5.2,10.1,8,15c3,7.1,6.9,12.3,9,19c3.4,3.6,5.2,8.8,8,13c3.7,6.5,7.3,11.4,11,17c4,5.1,7,10.6,12,14
			c1.4,5.3,7.7,7.4,11,11c5.1,3.6,10.3,7,18,8c10.5,1,19-1.6,24-6c5.6-3.1,10.3-7.1,14-12c4.5-3.7,7.6-8.8,11-13
			c3.8-4.9,6.7-10.3,10-15c4.1-7.2,7.2-11.5,11-20c3.3-4.3,5.2-10.1,8-15c3-6.5,6.3-11.3,9-19c2.7-5.4,6-11.5,8-18
			c3.1-4.2,4.8-10.4,7-15c2.5-5.5,6.1-10,7.8-16.3c3.4-4.5,1.5-6.1,4.4-11"/>
	</g>
	<path class="st0" d=""/>
	<path id="path14" class="st0" d="M287.9,716.6l-2.8-2.8l2.8,9.7l2.8-9.7L287.9,716.6z"/>
	<path id="path53" class="st0" d="M287.9,722.2"/>
	<path class="st0" d=""/>
	<path id="path8" class="st0" d="M307.3,716.4l-2.8-2.8l2.8,9.7l2.8-9.7L307.3,716.4z"/>
	<path id="path55" class="st0" d="M307.3,722"/>
	<path class="st0" d=""/>
	<path id="path17" class="st0" d="M278.3,701.6l-2.8-2.8l2.8,9.7l2.8-9.7L278.3,701.6z"/>
	<path id="path57" class="st0" d="M278.3,707.2"/>
	<path class="st0" d=""/>
	<path id="path20" class="st0" d="M268.6,680.1l-2.8-2.8l2.8,9.7l2.8-9.7L268.6,680.1z"/>
	<path id="path59" class="st0" d="M268.6,685.7"/>
	<path class="st0" d=""/>
	<path id="path11" class="st0" d="M297.6,721.7l-2.8-2.8l2.8,9.7l2.8-9.7L297.6,721.7z"/>
	<path id="path61" class="st0" d="M297.6,727.3"/>
	<path class="st0" d=""/>
	<path id="path5" class="st0" d="M316.9,701.6l-2.8-2.8l2.8,9.7l2.8-9.7L316.9,701.6z"/>
	<path id="path63" class="st0" d="M316.9,707.2"/>
	<path class="st0" d=""/>
	<path id="path23" class="st0" d="M326.6,680l-2.8-2.8l2.8,9.7l2.8-9.7L326.6,680z"/>
	<path id="path65" class="st0" d="M326.6,685.6"/>
</g>
<g id="g87" transform="matrix(-0.9817,-0.19044,0.61282,-0.40671,12.749,405.389)">
	<g id="g71" transform="matrix(0.3282,0,0,0.38861,-336.4,523.16)">
		<path id="path69" class="st0" d="M1822,370.5c2.6,6.2,2.6,6.1,6,12.5c1.8,6.6,5.3,10.4,7,18c3.2,3.8,4.2,9.8,7,14
			c2.2,7,6,11.5,8,19c3.3,4.3,5.2,10.1,8,15c3,7.1,6.9,12.3,9,19c3.4,3.6,5.2,8.8,8,13c3.7,6.5,7.3,11.4,11,17c4,5.1,7,10.6,12,14
			c1.4,5.3,7.7,7.4,11,11c5.1,3.6,10.3,7,18,8c10.5,1,19-1.6,24-6c5.6-3.1,10.3-7.1,14-12c4.5-3.7,7.6-8.8,11-13
			c3.8-4.9,6.7-10.3,10-15c4.1-7.2,7.2-11.5,11-20c3.3-4.3,5.2-10.1,8-15c3-6.5,6.3-11.3,9-19c2.7-5.4,6-11.5,8-18
			c3.1-4.2,4.8-10.4,7-15c2.5-5.5,6.1-10,7.8-16.3c3.4-4.5,1.5-6.1,4.4-11"/>
	</g>
	<path class="st0" d=""/>
	<path id="path14_1_" class="st0" d="M287.9,716.6l-2.8-2.8l2.8,9.7l2.8-9.7L287.9,716.6z"/>
	<path id="path73" class="st0" d="M287.9,722.2"/>
	<path class="st0" d=""/>
	<path id="path8_1_" class="st0" d="M307.3,716.4l-2.8-2.8l2.8,9.7l2.8-9.7L307.3,716.4z"/>
	<path id="path75" class="st0" d="M307.3,722"/>
	<path class="st0" d=""/>
	<path id="path17_1_" class="st0" d="M278.3,701.6l-2.8-2.8l2.8,9.7l2.8-9.7L278.3,701.6z"/>
	<path id="path77" class="st0" d="M278.3,707.2"/>
	<path class="st0" d=""/>
	<path id="path20_1_" class="st0" d="M268.6,680.1l-2.8-2.8l2.8,9.7l2.8-9.7L268.6,680.1z"/>
	<path id="path79" class="st0" d="M268.6,685.7"/>
	<path class="st0" d=""/>
	<path id="path11_1_" class="st0" d="M297.6,721.7l-2.8-2.8l2.8,9.7l2.8-9.7L297.6,721.7z"/>
	<path id="path81" class="st0" d="M297.6,727.3"/>
	<path class="st0" d=""/>
	<path id="path5_1_" class="st0" d="M316.9,701.6l-2.8-2.8l2.8,9.7l2.8-9.7L316.9,701.6z"/>
	<path id="path83" class="st0" d="M316.9,707.2"/>
	<path class="st0" d=""/>
	<path id="path23_1_" class="st0" d="M326.6,680l-2.8-2.8l2.8,9.7l2.8-9.7L326.6,680z"/>
	<path id="path85" class="st0" d="M326.6,685.6"/>
</g>
<g id="g107" transform="matrix(0.9817,0.19044,-0.61282,0.40671,176.509,-263.441)">
	<g id="g91" transform="matrix(0.3282,0,0,0.38861,-336.4,523.16)">
		<path id="path89" class="st0" d="M1822,370.5c2.6,6.2,2.6,6.1,6,12.5c1.8,6.6,5.3,10.4,7,18c3.2,3.8,4.2,9.8,7,14
			c2.2,7,6,11.5,8,19c3.3,4.3,5.2,10.1,8,15c3,7.1,6.9,12.3,9,19c3.4,3.6,5.2,8.8,8,13c3.7,6.5,7.3,11.4,11,17c4,5.1,7,10.6,12,14
			c1.4,5.3,7.7,7.4,11,11c5.1,3.6,10.3,7,18,8c10.5,1,19-1.6,24-6c5.6-3.1,10.3-7.1,14-12c4.5-3.7,7.6-8.8,11-13
			c3.8-4.9,6.7-10.3,10-15c4.1-7.2,7.2-11.5,11-20c3.3-4.3,5.2-10.1,8-15c3-6.5,6.3-11.3,9-19c2.7-5.4,6-11.5,8-18
			c3.1-4.2,4.8-10.4,7-15c2.5-5.5,6.1-10,7.8-16.3c3.4-4.5,1.5-6.1,4.4-11"/>
	</g>
	<path class="st0" d=""/>
	<path id="path14_2_" class="st0" d="M287.9,716.6l-2.8-2.8l2.8,9.7l2.8-9.7L287.9,716.6z"/>
	<path id="path93" class="st0" d="M287.9,722.2"/>
	<path class="st0" d=""/>
	<path id="path8_2_" class="st0" d="M307.3,716.4l-2.8-2.8l2.8,9.7l2.8-9.7L307.3,716.4z"/>
	<path id="path95" class="st0" d="M307.3,722"/>
	<path class="st0" d=""/>
	<path id="path17_2_" class="st0" d="M278.3,701.6l-2.8-2.8l2.8,9.7l2.8-9.7L278.3,701.6z"/>
	<path id="path97" class="st0" d="M278.3,707.2"/>
	<path class="st0" d=""/>
	<path id="path20_2_" class="st0" d="M268.6,680.1l-2.8-2.8l2.8,9.7l2.8-9.7L268.6,680.1z"/>
	<path id="path99" class="st0" d="M268.6,685.7"/>
	<path class="st0" d=""/>
	<path id="path11_2_" class="st0" d="M297.6,721.7l-2.8-2.8l2.8,9.7l2.8-9.7L297.6,721.7z"/>
	<path id="path101" class="st0" d="M297.6,727.3"/>
	<path class="st0" d=""/>
	<path id="path5_2_" class="st0" d="M316.9,701.6l-2.8-2.8l2.8,9.7l2.8-9.7L316.9,701.6z"/>
	<path id="path103" class="st0" d="M316.9,707.2"/>
	<path class="st0" d=""/>
	<path id="path23_2_" class="st0" d="M326.6,680l-2.8-2.8l2.8,9.7l2.8-9.7L326.6,680z"/>
	<path id="path105" class="st0" d="M326.6,685.6"/>
</g>
<g id="g127" transform="matrix(-0.9817,-0.19044,-0.06263,-1.0048,300.439,762.089)">
	<g id="g111" transform="matrix(0.3282,0,0,0.38861,-430.34,512.11)">
		<path id="path109_2_" class="st1" d="M1822,370.5c2.6,6.2,2.6,6.1,6,12.5c1.8,6.6,5.3,10.4,7,18c3.2,3.8,4.2,9.8,7,14
			c2.2,7,6,11.5,8,19c3.3,4.3,5.2,10.1,8,15c3,7.1,6.9,12.3,9,19c3.4,3.6,5.2,8.8,8,13c3.7,6.5,7.3,11.4,11,17c4,5.1,7,10.6,12,14
			c1.4,5.3,7.7,7.4,11,11c5.1,3.6,10.3,7,18,8c10.5,1,19-1.6,24-6c5.6-3.1,10.3-7.1,14-12c4.5-3.7,7.6-8.8,11-13
			c3.8-4.9,6.7-10.3,10-15c4.1-7.2,7.2-11.5,11-20c3.3-4.3,5.2-10.1,8-15c3-6.5,6.3-11.3,9-19c2.7-5.4,6-11.5,8-18
			c3.1-4.2,4.8-10.4,7-15c2.5-5.5,6.1-10,7.8-16.3c3.4-4.5,1.5-6.1,4.4-11l-1136.6-1.4"/>
	</g>
	<path class="st1" d=""/>
	<path id="path35" class="st1" d="M194,707.2l-2-2l2,7.1l2-7.1L194,707.2z"/>
	<path id="path113" class="st1" d="M194,711.2"/>
	<path class="st1" d=""/>
	<path id="path41" class="st1" d="M213.3,706.9l-2-2l2,7.1l2-7.1L213.3,706.9z"/>
	<path id="path115" class="st1" d="M213.3,710.9"/>
	<path class="st1" d=""/>
	<path id="path32" class="st1" d="M184.3,692.1l-2-2l2,7.1l2-7.1L184.3,692.1z"/>
	<path id="path117" class="st1" d="M184.3,696.1"/>
	<path class="st1" d=""/>
	<path id="path26" class="st1" d="M174.7,670.6l-2-2l2,7.1l2-7.1L174.7,670.6z"/>
	<path id="path119" class="st1" d="M174.7,674.6"/>
	<path class="st1" d=""/>
	<path id="path38" class="st1" d="M203.7,712.2l-2-2l2,7.1l2-7.1L203.7,712.2z"/>
	<path id="path121" class="st1" d="M203.7,716.2"/>
	<path class="st1" d=""/>
	<path id="path29" class="st1" d="M223,692.1l-2-2l2,7.1l2-7.1L223,692.1z"/>
	<path id="path123" class="st1" d="M223,696.1"/>
	<path class="st1" d=""/>
	<path id="path44" class="st1" d="M232.7,670.5l-2-2l2,7.1l2-7.1L232.7,670.5z"/>
	<path id="path125" class="st1" d="M232.7,674.5"/>
</g>
<g id="g147" transform="matrix(0.9817,0.19044,0.06263,1.0048,30.729,-592.441)">
	<g id="g131" transform="matrix(0.3282,0,0,0.38861,-430.34,512.11)">
		<path id="path129" class="st1" d="M1822,370.5c2.6,6.2,2.6,6.1,6,12.5c1.8,6.6,5.3,10.4,7,18c3.2,3.8,4.2,9.8,7,14
			c2.2,7,6,11.5,8,19c3.3,4.3,5.2,10.1,8,15c3,7.1,6.9,12.3,9,19c3.4,3.6,5.2,8.8,8,13c3.7,6.5,7.3,11.4,11,17c4,5.1,7,10.6,12,14
			c1.4,5.3,7.7,7.4,11,11c5.1,3.6,10.3,7,18,8c10.5,1,19-1.6,24-6c5.6-3.1,10.3-7.1,14-12c4.5-3.7,7.6-8.8,11-13
			c3.8-4.9,6.7-10.3,10-15c4.1-7.2,7.2-11.5,11-20c3.3-4.3,5.2-10.1,8-15c3-6.5,6.3-11.3,9-19c2.7-5.4,6-11.5,8-18
			c3.1-4.2,4.8-10.4,7-15c2.5-5.5,6.1-10,7.8-16.3c3.4-4.5,1.5-6.1,4.4-11"/>
	</g>
	<path class="st1" d=""/>
	<path id="path35_1_" class="st1" d="M194,707.2l-2-2l2,7.1l2-7.1L194,707.2z"/>
	<path id="path133" class="st1" d="M194,711.2"/>
	<path class="st1" d=""/>
	<path id="path41_1_" class="st1" d="M213.3,706.9l-2-2l2,7.1l2-7.1L213.3,706.9z"/>
	<path id="path135" class="st1" d="M213.3,710.9"/>
	<path class="st1" d=""/>
	<path id="path32_1_" class="st1" d="M184.3,692.1l-2-2l2,7.1l2-7.1L184.3,692.1z"/>
	<path id="path137" class="st1" d="M184.3,696.1"/>
	<path class="st1" d=""/>
	<path id="path26_1_" class="st1" d="M174.7,670.6l-2-2l2,7.1l2-7.1L174.7,670.6z"/>
	<path id="path139" class="st1" d="M174.7,674.6"/>
	<path class="st1" d=""/>
	<path id="path38_1_" class="st1" d="M203.7,712.2l-2-2l2,7.1l2-7.1L203.7,712.2z"/>
	<path id="path141" class="st1" d="M203.7,716.2"/>
	<path class="st1" d=""/>
	<path id="path29_1_" class="st1" d="M223,692.1l-2-2l2,7.1l2-7.1L223,692.1z"/>
	<path id="path143" class="st1" d="M223,696.1"/>
	<path class="st1" d=""/>
	<path id="path44_1_" class="st1" d="M232.7,670.5l-2-2l2,7.1l2-7.1L232.7,670.5z"/>
	<path id="path145" class="st1" d="M232.7,674.5"/>
</g>
<g id="g167" transform="matrix(0.9817,0.19044,-0.61282,0.40671,459.599,-208.521)">
	<g id="g151" transform="matrix(0.3282,0,0,0.38861,-336.4,523.16)">
		<path id="path149" class="st0" d="M1822,370.5c2.6,6.2,2.6,6.1,6,12.5c1.8,6.6,5.3,10.4,7,18c3.2,3.8,4.2,9.8,7,14
			c2.2,7,6,11.5,8,19c3.3,4.3,5.2,10.1,8,15c3,7.1,6.9,12.3,9,19c3.4,3.6,5.2,8.8,8,13c3.7,6.5,7.3,11.4,11,17c4,5.1,7,10.6,12,14
			c1.4,5.3,7.7,7.4,11,11c5.1,3.6,10.3,7,18,8c10.5,1,19-1.6,24-6c5.6-3.1,10.3-7.1,14-12c4.5-3.7,7.6-8.8,11-13
			c3.8-4.9,6.7-10.3,10-15c4.1-7.2,7.2-11.5,11-20c3.3-4.3,5.2-10.1,8-15c3-6.5,6.3-11.3,9-19c2.7-5.4,6-11.5,8-18
			c3.1-4.2,4.8-10.4,7-15c2.5-5.5,6.1-10,7.8-16.3c3.4-4.5,1.5-6.1,4.4-11"/>
	</g>
	<path class="st0" d=""/>
	<path id="path14_3_" class="st0" d="M287.9,716.6l-2.8-2.8l2.8,9.7l2.8-9.7L287.9,716.6z"/>
	<path id="path153" class="st0" d="M287.9,722.2"/>
	<path class="st0" d=""/>
	<path id="path8_3_" class="st0" d="M307.3,716.4l-2.8-2.8l2.8,9.7l2.8-9.7L307.3,716.4z"/>
	<path id="path155" class="st0" d="M307.3,722"/>
	<path class="st0" d=""/>
	<path id="path17_3_" class="st0" d="M278.3,701.6l-2.8-2.8l2.8,9.7l2.8-9.7L278.3,701.6z"/>
	<path id="path157" class="st0" d="M278.3,707.2"/>
	<path class="st0" d=""/>
	<path id="path20_3_" class="st0" d="M268.6,680.1l-2.8-2.8l2.8,9.7l2.8-9.7L268.6,680.1z"/>
	<path id="path159" class="st0" d="M268.6,685.7"/>
	<path class="st0" d=""/>
	<path id="path11_3_" class="st0" d="M297.6,721.7l-2.8-2.8l2.8,9.7l2.8-9.7L297.6,721.7z"/>
	<path id="path161" class="st0" d="M297.6,727.3"/>
	<path class="st0" d=""/>
	<path id="path5_3_" class="st0" d="M316.9,701.6l-2.8-2.8l2.8,9.7l2.8-9.7L316.9,701.6z"/>
	<path id="path163" class="st0" d="M316.9,707.2"/>
	<path class="st0" d=""/>
	<path id="path23_3_" class="st0" d="M326.6,680l-2.8-2.8l2.8,9.7l2.8-9.7L326.6,680z"/>
	<path id="path165" class="st0" d="M326.6,685.6"/>
</g>
<g id="g187" transform="matrix(0.9817,0.19044,0.06263,1.0048,-111.754,-619.711)">
	<g id="g171" transform="matrix(0.3282,0,0,0.38861,-430.34,512.11)">
		<path id="path169" class="st1" d="M1822,370.5c2.6,6.2,2.6,6.1,6,12.5c1.8,6.6,5.3,10.4,7,18c3.2,3.8,4.2,9.8,7,14
			c2.2,7,6,11.5,8,19c3.3,4.3,5.2,10.1,8,15c3,7.1,6.9,12.3,9,19c3.4,3.6,5.2,8.8,8,13c3.7,6.5,7.3,11.4,11,17c4,5.1,7,10.6,12,14
			c1.4,5.3,7.7,7.4,11,11c5.1,3.6,10.3,7,18,8c10.5,1,19-1.6,24-6c5.6-3.1,10.3-7.1,14-12c4.5-3.7,7.6-8.8,11-13
			c3.8-4.9,6.7-10.3,10-15c4.1-7.2,7.2-11.5,11-20c3.3-4.3,5.2-10.1,8-15c3-6.5,6.3-11.3,9-19c2.7-5.4,6-11.5,8-18
			c3.1-4.2,4.8-10.4,7-15c2.5-5.5,6.1-10,7.8-16.3c3.4-4.5,1.5-6.1,4.4-11"/>
	</g>
	<path class="st1" d=""/>
	<path id="path35_2_" class="st1" d="M194,707.2l-2-2l2,7.1l2-7.1L194,707.2z"/>
	<path id="path173" class="st1" d="M194,711.2"/>
	<path class="st1" d=""/>
	<path id="path41_2_" class="st1" d="M213.3,706.9l-2-2l2,7.1l2-7.1L213.3,706.9z"/>
	<path id="path175" class="st1" d="M213.3,710.9"/>
	<path class="st1" d=""/>
	<path id="path32_2_" class="st1" d="M184.3,692.1l-2-2l2,7.1l2-7.1L184.3,692.1z"/>
	<path id="path177" class="st1" d="M184.3,696.1"/>
	<path class="st1" d=""/>
	<path id="path26_2_" class="st1" d="M174.7,670.6l-2-2l2,7.1l2-7.1L174.7,670.6z"/>
	<path id="path179" class="st1" d="M174.7,674.6"/>
	<path class="st1" d=""/>
	<path id="path38_2_" class="st1" d="M203.7,712.2l-2-2l2,7.1l2-7.1L203.7,712.2z"/>
	<path id="path181" class="st1" d="M203.7,716.2"/>
	<path class="st1" d=""/>
	<path id="path29_2_" class="st1" d="M223,692.1l-2-2l2,7.1l2-7.1L223,692.1z"/>
	<path id="path183" class="st1" d="M223,696.1"/>
	<path class="st1" d=""/>
	<path id="path44_2_" class="st1" d="M232.7,670.5l-2-2l2,7.1l2-7.1L232.7,670.5z"/>
	<path id="path185" class="st1" d="M232.7,674.5"/>
</g>
<g id="g207" transform="matrix(-0.9817,-0.19044,-0.06263,-1.0048,441.529,789.089)">
	<g id="g191" transform="matrix(0.3282,0,0,0.38861,-430.34,512.11)">
		<path id="path189" class="st1" d="M1822,370.5c2.6,6.2,2.6,6.1,6,12.5c1.8,6.6,5.3,10.4,7,18c3.2,3.8,4.2,9.8,7,14
			c2.2,7,6,11.5,8,19c3.3,4.3,5.2,10.1,8,15c3,7.1,6.9,12.3,9,19c3.4,3.6,5.2,8.8,8,13c3.7,6.5,7.3,11.4,11,17c4,5.1,7,10.6,12,14
			c1.4,5.3,7.7,7.4,11,11c5.1,3.6,10.3,7,18,8c10.5,1,19-1.6,24-6c5.6-3.1,10.3-7.1,14-12c4.5-3.7,7.6-8.8,11-13
			c3.8-4.9,6.7-10.3,10-15c4.1-7.2,7.2-11.5,11-20c3.3-4.3,5.2-10.1,8-15c3-6.5,6.3-11.3,9-19c2.7-5.4,6-11.5,8-18
			c3.1-4.2,4.8-10.4,7-15c2.5-5.5,6.1-10,7.8-16.3c3.4-4.5,1.5-6.1,4.4-11"/>
	</g>
	<path class="st1" d=""/>
	<path id="path35_3_" class="st1" d="M194,707.2l-2-2l2,7.1l2-7.1L194,707.2z"/>
	<path id="path193" class="st1" d="M194,711.2"/>
	<path class="st1" d=""/>
	<path id="path41_3_" class="st1" d="M213.3,706.9l-2-2l2,7.1l2-7.1L213.3,706.9z"/>
	<path id="path195" class="st1" d="M213.3,710.9"/>
	<path class="st1" d=""/>
	<path id="path32_3_" class="st1" d="M184.3,692.1l-2-2l2,7.1l2-7.1L184.3,692.1z"/>
	<path id="path197" class="st1" d="M184.3,696.1"/>
	<path class="st1" d=""/>
	<path id="path26_3_" class="st1" d="M174.7,670.6l-2-2l2,7.1l2-7.1L174.7,670.6z"/>
	<path id="path199" class="st1" d="M174.7,674.6"/>
	<path class="st1" d=""/>
	<path id="path38_3_" class="st1" d="M203.7,712.2l-2-2l2,7.1l2-7.1L203.7,712.2z"/>
	<path id="path201" class="st1" d="M203.7,716.2"/>
	<path class="st1" d=""/>
	<path id="path29_3_" class="st1" d="M223,692.1l-2-2l2,7.1l2-7.1L223,692.1z"/>
	<path id="path203" class="st1" d="M223,696.1"/>
	<path class="st1" d=""/>
	<path id="path44_3_" class="st1" d="M232.7,670.5l-2-2l2,7.1l2-7.1L232.7,670.5z"/>
	<path id="path205" class="st1" d="M232.7,674.5"/>
</g>
<g id="g227" transform="matrix(0.9817,0.19044,-0.61282,0.40671,317.539,-236.071)">
	<g id="g211" transform="matrix(0.3282,0,0,0.38861,-336.4,523.16)">
		<path id="path209" class="st1" d="M1822,370.5c2.6,6.2,2.6,6.1,6,12.5c1.8,6.6,5.3,10.4,7,18c3.2,3.8,4.2,9.8,7,14
			c2.2,7,6,11.5,8,19c3.3,4.3,5.2,10.1,8,15c3,7.1,6.9,12.3,9,19c3.4,3.6,5.2,8.8,8,13c3.7,6.5,7.3,11.4,11,17c4,5.1,7,10.6,12,14
			c1.4,5.3,7.7,7.4,11,11c5.1,3.6,10.3,7,18,8c10.5,1,19-1.6,24-6c5.6-3.1,10.3-7.1,14-12c4.5-3.7,7.6-8.8,11-13
			c3.8-4.9,6.7-10.3,10-15c4.1-7.2,7.2-11.5,11-20c3.3-4.3,5.2-10.1,8-15c3-6.5,6.3-11.3,9-19c2.7-5.4,6-11.5,8-18
			c3.1-4.2,4.8-10.4,7-15c2.5-5.5,6.1-10,7.8-16.3c3.4-4.5,1.5-6.1,4.4-11"/>
	</g>
	<path class="st1" d=""/>
	<path id="path14_4_" class="st1" d="M287.9,716.6l-2.8-2.8l2.8,9.7l2.8-9.7L287.9,716.6z"/>
	<path id="path213" class="st1" d="M287.9,722.2"/>
	<path class="st1" d=""/>
	<path id="path8_4_" class="st1" d="M307.3,716.4l-2.8-2.8l2.8,9.7l2.8-9.7L307.3,716.4z"/>
	<path id="path215" class="st1" d="M307.3,722"/>
	<path class="st1" d=""/>
	<path id="path17_4_" class="st1" d="M278.3,701.6l-2.8-2.8l2.8,9.7l2.8-9.7L278.3,701.6z"/>
	<path id="path217" class="st1" d="M278.3,707.2"/>
	<path class="st1" d=""/>
	<path id="path20_4_" class="st1" d="M268.6,680.1l-2.8-2.8l2.8,9.7l2.8-9.7L268.6,680.1z"/>
	<path id="path219" class="st1" d="M268.6,685.7"/>
	<path class="st1" d=""/>
	<path id="path11_4_" class="st1" d="M297.6,721.7l-2.8-2.8l2.8,9.7l2.8-9.7L297.6,721.7z"/>
	<path id="path221" class="st1" d="M297.6,727.3"/>
	<path class="st1" d=""/>
	<path id="path5_4_" class="st1" d="M316.9,701.6l-2.8-2.8l2.8,9.7l2.8-9.7L316.9,701.6z"/>
	<path id="path223" class="st1" d="M316.9,707.2"/>
	<path class="st1" d=""/>
	<path id="path23_4_" class="st1" d="M326.6,680l-2.8-2.8l2.8,9.7l2.8-9.7L326.6,680z"/>
	<path id="path225" class="st1" d="M326.6,685.6"/>
</g>
<g id="g247" transform="matrix(-0.9817,-0.19044,-0.06263,-1.0048,583.519,817.089)">
	<g id="g231" transform="matrix(0.3282,0,0,0.38861,-430.34,512.11)">
		<path id="path229" class="st1" d="M1822,370.5c2.6,6.2,2.6,6.1,6,12.5c1.8,6.6,5.3,10.4,7,18c3.2,3.8,4.2,9.8,7,14
			c2.2,7,6,11.5,8,19c3.3,4.3,5.2,10.1,8,15c3,7.1,6.9,12.3,9,19c3.4,3.6,5.2,8.8,8,13c3.7,6.5,7.3,11.4,11,17c4,5.1,7,10.6,12,14
			c1.4,5.3,7.7,7.4,11,11c5.1,3.6,10.3,7,18,8c10.5,1,19-1.6,24-6c5.6-3.1,10.3-7.1,14-12c4.5-3.7,7.6-8.8,11-13
			c3.8-4.9,6.7-10.3,10-15c4.1-7.2,7.2-11.5,11-20c3.3-4.3,5.2-10.1,8-15c3-6.5,6.3-11.3,9-19c2.7-5.4,6-11.5,8-18
			c3.1-4.2,4.8-10.4,7-15c2.5-5.5,6.1-10,7.8-16.3c3.4-4.5,1.5-6.1,4.4-11"/>
	</g>
	<path class="st1" d=""/>
	<path id="path35_4_" class="st1" d="M194,707.2l-2-2l2,7.1l2-7.1L194,707.2z"/>
	<path id="path233" class="st1" d="M194,711.2"/>
	<path class="st1" d=""/>
	<path id="path41_4_" class="st1" d="M213.3,706.9l-2-2l2,7.1l2-7.1L213.3,706.9z"/>
	<path id="path235" class="st1" d="M213.3,710.9"/>
	<path class="st1" d=""/>
	<path id="path32_4_" class="st1" d="M184.3,692.1l-2-2l2,7.1l2-7.1L184.3,692.1z"/>
	<path id="path237" class="st1" d="M184.3,696.1"/>
	<path class="st1" d=""/>
	<path id="path26_4_" class="st1" d="M174.7,670.6l-2-2l2,7.1l2-7.1L174.7,670.6z"/>
	<path id="path239" class="st1" d="M174.7,674.6"/>
	<path class="st1" d=""/>
	<path id="path38_4_" class="st1" d="M203.7,712.2l-2-2l2,7.1l2-7.1L203.7,712.2z"/>
	<path id="path241" class="st1" d="M203.7,716.2"/>
	<path class="st1" d=""/>
	<path id="path29_4_" class="st1" d="M223,692.1l-2-2l2,7.1l2-7.1L223,692.1z"/>
	<path id="path243" class="st1" d="M223,696.1"/>
	<g>
		<path class="st1" d=""/>
	</g>
	<g id="path44_4_">
		<g>
			<defs>
				<path id="SVGID_1_" d="M232.7,670.5l-2-2l2,7.1l2-7.1L232.7,670.5z"/>
			</defs>
			<use xlink:href="#SVGID_1_"  style="overflow:visible;fill:#FFFFFF;"/>
			<clipPath id="SVGID_2_">
				<use xlink:href="#SVGID_1_"  style="overflow:visible;"/>
			</clipPath>
			<g class="st2">
				<g>
					<defs>
						<rect id="SVGID_3_" x="183" y="674.4" width="72" height="72"/>
					</defs>
					<use xlink:href="#SVGID_3_"  style="overflow:visible;fill:#FFFFFF;"/>
					<clipPath id="SVGID_4_">
						<use xlink:href="#SVGID_3_"  style="overflow:visible;"/>
					</clipPath>
					<g class="st3">
						<line class="st1" x1="192.6" y1="669.1" x2="172.9" y2="690.7"/>
						<line class="st1" x1="193" y1="663" x2="166.7" y2="691.9"/>
						<line class="st1" x1="193.4" y1="657" x2="160.5" y2="693.1"/>
						<line class="st1" x1="193.8" y1="650.9" x2="154.3" y2="694.2"/>
						<line class="st1" x1="194.2" y1="644.9" x2="148.2" y2="695.4"/>
						<line class="st1" x1="194.6" y1="638.9" x2="142" y2="696.6"/>
						<line class="st1" x1="194.9" y1="632.8" x2="135.8" y2="697.8"/>
						<line class="st1" x1="195.3" y1="626.8" x2="129.6" y2="698.9"/>
						<line class="st1" x1="195.7" y1="620.7" x2="123.4" y2="700.1"/>
						<line class="st1" x1="196.1" y1="614.7" x2="117.2" y2="701.3"/>
						<line class="st1" x1="196.5" y1="608.6" x2="111" y2="702.5"/>
						<line class="st1" x1="196.9" y1="602.6" x2="104.9" y2="703.6"/>
						<line class="st1" x1="190.7" y1="603.8" x2="105.2" y2="697.6"/>
					</g>
					<g class="st3">
						<line class="st1" x1="266.9" y1="655" x2="247.1" y2="676.7"/>
						<line class="st1" x1="267.2" y1="649" x2="241" y2="677.8"/>
						<line class="st1" x1="267.6" y1="642.9" x2="234.8" y2="679"/>
						<line class="st1" x1="268" y1="636.9" x2="228.6" y2="680.2"/>
						<line class="st1" x1="268.4" y1="630.8" x2="222.4" y2="681.3"/>
						<line class="st1" x1="268.8" y1="624.8" x2="216.2" y2="682.5"/>
						<line class="st1" x1="269.2" y1="618.7" x2="210" y2="683.7"/>
						<line class="st1" x1="269.6" y1="612.7" x2="203.8" y2="684.9"/>
						<line class="st1" x1="269.9" y1="606.7" x2="197.7" y2="686"/>
						<line class="st1" x1="270.3" y1="600.6" x2="191.5" y2="687.2"/>
						<line class="st1" x1="270.7" y1="594.6" x2="185.3" y2="688.4"/>
						<line class="st1" x1="271.1" y1="588.5" x2="179.1" y2="689.6"/>
						<line class="st1" x1="264.9" y1="589.7" x2="179.5" y2="683.5"/>
					</g>
					<g class="st3">
						<line class="st1" x1="345.3" y1="574.4" x2="253.3" y2="675.5"/>
						<line class="st1" x1="339.2" y1="575.6" x2="253.7" y2="669.4"/>
					</g>
					<g class="st3">
						<line class="st1" x1="188" y1="741.6" x2="168.3" y2="763.3"/>
						<line class="st1" x1="188.4" y1="735.6" x2="162.1" y2="764.4"/>
						<line class="st1" x1="188.8" y1="729.5" x2="155.9" y2="765.6"/>
						<line class="st1" x1="189.2" y1="723.5" x2="149.7" y2="766.8"/>
						<line class="st1" x1="189.5" y1="717.4" x2="143.5" y2="768"/>
						<line class="st1" x1="189.9" y1="711.4" x2="137.3" y2="769.1"/>
						<line class="st1" x1="190.3" y1="705.3" x2="131.2" y2="770.3"/>
						<line class="st1" x1="190.7" y1="699.3" x2="125" y2="771.5"/>
						<line class="st1" x1="191.1" y1="693.3" x2="118.8" y2="772.6"/>
						<line class="st1" x1="191.5" y1="687.2" x2="112.6" y2="773.8"/>
						<line class="st1" x1="191.9" y1="681.2" x2="106.4" y2="775"/>
						<line class="st1" x1="192.2" y1="675.1" x2="100.2" y2="776.2"/>
						<line class="st1" x1="186.1" y1="676.3" x2="100.6" y2="770.1"/>
					</g>
					<g class="st3">
						<line class="st1" x1="262.2" y1="727.5" x2="242.5" y2="749.2"/>
						<line class="st1" x1="262.6" y1="721.5" x2="236.3" y2="750.4"/>
						<line class="st1" x1="263" y1="715.5" x2="230.1" y2="751.5"/>
						<line class="st1" x1="263.4" y1="709.4" x2="224" y2="752.7"/>
						<line class="st1" x1="263.8" y1="703.4" x2="217.8" y2="753.9"/>
						<line class="st1" x1="264.2" y1="697.3" x2="211.6" y2="755.1"/>
						<line class="st1" x1="264.6" y1="691.3" x2="205.4" y2="756.2"/>
						<line class="st1" x1="264.9" y1="685.2" x2="199.2" y2="757.4"/>
						<line class="st1" x1="265.3" y1="679.2" x2="193" y2="758.6"/>
						<line class="st1" x1="265.7" y1="673.1" x2="186.8" y2="759.7"/>
						<line class="st1" x1="266.1" y1="667.1" x2="180.7" y2="760.9"/>
						<line class="st1" x1="266.5" y1="661.1" x2="174.5" y2="762.1"/>
						<line class="st1" x1="260.3" y1="662.2" x2="174.9" y2="756"/>
						<line class="st1" x1="254.1" y1="663.4" x2="175.2" y2="750"/>
						<line class="st1" x1="247.9" y1="664.6" x2="175.6" y2="744"/>
						<line class="st1" x1="241.7" y1="665.7" x2="176" y2="737.9"/>
						<line class="st1" x1="235.5" y1="666.9" x2="176.4" y2="731.9"/>
						<line class="st1" x1="229.4" y1="668.1" x2="176.8" y2="725.8"/>
						<line class="st1" x1="223.2" y1="669.3" x2="177.2" y2="719.8"/>
						<line class="st1" x1="217" y1="670.4" x2="177.6" y2="713.7"/>
						<line class="st1" x1="210.8" y1="671.6" x2="177.9" y2="707.7"/>
						<line class="st1" x1="204.6" y1="672.8" x2="178.3" y2="701.6"/>
						<line class="st1" x1="198.4" y1="674" x2="178.7" y2="695.6"/>
						<line class="st1" x1="192.2" y1="675.1" x2="179.1" y2="689.6"/>
					</g>
					<g class="st3">
						<line class="st1" x1="340.7" y1="647" x2="248.7" y2="748"/>
						<line class="st1" x1="334.5" y1="648.2" x2="249.1" y2="742"/>
						<line class="st1" x1="328.3" y1="649.3" x2="249.5" y2="735.9"/>
						<line class="st1" x1="322.2" y1="650.5" x2="249.9" y2="729.9"/>
						<line class="st1" x1="316" y1="651.7" x2="250.2" y2="723.8"/>
						<line class="st1" x1="309.8" y1="652.8" x2="250.6" y2="717.8"/>
						<line class="st1" x1="303.6" y1="654" x2="251" y2="711.8"/>
						<line class="st1" x1="297.4" y1="655.2" x2="251.4" y2="705.7"/>
						<line class="st1" x1="291.2" y1="656.4" x2="251.8" y2="699.7"/>
						<line class="st1" x1="285" y1="657.5" x2="252.2" y2="693.6"/>
						<line class="st1" x1="278.9" y1="658.7" x2="252.6" y2="687.6"/>
						<line class="st1" x1="272.7" y1="659.9" x2="252.9" y2="681.5"/>
						<line class="st1" x1="266.5" y1="661.1" x2="253.3" y2="675.5"/>
					</g>
					<g class="st3">
						<line class="st1" x1="187.6" y1="747.7" x2="95.6" y2="848.7"/>
						<line class="st1" x1="181.4" y1="748.8" x2="96" y2="842.6"/>
					</g>
					<g class="st3">
						<line class="st1" x1="261.9" y1="733.6" x2="169.8" y2="834.6"/>
						<line class="st1" x1="255.7" y1="734.8" x2="170.2" y2="828.6"/>
						<line class="st1" x1="249.5" y1="735.9" x2="170.6" y2="822.5"/>
						<line class="st1" x1="243.3" y1="737.1" x2="171" y2="816.5"/>
						<line class="st1" x1="237.1" y1="738.3" x2="171.4" y2="810.4"/>
						<line class="st1" x1="230.9" y1="739.4" x2="171.8" y2="804.4"/>
						<line class="st1" x1="224.7" y1="740.6" x2="172.2" y2="798.4"/>
						<line class="st1" x1="218.5" y1="741.8" x2="172.5" y2="792.3"/>
						<line class="st1" x1="212.4" y1="743" x2="172.9" y2="786.3"/>
						<line class="st1" x1="206.2" y1="744.1" x2="173.3" y2="780.2"/>
						<line class="st1" x1="200" y1="745.3" x2="173.7" y2="774.2"/>
						<line class="st1" x1="193.8" y1="746.5" x2="174.1" y2="768.1"/>
						<line class="st1" x1="187.6" y1="747.7" x2="174.5" y2="762.1"/>
					</g>
					<g class="st3">
						<line class="st1" x1="336.1" y1="719.5" x2="244.1" y2="820.6"/>
						<line class="st1" x1="329.9" y1="720.7" x2="244.5" y2="814.5"/>
						<line class="st1" x1="323.7" y1="721.9" x2="244.8" y2="808.5"/>
						<line class="st1" x1="317.5" y1="723" x2="245.2" y2="802.4"/>
						<line class="st1" x1="311.3" y1="724.2" x2="245.6" y2="796.4"/>
						<line class="st1" x1="305.2" y1="725.4" x2="246" y2="790.3"/>
						<line class="st1" x1="299" y1="726.6" x2="246.4" y2="784.3"/>
						<line class="st1" x1="292.8" y1="727.7" x2="246.8" y2="778.2"/>
						<line class="st1" x1="286.6" y1="728.9" x2="247.2" y2="772.2"/>
						<line class="st1" x1="280.4" y1="730.1" x2="247.5" y2="766.2"/>
						<line class="st1" x1="274.2" y1="731.2" x2="247.9" y2="760.1"/>
						<line class="st1" x1="268" y1="732.4" x2="248.3" y2="754.1"/>
						<line class="st1" x1="261.9" y1="733.6" x2="248.7" y2="748"/>
					</g>
					<use xlink:href="#SVGID_3_"  style="overflow:visible;fill:none;stroke:#000000;stroke-miterlimit:10;"/>
				</g>
			</g>
			<g class="st2">
				<g>
					<defs>
						<rect id="SVGID_5_" x="187.7" y="601.8" width="72" height="72"/>
					</defs>
					<use xlink:href="#SVGID_5_"  style="overflow:visible;fill:#FFFFFF;"/>
					<clipPath id="SVGID_6_">
						<use xlink:href="#SVGID_5_"  style="overflow:visible;"/>
					</clipPath>
					<g class="st4">
						<line class="st1" x1="197.3" y1="596.5" x2="177.5" y2="618.2"/>
						<line class="st1" x1="197.6" y1="590.5" x2="171.3" y2="619.4"/>
						<line class="st1" x1="198" y1="584.5" x2="165.2" y2="620.5"/>
						<line class="st1" x1="198.4" y1="578.4" x2="159" y2="621.7"/>
						<line class="st1" x1="198.8" y1="572.4" x2="152.8" y2="622.9"/>
						<line class="st1" x1="199.2" y1="566.3" x2="146.6" y2="624.1"/>
						<line class="st1" x1="199.6" y1="560.3" x2="140.4" y2="625.2"/>
						<line class="st1" x1="200" y1="554.2" x2="134.2" y2="626.4"/>
						<line class="st1" x1="200.3" y1="548.2" x2="128" y2="627.6"/>
						<line class="st1" x1="200.7" y1="542.1" x2="121.9" y2="628.7"/>
						<line class="st1" x1="201.1" y1="536.1" x2="115.7" y2="629.9"/>
						<line class="st1" x1="201.5" y1="530.1" x2="109.5" y2="631.1"/>
						<line class="st1" x1="195.3" y1="531.2" x2="109.9" y2="625.1"/>
					</g>
					<g class="st4">
						<line class="st1" x1="271.5" y1="582.5" x2="251.8" y2="604.1"/>
						<line class="st1" x1="271.9" y1="576.4" x2="245.6" y2="605.3"/>
						<line class="st1" x1="272.3" y1="570.4" x2="239.4" y2="606.5"/>
						<line class="st1" x1="272.6" y1="564.3" x2="233.2" y2="607.6"/>
						<line class="st1" x1="273" y1="558.3" x2="227" y2="608.8"/>
						<line class="st1" x1="273.4" y1="552.3" x2="220.8" y2="610"/>
						<line class="st1" x1="273.8" y1="546.2" x2="214.7" y2="611.2"/>
						<line class="st1" x1="274.2" y1="540.2" x2="208.5" y2="612.3"/>
						<line class="st1" x1="274.6" y1="534.1" x2="202.3" y2="613.5"/>
						<line class="st1" x1="275" y1="528.1" x2="196.1" y2="614.7"/>
						<line class="st1" x1="275.3" y1="522" x2="189.9" y2="615.9"/>
						<line class="st1" x1="275.7" y1="516" x2="183.7" y2="617"/>
						<line class="st1" x1="269.5" y1="517.2" x2="184.1" y2="611"/>
					</g>
					<g class="st4">
						<line class="st1" x1="350" y1="501.9" x2="258" y2="603"/>
						<line class="st1" x1="343.8" y1="503.1" x2="258.3" y2="596.9"/>
					</g>
					<g class="st4">
						<line class="st1" x1="192.6" y1="669.1" x2="172.9" y2="690.7"/>
						<line class="st1" x1="193" y1="663" x2="166.7" y2="691.9"/>
						<line class="st1" x1="193.4" y1="657" x2="160.5" y2="693.1"/>
						<line class="st1" x1="193.8" y1="650.9" x2="154.3" y2="694.2"/>
						<line class="st1" x1="194.2" y1="644.9" x2="148.2" y2="695.4"/>
						<line class="st1" x1="194.6" y1="638.9" x2="142" y2="696.6"/>
						<line class="st1" x1="194.9" y1="632.8" x2="135.8" y2="697.8"/>
						<line class="st1" x1="195.3" y1="626.8" x2="129.6" y2="698.9"/>
						<line class="st1" x1="195.7" y1="620.7" x2="123.4" y2="700.1"/>
						<line class="st1" x1="196.1" y1="614.7" x2="117.2" y2="701.3"/>
						<line class="st1" x1="196.5" y1="608.6" x2="111" y2="702.5"/>
						<line class="st1" x1="196.9" y1="602.6" x2="104.9" y2="703.6"/>
						<line class="st1" x1="190.7" y1="603.8" x2="105.2" y2="697.6"/>
					</g>
					<g class="st4">
						<line class="st1" x1="266.9" y1="655" x2="247.1" y2="676.7"/>
						<line class="st1" x1="267.2" y1="649" x2="241" y2="677.8"/>
						<line class="st1" x1="267.6" y1="642.9" x2="234.8" y2="679"/>
						<line class="st1" x1="268" y1="636.9" x2="228.6" y2="680.2"/>
						<line class="st1" x1="268.4" y1="630.8" x2="222.4" y2="681.3"/>
						<line class="st1" x1="268.8" y1="624.8" x2="216.2" y2="682.5"/>
						<line class="st1" x1="269.2" y1="618.7" x2="210" y2="683.7"/>
						<line class="st1" x1="269.6" y1="612.7" x2="203.8" y2="684.9"/>
						<line class="st1" x1="269.9" y1="606.7" x2="197.7" y2="686"/>
						<line class="st1" x1="270.3" y1="600.6" x2="191.5" y2="687.2"/>
						<line class="st1" x1="270.7" y1="594.6" x2="185.3" y2="688.4"/>
						<line class="st1" x1="271.1" y1="588.5" x2="179.1" y2="689.6"/>
						<line class="st1" x1="264.9" y1="589.7" x2="179.5" y2="683.5"/>
						<line class="st1" x1="258.7" y1="590.9" x2="179.9" y2="677.5"/>
						<line class="st1" x1="252.5" y1="592" x2="180.3" y2="671.4"/>
						<line class="st1" x1="246.4" y1="593.2" x2="180.6" y2="665.4"/>
						<line class="st1" x1="240.2" y1="594.4" x2="181" y2="659.3"/>
						<line class="st1" x1="234" y1="595.6" x2="181.4" y2="653.3"/>
						<line class="st1" x1="227.8" y1="596.7" x2="181.8" y2="647.2"/>
						<line class="st1" x1="221.6" y1="597.9" x2="182.2" y2="641.2"/>
						<line class="st1" x1="215.4" y1="599.1" x2="182.6" y2="635.2"/>
						<line class="st1" x1="209.2" y1="600.2" x2="182.9" y2="629.1"/>
						<line class="st1" x1="203.1" y1="601.4" x2="183.3" y2="623.1"/>
						<line class="st1" x1="196.9" y1="602.6" x2="183.7" y2="617"/>
					</g>
					<g class="st4">
						<line class="st1" x1="345.3" y1="574.4" x2="253.3" y2="675.5"/>
						<line class="st1" x1="339.2" y1="575.6" x2="253.7" y2="669.4"/>
						<line class="st1" x1="333" y1="576.8" x2="254.1" y2="663.4"/>
						<line class="st1" x1="326.8" y1="578" x2="254.5" y2="657.4"/>
						<line class="st1" x1="320.6" y1="579.1" x2="254.9" y2="651.3"/>
						<line class="st1" x1="314.4" y1="580.3" x2="255.3" y2="645.3"/>
						<line class="st1" x1="308.2" y1="581.5" x2="255.6" y2="639.2"/>
						<line class="st1" x1="302" y1="582.7" x2="256" y2="633.2"/>
						<line class="st1" x1="295.9" y1="583.8" x2="256.4" y2="627.1"/>
						<line class="st1" x1="289.7" y1="585" x2="256.8" y2="621.1"/>
						<line class="st1" x1="283.5" y1="586.2" x2="257.2" y2="615"/>
						<line class="st1" x1="277.3" y1="587.3" x2="257.6" y2="609"/>
						<line class="st1" x1="271.1" y1="588.5" x2="258" y2="603"/>
					</g>
					<g class="st4">
						<line class="st1" x1="192.2" y1="675.1" x2="100.2" y2="776.2"/>
						<line class="st1" x1="186.1" y1="676.3" x2="100.6" y2="770.1"/>
					</g>
					<g class="st4">
						<line class="st1" x1="266.5" y1="661.1" x2="174.5" y2="762.1"/>
						<line class="st1" x1="260.3" y1="662.2" x2="174.9" y2="756"/>
						<line class="st1" x1="254.1" y1="663.4" x2="175.2" y2="750"/>
						<line class="st1" x1="247.9" y1="664.6" x2="175.6" y2="744"/>
						<line class="st1" x1="241.7" y1="665.7" x2="176" y2="737.9"/>
						<line class="st1" x1="235.5" y1="666.9" x2="176.4" y2="731.9"/>
						<line class="st1" x1="229.4" y1="668.1" x2="176.8" y2="725.8"/>
						<line class="st1" x1="223.2" y1="669.3" x2="177.2" y2="719.8"/>
						<line class="st1" x1="217" y1="670.4" x2="177.6" y2="713.7"/>
						<line class="st1" x1="210.8" y1="671.6" x2="177.9" y2="707.7"/>
						<line class="st1" x1="204.6" y1="672.8" x2="178.3" y2="701.6"/>
						<line class="st1" x1="198.4" y1="674" x2="178.7" y2="695.6"/>
						<line class="st1" x1="192.2" y1="675.1" x2="179.1" y2="689.6"/>
					</g>
					<g class="st4">
						<line class="st1" x1="340.7" y1="647" x2="248.7" y2="748"/>
						<line class="st1" x1="334.5" y1="648.2" x2="249.1" y2="742"/>
						<line class="st1" x1="328.3" y1="649.3" x2="249.5" y2="735.9"/>
						<line class="st1" x1="322.2" y1="650.5" x2="249.9" y2="729.9"/>
						<line class="st1" x1="316" y1="651.7" x2="250.2" y2="723.8"/>
						<line class="st1" x1="309.8" y1="652.8" x2="250.6" y2="717.8"/>
						<line class="st1" x1="303.6" y1="654" x2="251" y2="711.8"/>
						<line class="st1" x1="297.4" y1="655.2" x2="251.4" y2="705.7"/>
						<line class="st1" x1="291.2" y1="656.4" x2="251.8" y2="699.7"/>
						<line class="st1" x1="285" y1="657.5" x2="252.2" y2="693.6"/>
						<line class="st1" x1="278.9" y1="658.7" x2="252.6" y2="687.6"/>
						<line class="st1" x1="272.7" y1="659.9" x2="252.9" y2="681.5"/>
						<line class="st1" x1="266.5" y1="661.1" x2="253.3" y2="675.5"/>
					</g>
					<use xlink:href="#SVGID_5_"  style="overflow:visible;fill:none;stroke:#000000;stroke-miterlimit:10;"/>
				</g>
			</g>
			<use xlink:href="#SVGID_1_"  style="overflow:visible;fill:none;stroke:#000000;stroke-miterlimit:10;"/>
		</g>
		<path class="st1" d="M230.4,668l2.3,2.3l2.2-2.2l-2.3,7.9L230.4,668z M232.7,670.6l-1.7-1.7l1.7,6.1l1.8-6.2L232.7,670.6z"/>
	</g>
	<g id="path245">
		<g>
			<defs>
				<path id="SVGID_7_" d="M232.7,674.5"/>
			</defs>
			<use xlink:href="#SVGID_7_"  style="overflow:visible;fill:#FFFFFF;"/>
			<clipPath id="SVGID_8_">
				<use xlink:href="#SVGID_7_"  style="overflow:visible;"/>
			</clipPath>
			<g class="st5">
				<g>
					<defs>
						<rect id="SVGID_9_" x="183" y="674.4" width="72" height="72"/>
					</defs>
					<use xlink:href="#SVGID_9_"  style="overflow:visible;fill:#FFFFFF;"/>
					<clipPath id="SVGID_10_">
						<use xlink:href="#SVGID_9_"  style="overflow:visible;"/>
					</clipPath>
					<g class="st6">
						<line class="st1" x1="192.6" y1="669.1" x2="172.9" y2="690.7"/>
						<line class="st1" x1="193" y1="663" x2="166.7" y2="691.9"/>
						<line class="st1" x1="193.4" y1="657" x2="160.5" y2="693.1"/>
						<line class="st1" x1="193.8" y1="650.9" x2="154.3" y2="694.2"/>
						<line class="st1" x1="194.2" y1="644.9" x2="148.2" y2="695.4"/>
						<line class="st1" x1="194.6" y1="638.9" x2="142" y2="696.6"/>
						<line class="st1" x1="194.9" y1="632.8" x2="135.8" y2="697.8"/>
						<line class="st1" x1="195.3" y1="626.8" x2="129.6" y2="698.9"/>
						<line class="st1" x1="195.7" y1="620.7" x2="123.4" y2="700.1"/>
						<line class="st1" x1="196.1" y1="614.7" x2="117.2" y2="701.3"/>
						<line class="st1" x1="196.5" y1="608.6" x2="111" y2="702.5"/>
						<line class="st1" x1="196.9" y1="602.6" x2="104.9" y2="703.6"/>
						<line class="st1" x1="190.7" y1="603.8" x2="105.2" y2="697.6"/>
					</g>
					<g class="st6">
						<line class="st1" x1="266.9" y1="655" x2="247.1" y2="676.7"/>
						<line class="st1" x1="267.2" y1="649" x2="241" y2="677.8"/>
						<line class="st1" x1="267.6" y1="642.9" x2="234.8" y2="679"/>
						<line class="st1" x1="268" y1="636.9" x2="228.6" y2="680.2"/>
						<line class="st1" x1="268.4" y1="630.8" x2="222.4" y2="681.3"/>
						<line class="st1" x1="268.8" y1="624.8" x2="216.2" y2="682.5"/>
						<line class="st1" x1="269.2" y1="618.7" x2="210" y2="683.7"/>
						<line class="st1" x1="269.6" y1="612.7" x2="203.8" y2="684.9"/>
						<line class="st1" x1="269.9" y1="606.7" x2="197.7" y2="686"/>
						<line class="st1" x1="270.3" y1="600.6" x2="191.5" y2="687.2"/>
						<line class="st1" x1="270.7" y1="594.6" x2="185.3" y2="688.4"/>
						<line class="st1" x1="271.1" y1="588.5" x2="179.1" y2="689.6"/>
						<line class="st1" x1="264.9" y1="589.7" x2="179.5" y2="683.5"/>
					</g>
					<g class="st6">
						<line class="st1" x1="345.3" y1="574.4" x2="253.3" y2="675.5"/>
						<line class="st1" x1="339.2" y1="575.6" x2="253.7" y2="669.4"/>
					</g>
					<g class="st6">
						<line class="st1" x1="188" y1="741.6" x2="168.3" y2="763.3"/>
						<line class="st1" x1="188.4" y1="735.6" x2="162.1" y2="764.4"/>
						<line class="st1" x1="188.8" y1="729.5" x2="155.9" y2="765.6"/>
						<line class="st1" x1="189.2" y1="723.5" x2="149.7" y2="766.8"/>
						<line class="st1" x1="189.5" y1="717.4" x2="143.5" y2="768"/>
						<line class="st1" x1="189.9" y1="711.4" x2="137.3" y2="769.1"/>
						<line class="st1" x1="190.3" y1="705.3" x2="131.2" y2="770.3"/>
						<line class="st1" x1="190.7" y1="699.3" x2="125" y2="771.5"/>
						<line class="st1" x1="191.1" y1="693.3" x2="118.8" y2="772.6"/>
						<line class="st1" x1="191.5" y1="687.2" x2="112.6" y2="773.8"/>
						<line class="st1" x1="191.9" y1="681.2" x2="106.4" y2="775"/>
						<line class="st1" x1="192.2" y1="675.1" x2="100.2" y2="776.2"/>
						<line class="st1" x1="186.1" y1="676.3" x2="100.6" y2="770.1"/>
					</g>
					<g class="st6">
						<line class="st1" x1="262.2" y1="727.5" x2="242.5" y2="749.2"/>
						<line class="st1" x1="262.6" y1="721.5" x2="236.3" y2="750.4"/>
						<line class="st1" x1="263" y1="715.5" x2="230.1" y2="751.5"/>
						<line class="st1" x1="263.4" y1="709.4" x2="224" y2="752.7"/>
						<line class="st1" x1="263.8" y1="703.4" x2="217.8" y2="753.9"/>
						<line class="st1" x1="264.2" y1="697.3" x2="211.6" y2="755.1"/>
						<line class="st1" x1="264.6" y1="691.3" x2="205.4" y2="756.2"/>
						<line class="st1" x1="264.9" y1="685.2" x2="199.2" y2="757.4"/>
						<line class="st1" x1="265.3" y1="679.2" x2="193" y2="758.6"/>
						<line class="st1" x1="265.7" y1="673.1" x2="186.8" y2="759.7"/>
						<line class="st1" x1="266.1" y1="667.1" x2="180.7" y2="760.9"/>
						<line class="st1" x1="266.5" y1="661.1" x2="174.5" y2="762.1"/>
						<line class="st1" x1="260.3" y1="662.2" x2="174.9" y2="756"/>
						<line class="st1" x1="254.1" y1="663.4" x2="175.2" y2="750"/>
						<line class="st1" x1="247.9" y1="664.6" x2="175.6" y2="744"/>
						<line class="st1" x1="241.7" y1="665.7" x2="176" y2="737.9"/>
						<line class="st1" x1="235.5" y1="666.9" x2="176.4" y2="731.9"/>
						<line class="st1" x1="229.4" y1="668.1" x2="176.8" y2="725.8"/>
						<line class="st1" x1="223.2" y1="669.3" x2="177.2" y2="719.8"/>
						<line class="st1" x1="217" y1="670.4" x2="177.6" y2="713.7"/>
						<line class="st1" x1="210.8" y1="671.6" x2="177.9" y2="707.7"/>
						<line class="st1" x1="204.6" y1="672.8" x2="178.3" y2="701.6"/>
						<line class="st1" x1="198.4" y1="674" x2="178.7" y2="695.6"/>
						<line class="st1" x1="192.2" y1="675.1" x2="179.1" y2="689.6"/>
					</g>
					<g class="st6">
						<line class="st1" x1="340.7" y1="647" x2="248.7" y2="748"/>
						<line class="st1" x1="334.5" y1="648.2" x2="249.1" y2="742"/>
						<line class="st1" x1="328.3" y1="649.3" x2="249.5" y2="735.9"/>
						<line class="st1" x1="322.2" y1="650.5" x2="249.9" y2="729.9"/>
						<line class="st1" x1="316" y1="651.7" x2="250.2" y2="723.8"/>
						<line class="st1" x1="309.8" y1="652.8" x2="250.6" y2="717.8"/>
						<line class="st1" x1="303.6" y1="654" x2="251" y2="711.8"/>
						<line class="st1" x1="297.4" y1="655.2" x2="251.4" y2="705.7"/>
						<line class="st1" x1="291.2" y1="656.4" x2="251.8" y2="699.7"/>
						<line class="st1" x1="285" y1="657.5" x2="252.2" y2="693.6"/>
						<line class="st1" x1="278.9" y1="658.7" x2="252.6" y2="687.6"/>
						<line class="st1" x1="272.7" y1="659.9" x2="252.9" y2="681.5"/>
						<line class="st1" x1="266.5" y1="661.1" x2="253.3" y2="675.5"/>
					</g>
					<g class="st6">
						<line class="st1" x1="187.6" y1="747.7" x2="95.6" y2="848.7"/>
						<line class="st1" x1="181.4" y1="748.8" x2="96" y2="842.6"/>
					</g>
					<g class="st6">
						<line class="st1" x1="261.9" y1="733.6" x2="169.8" y2="834.6"/>
						<line class="st1" x1="255.7" y1="734.8" x2="170.2" y2="828.6"/>
						<line class="st1" x1="249.5" y1="735.9" x2="170.6" y2="822.5"/>
						<line class="st1" x1="243.3" y1="737.1" x2="171" y2="816.5"/>
						<line class="st1" x1="237.1" y1="738.3" x2="171.4" y2="810.4"/>
						<line class="st1" x1="230.9" y1="739.4" x2="171.8" y2="804.4"/>
						<line class="st1" x1="224.7" y1="740.6" x2="172.2" y2="798.4"/>
						<line class="st1" x1="218.5" y1="741.8" x2="172.5" y2="792.3"/>
						<line class="st1" x1="212.4" y1="743" x2="172.9" y2="786.3"/>
						<line class="st1" x1="206.2" y1="744.1" x2="173.3" y2="780.2"/>
						<line class="st1" x1="200" y1="745.3" x2="173.7" y2="774.2"/>
						<line class="st1" x1="193.8" y1="746.5" x2="174.1" y2="768.1"/>
						<line class="st1" x1="187.6" y1="747.7" x2="174.5" y2="762.1"/>
					</g>
					<g class="st6">
						<line class="st1" x1="336.1" y1="719.5" x2="244.1" y2="820.6"/>
						<line class="st1" x1="329.9" y1="720.7" x2="244.5" y2="814.5"/>
						<line class="st1" x1="323.7" y1="721.9" x2="244.8" y2="808.5"/>
						<line class="st1" x1="317.5" y1="723" x2="245.2" y2="802.4"/>
						<line class="st1" x1="311.3" y1="724.2" x2="245.6" y2="796.4"/>
						<line class="st1" x1="305.2" y1="725.4" x2="246" y2="790.3"/>
						<line class="st1" x1="299" y1="726.6" x2="246.4" y2="784.3"/>
						<line class="st1" x1="292.8" y1="727.7" x2="246.8" y2="778.2"/>
						<line class="st1" x1="286.6" y1="728.9" x2="247.2" y2="772.2"/>
						<line class="st1" x1="280.4" y1="730.1" x2="247.5" y2="766.2"/>
						<line class="st1" x1="274.2" y1="731.2" x2="247.9" y2="760.1"/>
						<line class="st1" x1="268" y1="732.4" x2="248.3" y2="754.1"/>
						<line class="st1" x1="261.9" y1="733.6" x2="248.7" y2="748"/>
					</g>
					<use xlink:href="#SVGID_9_"  style="overflow:visible;fill:none;stroke:#000000;stroke-miterlimit:10;"/>
				</g>
			</g>
			<use xlink:href="#SVGID_7_"  style="overflow:visible;fill:none;stroke:#000000;stroke-miterlimit:10;"/>
		</g>
		<path class="st1" d="M232.7,674.5"/>
	</g>
</g>
<g>
	<path class="st1" d=""/>
</g>
<g id="path249">
	<path class="st1" d="M410.4,132.6"/>
</g>
</svg>
