<?xml version="1.0" encoding="utf-8"?>
<!-- Generator: Adobe Illustrator 24.2.3, SVG Export Plug-In . SVG Version: 6.00 Build 0)  -->
<svg version="1.1"
	 id="svg261" inkscape:version="1.1 (c68e22c387, 2021-05-23)" sodipodi:docname="electro-magnetic-field-prop.svg" xmlns:inkscape="http://www.inkscape.org/namespaces/inkscape" xmlns:sodipodi="http://sodipodi.sourceforge.net/DTD/sodipodi-0.dtd" xmlns:svg="http://www.w3.org/2000/svg"
	 xmlns="http://www.w3.org/2000/svg" xmlns:xlink="http://www.w3.org/1999/xlink" x="0px" y="0px" viewBox="0 0 414.3 169.6"
	 style="enable-background:new 0 0 414.3 169.6;" xml:space="preserve">
<style type="text/css">
	.st0{fill:none;}
	.st1{fill:none;stroke:#1D1D1B;stroke-width:0.3;stroke-linejoin:round;}
	.st2{fill:none;stroke:#1D1D1B;stroke-width:0.3;stroke-linecap:square;}
	.st3{fill:url(#USGS_8_Sewage_Disposal);stroke:#000000;stroke-width:0.25;stroke-miterlimit:10;}
	.st4{fill:url(#Diagonal_Lines);stroke:#000000;stroke-width:0.25;stroke-miterlimit:10;}
	.st5{fill:#009100;stroke:#009100;stroke-width:0.25;}
</style>
<pattern  y="169.6" width="72" height="72" patternUnits="userSpaceOnUse" id="Diagonal_Lines" viewBox="79.6 -148.6 72 72" style="overflow:visible;">
	<g>
		<rect x="79.6" y="-148.6" class="st0" width="72" height="72"/>
		<g>
			<line class="st1" x1="144.1" y1="-66.1" x2="162.1" y2="-84.1"/>
			<line class="st1" x1="144.1" y1="-60.1" x2="168.1" y2="-84.1"/>
			<line class="st1" x1="144.1" y1="-54.1" x2="174.1" y2="-84.1"/>
			<line class="st1" x1="144.1" y1="-48.1" x2="180.1" y2="-84.1"/>
			<line class="st1" x1="144.1" y1="-42.1" x2="186.1" y2="-84.1"/>
			<line class="st1" x1="144.1" y1="-36.1" x2="192.1" y2="-84.1"/>
			<line class="st1" x1="144.1" y1="-30.1" x2="198.1" y2="-84.1"/>
			<line class="st1" x1="144.1" y1="-24.1" x2="204.1" y2="-84.1"/>
			<line class="st1" x1="144.1" y1="-18.1" x2="210.1" y2="-84.1"/>
			<line class="st1" x1="144.1" y1="-12.1" x2="216.1" y2="-84.1"/>
			<line class="st1" x1="144.1" y1="-6.1" x2="222.1" y2="-84.1"/>
			<line class="st1" x1="144.1" y1="-0.1" x2="228.1" y2="-84.1"/>
			<line class="st1" x1="150.1" y1="-0.1" x2="228.1" y2="-78.1"/>
		</g>
		<g>
			<line class="st1" x1="72.1" y1="-66.1" x2="90.1" y2="-84.1"/>
			<line class="st1" x1="72.1" y1="-60.1" x2="96.1" y2="-84.1"/>
			<line class="st1" x1="72.1" y1="-54.1" x2="102.1" y2="-84.1"/>
			<line class="st1" x1="72.1" y1="-48.1" x2="108.1" y2="-84.1"/>
			<line class="st1" x1="72.1" y1="-42.1" x2="114.1" y2="-84.1"/>
			<line class="st1" x1="72.1" y1="-36.1" x2="120.1" y2="-84.1"/>
			<line class="st1" x1="72.1" y1="-30.1" x2="126.1" y2="-84.1"/>
			<line class="st1" x1="72.1" y1="-24.1" x2="132.1" y2="-84.1"/>
			<line class="st1" x1="72.1" y1="-18.1" x2="138.1" y2="-84.1"/>
			<line class="st1" x1="72.1" y1="-12.1" x2="144.1" y2="-84.1"/>
			<line class="st1" x1="72.1" y1="-6.1" x2="150.1" y2="-84.1"/>
			<line class="st1" x1="72.1" y1="-0.1" x2="156.1" y2="-84.1"/>
			<line class="st1" x1="78.1" y1="-0.1" x2="156.1" y2="-78.1"/>
		</g>
		<g>
			<line class="st1" x1="0.1" y1="-0.1" x2="84.1" y2="-84.1"/>
			<line class="st1" x1="6.1" y1="-0.1" x2="84.1" y2="-78.1"/>
		</g>
		<g>
			<line class="st1" x1="144.1" y1="-138.1" x2="162.1" y2="-156.1"/>
			<line class="st1" x1="144.1" y1="-132.1" x2="168.1" y2="-156.1"/>
			<line class="st1" x1="144.1" y1="-126.1" x2="174.1" y2="-156.1"/>
			<line class="st1" x1="144.1" y1="-120.1" x2="180.1" y2="-156.1"/>
			<line class="st1" x1="144.1" y1="-114.1" x2="186.1" y2="-156.1"/>
			<line class="st1" x1="144.1" y1="-108.1" x2="192.1" y2="-156.1"/>
			<line class="st1" x1="144.1" y1="-102.1" x2="198.1" y2="-156.1"/>
			<line class="st1" x1="144.1" y1="-96.1" x2="204.1" y2="-156.1"/>
			<line class="st1" x1="144.1" y1="-90.1" x2="210.1" y2="-156.1"/>
			<line class="st1" x1="144.1" y1="-84.1" x2="216.1" y2="-156.1"/>
			<line class="st1" x1="144.1" y1="-78.1" x2="222.1" y2="-156.1"/>
			<line class="st1" x1="144.1" y1="-72.1" x2="228.1" y2="-156.1"/>
			<line class="st1" x1="150.1" y1="-72.1" x2="228.1" y2="-150.1"/>
		</g>
		<g>
			<line class="st1" x1="72.1" y1="-138.1" x2="90.1" y2="-156.1"/>
			<line class="st1" x1="72.1" y1="-132.1" x2="96.1" y2="-156.1"/>
			<line class="st1" x1="72.1" y1="-126.1" x2="102.1" y2="-156.1"/>
			<line class="st1" x1="72.1" y1="-120.1" x2="108.1" y2="-156.1"/>
			<line class="st1" x1="72.1" y1="-114.1" x2="114.1" y2="-156.1"/>
			<line class="st1" x1="72.1" y1="-108.1" x2="120.1" y2="-156.1"/>
			<line class="st1" x1="72.1" y1="-102.1" x2="126.1" y2="-156.1"/>
			<line class="st1" x1="72.1" y1="-96.1" x2="132.1" y2="-156.1"/>
			<line class="st1" x1="72.1" y1="-90.1" x2="138.1" y2="-156.1"/>
			<line class="st1" x1="72.1" y1="-84.1" x2="144.1" y2="-156.1"/>
			<line class="st1" x1="72.1" y1="-78.1" x2="150.1" y2="-156.1"/>
			<line class="st1" x1="72.1" y1="-72.1" x2="156.1" y2="-156.1"/>
			<line class="st1" x1="78.1" y1="-72.1" x2="156.1" y2="-150.1"/>
			<line class="st1" x1="84.1" y1="-72.1" x2="156.1" y2="-144.1"/>
			<line class="st1" x1="90.1" y1="-72.1" x2="156.1" y2="-138.1"/>
			<line class="st1" x1="96.1" y1="-72.1" x2="156.1" y2="-132.1"/>
			<line class="st1" x1="102.1" y1="-72.1" x2="156.1" y2="-126.1"/>
			<line class="st1" x1="108.1" y1="-72.1" x2="156.1" y2="-120.1"/>
			<line class="st1" x1="114.1" y1="-72.1" x2="156.1" y2="-114.1"/>
			<line class="st1" x1="120.1" y1="-72.1" x2="156.1" y2="-108.1"/>
			<line class="st1" x1="126.1" y1="-72.1" x2="156.1" y2="-102.1"/>
			<line class="st1" x1="132.1" y1="-72.1" x2="156.1" y2="-96.1"/>
			<line class="st1" x1="138.1" y1="-72.1" x2="156.1" y2="-90.1"/>
			<line class="st1" x1="144.1" y1="-72.1" x2="156.1" y2="-84.1"/>
		</g>
		<g>
			<line class="st1" x1="0.1" y1="-72.1" x2="84.1" y2="-156.1"/>
			<line class="st1" x1="6.1" y1="-72.1" x2="84.1" y2="-150.1"/>
			<line class="st1" x1="12.1" y1="-72.1" x2="84.1" y2="-144.1"/>
			<line class="st1" x1="18.1" y1="-72.1" x2="84.1" y2="-138.1"/>
			<line class="st1" x1="24.1" y1="-72.1" x2="84.1" y2="-132.1"/>
			<line class="st1" x1="30.1" y1="-72.1" x2="84.1" y2="-126.1"/>
			<line class="st1" x1="36.1" y1="-72.1" x2="84.1" y2="-120.1"/>
			<line class="st1" x1="42.1" y1="-72.1" x2="84.1" y2="-114.1"/>
			<line class="st1" x1="48.1" y1="-72.1" x2="84.1" y2="-108.1"/>
			<line class="st1" x1="54.1" y1="-72.1" x2="84.1" y2="-102.1"/>
			<line class="st1" x1="60.1" y1="-72.1" x2="84.1" y2="-96.1"/>
			<line class="st1" x1="66.1" y1="-72.1" x2="84.1" y2="-90.1"/>
			<line class="st1" x1="72.1" y1="-72.1" x2="84.1" y2="-84.1"/>
		</g>
		<g>
			<line class="st1" x1="144.1" y1="-144.1" x2="228.1" y2="-228.1"/>
			<line class="st1" x1="150.1" y1="-144.1" x2="228.1" y2="-222.1"/>
		</g>
		<g>
			<line class="st1" x1="72.1" y1="-144.1" x2="156.1" y2="-228.1"/>
			<line class="st1" x1="78.1" y1="-144.1" x2="156.1" y2="-222.1"/>
			<line class="st1" x1="84.1" y1="-144.1" x2="156.1" y2="-216.1"/>
			<line class="st1" x1="90.1" y1="-144.1" x2="156.1" y2="-210.1"/>
			<line class="st1" x1="96.1" y1="-144.1" x2="156.1" y2="-204.1"/>
			<line class="st1" x1="102.1" y1="-144.1" x2="156.1" y2="-198.1"/>
			<line class="st1" x1="108.1" y1="-144.1" x2="156.1" y2="-192.1"/>
			<line class="st1" x1="114.1" y1="-144.1" x2="156.1" y2="-186.1"/>
			<line class="st1" x1="120.1" y1="-144.1" x2="156.1" y2="-180.1"/>
			<line class="st1" x1="126.1" y1="-144.1" x2="156.1" y2="-174.1"/>
			<line class="st1" x1="132.1" y1="-144.1" x2="156.1" y2="-168.1"/>
			<line class="st1" x1="138.1" y1="-144.1" x2="156.1" y2="-162.1"/>
			<line class="st1" x1="144.1" y1="-144.1" x2="156.1" y2="-156.1"/>
		</g>
		<g>
			<line class="st1" x1="0.1" y1="-144.1" x2="84.1" y2="-228.1"/>
			<line class="st1" x1="6.1" y1="-144.1" x2="84.1" y2="-222.1"/>
			<line class="st1" x1="12.1" y1="-144.1" x2="84.1" y2="-216.1"/>
			<line class="st1" x1="18.1" y1="-144.1" x2="84.1" y2="-210.1"/>
			<line class="st1" x1="24.1" y1="-144.1" x2="84.1" y2="-204.1"/>
			<line class="st1" x1="30.1" y1="-144.1" x2="84.1" y2="-198.1"/>
			<line class="st1" x1="36.1" y1="-144.1" x2="84.1" y2="-192.1"/>
			<line class="st1" x1="42.1" y1="-144.1" x2="84.1" y2="-186.1"/>
			<line class="st1" x1="48.1" y1="-144.1" x2="84.1" y2="-180.1"/>
			<line class="st1" x1="54.1" y1="-144.1" x2="84.1" y2="-174.1"/>
			<line class="st1" x1="60.1" y1="-144.1" x2="84.1" y2="-168.1"/>
			<line class="st1" x1="66.1" y1="-144.1" x2="84.1" y2="-162.1"/>
			<line class="st1" x1="72.1" y1="-144.1" x2="84.1" y2="-156.1"/>
		</g>
	</g>
</pattern>
<pattern  y="169.6" width="72" height="74.8" patternUnits="userSpaceOnUse" id="USGS_8_Sewage_Disposal" viewBox="72.2 -74.8 72 74.8" style="overflow:visible;">
	<g>
		<rect x="72.2" y="-74.8" class="st0" width="72" height="74.8"/>
		<g>
			<line class="st2" x1="144.2" y1="-0.8" x2="216.2" y2="-0.8"/>
			<line class="st2" x1="144.2" y1="-2.5" x2="216.2" y2="-2.5"/>
			<line class="st2" x1="144.2" y1="-4.2" x2="216.2" y2="-4.2"/>
			<line class="st2" x1="144.2" y1="-6" x2="216.2" y2="-6"/>
			<line class="st2" x1="144.2" y1="-7.7" x2="216.2" y2="-7.7"/>
			<line class="st2" x1="144.2" y1="-9.3" x2="216.2" y2="-9.3"/>
			<line class="st2" x1="144.2" y1="-11" x2="216.2" y2="-11"/>
			<line class="st2" x1="144.2" y1="-12.8" x2="216.2" y2="-12.8"/>
			<line class="st2" x1="144.2" y1="-14.5" x2="216.2" y2="-14.5"/>
			<line class="st2" x1="144.2" y1="-16.2" x2="216.2" y2="-16.2"/>
			<line class="st2" x1="144.2" y1="-17.8" x2="216.2" y2="-17.8"/>
			<line class="st2" x1="144.2" y1="-19.5" x2="216.2" y2="-19.5"/>
			<line class="st2" x1="144.2" y1="-21.2" x2="216.2" y2="-21.2"/>
			<line class="st2" x1="144.2" y1="-22.9" x2="216.2" y2="-22.9"/>
			<line class="st2" x1="144.2" y1="-24.6" x2="216.2" y2="-24.6"/>
			<line class="st2" x1="144.2" y1="-26.3" x2="216.2" y2="-26.3"/>
			<line class="st2" x1="144.2" y1="-28" x2="216.2" y2="-28"/>
			<line class="st2" x1="144.2" y1="-29.7" x2="216.2" y2="-29.7"/>
			<line class="st2" x1="144.2" y1="-31.4" x2="216.2" y2="-31.4"/>
			<line class="st2" x1="144.2" y1="-33.1" x2="216.2" y2="-33.1"/>
			<line class="st2" x1="144.2" y1="-34.8" x2="216.2" y2="-34.8"/>
			<line class="st2" x1="144.2" y1="-36.5" x2="216.2" y2="-36.5"/>
			<line class="st2" x1="144.2" y1="-38.2" x2="216.2" y2="-38.2"/>
			<line class="st2" x1="144.2" y1="-39.9" x2="216.2" y2="-39.9"/>
			<line class="st2" x1="144.2" y1="-41.6" x2="216.2" y2="-41.6"/>
			<line class="st2" x1="144.2" y1="-43.3" x2="216.2" y2="-43.3"/>
			<line class="st2" x1="144.2" y1="-45" x2="216.2" y2="-45"/>
			<line class="st2" x1="144.2" y1="-46.7" x2="216.2" y2="-46.7"/>
			<line class="st2" x1="144.2" y1="-48.4" x2="216.2" y2="-48.4"/>
			<line class="st2" x1="144.2" y1="-50.1" x2="216.2" y2="-50.1"/>
			<line class="st2" x1="144.2" y1="-51.8" x2="216.2" y2="-51.8"/>
			<line class="st2" x1="144.2" y1="-53.5" x2="216.2" y2="-53.5"/>
			<line class="st2" x1="144.2" y1="-55.2" x2="216.2" y2="-55.2"/>
			<line class="st2" x1="144.2" y1="-56.9" x2="216.2" y2="-56.9"/>
			<line class="st2" x1="144.2" y1="-58.6" x2="216.2" y2="-58.6"/>
			<line class="st2" x1="144.2" y1="-60.3" x2="216.2" y2="-60.3"/>
			<line class="st2" x1="144.2" y1="-62" x2="216.2" y2="-62"/>
			<line class="st2" x1="144.2" y1="-63.7" x2="216.2" y2="-63.7"/>
			<line class="st2" x1="144.2" y1="-65.4" x2="216.2" y2="-65.4"/>
			<line class="st2" x1="144.2" y1="-67.1" x2="216.2" y2="-67.1"/>
			<line class="st2" x1="144.2" y1="-68.8" x2="216.2" y2="-68.8"/>
			<line class="st2" x1="144.2" y1="-70.5" x2="216.2" y2="-70.5"/>
			<line class="st2" x1="144.2" y1="-72.2" x2="216.2" y2="-72.2"/>
			<line class="st2" x1="144.2" y1="-73.9" x2="216.2" y2="-73.9"/>
		</g>
		<g>
			<line class="st2" x1="72.2" y1="-0.8" x2="144.2" y2="-0.8"/>
			<line class="st2" x1="72.2" y1="-2.5" x2="144.2" y2="-2.5"/>
			<line class="st2" x1="72.2" y1="-4.2" x2="144.2" y2="-4.2"/>
			<line class="st2" x1="72.2" y1="-6" x2="144.2" y2="-6"/>
			<line class="st2" x1="72.2" y1="-7.7" x2="144.2" y2="-7.7"/>
			<line class="st2" x1="72.2" y1="-9.3" x2="144.2" y2="-9.3"/>
			<line class="st2" x1="72.2" y1="-11" x2="144.2" y2="-11"/>
			<line class="st2" x1="72.2" y1="-12.8" x2="144.2" y2="-12.8"/>
			<line class="st2" x1="72.2" y1="-14.5" x2="144.2" y2="-14.5"/>
			<line class="st2" x1="72.2" y1="-16.2" x2="144.2" y2="-16.2"/>
			<line class="st2" x1="72.2" y1="-17.8" x2="144.2" y2="-17.8"/>
			<line class="st2" x1="72.2" y1="-19.5" x2="144.2" y2="-19.5"/>
			<line class="st2" x1="72.2" y1="-21.2" x2="144.2" y2="-21.2"/>
			<line class="st2" x1="72.2" y1="-22.9" x2="144.2" y2="-22.9"/>
			<line class="st2" x1="72.2" y1="-24.6" x2="144.2" y2="-24.6"/>
			<line class="st2" x1="72.2" y1="-26.3" x2="144.2" y2="-26.3"/>
			<line class="st2" x1="72.2" y1="-28" x2="144.2" y2="-28"/>
			<line class="st2" x1="72.2" y1="-29.7" x2="144.2" y2="-29.7"/>
			<line class="st2" x1="72.2" y1="-31.4" x2="144.2" y2="-31.4"/>
			<line class="st2" x1="72.2" y1="-33.1" x2="144.2" y2="-33.1"/>
			<line class="st2" x1="72.2" y1="-34.8" x2="144.2" y2="-34.8"/>
			<line class="st2" x1="72.2" y1="-36.5" x2="144.2" y2="-36.5"/>
			<line class="st2" x1="72.2" y1="-38.2" x2="144.2" y2="-38.2"/>
			<line class="st2" x1="72.2" y1="-39.9" x2="144.2" y2="-39.9"/>
			<line class="st2" x1="72.2" y1="-41.6" x2="144.2" y2="-41.6"/>
			<line class="st2" x1="72.2" y1="-43.3" x2="144.2" y2="-43.3"/>
			<line class="st2" x1="72.2" y1="-45" x2="144.2" y2="-45"/>
			<line class="st2" x1="72.2" y1="-46.7" x2="144.2" y2="-46.7"/>
			<line class="st2" x1="72.2" y1="-48.4" x2="144.2" y2="-48.4"/>
			<line class="st2" x1="72.2" y1="-50.1" x2="144.2" y2="-50.1"/>
			<line class="st2" x1="72.2" y1="-51.8" x2="144.2" y2="-51.8"/>
			<line class="st2" x1="72.2" y1="-53.5" x2="144.2" y2="-53.5"/>
			<line class="st2" x1="72.2" y1="-55.2" x2="144.2" y2="-55.2"/>
			<line class="st2" x1="72.2" y1="-56.9" x2="144.2" y2="-56.9"/>
			<line class="st2" x1="72.2" y1="-58.6" x2="144.2" y2="-58.6"/>
			<line class="st2" x1="72.2" y1="-60.3" x2="144.2" y2="-60.3"/>
			<line class="st2" x1="72.2" y1="-62" x2="144.2" y2="-62"/>
			<line class="st2" x1="72.2" y1="-63.7" x2="144.2" y2="-63.7"/>
			<line class="st2" x1="72.2" y1="-65.4" x2="144.2" y2="-65.4"/>
			<line class="st2" x1="72.2" y1="-67.1" x2="144.2" y2="-67.1"/>
			<line class="st2" x1="72.2" y1="-68.8" x2="144.2" y2="-68.8"/>
			<line class="st2" x1="72.2" y1="-70.5" x2="144.2" y2="-70.5"/>
			<line class="st2" x1="72.2" y1="-72.2" x2="144.2" y2="-72.2"/>
			<line class="st2" x1="72.2" y1="-73.9" x2="144.2" y2="-73.9"/>
		</g>
		<g>
			<line class="st2" x1="0.2" y1="-0.8" x2="72.2" y2="-0.8"/>
			<line class="st2" x1="0.2" y1="-2.5" x2="72.2" y2="-2.5"/>
			<line class="st2" x1="0.2" y1="-4.2" x2="72.2" y2="-4.2"/>
			<line class="st2" x1="0.2" y1="-6" x2="72.2" y2="-6"/>
			<line class="st2" x1="0.2" y1="-7.7" x2="72.2" y2="-7.7"/>
			<line class="st2" x1="0.2" y1="-9.3" x2="72.2" y2="-9.3"/>
			<line class="st2" x1="0.2" y1="-11" x2="72.2" y2="-11"/>
			<line class="st2" x1="0.2" y1="-12.8" x2="72.2" y2="-12.8"/>
			<line class="st2" x1="0.2" y1="-14.5" x2="72.2" y2="-14.5"/>
			<line class="st2" x1="0.2" y1="-16.2" x2="72.2" y2="-16.2"/>
			<line class="st2" x1="0.2" y1="-17.8" x2="72.2" y2="-17.8"/>
			<line class="st2" x1="0.2" y1="-19.5" x2="72.2" y2="-19.5"/>
			<line class="st2" x1="0.2" y1="-21.2" x2="72.2" y2="-21.2"/>
			<line class="st2" x1="0.2" y1="-22.9" x2="72.2" y2="-22.9"/>
			<line class="st2" x1="0.2" y1="-24.6" x2="72.2" y2="-24.6"/>
			<line class="st2" x1="0.2" y1="-26.3" x2="72.2" y2="-26.3"/>
			<line class="st2" x1="0.2" y1="-28" x2="72.2" y2="-28"/>
			<line class="st2" x1="0.2" y1="-29.7" x2="72.2" y2="-29.7"/>
			<line class="st2" x1="0.2" y1="-31.4" x2="72.2" y2="-31.4"/>
			<line class="st2" x1="0.2" y1="-33.1" x2="72.2" y2="-33.1"/>
			<line class="st2" x1="0.2" y1="-34.8" x2="72.2" y2="-34.8"/>
			<line class="st2" x1="0.2" y1="-36.5" x2="72.2" y2="-36.5"/>
			<line class="st2" x1="0.2" y1="-38.2" x2="72.2" y2="-38.2"/>
			<line class="st2" x1="0.2" y1="-39.9" x2="72.2" y2="-39.9"/>
			<line class="st2" x1="0.2" y1="-41.6" x2="72.2" y2="-41.6"/>
			<line class="st2" x1="0.2" y1="-43.3" x2="72.2" y2="-43.3"/>
			<line class="st2" x1="0.2" y1="-45" x2="72.2" y2="-45"/>
			<line class="st2" x1="0.2" y1="-46.7" x2="72.2" y2="-46.7"/>
			<line class="st2" x1="0.2" y1="-48.4" x2="72.2" y2="-48.4"/>
			<line class="st2" x1="0.2" y1="-50.1" x2="72.2" y2="-50.1"/>
			<line class="st2" x1="0.2" y1="-51.8" x2="72.2" y2="-51.8"/>
			<line class="st2" x1="0.2" y1="-53.5" x2="72.2" y2="-53.5"/>
			<line class="st2" x1="0.2" y1="-55.2" x2="72.2" y2="-55.2"/>
			<line class="st2" x1="0.2" y1="-56.9" x2="72.2" y2="-56.9"/>
			<line class="st2" x1="0.2" y1="-58.6" x2="72.2" y2="-58.6"/>
			<line class="st2" x1="0.2" y1="-60.3" x2="72.2" y2="-60.3"/>
			<line class="st2" x1="0.2" y1="-62" x2="72.2" y2="-62"/>
			<line class="st2" x1="0.2" y1="-63.7" x2="72.2" y2="-63.7"/>
			<line class="st2" x1="0.2" y1="-65.4" x2="72.2" y2="-65.4"/>
			<line class="st2" x1="0.2" y1="-67.1" x2="72.2" y2="-67.1"/>
			<line class="st2" x1="0.2" y1="-68.8" x2="72.2" y2="-68.8"/>
			<line class="st2" x1="0.2" y1="-70.5" x2="72.2" y2="-70.5"/>
			<line class="st2" x1="0.2" y1="-72.2" x2="72.2" y2="-72.2"/>
			<line class="st2" x1="0.2" y1="-73.9" x2="72.2" y2="-73.9"/>
		</g>
	</g>
</pattern>
<sodipodi:namedview  bordercolor="#666666" borderopacity="1.0" id="namedview263" inkscape:current-layer="svg261" inkscape:pagecheckerboard="0" inkscape:pageopacity="0.0" inkscape:pageshadow="2" pagecolor="#ffffff" showgrid="false">
	</sodipodi:namedview>
<g id="g67" transform="matrix(-0.9817,-0.19044,0.61282,-0.40671,155.219,432.789)">
	<g id="g51" transform="matrix(0.3282,0,0,0.38861,-336.4,523.16)">
		<path id="path49" class="st3" d="M1822,370.5c2.6,6.2,2.6,6.1,6,12.5c1.8,6.6,5.3,10.4,7,18c3.2,3.8,4.2,9.8,7,14
			c2.2,7,6,11.5,8,19c3.3,4.3,5.2,10.1,8,15c3,7.1,6.9,12.3,9,19c3.4,3.6,5.2,8.8,8,13c3.7,6.5,7.3,11.4,11,17c4,5.1,7,10.6,12,14
			c1.4,5.3,7.7,7.4,11,11c5.1,3.6,10.3,7,18,8c10.5,1,19-1.6,24-6c5.6-3.1,10.3-7.1,14-12c4.5-3.7,7.6-8.8,11-13
			c3.8-4.9,6.7-10.3,10-15c4.1-7.2,7.2-11.5,11-20c3.3-4.3,5.2-10.1,8-15c3-6.5,6.3-11.3,9-19c2.7-5.4,6-11.5,8-18
			c3.1-4.2,4.8-10.4,7-15c2.5-5.5,6.1-10,7.8-16.3c3.4-4.5,1.5-6.1,4.4-11"/>
	</g>
	<path class="st3" d=""/>
	<path id="path14" class="st3" d="M287.9,716.6l-2.8-2.8l2.8,9.7l2.8-9.7L287.9,716.6z"/>
	<path id="path53" class="st3" d="M287.9,722.2"/>
	<path class="st3" d=""/>
	<path id="path8" class="st3" d="M307.3,716.4l-2.8-2.8l2.8,9.7l2.8-9.7L307.3,716.4z"/>
	<path id="path55" class="st3" d="M307.3,722"/>
	<path class="st3" d=""/>
	<path id="path17" class="st3" d="M278.3,701.6l-2.8-2.8l2.8,9.7l2.8-9.7L278.3,701.6z"/>
	<path id="path57" class="st3" d="M278.3,707.2"/>
	<path class="st3" d=""/>
	<path id="path20" class="st3" d="M268.6,680.1l-2.8-2.8l2.8,9.7l2.8-9.7L268.6,680.1z"/>
	<path id="path59" class="st3" d="M268.6,685.7"/>
	<path class="st3" d=""/>
	<path id="path11" class="st3" d="M297.6,721.7l-2.8-2.8l2.8,9.7l2.8-9.7L297.6,721.7z"/>
	<path id="path61" class="st3" d="M297.6,727.3"/>
	<path class="st3" d=""/>
	<path id="path5" class="st3" d="M316.9,701.6l-2.8-2.8l2.8,9.7l2.8-9.7L316.9,701.6z"/>
	<path id="path63" class="st3" d="M316.9,707.2"/>
	<path class="st3" d=""/>
	<path id="path23" class="st3" d="M326.6,680l-2.8-2.8l2.8,9.7l2.8-9.7L326.6,680z"/>
	<path id="path65" class="st3" d="M326.6,685.6"/>
</g>
<g id="g87" transform="matrix(-0.9817,-0.19044,0.61282,-0.40671,12.749,405.389)">
	<g id="g71" transform="matrix(0.3282,0,0,0.38861,-336.4,523.16)">
		<path id="path69" class="st3" d="M1822,370.5c2.6,6.2,2.6,6.1,6,12.5c1.8,6.6,5.3,10.4,7,18c3.2,3.8,4.2,9.8,7,14
			c2.2,7,6,11.5,8,19c3.3,4.3,5.2,10.1,8,15c3,7.1,6.9,12.3,9,19c3.4,3.6,5.2,8.8,8,13c3.7,6.5,7.3,11.4,11,17c4,5.1,7,10.6,12,14
			c1.4,5.3,7.7,7.4,11,11c5.1,3.6,10.3,7,18,8c10.5,1,19-1.6,24-6c5.6-3.1,10.3-7.1,14-12c4.5-3.7,7.6-8.8,11-13
			c3.8-4.9,6.7-10.3,10-15c4.1-7.2,7.2-11.5,11-20c3.3-4.3,5.2-10.1,8-15c3-6.5,6.3-11.3,9-19c2.7-5.4,6-11.5,8-18
			c3.1-4.2,4.8-10.4,7-15c2.5-5.5,6.1-10,7.8-16.3c3.4-4.5,1.5-6.1,4.4-11"/>
	</g>
	<path class="st3" d=""/>
	<path id="path14_1_" class="st3" d="M287.9,716.6l-2.8-2.8l2.8,9.7l2.8-9.7L287.9,716.6z"/>
	<path id="path73" class="st3" d="M287.9,722.2"/>
	<path class="st3" d=""/>
	<path id="path8_1_" class="st3" d="M307.3,716.4l-2.8-2.8l2.8,9.7l2.8-9.7L307.3,716.4z"/>
	<path id="path75" class="st3" d="M307.3,722"/>
	<path class="st3" d=""/>
	<path id="path17_1_" class="st3" d="M278.3,701.6l-2.8-2.8l2.8,9.7l2.8-9.7L278.3,701.6z"/>
	<path id="path77" class="st3" d="M278.3,707.2"/>
	<path class="st3" d=""/>
	<path id="path20_1_" class="st3" d="M268.6,680.1l-2.8-2.8l2.8,9.7l2.8-9.7L268.6,680.1z"/>
	<path id="path79" class="st3" d="M268.6,685.7"/>
	<path class="st3" d=""/>
	<path id="path11_1_" class="st3" d="M297.6,721.7l-2.8-2.8l2.8,9.7l2.8-9.7L297.6,721.7z"/>
	<path id="path81" class="st3" d="M297.6,727.3"/>
	<path class="st3" d=""/>
	<path id="path5_1_" class="st3" d="M316.9,701.6l-2.8-2.8l2.8,9.7l2.8-9.7L316.9,701.6z"/>
	<path id="path83" class="st3" d="M316.9,707.2"/>
	<path class="st3" d=""/>
	<path id="path23_1_" class="st3" d="M326.6,680l-2.8-2.8l2.8,9.7l2.8-9.7L326.6,680z"/>
	<path id="path85" class="st3" d="M326.6,685.6"/>
</g>
<g id="g107" transform="matrix(0.9817,0.19044,-0.61282,0.40671,176.509,-263.441)">
	<g id="g91" transform="matrix(0.3282,0,0,0.38861,-336.4,523.16)">
		<path id="path89" class="st3" d="M1822,370.5c2.6,6.2,2.6,6.1,6,12.5c1.8,6.6,5.3,10.4,7,18c3.2,3.8,4.2,9.8,7,14
			c2.2,7,6,11.5,8,19c3.3,4.3,5.2,10.1,8,15c3,7.1,6.9,12.3,9,19c3.4,3.6,5.2,8.8,8,13c3.7,6.5,7.3,11.4,11,17c4,5.1,7,10.6,12,14
			c1.4,5.3,7.7,7.4,11,11c5.1,3.6,10.3,7,18,8c10.5,1,19-1.6,24-6c5.6-3.1,10.3-7.1,14-12c4.5-3.7,7.6-8.8,11-13
			c3.8-4.9,6.7-10.3,10-15c4.1-7.2,7.2-11.5,11-20c3.3-4.3,5.2-10.1,8-15c3-6.5,6.3-11.3,9-19c2.7-5.4,6-11.5,8-18
			c3.1-4.2,4.8-10.4,7-15c2.5-5.5,6.1-10,7.8-16.3c3.4-4.5,1.5-6.1,4.4-11"/>
	</g>
	<path class="st3" d=""/>
	<path id="path14_2_" class="st3" d="M287.9,716.6l-2.8-2.8l2.8,9.7l2.8-9.7L287.9,716.6z"/>
	<path id="path93" class="st3" d="M287.9,722.2"/>
	<path class="st3" d=""/>
	<path id="path8_2_" class="st3" d="M307.3,716.4l-2.8-2.8l2.8,9.7l2.8-9.7L307.3,716.4z"/>
	<path id="path95" class="st3" d="M307.3,722"/>
	<path class="st3" d=""/>
	<path id="path17_2_" class="st3" d="M278.3,701.6l-2.8-2.8l2.8,9.7l2.8-9.7L278.3,701.6z"/>
	<path id="path97" class="st3" d="M278.3,707.2"/>
	<path class="st3" d=""/>
	<path id="path20_2_" class="st3" d="M268.6,680.1l-2.8-2.8l2.8,9.7l2.8-9.7L268.6,680.1z"/>
	<path id="path99" class="st3" d="M268.6,685.7"/>
	<path class="st3" d=""/>
	<path id="path11_2_" class="st3" d="M297.6,721.7l-2.8-2.8l2.8,9.7l2.8-9.7L297.6,721.7z"/>
	<path id="path101" class="st3" d="M297.6,727.3"/>
	<path class="st3" d=""/>
	<path id="path5_2_" class="st3" d="M316.9,701.6l-2.8-2.8l2.8,9.7l2.8-9.7L316.9,701.6z"/>
	<path id="path103" class="st3" d="M316.9,707.2"/>
	<path class="st3" d=""/>
	<path id="path23_2_" class="st3" d="M326.6,680l-2.8-2.8l2.8,9.7l2.8-9.7L326.6,680z"/>
	<path id="path105" class="st3" d="M326.6,685.6"/>
</g>
<g id="g127" transform="matrix(-0.9817,-0.19044,-0.06263,-1.0048,300.439,762.089)">
	<g id="g111" transform="matrix(0.3282,0,0,0.38861,-430.34,512.11)">
		<path id="path109" class="st4" d="M1822,370.5c2.6,6.2,2.6,6.1,6,12.5c1.8,6.6,5.3,10.4,7,18c3.2,3.8,4.2,9.8,7,14
			c2.2,7,6,11.5,8,19c3.3,4.3,5.2,10.1,8,15c3,7.1,6.9,12.3,9,19c3.4,3.6,5.2,8.8,8,13c3.7,6.5,7.3,11.4,11,17c4,5.1,7,10.6,12,14
			c1.4,5.3,7.7,7.4,11,11c5.1,3.6,10.3,7,18,8c10.5,1,19-1.6,24-6c5.6-3.1,10.3-7.1,14-12c4.5-3.7,7.6-8.8,11-13
			c3.8-4.9,6.7-10.3,10-15c4.1-7.2,7.2-11.5,11-20c3.3-4.3,5.2-10.1,8-15c3-6.5,6.3-11.3,9-19c2.7-5.4,6-11.5,8-18
			c3.1-4.2,4.8-10.4,7-15c2.5-5.5,6.1-10,7.8-16.3c3.4-4.5,1.5-6.1,4.4-11"/>
	</g>
	<path class="st4" d=""/>
	<path id="path35" class="st4" d="M194,707.2l-2-2l2,7.1l2-7.1L194,707.2z"/>
	<path id="path113" class="st4" d="M194,711.2"/>
	<path class="st4" d=""/>
	<path id="path41" class="st4" d="M213.3,706.9l-2-2l2,7.1l2-7.1L213.3,706.9z"/>
	<path id="path115" class="st4" d="M213.3,710.9"/>
	<path class="st4" d=""/>
	<path id="path32" class="st4" d="M184.3,692.1l-2-2l2,7.1l2-7.1L184.3,692.1z"/>
	<path id="path117" class="st4" d="M184.3,696.1"/>
	<path class="st4" d=""/>
	<path id="path26" class="st4" d="M174.7,670.6l-2-2l2,7.1l2-7.1L174.7,670.6z"/>
	<path id="path119" class="st4" d="M174.7,674.6"/>
	<path class="st4" d=""/>
	<path id="path38" class="st4" d="M203.7,712.2l-2-2l2,7.1l2-7.1L203.7,712.2z"/>
	<path id="path121" class="st4" d="M203.7,716.2"/>
	<path class="st4" d=""/>
	<path id="path29" class="st4" d="M223,692.1l-2-2l2,7.1l2-7.1L223,692.1z"/>
	<path id="path123" class="st4" d="M223,696.1"/>
	<path class="st4" d=""/>
	<path id="path44" class="st4" d="M232.7,670.5l-2-2l2,7.1l2-7.1L232.7,670.5z"/>
	<path id="path125" class="st4" d="M232.7,674.5"/>
</g>
<g id="g147" transform="matrix(0.9817,0.19044,0.06263,1.0048,30.729,-592.441)">
	<g id="g131" transform="matrix(0.3282,0,0,0.38861,-430.34,512.11)">
		<path id="path129" class="st4" d="M1822,370.5c2.6,6.2,2.6,6.1,6,12.5c1.8,6.6,5.3,10.4,7,18c3.2,3.8,4.2,9.8,7,14
			c2.2,7,6,11.5,8,19c3.3,4.3,5.2,10.1,8,15c3,7.1,6.9,12.3,9,19c3.4,3.6,5.2,8.8,8,13c3.7,6.5,7.3,11.4,11,17c4,5.1,7,10.6,12,14
			c1.4,5.3,7.7,7.4,11,11c5.1,3.6,10.3,7,18,8c10.5,1,19-1.6,24-6c5.6-3.1,10.3-7.1,14-12c4.5-3.7,7.6-8.8,11-13
			c3.8-4.9,6.7-10.3,10-15c4.1-7.2,7.2-11.5,11-20c3.3-4.3,5.2-10.1,8-15c3-6.5,6.3-11.3,9-19c2.7-5.4,6-11.5,8-18
			c3.1-4.2,4.8-10.4,7-15c2.5-5.5,6.1-10,7.8-16.3c3.4-4.5,1.5-6.1,4.4-11"/>
	</g>
	<path class="st4" d=""/>
	<path id="path35_1_" class="st4" d="M194,707.2l-2-2l2,7.1l2-7.1L194,707.2z"/>
	<path id="path133" class="st4" d="M194,711.2"/>
	<path class="st4" d=""/>
	<path id="path41_1_" class="st4" d="M213.3,706.9l-2-2l2,7.1l2-7.1L213.3,706.9z"/>
	<path id="path135" class="st4" d="M213.3,710.9"/>
	<path class="st4" d=""/>
	<path id="path32_1_" class="st4" d="M184.3,692.1l-2-2l2,7.1l2-7.1L184.3,692.1z"/>
	<path id="path137" class="st4" d="M184.3,696.1"/>
	<path class="st4" d=""/>
	<path id="path26_1_" class="st4" d="M174.7,670.6l-2-2l2,7.1l2-7.1L174.7,670.6z"/>
	<path id="path139" class="st4" d="M174.7,674.6"/>
	<path class="st4" d=""/>
	<path id="path38_1_" class="st4" d="M203.7,712.2l-2-2l2,7.1l2-7.1L203.7,712.2z"/>
	<path id="path141" class="st4" d="M203.7,716.2"/>
	<path class="st4" d=""/>
	<path id="path29_1_" class="st4" d="M223,692.1l-2-2l2,7.1l2-7.1L223,692.1z"/>
	<path id="path143" class="st4" d="M223,696.1"/>
	<path class="st4" d=""/>
	<path id="path44_1_" class="st4" d="M232.7,670.5l-2-2l2,7.1l2-7.1L232.7,670.5z"/>
	<path id="path145" class="st4" d="M232.7,674.5"/>
</g>
<g id="g167" transform="matrix(0.9817,0.19044,-0.61282,0.40671,459.599,-208.521)">
	<g id="g151" transform="matrix(0.3282,0,0,0.38861,-336.4,523.16)">
		<path id="path149" class="st3" d="M1822,370.5c2.6,6.2,2.6,6.1,6,12.5c1.8,6.6,5.3,10.4,7,18c3.2,3.8,4.2,9.8,7,14
			c2.2,7,6,11.5,8,19c3.3,4.3,5.2,10.1,8,15c3,7.1,6.9,12.3,9,19c3.4,3.6,5.2,8.8,8,13c3.7,6.5,7.3,11.4,11,17c4,5.1,7,10.6,12,14
			c1.4,5.3,7.7,7.4,11,11c5.1,3.6,10.3,7,18,8c10.5,1,19-1.6,24-6c5.6-3.1,10.3-7.1,14-12c4.5-3.7,7.6-8.8,11-13
			c3.8-4.9,6.7-10.3,10-15c4.1-7.2,7.2-11.5,11-20c3.3-4.3,5.2-10.1,8-15c3-6.5,6.3-11.3,9-19c2.7-5.4,6-11.5,8-18
			c3.1-4.2,4.8-10.4,7-15c2.5-5.5,6.1-10,7.8-16.3c3.4-4.5,1.5-6.1,4.4-11"/>
	</g>
	<path class="st3" d=""/>
	<path id="path14_3_" class="st3" d="M287.9,716.6l-2.8-2.8l2.8,9.7l2.8-9.7L287.9,716.6z"/>
	<path id="path153" class="st3" d="M287.9,722.2"/>
	<path class="st3" d=""/>
	<path id="path8_3_" class="st3" d="M307.3,716.4l-2.8-2.8l2.8,9.7l2.8-9.7L307.3,716.4z"/>
	<path id="path155" class="st3" d="M307.3,722"/>
	<path class="st3" d=""/>
	<path id="path17_3_" class="st3" d="M278.3,701.6l-2.8-2.8l2.8,9.7l2.8-9.7L278.3,701.6z"/>
	<path id="path157" class="st3" d="M278.3,707.2"/>
	<path class="st3" d=""/>
	<path id="path20_3_" class="st3" d="M268.6,680.1l-2.8-2.8l2.8,9.7l2.8-9.7L268.6,680.1z"/>
	<path id="path159" class="st3" d="M268.6,685.7"/>
	<path class="st3" d=""/>
	<path id="path11_3_" class="st3" d="M297.6,721.7l-2.8-2.8l2.8,9.7l2.8-9.7L297.6,721.7z"/>
	<path id="path161" class="st3" d="M297.6,727.3"/>
	<path class="st3" d=""/>
	<path id="path5_3_" class="st3" d="M316.9,701.6l-2.8-2.8l2.8,9.7l2.8-9.7L316.9,701.6z"/>
	<path id="path163" class="st3" d="M316.9,707.2"/>
	<path class="st3" d=""/>
	<path id="path23_3_" class="st3" d="M326.6,680l-2.8-2.8l2.8,9.7l2.8-9.7L326.6,680z"/>
	<path id="path165" class="st3" d="M326.6,685.6"/>
</g>
<g id="g187" transform="matrix(0.9817,0.19044,0.06263,1.0048,-111.754,-619.711)">
	<g id="g171" transform="matrix(0.3282,0,0,0.38861,-430.34,512.11)">
		<path id="path169" class="st4" d="M1822,370.5c2.6,6.2,2.6,6.1,6,12.5c1.8,6.6,5.3,10.4,7,18c3.2,3.8,4.2,9.8,7,14
			c2.2,7,6,11.5,8,19c3.3,4.3,5.2,10.1,8,15c3,7.1,6.9,12.3,9,19c3.4,3.6,5.2,8.8,8,13c3.7,6.5,7.3,11.4,11,17c4,5.1,7,10.6,12,14
			c1.4,5.3,7.7,7.4,11,11c5.1,3.6,10.3,7,18,8c10.5,1,19-1.6,24-6c5.6-3.1,10.3-7.1,14-12c4.5-3.7,7.6-8.8,11-13
			c3.8-4.9,6.7-10.3,10-15c4.1-7.2,7.2-11.5,11-20c3.3-4.3,5.2-10.1,8-15c3-6.5,6.3-11.3,9-19c2.7-5.4,6-11.5,8-18
			c3.1-4.2,4.8-10.4,7-15c2.5-5.5,6.1-10,7.8-16.3c3.4-4.5,1.5-6.1,4.4-11"/>
	</g>
	<path class="st4" d=""/>
	<path id="path35_2_" class="st4" d="M194,707.2l-2-2l2,7.1l2-7.1L194,707.2z"/>
	<path id="path173" class="st4" d="M194,711.2"/>
	<path class="st4" d=""/>
	<path id="path41_2_" class="st4" d="M213.3,706.9l-2-2l2,7.1l2-7.1L213.3,706.9z"/>
	<path id="path175" class="st4" d="M213.3,710.9"/>
	<path class="st4" d=""/>
	<path id="path32_2_" class="st4" d="M184.3,692.1l-2-2l2,7.1l2-7.1L184.3,692.1z"/>
	<path id="path177" class="st4" d="M184.3,696.1"/>
	<path class="st4" d=""/>
	<path id="path26_2_" class="st4" d="M174.7,670.6l-2-2l2,7.1l2-7.1L174.7,670.6z"/>
	<path id="path179" class="st4" d="M174.7,674.6"/>
	<path class="st4" d=""/>
	<path id="path38_2_" class="st4" d="M203.7,712.2l-2-2l2,7.1l2-7.1L203.7,712.2z"/>
	<path id="path181" class="st4" d="M203.7,716.2"/>
	<path class="st4" d=""/>
	<path id="path29_2_" class="st4" d="M223,692.1l-2-2l2,7.1l2-7.1L223,692.1z"/>
	<path id="path183" class="st4" d="M223,696.1"/>
	<path class="st4" d=""/>
	<path id="path44_2_" class="st4" d="M232.7,670.5l-2-2l2,7.1l2-7.1L232.7,670.5z"/>
	<path id="path185" class="st4" d="M232.7,674.5"/>
</g>
<g id="g207" transform="matrix(-0.9817,-0.19044,-0.06263,-1.0048,441.529,789.089)">
	<g id="g191" transform="matrix(0.3282,0,0,0.38861,-430.34,512.11)">
		<path id="path189" class="st4" d="M1822,370.5c2.6,6.2,2.6,6.1,6,12.5c1.8,6.6,5.3,10.4,7,18c3.2,3.8,4.2,9.8,7,14
			c2.2,7,6,11.5,8,19c3.3,4.3,5.2,10.1,8,15c3,7.1,6.9,12.3,9,19c3.4,3.6,5.2,8.8,8,13c3.7,6.5,7.3,11.4,11,17c4,5.1,7,10.6,12,14
			c1.4,5.3,7.7,7.4,11,11c5.1,3.6,10.3,7,18,8c10.5,1,19-1.6,24-6c5.6-3.1,10.3-7.1,14-12c4.5-3.7,7.6-8.8,11-13
			c3.8-4.9,6.7-10.3,10-15c4.1-7.2,7.2-11.5,11-20c3.3-4.3,5.2-10.1,8-15c3-6.5,6.3-11.3,9-19c2.7-5.4,6-11.5,8-18
			c3.1-4.2,4.8-10.4,7-15c2.5-5.5,6.1-10,7.8-16.3c3.4-4.5,1.5-6.1,4.4-11"/>
	</g>
	<path class="st4" d=""/>
	<path id="path35_3_" class="st4" d="M194,707.2l-2-2l2,7.1l2-7.1L194,707.2z"/>
	<path id="path193" class="st4" d="M194,711.2"/>
	<path class="st4" d=""/>
	<path id="path41_3_" class="st4" d="M213.3,706.9l-2-2l2,7.1l2-7.1L213.3,706.9z"/>
	<path id="path195" class="st4" d="M213.3,710.9"/>
	<path class="st4" d=""/>
	<path id="path32_3_" class="st4" d="M184.3,692.1l-2-2l2,7.1l2-7.1L184.3,692.1z"/>
	<path id="path197" class="st4" d="M184.3,696.1"/>
	<path class="st4" d=""/>
	<path id="path26_3_" class="st4" d="M174.7,670.6l-2-2l2,7.1l2-7.1L174.7,670.6z"/>
	<path id="path199" class="st4" d="M174.7,674.6"/>
	<path class="st4" d=""/>
	<path id="path38_3_" class="st4" d="M203.7,712.2l-2-2l2,7.1l2-7.1L203.7,712.2z"/>
	<path id="path201" class="st4" d="M203.7,716.2"/>
	<path class="st4" d=""/>
	<path id="path29_3_" class="st4" d="M223,692.1l-2-2l2,7.1l2-7.1L223,692.1z"/>
	<path id="path203" class="st4" d="M223,696.1"/>
	<path class="st4" d=""/>
	<path id="path44_3_" class="st4" d="M232.7,670.5l-2-2l2,7.1l2-7.1L232.7,670.5z"/>
	<path id="path205" class="st4" d="M232.7,674.5"/>
</g>
<g id="g227" transform="matrix(0.9817,0.19044,-0.61282,0.40671,317.539,-236.071)">
	<g id="g211" transform="matrix(0.3282,0,0,0.38861,-336.4,523.16)">
		<path id="path209" class="st3" d="M1822,370.5c2.6,6.2,2.6,6.1,6,12.5c1.8,6.6,5.3,10.4,7,18c3.2,3.8,4.2,9.8,7,14
			c2.2,7,6,11.5,8,19c3.3,4.3,5.2,10.1,8,15c3,7.1,6.9,12.3,9,19c3.4,3.6,5.2,8.8,8,13c3.7,6.5,7.3,11.4,11,17c4,5.1,7,10.6,12,14
			c1.4,5.3,7.7,7.4,11,11c5.1,3.6,10.3,7,18,8c10.5,1,19-1.6,24-6c5.6-3.1,10.3-7.1,14-12c4.5-3.7,7.6-8.8,11-13
			c3.8-4.9,6.7-10.3,10-15c4.1-7.2,7.2-11.5,11-20c3.3-4.3,5.2-10.1,8-15c3-6.5,6.3-11.3,9-19c2.7-5.4,6-11.5,8-18
			c3.1-4.2,4.8-10.4,7-15c2.5-5.5,6.1-10,7.8-16.3c3.4-4.5,1.5-6.1,4.4-11"/>
	</g>
	<path class="st3" d=""/>
	<path id="path14_4_" class="st3" d="M287.9,716.6l-2.8-2.8l2.8,9.7l2.8-9.7L287.9,716.6z"/>
	<path id="path213" class="st3" d="M287.9,722.2"/>
	<path class="st3" d=""/>
	<path id="path8_4_" class="st3" d="M307.3,716.4l-2.8-2.8l2.8,9.7l2.8-9.7L307.3,716.4z"/>
	<path id="path215" class="st3" d="M307.3,722"/>
	<path class="st3" d=""/>
	<path id="path17_4_" class="st3" d="M278.3,701.6l-2.8-2.8l2.8,9.7l2.8-9.7L278.3,701.6z"/>
	<path id="path217" class="st3" d="M278.3,707.2"/>
	<path class="st3" d=""/>
	<path id="path20_4_" class="st3" d="M268.6,680.1l-2.8-2.8l2.8,9.7l2.8-9.7L268.6,680.1z"/>
	<path id="path219" class="st3" d="M268.6,685.7"/>
	<path class="st3" d=""/>
	<path id="path11_4_" class="st3" d="M297.6,721.7l-2.8-2.8l2.8,9.7l2.8-9.7L297.6,721.7z"/>
	<path id="path221" class="st3" d="M297.6,727.3"/>
	<path class="st3" d=""/>
	<path id="path5_4_" class="st3" d="M316.9,701.6l-2.8-2.8l2.8,9.7l2.8-9.7L316.9,701.6z"/>
	<path id="path223" class="st3" d="M316.9,707.2"/>
	<path class="st3" d=""/>
	<path id="path23_4_" class="st3" d="M326.6,680l-2.8-2.8l2.8,9.7l2.8-9.7L326.6,680z"/>
	<path id="path225" class="st3" d="M326.6,685.6"/>
</g>
<g id="g247" transform="matrix(-0.9817,-0.19044,-0.06263,-1.0048,583.519,817.089)">
	<g id="g231" transform="matrix(0.3282,0,0,0.38861,-430.34,512.11)">
		<path id="path229" class="st4" d="M1822,370.5c2.6,6.2,2.6,6.1,6,12.5c1.8,6.6,5.3,10.4,7,18c3.2,3.8,4.2,9.8,7,14
			c2.2,7,6,11.5,8,19c3.3,4.3,5.2,10.1,8,15c3,7.1,6.9,12.3,9,19c3.4,3.6,5.2,8.8,8,13c3.7,6.5,7.3,11.4,11,17c4,5.1,7,10.6,12,14
			c1.4,5.3,7.7,7.4,11,11c5.1,3.6,10.3,7,18,8c10.5,1,19-1.6,24-6c5.6-3.1,10.3-7.1,14-12c4.5-3.7,7.6-8.8,11-13
			c3.8-4.9,6.7-10.3,10-15c4.1-7.2,7.2-11.5,11-20c3.3-4.3,5.2-10.1,8-15c3-6.5,6.3-11.3,9-19c2.7-5.4,6-11.5,8-18
			c3.1-4.2,4.8-10.4,7-15c2.5-5.5,6.1-10,7.8-16.3c3.4-4.5,1.5-6.1,4.4-11"/>
	</g>
	<path class="st4" d=""/>
	<path id="path35_4_" class="st4" d="M194,707.2l-2-2l2,7.1l2-7.1L194,707.2z"/>
	<path id="path233" class="st4" d="M194,711.2"/>
	<path class="st4" d=""/>
	<path id="path41_4_" class="st4" d="M213.3,706.9l-2-2l2,7.1l2-7.1L213.3,706.9z"/>
	<path id="path235" class="st4" d="M213.3,710.9"/>
	<path class="st4" d=""/>
	<path id="path32_4_" class="st4" d="M184.3,692.1l-2-2l2,7.1l2-7.1L184.3,692.1z"/>
	<path id="path237" class="st4" d="M184.3,696.1"/>
	<path class="st4" d=""/>
	<path id="path26_4_" class="st4" d="M174.7,670.6l-2-2l2,7.1l2-7.1L174.7,670.6z"/>
	<path id="path239" class="st4" d="M174.7,674.6"/>
	<path class="st4" d=""/>
	<path id="path38_4_" class="st4" d="M203.7,712.2l-2-2l2,7.1l2-7.1L203.7,712.2z"/>
	<path id="path241" class="st4" d="M203.7,716.2"/>
	<path class="st4" d=""/>
	<path id="path29_4_" class="st4" d="M223,692.1l-2-2l2,7.1l2-7.1L223,692.1z"/>
	<path id="path243" class="st4" d="M223,696.1"/>
	<path class="st4" d=""/>
	<path id="path44_4_" class="st4" d="M232.7,670.5l-2-2l2,7.1l2-7.1L232.7,670.5z"/>
	<path id="path245" class="st4" d="M232.7,674.5"/>
</g>
<path class="st0" d=""/>
<path id="path249" class="st5" d="M410.4,132.6"/>
</svg>
