<?xml version="1.0" encoding="utf-8"?>
<!-- Generator: Adobe Illustrator 24.2.3, SVG Export Plug-In . SVG Version: 6.00 Build 0)  -->
<svg version="1.1" id="Layer_1" xmlns="http://www.w3.org/2000/svg" xmlns:xlink="http://www.w3.org/1999/xlink" x="0px" y="0px"
	 viewBox="0 0 1133.9 850.4" style="enable-background:new 0 0 1133.9 850.4;" xml:space="preserve">
<style type="text/css">
	.st0{enable-background:new    ;}
	.st1{fill:#020203;}
</style>
<sodipodi:namedview  bordercolor="#666666" borderopacity="1.0" gridspacingx="5px" gridspacingy="5px" gridtolerance="10000" guidetolerance="10" height="400px" id="base" objecttolerance="10" pagecolor="#ffffff" showgrid="false" showguides="true" width="675px">
	</sodipodi:namedview>
<g id="g3207" transform="translate(387.36157,-233.68506)">
	<g class="st0">
		<path class="st1" d="M157.6,605.2c-0.5,0.6-1.1,0.9-2,0.9c-0.6,0-1.1-0.2-1.6-0.5s-0.7-0.8-0.9-1.4s-0.3-1.4-0.3-2.4
			c0-0.9,0.1-1.5,0.2-2s0.3-0.9,0.5-1.3s0.5-0.6,0.9-0.8s0.8-0.3,1.2-0.3c0.6,0,1.1,0.2,1.6,0.5s0.7,0.8,0.9,1.4s0.3,1.4,0.3,2.5
			C158.4,603.4,158.2,604.5,157.6,605.2z M156.8,598.8c-0.3-0.4-0.7-0.6-1.2-0.6c-0.5,0-0.9,0.2-1.2,0.7s-0.5,1.4-0.5,2.8
			c0,1.4,0.2,2.3,0.5,2.8s0.7,0.7,1.2,0.7s0.9-0.2,1.2-0.7s0.5-1.4,0.5-2.8S157.2,599.4,156.8,598.8z"/>
		<path class="st1" d="M150,606v-1.2h1.2v1.2H150z"/>
		<path class="st1" d="M147.6,605.5c-0.5,0.4-1.1,0.7-1.9,0.7c-1,0-1.7-0.3-2.3-1c-0.5-0.6-0.7-1.2-0.7-2c0-0.8,0.3-1.5,0.8-2
			s1.1-0.8,1.9-0.8c0.6,0,1.1,0.2,1.6,0.5l-0.5-2.3h-3.4v-1h4.3l0.8,4.4l-1,0.1c-0.2-0.2-0.4-0.4-0.6-0.6s-0.6-0.2-0.9-0.2
			c-0.5,0-1,0.2-1.3,0.5s-0.5,0.8-0.5,1.4c0,0.6,0.2,1.1,0.5,1.5s0.8,0.6,1.3,0.6c0.4,0,0.8-0.1,1.1-0.4s0.5-0.7,0.6-1.2l1.1,0.1
			C148.4,604.5,148.1,605,147.6,605.5z"/>
		<path class="st1" d="M137.6,606l-1.6-2.5l-0.3,0.5l-1.3,1.9H133l2.3-3.3l-2.2-2.9h1.3l1,1.5c0.1,0.2,0.3,0.4,0.5,0.7
			c0.1-0.2,0.3-0.4,0.4-0.7l1-1.5h1.3l-2.1,3l2.3,3.2H137.6z"/>
		<path class="st1" d="M128.5,597.4h0.7c0.2,0.4,0.5,0.8,0.9,1.1s1,0.7,1.5,1v1c-0.3-0.1-0.7-0.3-1.1-0.5s-0.7-0.5-1-0.7v6.7h-1.1
			V597.4z"/>
		<path class="st1" d="M124.9,605.2c-0.5,0.6-1.1,0.9-2,0.9c-0.6,0-1.1-0.2-1.6-0.5s-0.7-0.8-0.9-1.4s-0.3-1.4-0.3-2.4
			c0-0.9,0.1-1.5,0.2-2s0.3-0.9,0.5-1.3s0.5-0.6,0.9-0.8s0.8-0.3,1.2-0.3c0.6,0,1.1,0.2,1.6,0.5s0.7,0.8,0.9,1.4s0.3,1.4,0.3,2.5
			C125.8,603.4,125.5,604.5,124.9,605.2z M124.1,598.8c-0.3-0.4-0.7-0.6-1.2-0.6c-0.5,0-0.9,0.2-1.2,0.7s-0.5,1.4-0.5,2.8
			c0,1.4,0.2,2.3,0.5,2.8s0.7,0.7,1.2,0.7s0.9-0.2,1.2-0.7s0.5-1.4,0.5-2.8S124.5,599.4,124.1,598.8z"/>
		<path class="st1" d="M111.1,606v-3.2c0-0.6-0.1-1-0.2-1.3s-0.3-0.5-0.5-0.7s-0.5-0.2-0.8-0.2c-0.4,0-0.7,0.1-0.8,0.4
			s-0.3,0.6-0.3,1.1v4h-1.1v-3.6c0-0.6-0.1-1.1-0.4-1.4s-0.7-0.4-1.1-0.4c-0.2,0-0.5,0.1-0.6,0.2s-0.3,0.3-0.4,0.4s-0.1,0.5-0.1,0.9
			v3.9h-1v-4.3c0-0.7,0.2-1.2,0.5-1.6s0.8-0.5,1.4-0.5c0.8,0,1.4,0.4,1.9,1.1c0.1-0.3,0.3-0.6,0.6-0.8s0.7-0.3,1.1-0.3
			c0.4,0,0.8,0.1,1.1,0.3s0.6,0.4,0.8,0.7v-0.9h0.9v6.2H111.1z"/>
	</g>
	<g class="st0">
		<path class="st1" d="M116.8,598.2v-0.8h2.4v0.8H116.8z"/>
		<path class="st1" d="M112.6,594.1c0.3-0.3,0.7-0.4,1.2-0.4c0.7,0,1.2,0.2,1.6,0.7c0.5,0.6,0.7,1.5,0.7,2.7c0,1.1-0.2,1.9-0.6,2.4
			c-0.4,0.5-1,0.7-1.6,0.7c-0.4,0-0.7-0.1-1-0.3s-0.5-0.5-0.7-0.8c-0.2-0.3-0.3-0.7-0.3-1.1c0-0.6,0.2-1.1,0.6-1.5
			c0.4-0.4,0.8-0.6,1.3-0.6c0.3,0,0.6,0.1,0.9,0.2s0.5,0.4,0.7,0.6c0-0.6-0.1-1.1-0.2-1.5c-0.1-0.3-0.3-0.6-0.6-0.8
			c-0.2-0.1-0.4-0.2-0.7-0.2c-0.3,0-0.6,0.1-0.8,0.3c-0.1,0.1-0.2,0.4-0.3,0.7l-0.8-0.1C112.1,594.8,112.3,594.4,112.6,594.1z
			 M114.9,597.1c-0.2-0.3-0.6-0.4-0.9-0.4c-0.4,0-0.7,0.1-0.9,0.4c-0.2,0.3-0.4,0.6-0.4,1.1c0,0.5,0.1,0.8,0.4,1.1
			c0.2,0.3,0.5,0.4,0.9,0.4c0.2,0,0.4-0.1,0.7-0.2c0.2-0.1,0.4-0.3,0.5-0.6c0.1-0.2,0.2-0.5,0.2-0.8
			C115.3,597.7,115.1,597.3,114.9,597.1z"/>
	</g>
</g>
<g id="g3217" transform="translate(447.36157,-233.68506)">
	<g class="st0">
		<path class="st1" d="M31,597.7h0.7c0.2,0.4,0.5,0.8,0.9,1.1s1,0.7,1.5,1v1c-0.3-0.1-0.7-0.3-1.1-0.5s-0.7-0.5-1-0.7v6.7H31V597.7z
			"/>
		<path class="st1" d="M27.5,605.6c-0.5,0.6-1.1,0.9-2,0.9c-0.6,0-1.1-0.2-1.6-0.5s-0.7-0.8-0.9-1.4s-0.3-1.4-0.3-2.4
			c0-0.9,0.1-1.5,0.2-2s0.3-0.9,0.5-1.3s0.5-0.6,0.9-0.8s0.8-0.3,1.2-0.3c0.6,0,1.1,0.2,1.6,0.5s0.7,0.8,0.9,1.4s0.3,1.4,0.3,2.5
			C28.3,603.7,28.1,604.9,27.5,605.6z M26.7,599.2c-0.3-0.4-0.7-0.6-1.2-0.6c-0.5,0-0.9,0.2-1.2,0.7s-0.5,1.4-0.5,2.8
			c0,1.4,0.2,2.3,0.5,2.8s0.7,0.7,1.2,0.7s0.9-0.2,1.2-0.7s0.5-1.4,0.5-2.8S27.1,599.7,26.7,599.2z"/>
	</g>
	<g>
	</g>
	<g class="st0">
		<path class="st1" d="M20.4,598.6v-0.8h2.4v0.8H20.4z"/>
		<path class="st1" d="M19.4,597.6c0.2,0.3,0.3,0.6,0.3,1.1c0,0.6-0.2,1-0.6,1.4c-0.4,0.4-0.9,0.6-1.5,0.6s-1.1-0.2-1.5-0.6
			c-0.4-0.4-0.6-0.8-0.6-1.4c0-0.4,0.1-0.7,0.3-1c0.2-0.3,0.5-0.5,0.9-0.6c-0.3-0.1-0.6-0.3-0.7-0.5c-0.2-0.2-0.2-0.5-0.2-0.8
			c0-0.5,0.2-0.9,0.5-1.2c0.3-0.3,0.8-0.5,1.4-0.5c0.6,0,1,0.2,1.3,0.5c0.3,0.3,0.5,0.7,0.5,1.2c0,0.3-0.1,0.6-0.2,0.8
			s-0.4,0.4-0.7,0.5C18.9,597.1,19.2,597.3,19.4,597.6z M18.5,597.7c-0.2-0.2-0.6-0.4-0.9-0.4c-0.4,0-0.7,0.1-1,0.4
			c-0.3,0.2-0.4,0.6-0.4,0.9c0,0.4,0.1,0.7,0.4,0.9s0.6,0.4,0.9,0.4c0.2,0,0.5-0.1,0.7-0.2c0.2-0.1,0.4-0.3,0.5-0.5
			c0.1-0.2,0.2-0.4,0.2-0.7C18.9,598.3,18.8,598,18.5,597.7z M18.4,595c-0.2-0.2-0.4-0.3-0.8-0.3c-0.3,0-0.5,0.1-0.8,0.3
			c-0.2,0.2-0.3,0.4-0.3,0.7c0,0.3,0.1,0.5,0.3,0.7c0.2,0.2,0.4,0.3,0.8,0.3c0.3,0,0.6-0.1,0.8-0.3s0.3-0.4,0.3-0.7
			C18.7,595.4,18.6,595.2,18.4,595z"/>
	</g>
</g>
<g id="g3227" transform="translate(510.36157,-233.68506)">
	<g class="st0">
		<path class="st1" d="M-85,597.7h0.7c0.2,0.4,0.5,0.8,0.9,1.1s1,0.7,1.5,1v1c-0.3-0.1-0.7-0.3-1.1-0.5s-0.7-0.5-1-0.7v6.7H-85
			V597.7z"/>
		<path class="st1" d="M-88.5,605.6c-0.5,0.6-1.1,0.9-2,0.9c-0.6,0-1.1-0.2-1.6-0.5s-0.7-0.8-0.9-1.4s-0.3-1.4-0.3-2.4
			c0-0.9,0.1-1.5,0.2-2s0.3-0.9,0.5-1.3s0.5-0.6,0.9-0.8s0.8-0.3,1.2-0.3c0.6,0,1.1,0.2,1.6,0.5s0.7,0.8,0.9,1.4s0.3,1.4,0.3,2.5
			C-87.7,603.7-87.9,604.9-88.5,605.6z M-89.3,599.2c-0.3-0.4-0.7-0.6-1.2-0.6c-0.5,0-0.9,0.2-1.2,0.7s-0.5,1.4-0.5,2.8
			c0,1.4,0.2,2.3,0.5,2.8s0.7,0.7,1.2,0.7s0.9-0.2,1.2-0.7s0.5-1.4,0.5-2.8S-88.9,599.7-89.3,599.2z"/>
	</g>
	<g class="st0">
		<path class="st1" d="M-95.6,598.6v-0.8h2.4v0.8H-95.6z"/>
		<path class="st1" d="M-99.3,594.1h0.5c0.1,0.3,0.4,0.6,0.7,0.9s0.7,0.5,1.2,0.8v0.8c-0.2-0.1-0.5-0.2-0.8-0.4
			c-0.3-0.2-0.6-0.4-0.7-0.5v5h-0.8V594.1z"/>
		<path class="st1" d="M-101.9,600c-0.4,0.4-0.8,0.7-1.5,0.7c-0.5,0-0.9-0.1-1.2-0.4c-0.3-0.3-0.5-0.6-0.7-1.1
			c-0.2-0.5-0.2-1.1-0.2-1.8c0-0.6,0-1.1,0.1-1.5c0.1-0.4,0.2-0.7,0.4-1c0.2-0.3,0.4-0.5,0.6-0.6c0.3-0.1,0.6-0.2,0.9-0.2
			c0.5,0,0.9,0.1,1.2,0.4c0.3,0.3,0.5,0.6,0.7,1.1c0.2,0.5,0.2,1.1,0.2,1.8C-101.3,598.6-101.5,599.4-101.9,600z M-102.5,595.2
			c-0.2-0.3-0.5-0.5-0.9-0.5c-0.4,0-0.7,0.2-0.9,0.5c-0.2,0.3-0.4,1.1-0.4,2.1c0,1.1,0.1,1.8,0.4,2.1c0.2,0.4,0.6,0.5,0.9,0.5
			s0.7-0.2,0.9-0.5c0.2-0.4,0.4-1.1,0.4-2.1C-102.1,596.3-102.2,595.6-102.5,595.2z"/>
	</g>
</g>
<g id="g3237" transform="translate(588.36157,-233.68506)">
	<g class="st0">
		<path class="st1" d="M-202,597.7h0.7c0.2,0.4,0.5,0.8,0.9,1.1s1,0.7,1.5,1v1c-0.3-0.1-0.7-0.3-1.1-0.5s-0.7-0.5-1-0.7v6.7h-1.1
			V597.7z"/>
		<path class="st1" d="M-205.5,605.6c-0.5,0.6-1.1,0.9-2,0.9c-0.6,0-1.1-0.2-1.6-0.5s-0.7-0.8-0.9-1.4s-0.3-1.4-0.3-2.4
			c0-0.9,0.1-1.5,0.2-2s0.3-0.9,0.5-1.3s0.5-0.6,0.9-0.8s0.8-0.3,1.2-0.3c0.6,0,1.1,0.2,1.6,0.5s0.7,0.8,0.9,1.4s0.3,1.4,0.3,2.5
			C-204.7,603.7-204.9,604.9-205.5,605.6z M-206.3,599.2c-0.3-0.4-0.7-0.6-1.2-0.6c-0.5,0-0.9,0.2-1.2,0.7s-0.5,1.4-0.5,2.8
			c0,1.4,0.2,2.3,0.5,2.8s0.7,0.7,1.2,0.7s0.9-0.2,1.2-0.7s0.5-1.4,0.5-2.8S-205.9,599.7-206.3,599.2z"/>
	</g>
	<g class="st0">
		<path class="st1" d="M-212.6,598.6v-0.8h2.4v0.8H-212.6z"/>
		<path class="st1" d="M-216.3,594.1h0.5c0.1,0.3,0.4,0.6,0.7,0.9s0.7,0.5,1.2,0.8v0.8c-0.2-0.1-0.5-0.2-0.8-0.4
			c-0.3-0.2-0.6-0.4-0.7-0.5v5h-0.8V594.1z"/>
		<path class="st1" d="M-219.3,599.8c-0.1-0.1-0.2-0.3-0.3-0.4c-0.1-0.1-0.4-0.4-0.9-0.8c-0.6-0.5-1-0.9-1.2-1.1
			c-0.2-0.3-0.4-0.5-0.5-0.8s-0.2-0.5-0.2-0.8c0-0.5,0.2-0.9,0.5-1.3c0.4-0.3,0.8-0.5,1.5-0.5c0.6,0,1.1,0.2,1.5,0.5
			c0.4,0.3,0.6,0.8,0.6,1.4l-0.8,0.1c0-0.4-0.1-0.7-0.3-0.9s-0.5-0.3-0.9-0.3c-0.4,0-0.7,0.1-0.9,0.3c-0.2,0.2-0.3,0.5-0.3,0.8
			c0,0.3,0.1,0.6,0.4,1c0.2,0.3,0.7,0.8,1.4,1.4c0.5,0.4,0.8,0.7,1,1c0.2,0.3,0.4,0.6,0.5,0.9c0.1,0.2,0.1,0.4,0.1,0.5h-4.3v-0.8
			H-219.3z"/>
	</g>
</g>
<g>
	<path class="st1" d="M460.8,372h-1v-3.5c0-0.2,0-0.4-0.1-0.5c-0.2-0.5-0.6-1.1-1.3-1.1c-0.8,0-1.2,0.7-1.2,1.6v3.5h-1v-3.6
		c0-0.2,0-0.4-0.1-0.5c-0.2-0.5-0.6-1-1.2-1c-0.9,0-1.3,0.7-1.3,1.8v3.3h-1v-3.4c0-2,1.1-2.5,1.9-2.5c0.6,0,0.9,0.1,1.3,0.4
		c0.2,0.2,0.5,0.4,0.6,0.8h0c0.3-0.7,0.9-1.2,1.6-1.2c1,0,1.5,0.5,1.8,1.1h0l0-0.9h0.9c0,0.5,0,1,0,1.6V372z"/>
</g>
<g>
	<path class="st1" d="M460.8,372h-1v-3.5c0-0.2,0-0.4-0.1-0.5c-0.2-0.5-0.6-1.1-1.3-1.1c-0.8,0-1.2,0.7-1.2,1.6v3.5h-1v-3.6
		c0-0.2,0-0.4-0.1-0.5c-0.2-0.5-0.6-1-1.2-1c-0.9,0-1.3,0.7-1.3,1.8v3.3h-1v-3.4c0-2,1.1-2.5,1.9-2.5c0.6,0,0.9,0.1,1.3,0.4
		c0.2,0.2,0.5,0.4,0.6,0.8h0c0.3-0.7,0.9-1.2,1.6-1.2c1,0,1.5,0.5,1.8,1.1h0l0-0.9h0.9c0,0.5,0,1,0,1.6V372z"/>
</g>
<g class="st0">
</g>
<g class="st0">
	<path class="st1" d="M792.7,358.2C792.7,358.2,792.6,358.2,792.7,358.2l-0.1-1.3c0,0,0-0.1,0.1-0.1h4v-7.1c0,0,0-0.1,0.1-0.1h1.3
		c0,0,0.1,0,0.1,0.1v8.4c0,0,0,0.1-0.1,0.1H792.7z"/>
	<path class="st1" d="M789,358.2C788.9,358.2,788.9,358.2,789,358.2c-0.3-1-0.6-2-0.8-3s-0.5-1.9-0.8-2.9l-1.6,5.8
		c0,0,0,0.1-0.1,0.1h-1.1c0,0-0.1,0-0.1-0.1l-2.1-8.4c0,0,0,0,0-0.1s0,0,0.1,0h1.3c0,0,0.1,0,0.1,0.1c0.2,1,0.4,1.9,0.6,2.9
		s0.4,1.9,0.6,2.9l1.6-5.7c0,0,0-0.1,0.1-0.1h0.9c0,0,0.1,0,0.1,0.1c0.3,1,0.5,1.9,0.8,2.9s0.5,1.9,0.8,2.9l1.3-5.7
		c0,0,0-0.1,0.1-0.1h1.3c0,0,0,0,0.1,0s0,0,0,0.1l-2.1,8.4c0,0,0,0.1-0.1,0.1H789z"/>
	<path class="st1" d="M769.5,358.2C769.4,358.2,769.4,358.2,769.5,358.2C769.4,358.2,769.4,358.2,769.5,358.2
		c-0.2-0.4-0.3-0.7-0.4-1s-0.2-0.6-0.3-0.9h-3.1l-0.6,1.9c0,0,0,0-0.1,0h-1.3c0,0,0,0-0.1,0s0,0,0-0.1l3.1-8.4c0,0,0,0,0,0s0,0,0,0
		h1c0,0,0.1,0,0.1,0l3.1,8.4c0,0,0,0,0,0.1s0,0-0.1,0H769.5z M768.3,355.1c-0.1-0.2-0.2-0.5-0.2-0.6s-0.1-0.3-0.2-0.5
		s-0.1-0.3-0.1-0.4s-0.1-0.3-0.1-0.4c0-0.1,0-0.1-0.1-0.2s0-0.1-0.1-0.2c0-0.1,0-0.1-0.1-0.2s0-0.1-0.1-0.2c0,0,0,0,0-0.1s0,0,0-0.1
		c0-0.1-0.1-0.2-0.1-0.3s-0.1-0.2-0.1-0.4c0,0.1,0,0.1,0,0.1s0,0.1,0,0.1s0,0,0,0.1s0,0.1,0,0.1c0,0.1,0,0.1-0.1,0.2s0,0.1-0.1,0.2
		c0,0.1-0.1,0.2-0.1,0.4s-0.1,0.2-0.1,0.3c0,0.1,0,0.1-0.1,0.2s0,0.1-0.1,0.2c0,0.1,0,0.1-0.1,0.2s-0.1,0.2-0.1,0.2
		c0,0.1-0.1,0.3-0.1,0.4s-0.1,0.3-0.2,0.5c0,0,0,0.1,0,0.1s0,0.1,0,0.1H768.3z"/>
	<path class="st1" d="M761.2,358.2C761.1,358.2,761.1,358.2,761.2,358.2l-0.1-5l-1.7,3.8c0,0,0,0-0.1,0h-1.1c0,0,0,0-0.1,0
		c-0.3-0.6-0.5-1.3-0.8-1.9s-0.6-1.3-0.8-1.9v5c0,0,0,0.1-0.1,0.1h-1.3c0,0-0.1,0-0.1-0.1v-8.4c0,0,0-0.1,0.1-0.1h1.2
		c0,0,0.1,0,0.1,0c0.4,0.9,0.8,1.8,1.1,2.7s0.8,1.8,1.1,2.7l2.3-5.3c0,0,0,0,0.1,0h1.2c0,0,0.1,0,0.1,0.1v8.4c0,0,0,0.1-0.1,0.1
		H761.2z"/>
	<path class="st1" d="M734.8,358.2C734.8,358.2,734.7,358.2,734.8,358.2l-0.1-3.6h-3.4c0,0-0.1,0-0.1-0.1v-1.1c0,0,0-0.1,0.1-0.1
		h3.4V351h-4c0,0-0.1,0-0.1-0.1v-1.2c0,0,0-0.1,0.1-0.1h5.4c0,0,0.1,0,0.1,0.1v8.4c0,0,0,0.1-0.1,0.1H734.8z"/>
	<path class="st1" d="M728.4,358.2C728.3,358.2,728.3,358.2,728.4,358.2l-0.1-5l-1.7,3.8c0,0,0,0-0.1,0h-1.1c0,0,0,0-0.1,0
		c-0.3-0.6-0.5-1.3-0.8-1.9s-0.6-1.3-0.8-1.9v5c0,0,0,0.1-0.1,0.1h-1.3c0,0-0.1,0-0.1-0.1v-8.4c0,0,0-0.1,0.1-0.1h1.2
		c0,0,0.1,0,0.1,0c0.4,0.9,0.8,1.8,1.1,2.7s0.8,1.8,1.1,2.7l2.3-5.3c0,0,0,0,0.1,0h1.2c0,0,0.1,0,0.1,0.1v8.4c0,0,0,0.1-0.1,0.1
		H728.4z"/>
	<path class="st1" d="M716.4,358.2C716.4,358.2,716.3,358.2,716.4,358.2l-0.1-3.6h-1.5l-1.7,3.5c0,0,0,0,0,0s0,0,0,0h-1.5
		c0,0,0,0-0.1,0s0,0,0-0.1c0.3-0.6,0.6-1.2,1-1.8s0.6-1.2,1-1.8c-0.2-0.1-0.5-0.2-0.7-0.4s-0.4-0.3-0.5-0.5
		c-0.1-0.2-0.2-0.4-0.3-0.7s-0.1-0.5-0.1-0.8c0-0.2,0-0.4,0.1-0.5s0.1-0.3,0.2-0.5s0.2-0.3,0.3-0.4s0.2-0.3,0.3-0.4
		c0.2-0.2,0.5-0.3,0.8-0.4s0.6-0.1,1-0.1h3.3c0,0,0.1,0,0.1,0.1v8.4c0,0,0,0.1-0.1,0.1H716.4z M714.4,351c-0.2,0-0.3,0-0.5,0.1
		s-0.3,0.1-0.4,0.2c-0.1,0.1-0.2,0.2-0.3,0.4s-0.1,0.3-0.1,0.5c0,0.3,0.1,0.6,0.3,0.9s0.6,0.4,1,0.4h1.9V351H714.4z"/>
	<path class="st1" d="M706.2,358.3C706.1,358.3,706.1,358.2,706.2,358.3l-0.1-4.1c0-0.7,0.2-1.3,0.7-1.6c0.2-0.2,0.5-0.3,0.8-0.3
		s0.6-0.1,1-0.1c0.9,0,1.6,0.3,2,0.9c0,0,0,0,0,0s0,0,0,0l-0.9,0.7c0,0-0.1,0-0.1,0c0-0.1-0.1-0.1-0.2-0.2s-0.1-0.1-0.2-0.1h0
		c-0.1,0-0.2-0.1-0.3-0.1s-0.2,0-0.4,0c-0.8,0-1.1,0.2-1.1,0.7v0.6h1.5c0.6,0,1.1,0.2,1.5,0.5c0.3,0.4,0.5,0.8,0.5,1.3
		c0,0.5-0.2,1-0.6,1.3v0c-0.4,0.4-0.9,0.5-1.5,0.6c-0.2,0-0.4,0-0.5,0s-0.3-0.1-0.4-0.1c-0.1,0-0.2-0.1-0.2-0.1s-0.1-0.1-0.2-0.2
		v0.3c0,0,0,0.1-0.1,0.1H706.2z M707.4,356.1c0,0.4,0.1,0.7,0.2,0.8h0c0.2,0.1,0.5,0.2,1,0.2c0.4,0,0.6-0.1,0.8-0.2
		c0.2-0.1,0.2-0.3,0.2-0.5c0-0.4-0.3-0.6-0.9-0.7h-1.3V356.1z"/>
	<path class="st1" d="M699.9,358.2C699.9,358.2,699.9,358.2,699.9,358.2l-0.1-8.4c0,0,0-0.1,0.1-0.1h1.2c0,0,0.1,0,0.1,0.1v2.9
		c0.2-0.2,0.4-0.3,0.7-0.4s0.5-0.2,0.8-0.2c0.4,0,0.7,0.1,1,0.2s0.5,0.3,0.7,0.6h0c0.1,0.1,0.2,0.2,0.2,0.4s0.1,0.3,0.1,0.4
		c0.1,0.3,0.1,0.8,0.1,1.5c0,0.7,0,1.3-0.1,1.5c-0.1,0.3-0.2,0.6-0.4,0.8h0c-0.2,0.2-0.4,0.4-0.7,0.6s-0.6,0.2-1,0.2
		c-0.6,0-1.1-0.2-1.5-0.6v0.4c0,0,0,0.1-0.1,0.1H699.9z M701.4,354c-0.1,0.4-0.2,0.8-0.2,1.2c0,0.4,0.1,0.8,0.2,1.2
		c0.1,0.4,0.4,0.6,0.9,0.6c0.5,0,0.9-0.2,1-0.5h0c0.1-0.2,0.1-0.4,0.1-0.6s0-0.4,0-0.7c0-0.2,0-0.4,0-0.6s-0.1-0.4-0.1-0.6h0
		c-0.1-0.4-0.4-0.5-1-0.5C701.8,353.4,701.5,353.6,701.4,354z"/>
	<path class="st1" d="M697.3,351.1C697.2,351.1,697.2,351.1,697.3,351.1l-0.1-1.3c0,0,0-0.1,0.1-0.1h1.2c0,0,0.1,0,0.1,0.1v1.2
		c0,0,0,0.1-0.1,0.1H697.3z M697.3,358.2C697.2,358.2,697.2,358.2,697.3,358.2l-0.1-6c0,0,0-0.1,0.1-0.1h1.2c0,0,0.1,0,0.1,0.1v5.9
		c0,0,0,0.1-0.1,0.1H697.3z"/>
	<path class="st1" d="M695.8,356.7c-0.1,0.3-0.3,0.6-0.5,0.9c-0.1,0.1-0.2,0.2-0.3,0.3s-0.2,0.2-0.4,0.3c-0.3,0.2-0.7,0.2-1.2,0.2
		c-0.5,0-0.9-0.1-1.2-0.2c-0.3-0.2-0.5-0.3-0.7-0.5c-0.2-0.3-0.4-0.6-0.5-0.9c-0.1-0.3-0.2-0.8-0.2-1.5c0-0.6,0.1-1.1,0.2-1.4
		c0.1-0.3,0.3-0.6,0.5-0.9c0.1-0.1,0.2-0.2,0.3-0.3s0.2-0.2,0.4-0.3c0.3-0.2,0.7-0.3,1.2-0.3c0.5,0,0.9,0.1,1.2,0.3s0.5,0.3,0.7,0.5
		c0.2,0.3,0.4,0.5,0.5,0.9c0.1,0.3,0.2,0.8,0.2,1.4C696,355.8,695.9,356.3,695.8,356.7z M692.3,356.1c0,0.2,0.1,0.3,0.2,0.5
		c0.2,0.3,0.5,0.4,0.9,0.4c0.4,0,0.7-0.1,0.9-0.4c0.1-0.1,0.2-0.3,0.2-0.5c0-0.1,0-0.2,0-0.4s0-0.3,0-0.5c0-0.4,0-0.7-0.1-0.9
		c0-0.1,0-0.2-0.1-0.2s-0.1-0.2-0.1-0.2c-0.2-0.3-0.5-0.4-0.9-0.4c-0.2,0-0.4,0-0.5,0.1s-0.3,0.2-0.4,0.3c-0.1,0.2-0.2,0.3-0.2,0.5
		c0,0.2-0.1,0.5-0.1,0.9C692.3,355.6,692.3,355.9,692.3,356.1z"/>
	<path class="st1" d="M679.6,358.2C679.5,358.2,679.5,358.2,679.6,358.2l-0.1-5l-1.7,3.8c0,0,0,0-0.1,0h-1.1c0,0,0,0-0.1,0
		c-0.3-0.6-0.5-1.3-0.8-1.9s-0.6-1.3-0.8-1.9v5c0,0,0,0.1-0.1,0.1h-1.3c0,0-0.1,0-0.1-0.1v-8.4c0,0,0-0.1,0.1-0.1h1.2
		c0,0,0.1,0,0.1,0c0.4,0.9,0.8,1.8,1.1,2.7s0.8,1.8,1.1,2.7l2.3-5.3c0,0,0,0,0.1,0h1.2c0,0,0.1,0,0.1,0.1v8.4c0,0,0,0.1-0.1,0.1
		H679.6z"/>
	<path class="st1" d="M670.7,351.1C670.6,351.1,670.6,351.1,670.7,351.1l-0.1-1.3c0,0,0-0.1,0.1-0.1h1.2c0,0,0.1,0,0.1,0.1v1.2
		c0,0,0,0.1-0.1,0.1H670.7z M670.7,358.2C670.6,358.2,670.6,358.2,670.7,358.2l-0.1-6c0,0,0-0.1,0.1-0.1h1.2c0,0,0.1,0,0.1,0.1v5.9
		c0,0,0,0.1-0.1,0.1H670.7z"/>
	<path class="st1" d="M665.5,356.4C665.5,356.4,665.5,356.4,665.5,356.4C665.5,356.4,665.5,356.4,665.5,356.4
		c0.4,0.4,0.8,0.6,1.3,0.6c1,0,1.5-0.6,1.5-1.8c0-1.2-0.5-1.8-1.5-1.8c-0.4,0-0.8,0.2-1.2,0.6c0,0,0,0,0,0s0,0-0.1,0l-0.9-0.8
		c0,0,0,0,0,0s0,0,0-0.1c0.1-0.2,0.3-0.3,0.4-0.4s0.3-0.2,0.5-0.3s0.4-0.2,0.6-0.2s0.4-0.1,0.7-0.1c0.7,0,1.3,0.2,1.9,0.7
		c0.6,0.5,0.9,1.3,0.9,2.4c0,1.1-0.3,1.9-0.9,2.4c-0.6,0.5-1.2,0.7-1.9,0.7c-0.2,0-0.4,0-0.7-0.1s-0.4-0.1-0.6-0.2s-0.4-0.2-0.5-0.3
		s-0.3-0.3-0.4-0.4c0,0,0,0,0-0.1s0,0,0,0L665.5,356.4z"/>
	<path class="st1" d="M662.5,358.2C662.4,358.2,662.4,358.2,662.5,358.2l-0.1-3.6c0-0.4-0.1-0.7-0.3-0.9c-0.2-0.2-0.5-0.3-0.8-0.3
		c-0.2,0-0.5,0.1-0.8,0.3c0,0-0.1,0-0.1,0l-0.9-1c0,0,0,0,0-0.1s0,0,0,0c0.4-0.3,0.8-0.5,1.3-0.5c0.6,0,1.1,0.2,1.5,0.6v-0.5
		c0,0,0-0.1,0.1-0.1h1.2c0,0,0.1,0,0.1,0.1v5.9c0,0,0,0.1-0.1,0.1H662.5z"/>
	<path class="st1" d="M659.2,356.7c-0.1,0.3-0.3,0.6-0.5,0.9c-0.1,0.1-0.2,0.2-0.3,0.3s-0.2,0.2-0.4,0.3c-0.3,0.2-0.7,0.2-1.2,0.2
		c-0.5,0-0.9-0.1-1.2-0.2c-0.3-0.2-0.5-0.3-0.7-0.5c-0.2-0.3-0.4-0.6-0.5-0.9c-0.1-0.3-0.2-0.8-0.2-1.5c0-0.6,0.1-1.1,0.2-1.4
		c0.1-0.3,0.3-0.6,0.5-0.9c0.1-0.1,0.2-0.2,0.3-0.3s0.2-0.2,0.4-0.3c0.3-0.2,0.7-0.3,1.2-0.3c0.5,0,0.9,0.1,1.2,0.3s0.5,0.3,0.7,0.5
		c0.2,0.3,0.4,0.5,0.5,0.9c0.1,0.3,0.2,0.8,0.2,1.4C659.4,355.8,659.3,356.3,659.2,356.7z M655.7,356.1c0,0.2,0.1,0.3,0.2,0.5
		c0.2,0.3,0.5,0.4,0.9,0.4c0.4,0,0.7-0.1,0.9-0.4c0.1-0.1,0.2-0.3,0.2-0.5c0-0.1,0-0.2,0-0.4s0-0.3,0-0.5c0-0.4,0-0.7-0.1-0.9
		c0-0.1,0-0.2-0.1-0.2s-0.1-0.2-0.1-0.2c-0.2-0.3-0.5-0.4-0.9-0.4c-0.2,0-0.4,0-0.5,0.1s-0.3,0.2-0.4,0.3c-0.1,0.2-0.2,0.3-0.2,0.5
		c0,0.2-0.1,0.5-0.1,0.9C655.7,355.6,655.7,355.9,655.7,356.1z"/>
	<path class="st1" d="M647.2,358.2C647.2,358.2,647.2,358.2,647.2,358.2l-2-6c0,0,0,0,0-0.1s0,0,0.1,0h1.3c0,0,0.1,0,0.1,0.1
		c0.2,0.7,0.4,1.3,0.5,2s0.4,1.3,0.5,2l1.3-4c0,0,0,0,0.1,0h0.9c0,0,0.1,0,0.1,0c0.2,0.7,0.4,1.3,0.7,2s0.4,1.3,0.6,2l1.1-4
		c0,0,0-0.1,0.1-0.1h1.3c0,0,0,0,0.1,0s0,0,0,0.1l-1.9,5.9c0,0,0,0-0.1,0h-1.1c0,0,0,0,0,0s0,0,0,0c-0.2-0.7-0.4-1.3-0.6-2
		s-0.4-1.3-0.6-2l-1.2,4c0,0,0,0,0,0s0,0,0,0H647.2z"/>
	<path class="st1" d="M640,358.3C640,358.3,640,358.2,640,358.3l-0.1-4.1c0-0.7,0.2-1.3,0.7-1.6c0.2-0.2,0.5-0.3,0.8-0.3
		s0.6-0.1,1-0.1c0.9,0,1.6,0.3,2,0.9c0,0,0,0,0,0s0,0,0,0l-0.9,0.7c0,0-0.1,0-0.1,0c0-0.1-0.1-0.1-0.2-0.2s-0.1-0.1-0.2-0.1h0
		c-0.1,0-0.2-0.1-0.3-0.1s-0.2,0-0.4,0c-0.8,0-1.1,0.2-1.1,0.7v0.6h1.5c0.6,0,1.1,0.2,1.5,0.5c0.3,0.4,0.5,0.8,0.5,1.3
		c0,0.5-0.2,1-0.6,1.3v0c-0.4,0.4-0.9,0.5-1.5,0.6c-0.2,0-0.4,0-0.5,0s-0.3-0.1-0.4-0.1c-0.1,0-0.2-0.1-0.2-0.1s-0.1-0.1-0.2-0.2
		v0.3c0,0,0,0.1-0.1,0.1H640z M641.3,356.1c0,0.4,0.1,0.7,0.2,0.8h0c0.2,0.1,0.5,0.2,1,0.2c0.4,0,0.6-0.1,0.8-0.2
		c0.2-0.1,0.2-0.3,0.2-0.5c0-0.4-0.3-0.6-0.9-0.7h-1.3V356.1z"/>
	<path class="st1" d="M636.3,358.2C636.2,358.2,636.2,358.2,636.3,358.2C636.2,358.2,636.2,358.2,636.3,358.2l-2.2-6c0,0,0,0,0-0.1
		s0,0,0.1,0h1.3c0,0,0.1,0,0.1,0c0.2,0.7,0.4,1.3,0.7,2s0.4,1.3,0.7,2l1.3-4c0,0,0,0,0.1,0h1.3c0,0,0,0,0.1,0s0,0,0,0.1l-2.2,5.9
		c0,0,0,0,0,0s0,0,0,0H636.3z"/>
	<path class="st1" d="M628.6,354.7c0-0.8,0.3-1.4,0.8-1.9c0.5-0.5,1.1-0.7,1.8-0.7c0.6,0,1.2,0.2,1.7,0.7c0.5,0.5,0.8,1.3,0.8,2.4
		c0,1.2-0.3,2.1-0.9,2.5c-0.6,0.4-1.2,0.6-1.8,0.6c-0.4,0-0.8-0.1-1.2-0.2s-0.7-0.4-1-0.8c0,0,0,0,0-0.1s0,0,0,0l0.9-0.7
		c0,0,0,0,0.1,0s0,0,0,0c0.4,0.4,0.8,0.6,1.3,0.6c0.4,0,0.7-0.1,1-0.4c0.2-0.2,0.4-0.5,0.4-1h-3.6c0,0-0.1,0-0.1-0.1V354.7z
		 M632.3,354.6c0-0.2,0-0.4-0.1-0.5s-0.1-0.3-0.2-0.4c-0.2-0.2-0.5-0.3-0.8-0.3c-0.3,0-0.6,0.1-0.8,0.3s-0.3,0.5-0.4,0.9H632.3z"/>
	<path class="st1" d="M627.1,358.3C627,358.3,627,358.3,627.1,358.3l-2.9-8.5c0,0,0,0,0-0.1s0,0,0.1,0h0.9c0,0,0.1,0,0.1,0l2.8,8.5
		c0,0,0,0,0,0.1s0,0-0.1,0H627.1z"/>
	<path class="st1" d="M620.8,358.2C620.7,358.2,620.7,358.2,620.8,358.2c-0.3-1-0.6-2-0.8-3s-0.5-1.9-0.8-2.9l-1.6,5.8
		c0,0,0,0.1-0.1,0.1h-1.1c0,0-0.1,0-0.1-0.1l-2.1-8.4c0,0,0,0,0-0.1s0,0,0.1,0h1.3c0,0,0.1,0,0.1,0.1c0.2,1,0.4,1.9,0.6,2.9
		s0.4,1.9,0.6,2.9l1.6-5.7c0,0,0-0.1,0.1-0.1h0.9c0,0,0.1,0,0.1,0.1c0.3,1,0.5,1.9,0.8,2.9s0.5,1.9,0.8,2.9l1.3-5.7
		c0,0,0-0.1,0.1-0.1h1.3c0,0,0,0,0.1,0s0,0,0,0.1l-2.1,8.4c0,0,0,0.1-0.1,0.1H620.8z"/>
	<path class="st1" d="M612.1,351.1C612.1,351.1,612,351.1,612.1,351.1l-0.1-1.3c0,0,0-0.1,0.1-0.1h1.2c0,0,0.1,0,0.1,0.1v1.2
		c0,0,0,0.1-0.1,0.1H612.1z M612.1,358.2C612.1,358.2,612,358.2,612.1,358.2l-0.1-6c0,0,0-0.1,0.1-0.1h1.2c0,0,0.1,0,0.1,0.1v5.9
		c0,0,0,0.1-0.1,0.1H612.1z"/>
	<path class="st1" d="M609.1,358.2C609,358.2,609,358.2,609.1,358.2l-0.1-5h-1.1c0,0-0.1,0-0.1-0.1v-0.9c0,0,0-0.1,0.1-0.1h1.1v-0.7
		c0-0.3-0.2-0.4-0.5-0.4h-0.7c0,0-0.1,0-0.1-0.1v-1.1c0,0,0-0.1,0.1-0.1h0.8c0.5,0,0.9,0.1,1.2,0.4c0.2,0.1,0.3,0.3,0.4,0.5
		s0.1,0.5,0.1,0.7v0.7h0.5c0,0,0.1,0,0.1,0.1v0.9c0,0,0,0.1-0.1,0.1h-0.5v5c0,0,0,0.1-0.1,0.1H609.1z"/>
	<path class="st1" d="M605.9,351.1C605.8,351.1,605.8,351.1,605.9,351.1l-0.1-1.3c0,0,0-0.1,0.1-0.1h1.2c0,0,0.1,0,0.1,0.1v1.2
		c0,0,0,0.1-0.1,0.1H605.9z M605.9,358.2C605.8,358.2,605.8,358.2,605.9,358.2l-0.1-6c0,0,0-0.1,0.1-0.1h1.2c0,0,0.1,0,0.1,0.1v5.9
		c0,0,0,0.1-0.1,0.1H605.9z"/>
	<path class="st1" d="M591.4,358.2C591.3,358.2,591.3,358.2,591.4,358.2l-0.1-8.5c0,0,0-0.1,0.1-0.1h1.3c0,0,0.1,0,0.1,0.1v8.4
		c0,0,0,0.1-0.1,0.1H591.4z"/>
	<path class="st1" d="M588.4,358.2C588.4,358.2,588.4,358.2,588.4,358.2l-0.1-3.6c0-0.4-0.1-0.7-0.3-0.9c-0.2-0.2-0.5-0.3-0.8-0.3
		c-0.3,0-0.6,0.1-0.8,0.3c-0.2,0.2-0.3,0.5-0.3,0.9v3.5c0,0,0,0.1-0.1,0.1h-1.2c0,0-0.1,0-0.1-0.1v-3.9c0-0.7,0.2-1.2,0.7-1.6
		c0.2-0.2,0.5-0.3,0.7-0.4s0.5-0.1,0.7-0.1c0.6,0,1.1,0.2,1.5,0.6v-0.5c0,0,0-0.1,0.1-0.1h1.2c0,0,0.1,0,0.1,0.1v5.9
		c0,0,0,0.1-0.1,0.1H588.4z"/>
	<path class="st1" d="M581.8,358.2C581.8,358.2,581.7,358.2,581.8,358.2l-0.1-5h-1.1c0,0-0.1,0-0.1-0.1v-0.9c0,0,0-0.1,0.1-0.1h1.1
		v-0.7c0-0.3-0.2-0.4-0.5-0.4h-0.7c0,0-0.1,0-0.1-0.1v-1.1c0,0,0-0.1,0.1-0.1h0.8c0.5,0,0.9,0.1,1.2,0.4c0.2,0.1,0.3,0.3,0.4,0.5
		s0.1,0.5,0.1,0.7v0.7h0.5c0,0,0.1,0,0.1,0.1v0.9c0,0,0,0.1-0.1,0.1h-0.5v5c0,0,0,0.1-0.1,0.1H581.8z"/>
	<path class="st1" d="M578.7,358.2C578.6,358.2,578.6,358.2,578.7,358.2l-0.1-3.6c0-0.4-0.1-0.7-0.3-0.9c-0.2-0.2-0.5-0.3-0.8-0.3
		c-0.2,0-0.5,0.1-0.8,0.3c0,0-0.1,0-0.1,0l-0.9-1c0,0,0,0,0-0.1s0,0,0,0c0.4-0.3,0.8-0.5,1.3-0.5c0.6,0,1.1,0.2,1.5,0.6v-0.5
		c0,0,0-0.1,0.1-0.1h1.2c0,0,0.1,0,0.1,0.1v5.9c0,0,0,0.1-0.1,0.1H578.7z"/>
	<path class="st1" d="M570.9,358.3C570.8,358.3,570.8,358.2,570.9,358.3l-0.1-4.1c0-0.7,0.2-1.3,0.7-1.6c0.2-0.2,0.5-0.3,0.8-0.3
		s0.6-0.1,1-0.1c0.9,0,1.6,0.3,2,0.9c0,0,0,0,0,0s0,0,0,0l-0.9,0.7c0,0-0.1,0-0.1,0c0-0.1-0.1-0.1-0.2-0.2s-0.1-0.1-0.2-0.1h0
		c-0.1,0-0.2-0.1-0.3-0.1s-0.2,0-0.4,0c-0.8,0-1.1,0.2-1.1,0.7v0.6h1.5c0.6,0,1.1,0.2,1.5,0.5c0.3,0.4,0.5,0.8,0.5,1.3
		c0,0.5-0.2,1-0.6,1.3v0c-0.4,0.4-0.9,0.5-1.5,0.6c-0.2,0-0.4,0-0.5,0s-0.3-0.1-0.4-0.1c-0.1,0-0.2-0.1-0.2-0.1s-0.1-0.1-0.2-0.2
		v0.3c0,0,0,0.1-0.1,0.1H570.9z M572.1,356.1c0,0.4,0.1,0.7,0.2,0.8h0c0.2,0.1,0.5,0.2,1,0.2c0.4,0,0.6-0.1,0.8-0.2
		c0.2-0.1,0.2-0.3,0.2-0.5c0-0.4-0.3-0.6-0.9-0.7h-1.3V356.1z"/>
	<path class="st1" d="M568.2,358.2C568.2,358.2,568.2,358.2,568.2,358.2l-0.1-3.6c0-0.4-0.1-0.7-0.3-0.9c-0.2-0.2-0.5-0.3-0.8-0.3
		c-0.2,0-0.5,0.1-0.8,0.3c0,0-0.1,0-0.1,0l-0.9-1c0,0,0,0,0-0.1s0,0,0,0c0.4-0.3,0.8-0.5,1.3-0.5c0.6,0,1.1,0.2,1.5,0.6v-0.5
		c0,0,0-0.1,0.1-0.1h1.2c0,0,0.1,0,0.1,0.1v5.9c0,0,0,0.1-0.1,0.1H568.2z"/>
	<path class="st1" d="M560.1,354.7c0-0.8,0.3-1.4,0.8-1.9c0.5-0.5,1.1-0.7,1.8-0.7c0.6,0,1.2,0.2,1.7,0.7c0.5,0.5,0.8,1.3,0.8,2.4
		c0,1.2-0.3,2.1-0.9,2.5c-0.6,0.4-1.2,0.6-1.8,0.6c-0.4,0-0.8-0.1-1.2-0.2s-0.7-0.4-1-0.8c0,0,0,0,0-0.1s0,0,0,0l0.9-0.7
		c0,0,0,0,0.1,0s0,0,0,0c0.4,0.4,0.8,0.6,1.3,0.6c0.4,0,0.7-0.1,1-0.4c0.2-0.2,0.4-0.5,0.4-1h-3.6c0,0-0.1,0-0.1-0.1V354.7z
		 M563.8,354.6c0-0.2,0-0.4-0.1-0.5s-0.1-0.3-0.2-0.4c-0.2-0.2-0.5-0.3-0.8-0.3c-0.3,0-0.6,0.1-0.8,0.3s-0.3,0.5-0.4,0.9H563.8z"/>
	<path class="st1" d="M554,358.2C554,358.2,554,358.2,554,358.2l-0.1-8.4c0,0,0-0.1,0.1-0.1h1.2c0,0,0.1,0,0.1,0.1v2.9
		c0.2-0.2,0.4-0.3,0.7-0.4s0.5-0.2,0.8-0.2c0.4,0,0.7,0.1,1,0.2s0.5,0.3,0.7,0.6h0c0.1,0.1,0.2,0.2,0.2,0.4s0.1,0.3,0.1,0.4
		c0.1,0.3,0.1,0.8,0.1,1.5c0,0.7,0,1.3-0.1,1.5c-0.1,0.3-0.2,0.6-0.4,0.8h0c-0.2,0.2-0.4,0.4-0.7,0.6s-0.6,0.2-1,0.2
		c-0.6,0-1.1-0.2-1.5-0.6v0.4c0,0,0,0.1-0.1,0.1H554z M555.5,354c-0.1,0.4-0.2,0.8-0.2,1.2c0,0.4,0.1,0.8,0.2,1.2
		c0.1,0.4,0.4,0.6,0.9,0.6c0.5,0,0.9-0.2,1-0.5h0c0.1-0.2,0.1-0.4,0.1-0.6s0-0.4,0-0.7c0-0.2,0-0.4,0-0.6s-0.1-0.4-0.1-0.6h0
		c-0.1-0.4-0.4-0.5-1-0.5C555.9,353.4,555.6,353.6,555.5,354z"/>
	<path class="st1" d="M540.9,358.2C540.9,358.2,540.9,358.2,540.9,358.2l-2.8-8.4c0,0,0,0,0-0.1s0,0,0.1,0h1.3c0,0,0.1,0,0.1,0.1
		c0.3,1,0.6,2.1,0.9,3.1s0.6,2.1,0.9,3.1l1.9-6.2c0,0,0-0.1,0.1-0.1h1.3c0,0,0,0,0.1,0s0,0,0,0.1l-2.8,8.4c0,0,0,0-0.1,0H540.9z"/>
	<path class="st1" d="M536,351.1C536,351.1,536,351.1,536,351.1l-0.1-1.3c0,0,0-0.1,0.1-0.1h1.2c0,0,0.1,0,0.1,0.1v1.2
		c0,0,0,0.1-0.1,0.1H536z M536,358.2C536,358.2,536,358.2,536,358.2l-0.1-6c0,0,0-0.1,0.1-0.1h1.2c0,0,0.1,0,0.1,0.1v5.9
		c0,0,0,0.1-0.1,0.1H536z"/>
	<path class="st1" d="M535.1,357.1c0,0,0,0.1,0,0.1c-0.8,0.7-1.7,1.1-2.7,1.1c-0.4,0-0.7,0-1-0.1s-0.6-0.2-0.8-0.4
		c-0.5-0.3-0.7-0.8-0.7-1.4c0-0.5,0.1-0.9,0.4-1.2c0.1-0.2,0.3-0.3,0.6-0.4s0.5-0.2,0.8-0.2c0.2,0,0.3,0,0.5,0s0.3,0,0.5,0
		c0.3,0,0.5-0.1,0.6-0.2c0.1-0.1,0.1-0.2,0.1-0.3c0-0.2-0.1-0.3-0.2-0.5c-0.1-0.1-0.4-0.2-0.8-0.2c-0.3,0-0.6,0-0.8,0.1
		s-0.5,0.2-0.7,0.4c0,0-0.1,0-0.1,0l-0.7-0.9c0,0,0,0,0-0.1s0,0,0,0c0.2-0.1,0.3-0.2,0.5-0.3s0.3-0.2,0.5-0.3s0.4-0.1,0.6-0.2
		s0.5-0.1,0.7-0.1c0.6,0,1.2,0.2,1.6,0.5c0.4,0.3,0.7,0.8,0.7,1.4c0,0.5-0.2,1-0.5,1.2c-0.2,0.1-0.4,0.3-0.6,0.3s-0.4,0.1-0.7,0.2
		l-1.1,0.1c-0.4,0-0.7,0.2-0.7,0.5c0,0.1,0,0.2,0.1,0.3s0.1,0.2,0.2,0.2c0.2,0.1,0.5,0.2,0.8,0.2c0.7,0,1.3-0.2,1.8-0.7
		c0,0,0.1,0,0.1,0L535.1,357.1z"/>
	<path class="st1" d="M527.4,351.1C527.4,351.1,527.3,351.1,527.4,351.1l-0.1-1.3c0,0,0-0.1,0.1-0.1h1.2c0,0,0.1,0,0.1,0.1v1.2
		c0,0,0,0.1-0.1,0.1H527.4z M527.4,358.2C527.4,358.2,527.3,358.2,527.4,358.2l-0.1-6c0,0,0-0.1,0.1-0.1h1.2c0,0,0.1,0,0.1,0.1v5.9
		c0,0,0,0.1-0.1,0.1H527.4z"/>
	<path class="st1" d="M524.6,358.2C524.5,358.2,524.5,358.2,524.6,358.2l-0.1-0.5c-0.4,0.4-0.9,0.6-1.5,0.6c-0.4,0-0.7-0.1-1-0.2
		s-0.5-0.3-0.7-0.6h0c-0.2-0.2-0.3-0.5-0.3-0.8v0c-0.1-0.3-0.1-0.8-0.1-1.6c0-0.7,0-1.3,0.1-1.5v0c0-0.1,0.1-0.3,0.1-0.4
		s0.1-0.3,0.2-0.4c0.1-0.1,0.2-0.2,0.3-0.3s0.2-0.2,0.4-0.3s0.3-0.1,0.4-0.2s0.3-0.1,0.5-0.1c0.3,0,0.6,0.1,0.8,0.2s0.5,0.3,0.7,0.4
		v-2.9c0,0,0-0.1,0.1-0.1h1.2c0,0,0.1,0,0.1,0.1v8.3c0,0,0,0.1-0.1,0.1H524.6z M522.4,353.9c-0.1,0.4-0.2,0.8-0.2,1.2
		c0,0.5,0.1,0.9,0.2,1.3c0.1,0.4,0.4,0.5,0.9,0.5c0.5,0,0.8-0.2,0.9-0.6c0.1-0.2,0.1-0.4,0.1-0.6s0-0.4,0-0.6c0-0.2,0-0.4,0-0.6
		s-0.1-0.4-0.1-0.6c-0.1-0.4-0.4-0.6-0.9-0.6C522.9,353.4,522.5,353.6,522.4,353.9z"/>
	<path class="st1" d="M519.6,356.7c0,0.6-0.2,1-0.5,1.2c-0.3,0.2-0.7,0.3-1.1,0.3h-0.5c0,0-0.1,0-0.1-0.1V357c0,0,0-0.1,0.1-0.1h0.4
		c0.3,0,0.4-0.1,0.4-0.3v-6.8c0,0,0-0.1,0.1-0.1h1.2c0,0,0.1,0,0.1,0.1V356.7z"/>
	<path class="st1" d="M511.8,354.7c0-0.8,0.3-1.4,0.8-1.9c0.5-0.5,1.1-0.7,1.8-0.7c0.6,0,1.2,0.2,1.7,0.7c0.5,0.5,0.8,1.3,0.8,2.4
		c0,1.2-0.3,2.1-0.9,2.5c-0.6,0.4-1.2,0.6-1.8,0.6c-0.4,0-0.8-0.1-1.2-0.2s-0.7-0.4-1-0.8c0,0,0,0,0-0.1s0,0,0,0l0.9-0.7
		c0,0,0,0,0.1,0s0,0,0,0c0.4,0.4,0.8,0.6,1.3,0.6c0.4,0,0.7-0.1,1-0.4c0.2-0.2,0.4-0.5,0.4-1h-3.6c0,0-0.1,0-0.1-0.1V354.7z
		 M515.5,354.6c0-0.2,0-0.4-0.1-0.5s-0.1-0.3-0.2-0.4c-0.2-0.2-0.5-0.3-0.8-0.3c-0.3,0-0.6,0.1-0.8,0.3s-0.3,0.5-0.4,0.9H515.5z"/>
	<path class="st1" d="M481.8,355.3c0,0.9-0.3,1.6-0.9,2.2c-0.6,0.5-1.3,0.8-2.2,0.8c-0.8,0-1.6-0.3-2.2-0.8
		c-0.6-0.5-0.9-1.3-0.9-2.2v-5.6c0,0,0-0.1,0.1-0.1h1.3c0,0,0.1,0,0.1,0.1v5.4c0,0.6,0.2,1,0.5,1.3s0.7,0.4,1.2,0.4
		c0.5,0,0.9-0.1,1.2-0.4c0.3-0.3,0.5-0.7,0.5-1.3v-5.4c0,0,0-0.1,0.1-0.1h1.3c0,0,0.1,0,0.1,0.1V355.3z"/>
	<path class="st1" d="M471.1,358.2C471.1,358.2,471.1,358.2,471.1,358.2l-2.8-8.4c0,0,0,0,0-0.1s0,0,0.1,0h1.3c0,0,0.1,0,0.1,0.1
		c0.3,1,0.6,2.1,0.9,3.1s0.6,2.1,0.9,3.1l1.9-6.2c0,0,0-0.1,0.1-0.1h1.3c0,0,0,0,0.1,0s0,0,0,0.1l-2.8,8.4c0,0,0,0-0.1,0H471.1z"/>
	<path class="st1" d="M459.1,358.2C459.1,358.2,459,358.2,459.1,358.2L459,357c0,0,0-0.1,0.1-0.1h4v-7.1c0,0,0-0.1,0.1-0.1h1.3
		c0,0,0.1,0,0.1,0.1v8.4c0,0,0,0.1-0.1,0.1H459.1z"/>
	<path class="st1" d="M456.7,351.1C456.7,351.1,456.6,351.1,456.7,351.1l-0.1-1.3c0,0,0-0.1,0.1-0.1h1.2c0,0,0.1,0,0.1,0.1v1.2
		c0,0,0,0.1-0.1,0.1H456.7z M456.7,358.2C456.7,358.2,456.6,358.2,456.7,358.2l-0.1-6c0,0,0-0.1,0.1-0.1h1.2c0,0,0.1,0,0.1,0.1v5.9
		c0,0,0,0.1-0.1,0.1H456.7z"/>
	<path class="st1" d="M451.8,358.2c0,0.4,0.1,0.7,0.4,0.9c0.2,0.2,0.5,0.3,0.9,0.3c0.2,0,0.4-0.1,0.6-0.2s0.4-0.2,0.5-0.4
		c0,0,0.1,0,0.1,0l0.9,0.7c0,0,0,0,0,0s0,0,0,0.1c-0.3,0.3-0.6,0.5-1,0.7c-0.4,0.2-0.8,0.3-1.1,0.3c-0.7,0-1.3-0.2-1.8-0.7
		c-0.5-0.4-0.8-1.1-0.8-2v-5.8c0,0,0-0.1,0.1-0.1h1.2c0,0,0.1,0,0.1,0.1v0.5c0.4-0.4,0.9-0.6,1.5-0.6c0.4,0,0.7,0.1,1,0.3
		c0.3,0.2,0.5,0.3,0.6,0.5c0.1,0.1,0.2,0.2,0.2,0.4s0.1,0.2,0.1,0.4c0.1,0.2,0.1,0.8,0.1,1.6c0,0.8,0,1.4-0.1,1.6
		c0,0.1-0.1,0.2-0.1,0.4s-0.1,0.2-0.2,0.4c-0.1,0.1-0.2,0.2-0.3,0.3s-0.2,0.2-0.4,0.2c-0.3,0.2-0.6,0.2-1,0.2
		c-0.6,0-1.1-0.2-1.5-0.6V358.2z M454,354.6c0-0.2,0-0.3,0-0.4c0-0.2-0.1-0.3-0.2-0.4c0-0.1-0.1-0.1-0.1-0.2s-0.1-0.1-0.2-0.1
		s-0.2-0.1-0.3-0.1s-0.2,0-0.3,0c-0.1,0-0.2,0-0.3,0s-0.2,0.1-0.2,0.1s-0.1,0.1-0.2,0.1s-0.1,0.1-0.1,0.1h0
		c-0.1,0.1-0.2,0.3-0.2,0.4c0,0.1,0,0.2,0,0.4s0,0.4,0,0.6s0,0.4,0,0.6s0,0.3,0,0.4c0,0.1,0,0.1,0.1,0.2s0.1,0.1,0.1,0.2
		c0,0.1,0.1,0.1,0.1,0.2s0.1,0.1,0.2,0.1s0.2,0.1,0.2,0.1s0.2,0,0.3,0c0.1,0,0.2,0,0.3,0s0.2-0.1,0.3-0.1s0.1-0.1,0.2-0.1
		s0.1-0.1,0.1-0.2c0.1-0.1,0.1-0.1,0.1-0.2s0.1-0.1,0.1-0.2c0-0.1,0-0.2,0-0.4s0-0.4,0-0.6S454,354.8,454,354.6z"/>
	<path class="st1" d="M447.6,358.2C447.6,358.2,447.6,358.2,447.6,358.2l-0.1-3.6c0-0.4-0.1-0.7-0.3-0.9c-0.2-0.2-0.5-0.3-0.8-0.3
		c-0.3,0-0.6,0.1-0.8,0.3c-0.2,0.2-0.3,0.5-0.3,0.9v3.5c0,0,0,0.1-0.1,0.1h-1.2c0,0-0.1,0-0.1-0.1v-3.9c0-0.7,0.2-1.2,0.7-1.6
		c0.2-0.2,0.5-0.3,0.7-0.4s0.5-0.1,0.7-0.1c0.6,0,1.1,0.2,1.5,0.6v-2.9c0,0,0-0.1,0.1-0.1h1.2c0,0,0.1,0,0.1,0.1v8.3
		c0,0,0,0.1-0.1,0.1H447.6z"/>
	<path class="st1" d="M441.1,358.2C441.1,358.2,441.1,358.2,441.1,358.2l-0.1-5h-0.8c0,0-0.1,0-0.1-0.1v-0.9c0,0,0-0.1,0.1-0.1h0.8
		V350c0,0,0-0.1,0-0.1s0.1,0,0.1,0l1.2,1.3v0.9h0.5c0,0,0.1,0,0.1,0.1v0.9c0,0,0,0.1-0.1,0.1h-0.5v5c0,0,0,0.1-0.1,0.1H441.1z"/>
	<path class="st1" d="M421.9,358.2C421.8,358.2,421.8,358.2,421.9,358.2c-0.1-0.1-0.1-0.1-0.1-0.1c0.4-0.7,0.9-1.4,1.3-2.1
		s0.8-1.4,1.3-2.1l-2.4-4.1c0,0,0-0.1,0-0.1s0,0,0.1,0h1.4c0,0,0,0,0.1,0c0.3,0.5,0.5,0.9,0.8,1.4s0.5,0.9,0.8,1.4l1.6-2.8
		c0,0,0,0,0.1,0h1.4c0,0,0,0,0.1,0s0,0,0,0.1c-0.4,0.7-0.8,1.4-1.2,2s-0.8,1.3-1.2,2l2.5,4.3c0,0,0,0.1,0,0.1s0,0-0.1,0H427
		c0,0,0,0-0.1,0c-0.3-0.5-0.6-1-0.9-1.5s-0.6-1-0.9-1.5l-1.8,3c0,0,0,0-0.1,0H421.9z"/>
	<path class="st1" d="M417.7,355.6C417.7,355.6,417.7,355.6,417.7,355.6l-0.1-1.3c0,0,0-0.1,0.1-0.1h3.5c0,0,0.1,0,0.1,0.1v1.2
		c0,0,0,0.1-0.1,0.1H417.7z"/>
	<path class="st1" d="M415,358.2C415,358.2,415,358.2,415,358.2l-0.1-3.6c0-0.4-0.1-0.7-0.3-0.9c-0.2-0.2-0.5-0.3-0.8-0.3
		c-0.2,0-0.5,0.1-0.8,0.3c0,0-0.1,0-0.1,0l-0.9-1c0,0,0,0,0-0.1s0,0,0,0c0.4-0.3,0.8-0.5,1.3-0.5c0.6,0,1.1,0.2,1.5,0.6v-0.5
		c0,0,0-0.1,0.1-0.1h1.2c0,0,0.1,0,0.1,0.1v5.9c0,0,0,0.1-0.1,0.1H415z"/>
	<path class="st1" d="M407.3,358.3C407.2,358.3,407.2,358.2,407.3,358.3l-0.1-4.1c0-0.7,0.2-1.3,0.7-1.6c0.2-0.2,0.5-0.3,0.8-0.3
		s0.6-0.1,1-0.1c0.9,0,1.6,0.3,2,0.9c0,0,0,0,0,0s0,0,0,0l-0.9,0.7c0,0-0.1,0-0.1,0c0-0.1-0.1-0.1-0.2-0.2s-0.1-0.1-0.2-0.1h0
		c-0.1,0-0.2-0.1-0.3-0.1s-0.2,0-0.4,0c-0.8,0-1.1,0.2-1.1,0.7v0.6h1.5c0.6,0,1.1,0.2,1.5,0.5c0.3,0.4,0.5,0.8,0.5,1.3
		c0,0.5-0.2,1-0.6,1.3v0c-0.4,0.4-0.9,0.5-1.5,0.6c-0.2,0-0.4,0-0.5,0s-0.3-0.1-0.4-0.1c-0.1,0-0.2-0.1-0.2-0.1s-0.1-0.1-0.2-0.2
		v0.3c0,0,0,0.1-0.1,0.1H407.3z M408.5,356.1c0,0.4,0.1,0.7,0.2,0.8h0c0.2,0.1,0.5,0.2,1,0.2c0.4,0,0.6-0.1,0.8-0.2
		c0.2-0.1,0.2-0.3,0.2-0.5c0-0.4-0.3-0.6-0.9-0.7h-1.3V356.1z"/>
	<path class="st1" d="M404.9,358.9c0.1,0.3,0.3,0.5,0.7,0.5h0.4c0,0,0.1,0,0.1,0.1v1.1c0,0,0,0.1-0.1,0.1h-0.4c-0.2,0-0.4,0-0.5-0.1
		s-0.3-0.1-0.5-0.2v0c-0.3-0.2-0.6-0.5-0.7-1l-2.6-7.2c0,0,0,0,0-0.1s0,0,0.1,0h1.3c0,0,0,0,0,0s0,0,0,0c0.2,0.7,0.5,1.3,0.7,2
		s0.5,1.3,0.7,2l1.4-4c0,0,0,0,0,0s0,0,0,0h1.3c0,0,0,0,0.1,0s0,0,0,0.1c-0.4,0.9-0.7,1.9-1.1,2.8s-0.7,1.9-1.1,2.8L404.9,358.9z"/>
	<path class="st1" d="M387.4,354.8v0.4c0,0.5,0.2,0.9,0.5,1.2c0.3,0.3,0.7,0.5,1.2,0.5c0.3,0,0.5-0.1,0.8-0.2s0.4-0.3,0.5-0.4
		c0.1-0.1,0.1-0.2,0.2-0.3s0.1-0.2,0.1-0.4c0-0.1,0.1-0.3,0.1-0.6s0-0.6,0-1.1c0-0.4,0-0.8,0-1s0-0.5-0.1-0.6c0-0.1-0.1-0.2-0.1-0.4
		s-0.1-0.2-0.2-0.3c-0.1-0.2-0.3-0.3-0.5-0.4s-0.5-0.2-0.8-0.2c-0.4,0-0.7,0.1-1,0.3c-0.1,0.1-0.3,0.2-0.3,0.4s-0.2,0.3-0.2,0.4
		c0,0,0,0-0.1,0h-1.3c0,0,0,0-0.1,0s0,0,0-0.1c0.1-0.7,0.5-1.3,1-1.8c0.5-0.5,1.2-0.8,2-0.8c0.7,0,1.2,0.2,1.7,0.5
		c0.5,0.3,0.8,0.7,1,1.1h0c0.1,0.1,0.1,0.3,0.2,0.4s0.1,0.3,0.1,0.4c0,0.1,0,0.4,0.1,0.7s0,0.7,0,1.3s0,0.9,0,1.3s0,0.6-0.1,0.7
		c0,0.1-0.1,0.3-0.1,0.4s-0.1,0.3-0.2,0.4h0c-0.2,0.4-0.5,0.7-1,1.1c-0.5,0.3-1,0.5-1.7,0.5c-0.8,0-1.6-0.3-2.2-0.9
		c-0.6-0.6-0.9-1.3-0.9-2.2v-1.7c0,0,0-0.1,0.1-0.1h3c0,0,0.1,0,0.1,0.1v1.2c0,0,0,0.1-0.1,0.1H387.4z"/>
	<path class="st1" d="M380.2,358.3C380.2,358.3,380.2,358.2,380.2,358.3l-0.1-4.1c0-0.7,0.2-1.3,0.7-1.6c0.2-0.2,0.5-0.3,0.8-0.3
		s0.6-0.1,1-0.1c0.9,0,1.6,0.3,2,0.9c0,0,0,0,0,0s0,0,0,0l-0.9,0.7c0,0-0.1,0-0.1,0c0-0.1-0.1-0.1-0.2-0.2s-0.1-0.1-0.2-0.1h0
		c-0.1,0-0.2-0.1-0.3-0.1s-0.2,0-0.4,0c-0.8,0-1.1,0.2-1.1,0.7v0.6h1.5c0.6,0,1.1,0.2,1.5,0.5c0.3,0.4,0.5,0.8,0.5,1.3
		c0,0.5-0.2,1-0.6,1.3v0c-0.4,0.4-0.9,0.5-1.5,0.6c-0.2,0-0.4,0-0.5,0s-0.3-0.1-0.4-0.1c-0.1,0-0.2-0.1-0.2-0.1s-0.1-0.1-0.2-0.2
		v0.3c0,0,0,0.1-0.1,0.1H380.2z M381.4,356.1c0,0.4,0.1,0.7,0.2,0.8h0c0.2,0.1,0.5,0.2,1,0.2c0.4,0,0.6-0.1,0.8-0.2
		c0.2-0.1,0.2-0.3,0.2-0.5c0-0.4-0.3-0.6-0.9-0.7h-1.3V356.1z"/>
	<path class="st1" d="M377.5,358.2C377.4,358.2,377.4,358.2,377.5,358.2l-0.1-3.6c0-0.4-0.1-0.7-0.3-0.9c-0.2-0.2-0.5-0.3-0.8-0.3
		c-0.3,0-0.6,0.1-0.8,0.3s-0.3,0.5-0.3,0.9v3.5c0,0,0,0.1-0.1,0.1h-1.2c0,0-0.1,0-0.1-0.1v-3.5c0-0.4-0.1-0.7-0.3-0.9
		c-0.2-0.2-0.5-0.3-0.8-0.3c-0.3,0-0.6,0.1-0.8,0.3c-0.2,0.2-0.3,0.5-0.3,0.9v3.5c0,0,0,0.1-0.1,0.1h-1.2c0,0-0.1,0-0.1-0.1v-3.9
		c0-0.7,0.2-1.2,0.7-1.6c0.4-0.4,0.9-0.5,1.4-0.5c0.8,0,1.4,0.2,1.9,0.7c0.1-0.1,0.2-0.2,0.3-0.3s0.2-0.2,0.3-0.2
		c0.3-0.2,0.6-0.2,1-0.2c0.6,0,1.1,0.2,1.5,0.6v-0.5c0,0,0-0.1,0.1-0.1h1.2c0,0,0.1,0,0.1,0.1v5.9c0,0,0,0.1-0.1,0.1H377.5z"/>
	<path class="st1" d="M367.3,358.2C367.2,358.2,367.2,358.2,367.3,358.2l-0.1-3.6c0-0.4-0.1-0.7-0.3-0.9c-0.2-0.2-0.5-0.3-0.8-0.3
		c-0.3,0-0.6,0.1-0.8,0.3s-0.3,0.5-0.3,0.9v3.5c0,0,0,0.1-0.1,0.1h-1.2c0,0-0.1,0-0.1-0.1v-3.5c0-0.4-0.1-0.7-0.3-0.9
		c-0.2-0.2-0.5-0.3-0.8-0.3c-0.3,0-0.6,0.1-0.8,0.3c-0.2,0.2-0.3,0.5-0.3,0.9v3.5c0,0,0,0.1-0.1,0.1h-1.2c0,0-0.1,0-0.1-0.1v-3.9
		c0-0.7,0.2-1.2,0.7-1.6c0.4-0.4,0.9-0.5,1.4-0.5c0.8,0,1.4,0.2,1.9,0.7c0.1-0.1,0.2-0.2,0.3-0.3s0.2-0.2,0.3-0.2
		c0.3-0.2,0.6-0.2,1-0.2c0.6,0,1.1,0.2,1.5,0.6v-0.5c0,0,0-0.1,0.1-0.1h1.2c0,0,0.1,0,0.1,0.1v5.9c0,0,0,0.1-0.1,0.1H367.3z"/>
	<path class="st1" d="M354,358.3C354,358.3,354,358.2,354,358.3l-0.1-4.1c0-0.7,0.2-1.3,0.7-1.6c0.2-0.2,0.5-0.3,0.8-0.3
		s0.6-0.1,1-0.1c0.9,0,1.6,0.3,2,0.9c0,0,0,0,0,0s0,0,0,0l-0.9,0.7c0,0-0.1,0-0.1,0c0-0.1-0.1-0.1-0.2-0.2s-0.1-0.1-0.2-0.1h0
		c-0.1,0-0.2-0.1-0.3-0.1s-0.2,0-0.4,0c-0.8,0-1.1,0.2-1.1,0.7v0.6h1.5c0.6,0,1.1,0.2,1.5,0.5c0.3,0.4,0.5,0.8,0.5,1.3
		c0,0.5-0.2,1-0.6,1.3v0c-0.4,0.4-0.9,0.5-1.5,0.6c-0.2,0-0.4,0-0.5,0s-0.3-0.1-0.4-0.1c-0.1,0-0.2-0.1-0.2-0.1s-0.1-0.1-0.2-0.2
		v0.3c0,0,0,0.1-0.1,0.1H354z M355.2,356.1c0,0.4,0.1,0.7,0.2,0.8h0c0.2,0.1,0.5,0.2,1,0.2c0.4,0,0.6-0.1,0.8-0.2
		c0.2-0.1,0.2-0.3,0.2-0.5c0-0.4-0.3-0.6-0.9-0.7h-1.3V356.1z"/>
	<path class="st1" d="M348.5,358.2C348.4,358.2,348.4,358.2,348.5,358.2l-0.1-3.6c0-0.4-0.1-0.7-0.3-0.9c-0.2-0.2-0.5-0.3-0.8-0.3
		c-0.2,0-0.5,0.1-0.8,0.3c0,0-0.1,0-0.1,0l-0.9-1c0,0,0,0,0-0.1s0,0,0,0c0.4-0.3,0.8-0.5,1.3-0.5c0.6,0,1.1,0.2,1.5,0.6v-0.5
		c0,0,0-0.1,0.1-0.1h1.2c0,0,0.1,0,0.1,0.1v5.9c0,0,0,0.1-0.1,0.1H348.5z"/>
	<path class="st1" d="M340.7,358.3C340.7,358.3,340.6,358.2,340.7,358.3l-0.1-4.1c0-0.7,0.2-1.3,0.7-1.6c0.2-0.2,0.5-0.3,0.8-0.3
		s0.6-0.1,1-0.1c0.9,0,1.6,0.3,2,0.9c0,0,0,0,0,0s0,0,0,0l-0.9,0.7c0,0-0.1,0-0.1,0c0-0.1-0.1-0.1-0.2-0.2s-0.1-0.1-0.2-0.1h0
		c-0.1,0-0.2-0.1-0.3-0.1s-0.2,0-0.4,0c-0.8,0-1.1,0.2-1.1,0.7v0.6h1.5c0.6,0,1.1,0.2,1.5,0.5c0.3,0.4,0.5,0.8,0.5,1.3
		c0,0.5-0.2,1-0.6,1.3v0c-0.4,0.4-0.9,0.5-1.5,0.6c-0.2,0-0.4,0-0.5,0s-0.3-0.1-0.4-0.1c-0.1,0-0.2-0.1-0.2-0.1s-0.1-0.1-0.2-0.2
		v0.3c0,0,0,0.1-0.1,0.1H340.7z M341.9,356.1c0,0.4,0.1,0.7,0.2,0.8h0c0.2,0.1,0.5,0.2,1,0.2c0.4,0,0.6-0.1,0.8-0.2
		c0.2-0.1,0.2-0.3,0.2-0.5c0-0.4-0.3-0.6-0.9-0.7h-1.3V356.1z"/>
	<path class="st1" d="M338.4,358.9c0.1,0.3,0.3,0.5,0.7,0.5h0.4c0,0,0.1,0,0.1,0.1v1.1c0,0,0,0.1-0.1,0.1H339c-0.2,0-0.4,0-0.5-0.1
		s-0.3-0.1-0.5-0.2v0c-0.3-0.2-0.6-0.5-0.7-1l-2.6-7.2c0,0,0,0,0-0.1s0,0,0.1,0h1.3c0,0,0,0,0,0s0,0,0,0c0.2,0.7,0.5,1.3,0.7,2
		s0.5,1.3,0.7,2l1.4-4c0,0,0,0,0,0s0,0,0,0h1.3c0,0,0,0,0.1,0s0,0,0,0.1c-0.4,0.9-0.7,1.9-1.1,2.8s-0.7,1.9-1.1,2.8L338.4,358.9z"/>
	<path class="st1" d="M794.5,364h0.7c0.2,0.4,0.5,0.8,0.9,1.1s1,0.7,1.5,1v1c-0.3-0.1-0.7-0.3-1.1-0.5s-0.7-0.5-1-0.7v6.7h-1.1V364z
		"/>
	<path class="st1" d="M790.5,372.6v-2.5l-0.7-0.7l-2.1,3.2h-1.3l2.6-3.9l-2.4-2.3h1.4l2.5,2.5V364h1.1v8.6H790.5z"/>
	<path class="st1" d="M784.5,372.6v-3.2c0-0.6-0.1-1-0.2-1.3s-0.3-0.5-0.5-0.7s-0.5-0.2-0.8-0.2c-0.4,0-0.7,0.1-0.8,0.4
		s-0.3,0.6-0.3,1.1v4h-1.1V369c0-0.6-0.1-1.1-0.4-1.4s-0.7-0.4-1.1-0.4c-0.2,0-0.5,0.1-0.6,0.2s-0.3,0.3-0.4,0.4s-0.1,0.5-0.1,0.9
		v3.9h-1v-4.3c0-0.7,0.2-1.2,0.5-1.6s0.8-0.5,1.4-0.5c0.8,0,1.4,0.4,1.9,1.1c0.1-0.3,0.3-0.6,0.6-0.8s0.7-0.3,1.1-0.3
		c0.4,0,0.8,0.1,1.1,0.3s0.6,0.4,0.8,0.7v-0.9h0.9v6.2H784.5z"/>
	<path class="st1" d="M768.5,364h0.7c0.2,0.4,0.5,0.8,0.9,1.1s1,0.7,1.5,1v1c-0.3-0.1-0.7-0.3-1.1-0.5s-0.7-0.5-1-0.7v6.7h-1.1V364z
		"/>
	<path class="st1" d="M765,371.9c-0.5,0.6-1.1,0.9-2,0.9c-0.6,0-1.1-0.2-1.6-0.5s-0.7-0.8-0.9-1.4s-0.3-1.4-0.3-2.4
		c0-0.9,0.1-1.5,0.2-2s0.3-0.9,0.5-1.3s0.5-0.6,0.9-0.8s0.8-0.3,1.2-0.3c0.6,0,1.1,0.2,1.6,0.5s0.7,0.8,0.9,1.4s0.3,1.4,0.3,2.5
		C765.8,370,765.5,371.2,765,371.9z M764.2,365.5c-0.3-0.4-0.7-0.6-1.2-0.6c-0.5,0-0.9,0.2-1.2,0.7s-0.5,1.4-0.5,2.8
		c0,1.4,0.2,2.3,0.5,2.8s0.7,0.7,1.2,0.7s0.9-0.2,1.2-0.7s0.5-1.4,0.5-2.8S764.6,366,764.2,365.5z"/>
	<path class="st1" d="M758.3,371.9c-0.5,0.6-1.1,0.9-2,0.9c-0.6,0-1.1-0.2-1.6-0.5s-0.7-0.8-0.9-1.4s-0.3-1.4-0.3-2.4
		c0-0.9,0.1-1.5,0.2-2s0.3-0.9,0.5-1.3s0.5-0.6,0.9-0.8s0.8-0.3,1.2-0.3c0.6,0,1.1,0.2,1.6,0.5s0.7,0.8,0.9,1.4s0.3,1.4,0.3,2.5
		C759.1,370,758.9,371.2,758.3,371.9z M757.5,365.5c-0.3-0.4-0.7-0.6-1.2-0.6c-0.5,0-0.9,0.2-1.2,0.7s-0.5,1.4-0.5,2.8
		c0,1.4,0.2,2.3,0.5,2.8s0.7,0.7,1.2,0.7s0.9-0.2,1.2-0.7s0.5-1.4,0.5-2.8S757.9,366,757.5,365.5z"/>
	<path class="st1" d="M751.1,372.6v-3.2c0-0.6-0.1-1-0.2-1.3s-0.3-0.5-0.5-0.7s-0.5-0.2-0.8-0.2c-0.4,0-0.7,0.1-0.8,0.4
		s-0.3,0.6-0.3,1.1v4h-1.1V369c0-0.6-0.1-1.1-0.4-1.4s-0.7-0.4-1.1-0.4c-0.2,0-0.5,0.1-0.6,0.2s-0.3,0.3-0.4,0.4s-0.1,0.5-0.1,0.9
		v3.9h-1v-4.3c0-0.7,0.2-1.2,0.5-1.6s0.8-0.5,1.4-0.5c0.8,0,1.4,0.4,1.9,1.1c0.1-0.3,0.3-0.6,0.6-0.8s0.7-0.3,1.1-0.3
		c0.4,0,0.8,0.1,1.1,0.3s0.6,0.4,0.8,0.7v-0.9h0.9v6.2H751.1z"/>
	<path class="st1" d="M735.2,364h0.7c0.2,0.4,0.5,0.8,0.9,1.1s1,0.7,1.5,1v1c-0.3-0.1-0.7-0.3-1.1-0.5s-0.7-0.5-1-0.7v6.7h-1.1V364z
		"/>
	<path class="st1" d="M731.1,372.6v-3.2c0-0.6-0.1-1-0.2-1.3s-0.3-0.5-0.5-0.7s-0.5-0.2-0.8-0.2c-0.4,0-0.7,0.1-0.8,0.4
		s-0.3,0.6-0.3,1.1v4h-1.1V369c0-0.6-0.1-1.1-0.4-1.4s-0.7-0.4-1.1-0.4c-0.2,0-0.5,0.1-0.6,0.2s-0.3,0.3-0.4,0.4s-0.1,0.5-0.1,0.9
		v3.9h-1v-4.3c0-0.7,0.2-1.2,0.5-1.6s0.8-0.5,1.4-0.5c0.8,0,1.4,0.4,1.9,1.1c0.1-0.3,0.3-0.6,0.6-0.8s0.7-0.3,1.1-0.3
		c0.4,0,0.8,0.1,1.1,0.3s0.6,0.4,0.8,0.7v-0.9h0.9v6.2H731.1z"/>
	<path class="st1" d="M676.5,364h0.7c0.2,0.4,0.5,0.8,0.9,1.1s1,0.7,1.5,1v1c-0.3-0.1-0.7-0.3-1.1-0.5s-0.7-0.5-1-0.7v6.7h-1.1V364z
		"/>
	<path class="st1" d="M673,371.9c-0.5,0.6-1.1,0.9-2,0.9c-0.6,0-1.1-0.2-1.6-0.5s-0.7-0.8-0.9-1.4s-0.3-1.4-0.3-2.4
		c0-0.9,0.1-1.5,0.2-2s0.3-0.9,0.5-1.3s0.5-0.6,0.9-0.8s0.8-0.3,1.2-0.3c0.6,0,1.1,0.2,1.6,0.5s0.7,0.8,0.9,1.4s0.3,1.4,0.3,2.5
		C673.8,370,673.5,371.2,673,371.9z M672.2,365.5c-0.3-0.4-0.7-0.6-1.2-0.6c-0.5,0-0.9,0.2-1.2,0.7s-0.5,1.4-0.5,2.8
		c0,1.4,0.2,2.3,0.5,2.8s0.7,0.7,1.2,0.7s0.9-0.2,1.2-0.7s0.5-1.4,0.5-2.8S672.6,366,672.2,365.5z"/>
	<path class="st1" d="M663.3,371.5c0.3,0.3,0.6,0.4,1,0.4c0.5,0,0.9-0.2,1.3-0.6s0.5-1,0.5-1.8c0-0.8-0.2-1.4-0.5-1.8
		s-0.8-0.6-1.3-0.6c-0.4,0-0.7,0.1-0.9,0.3s-0.4,0.5-0.5,0.9l-1-0.2c0.1-0.6,0.4-1.1,0.8-1.5s1-0.5,1.7-0.5c0.5,0,1,0.1,1.5,0.4
		s0.8,0.6,1,1.1s0.3,1.1,0.3,1.8c0,1-0.3,1.8-0.8,2.4s-1.2,0.8-2.1,0.8c-0.7,0-1.3-0.2-1.7-0.6s-0.8-1-0.9-1.7l1-0.1
		C662.9,370.9,663,371.3,663.3,371.5z"/>
	<path class="st1" d="M659.8,372.6v-3.2c0-0.6-0.1-1-0.2-1.3s-0.3-0.5-0.5-0.7s-0.5-0.2-0.8-0.2c-0.4,0-0.7,0.1-0.8,0.4
		s-0.3,0.6-0.3,1.1v4h-1.1V369c0-0.6-0.1-1.1-0.4-1.4s-0.7-0.4-1.1-0.4c-0.2,0-0.5,0.1-0.6,0.2s-0.3,0.3-0.4,0.4s-0.1,0.5-0.1,0.9
		v3.9h-1v-4.3c0-0.7,0.2-1.2,0.5-1.6s0.8-0.5,1.4-0.5c0.8,0,1.4,0.4,1.9,1.1c0.1-0.3,0.3-0.6,0.6-0.8s0.7-0.3,1.1-0.3
		c0.4,0,0.8,0.1,1.1,0.3s0.6,0.4,0.8,0.7v-0.9h0.9v6.2H659.8z"/>
	<path class="st1" d="M591,371.9c-0.5,0.6-1.1,0.9-2,0.9c-0.6,0-1.1-0.2-1.6-0.5s-0.7-0.8-0.9-1.4s-0.3-1.4-0.3-2.4
		c0-0.9,0.1-1.5,0.2-2s0.3-0.9,0.5-1.3s0.5-0.6,0.9-0.8s0.8-0.3,1.2-0.3c0.6,0,1.1,0.2,1.6,0.5s0.7,0.8,0.9,1.4s0.3,1.4,0.3,2.5
		C591.8,370,591.5,371.2,591,371.9z M590.2,365.5c-0.3-0.4-0.7-0.6-1.2-0.6c-0.5,0-0.9,0.2-1.2,0.7s-0.5,1.4-0.5,2.8
		c0,1.4,0.2,2.3,0.5,2.8s0.7,0.7,1.2,0.7s0.9-0.2,1.2-0.7s0.5-1.4,0.5-2.8S590.6,366,590.2,365.5z"/>
	<path class="st1" d="M583.4,372.6v-1.2h1.2v1.2H583.4z"/>
	<path class="st1" d="M581,371.9c-0.5,0.6-1.1,0.9-2,0.9c-0.6,0-1.1-0.2-1.6-0.5s-0.7-0.8-0.9-1.4s-0.3-1.4-0.3-2.4
		c0-0.9,0.1-1.5,0.2-2s0.3-0.9,0.5-1.3s0.5-0.6,0.9-0.8s0.8-0.3,1.2-0.3c0.6,0,1.1,0.2,1.6,0.5s0.7,0.8,0.9,1.4s0.3,1.4,0.3,2.5
		C581.8,370,581.5,371.2,581,371.9z M580.2,365.5c-0.3-0.4-0.7-0.6-1.2-0.6c-0.5,0-0.9,0.2-1.2,0.7s-0.5,1.4-0.5,2.8
		c0,1.4,0.2,2.3,0.5,2.8s0.7,0.7,1.2,0.7s0.9-0.2,1.2-0.7s0.5-1.4,0.5-2.8S580.6,366,580.2,365.5z"/>
	<path class="st1" d="M571.2,364h0.7c0.2,0.4,0.5,0.8,0.9,1.1s1,0.7,1.5,1v1c-0.3-0.1-0.7-0.3-1.1-0.5s-0.7-0.5-1-0.7v6.7h-1.1V364z
		"/>
	<path class="st1" d="M564.6,371.5c0.3,0.3,0.6,0.4,1,0.4c0.5,0,0.9-0.2,1.3-0.6s0.5-1,0.5-1.8c0-0.8-0.2-1.4-0.5-1.8
		s-0.8-0.6-1.3-0.6c-0.4,0-0.7,0.1-0.9,0.3c-0.2,0.2-0.4,0.5-0.5,0.9l-1-0.2c0.1-0.6,0.4-1.1,0.8-1.5s1-0.5,1.7-0.5
		c0.5,0,1,0.1,1.5,0.4s0.8,0.6,1,1.1s0.3,1.1,0.3,1.8c0,1-0.3,1.8-0.8,2.4s-1.2,0.8-2.1,0.8c-0.7,0-1.3-0.2-1.7-0.6s-0.8-1-0.9-1.7
		l1-0.1C564.2,370.9,564.4,371.3,564.6,371.5z"/>
	<path class="st1" d="M561.1,372.6v-3.2c0-0.6-0.1-1-0.2-1.3s-0.3-0.5-0.5-0.7s-0.5-0.2-0.8-0.2c-0.4,0-0.7,0.1-0.8,0.4
		s-0.3,0.6-0.3,1.1v4h-1.1V369c0-0.6-0.1-1.1-0.4-1.4s-0.7-0.4-1.1-0.4c-0.2,0-0.5,0.1-0.6,0.2s-0.3,0.3-0.4,0.4s-0.1,0.5-0.1,0.9
		v3.9h-1v-4.3c0-0.7,0.2-1.2,0.5-1.6s0.8-0.5,1.4-0.5c0.8,0,1.4,0.4,1.9,1.1c0.1-0.3,0.3-0.6,0.6-0.8s0.7-0.3,1.1-0.3
		c0.4,0,0.8,0.1,1.1,0.3s0.6,0.4,0.8,0.7v-0.9h0.9v6.2H561.1z"/>
</g>
<g>
	<path class="st1" d="M460.8,372h-1v-3.5c0-0.2,0-0.4-0.1-0.5c-0.2-0.5-0.6-1.1-1.3-1.1c-0.8,0-1.2,0.7-1.2,1.6v3.5h-1v-3.6
		c0-0.2,0-0.4-0.1-0.5c-0.2-0.5-0.6-1-1.2-1c-0.9,0-1.3,0.7-1.3,1.8v3.3h-1v-3.4c0-2,1.1-2.5,1.9-2.5c0.6,0,0.9,0.1,1.3,0.4
		c0.2,0.2,0.5,0.4,0.6,0.8h0c0.3-0.7,0.9-1.2,1.6-1.2c1,0,1.5,0.5,1.8,1.1h0l0-0.9h0.9c0,0.5,0,1,0,1.6V372z"/>
</g>
<g>
	<path class="st1" d="M403.2,372h-1v-3.5c0-0.2,0-0.4-0.1-0.5c-0.2-0.5-0.6-1.1-1.3-1.1c-0.8,0-1.2,0.7-1.2,1.6v3.5h-1v-3.6
		c0-0.2,0-0.4-0.1-0.5c-0.2-0.5-0.6-1-1.2-1c-0.9,0-1.3,0.7-1.3,1.8v3.3h-1v-3.4c0-2,1.1-2.5,1.9-2.5c0.6,0,0.9,0.1,1.3,0.4
		c0.2,0.2,0.5,0.4,0.6,0.8h0c0.3-0.7,0.9-1.2,1.6-1.2c1,0,1.5,0.5,1.8,1.1h0l0-0.9h0.9c0,0.5,0,1,0,1.6V372z"/>
</g>
<g>
	<path class="st1" d="M362.8,371.3h-1v-3.5c0-0.2,0-0.4-0.1-0.5c-0.2-0.5-0.6-1.1-1.3-1.1c-0.8,0-1.2,0.7-1.2,1.6v3.5h-1v-3.6
		c0-0.2,0-0.4-0.1-0.5c-0.2-0.5-0.6-1-1.2-1c-0.9,0-1.3,0.7-1.3,1.8v3.3h-1v-3.4c0-2,1.1-2.5,1.9-2.5c0.6,0,0.9,0.1,1.3,0.4
		c0.2,0.2,0.5,0.4,0.6,0.8h0c0.3-0.7,0.9-1.2,1.6-1.2c1,0,1.5,0.5,1.8,1.1h0l0-0.9h0.9c0,0.5,0,1,0,1.6V371.3z"/>
</g>
</svg>
