<?xml version="1.0" encoding="utf-8"?>
<!-- Generator: Adobe Illustrator 24.2.3, SVG Export Plug-In . SVG Version: 6.00 Build 0)  -->
<svg version="1.1" id="Layer_1" xmlns="http://www.w3.org/2000/svg" xmlns:xlink="http://www.w3.org/1999/xlink" x="0px" y="0px"
	 viewBox="0 0 1133.9 850.4" style="enable-background:new 0 0 1133.9 850.4;" xml:space="preserve">
<style type="text/css">
	.st0{enable-background:new    ;}
	.st1{fill:#020203;}
</style>
<sodipodi:namedview  bordercolor="#666666" borderopacity="1.0" gridspacingx="5px" gridspacingy="5px" gridtolerance="10000" guidetolerance="10" height="400px" id="base" objecttolerance="10" pagecolor="#ffffff" showgrid="false" showguides="true" width="675px">
	</sodipodi:namedview>
<g id="g3207" transform="translate(387.36157,-233.68506)">
	<g class="st0">
		<path class="st1" d="M199.6,601.7c0-1,0.1-1.8,0.3-2.5s0.5-1.1,0.9-1.4s0.9-0.5,1.6-0.5c0.5,0,0.9,0.1,1.2,0.3s0.6,0.5,0.9,0.8
			s0.4,0.8,0.5,1.3s0.2,1.2,0.2,2c0,1-0.1,1.8-0.3,2.4s-0.5,1.1-0.9,1.4s-0.9,0.5-1.6,0.5c-0.8,0-1.5-0.3-2-0.9
			C199.9,604.5,199.6,603.4,199.6,601.7z M200.7,601.7c0,1.4,0.2,2.3,0.5,2.8s0.7,0.7,1.2,0.7s0.9-0.2,1.2-0.7s0.5-1.4,0.5-2.8
			c0-1.4-0.2-2.4-0.5-2.8s-0.7-0.7-1.2-0.7c-0.5,0-0.9,0.2-1.2,0.6C200.9,599.4,200.7,600.3,200.7,601.7z"/>
		<path class="st1" d="M206.9,606v-1.2h1.2v1.2H206.9z"/>
		<path class="st1" d="M209.6,603.7l1.1-0.1c0.1,0.5,0.3,0.9,0.6,1.2s0.7,0.4,1.1,0.4c0.5,0,0.9-0.2,1.3-0.6s0.5-0.9,0.5-1.5
			c0-0.6-0.2-1.1-0.5-1.4s-0.8-0.5-1.3-0.5c-0.3,0-0.6,0.1-0.9,0.2s-0.5,0.4-0.6,0.6l-1-0.1l0.8-4.4h4.3v1h-3.4l-0.5,2.3
			c0.5-0.4,1.1-0.5,1.6-0.5c0.8,0,1.4,0.3,1.9,0.8s0.8,1.2,0.8,2c0,0.8-0.2,1.4-0.7,2c-0.6,0.7-1.3,1-2.3,1c-0.8,0-1.4-0.2-1.9-0.7
			S209.7,604.5,209.6,603.7z"/>
		<path class="st1" d="M219.2,606l2.3-3.2l-2.1-3h1.3l1,1.5c0.2,0.3,0.3,0.5,0.4,0.7c0.2-0.3,0.3-0.5,0.5-0.7l1-1.5h1.3l-2.2,2.9
			l2.3,3.3h-1.3l-1.3-1.9l-0.3-0.5l-1.6,2.5H219.2z"/>
		<path class="st1" d="M229.6,606h-1.1v-6.7c-0.3,0.2-0.6,0.5-1,0.7s-0.8,0.4-1.1,0.5v-1c0.6-0.3,1.1-0.6,1.5-1s0.8-0.8,0.9-1.1h0.7
			V606z"/>
		<path class="st1" d="M232.3,601.7c0-1,0.1-1.8,0.3-2.5s0.5-1.1,0.9-1.4s0.9-0.5,1.6-0.5c0.5,0,0.9,0.1,1.2,0.3s0.6,0.5,0.9,0.8
			s0.4,0.8,0.5,1.3s0.2,1.2,0.2,2c0,1-0.1,1.8-0.3,2.4s-0.5,1.1-0.9,1.4s-0.9,0.5-1.6,0.5c-0.8,0-1.5-0.3-2-0.9
			C232.6,604.5,232.3,603.4,232.3,601.7z M233.4,601.7c0,1.4,0.2,2.3,0.5,2.8s0.7,0.7,1.2,0.7s0.9-0.2,1.2-0.7s0.5-1.4,0.5-2.8
			c0-1.4-0.2-2.4-0.5-2.8s-0.7-0.7-1.2-0.7c-0.5,0-0.9,0.2-1.2,0.6C233.6,599.4,233.4,600.3,233.4,601.7z"/>
		<path class="st1" d="M246,606v-6.2h0.9v0.9c0.2-0.3,0.5-0.5,0.8-0.7s0.7-0.3,1.1-0.3c0.5,0,0.8,0.1,1.1,0.3s0.5,0.5,0.6,0.8
			c0.5-0.7,1.1-1.1,1.9-1.1c0.6,0,1.1,0.2,1.4,0.5s0.5,0.9,0.5,1.6v4.3h-1v-3.9c0-0.4,0-0.7-0.1-0.9s-0.2-0.3-0.4-0.4
			s-0.4-0.2-0.6-0.2c-0.4,0-0.8,0.1-1.1,0.4s-0.4,0.8-0.4,1.4v3.6h-1.1v-4c0-0.5-0.1-0.8-0.3-1.1s-0.5-0.4-0.8-0.4
			c-0.3,0-0.6,0.1-0.8,0.2s-0.4,0.4-0.5,0.7s-0.2,0.7-0.2,1.3v3.2H246z"/>
	</g>
	<g class="st0">
		<path class="st1" d="M238.9,598.2v-0.8h2.4v0.8H238.9z"/>
		<path class="st1" d="M246,595.3l-0.8,0.1c-0.1-0.3-0.2-0.5-0.3-0.7c-0.2-0.2-0.5-0.3-0.8-0.3c-0.3,0-0.5,0.1-0.7,0.2
			c-0.2,0.2-0.4,0.4-0.6,0.8c-0.1,0.3-0.2,0.8-0.2,1.5c0.2-0.3,0.4-0.5,0.7-0.6s0.6-0.2,0.9-0.2c0.5,0,1,0.2,1.3,0.6
			c0.4,0.4,0.6,0.9,0.6,1.5c0,0.4-0.1,0.8-0.3,1.1c-0.2,0.3-0.4,0.6-0.7,0.8s-0.7,0.3-1,0.3c-0.7,0-1.2-0.2-1.6-0.7
			c-0.4-0.5-0.6-1.3-0.6-2.4c0-1.2,0.2-2.2,0.7-2.7c0.4-0.5,0.9-0.7,1.6-0.7c0.5,0,0.9,0.1,1.2,0.4C245.8,594.4,246,594.8,246,595.3
			z M242.8,598.1c0,0.3,0.1,0.5,0.2,0.8c0.1,0.2,0.3,0.4,0.5,0.6c0.2,0.1,0.4,0.2,0.7,0.2c0.3,0,0.6-0.1,0.9-0.4
			c0.2-0.3,0.4-0.6,0.4-1.1c0-0.4-0.1-0.8-0.4-1.1c-0.2-0.3-0.5-0.4-0.9-0.4c-0.4,0-0.7,0.1-0.9,0.4
			C242.9,597.3,242.8,597.7,242.8,598.1z"/>
	</g>
</g>
<g id="g3217" transform="translate(447.36157,-233.68506)">
	<g class="st0">
		<path class="st1" d="M207,606.3H206v-6.7c-0.3,0.2-0.6,0.5-1,0.7s-0.8,0.4-1.1,0.5v-1c0.6-0.3,1.1-0.6,1.5-1s0.8-0.8,0.9-1.1h0.7
			V606.3z"/>
		<path class="st1" d="M209.7,602.1c0-1,0.1-1.8,0.3-2.5s0.5-1.1,0.9-1.4s0.9-0.5,1.6-0.5c0.5,0,0.9,0.1,1.2,0.3s0.6,0.5,0.9,0.8
			s0.4,0.8,0.5,1.3s0.2,1.2,0.2,2c0,1-0.1,1.8-0.3,2.4s-0.5,1.1-0.9,1.4s-0.9,0.5-1.6,0.5c-0.8,0-1.5-0.3-2-0.9
			C210,604.9,209.7,603.7,209.7,602.1z M210.8,602.1c0,1.4,0.2,2.3,0.5,2.8s0.7,0.7,1.2,0.7s0.9-0.2,1.2-0.7s0.5-1.4,0.5-2.8
			c0-1.4-0.2-2.4-0.5-2.8s-0.7-0.7-1.2-0.7c-0.5,0-0.9,0.2-1.2,0.6C211,599.7,210.8,600.7,210.8,602.1z"/>
	</g>
	<g>
	</g>
	<g class="st0">
		<path class="st1" d="M215.3,598.6v-0.8h2.4v0.8H215.3z"/>
		<path class="st1" d="M219.6,597c-0.3-0.1-0.6-0.3-0.7-0.5s-0.2-0.5-0.2-0.8c0-0.5,0.2-0.9,0.5-1.2c0.3-0.3,0.8-0.5,1.3-0.5
			c0.6,0,1,0.2,1.4,0.5c0.3,0.3,0.5,0.7,0.5,1.2c0,0.3-0.1,0.6-0.2,0.8c-0.2,0.2-0.4,0.4-0.7,0.5c0.4,0.1,0.7,0.3,0.9,0.6
			c0.2,0.3,0.3,0.6,0.3,1c0,0.6-0.2,1-0.6,1.4c-0.4,0.4-0.9,0.6-1.5,0.6s-1.1-0.2-1.5-0.6c-0.4-0.4-0.6-0.8-0.6-1.4
			c0-0.4,0.1-0.8,0.3-1.1C218.9,597.3,219.2,597.1,219.6,597z M219.2,598.7c0,0.2,0.1,0.4,0.2,0.7c0.1,0.2,0.3,0.4,0.5,0.5
			c0.2,0.1,0.4,0.2,0.7,0.2c0.4,0,0.7-0.1,0.9-0.4s0.4-0.6,0.4-0.9c0-0.4-0.1-0.7-0.4-0.9c-0.3-0.2-0.6-0.4-1-0.4
			c-0.4,0-0.7,0.1-0.9,0.4C219.3,598,219.2,598.3,219.2,598.7z M219.4,595.7c0,0.3,0.1,0.6,0.3,0.7s0.5,0.3,0.8,0.3
			c0.3,0,0.6-0.1,0.8-0.3c0.2-0.2,0.3-0.4,0.3-0.7c0-0.3-0.1-0.5-0.3-0.7c-0.2-0.2-0.5-0.3-0.8-0.3c-0.3,0-0.6,0.1-0.8,0.3
			S219.4,595.4,219.4,595.7z"/>
	</g>
</g>
<g id="g3227" transform="translate(510.36157,-233.68506)">
	<g class="st0">
		<path class="st1" d="M197,606.3H196v-6.7c-0.3,0.2-0.6,0.5-1,0.7s-0.8,0.4-1.1,0.5v-1c0.6-0.3,1.1-0.6,1.5-1s0.8-0.8,0.9-1.1h0.7
			V606.3z"/>
		<path class="st1" d="M199.7,602.1c0-1,0.1-1.8,0.3-2.5s0.5-1.1,0.9-1.4s0.9-0.5,1.6-0.5c0.5,0,0.9,0.1,1.2,0.3s0.6,0.5,0.9,0.8
			s0.4,0.8,0.5,1.3s0.2,1.2,0.2,2c0,1-0.1,1.8-0.3,2.4s-0.5,1.1-0.9,1.4s-0.9,0.5-1.6,0.5c-0.8,0-1.5-0.3-2-0.9
			C200,604.9,199.7,603.7,199.7,602.1z M200.8,602.1c0,1.4,0.2,2.3,0.5,2.8s0.7,0.7,1.2,0.7s0.9-0.2,1.2-0.7s0.5-1.4,0.5-2.8
			c0-1.4-0.2-2.4-0.5-2.8s-0.7-0.7-1.2-0.7c-0.5,0-0.9,0.2-1.2,0.6C201,599.7,200.8,600.7,200.8,602.1z"/>
	</g>
	<g class="st0">
		<path class="st1" d="M205.3,598.6v-0.8h2.4v0.8H205.3z"/>
		<path class="st1" d="M211.3,600.5h-0.8v-5c-0.2,0.2-0.4,0.4-0.7,0.5c-0.3,0.2-0.6,0.3-0.8,0.4v-0.8c0.4-0.2,0.8-0.5,1.2-0.8
			s0.6-0.6,0.7-0.9h0.5V600.5z"/>
		<path class="st1" d="M213.4,597.3c0-0.8,0.1-1.4,0.2-1.8c0.2-0.5,0.4-0.8,0.7-1.1c0.3-0.3,0.7-0.4,1.2-0.4c0.3,0,0.6,0.1,0.9,0.2
			c0.3,0.1,0.5,0.3,0.6,0.6c0.2,0.3,0.3,0.6,0.4,1c0.1,0.4,0.1,0.9,0.1,1.5c0,0.8-0.1,1.4-0.2,1.8c-0.2,0.5-0.4,0.8-0.7,1.1
			c-0.3,0.3-0.7,0.4-1.2,0.4c-0.6,0-1.1-0.2-1.5-0.7C213.6,599.4,213.4,598.6,213.4,597.3z M214.2,597.3c0,1.1,0.1,1.8,0.4,2.1
			c0.2,0.3,0.6,0.5,0.9,0.5s0.7-0.2,0.9-0.5c0.2-0.4,0.4-1.1,0.4-2.1c0-1.1-0.1-1.8-0.4-2.1c-0.2-0.3-0.6-0.5-0.9-0.5
			c-0.4,0-0.7,0.2-0.9,0.5C214.3,595.6,214.2,596.3,214.2,597.3z"/>
	</g>
</g>
<g id="g3237" transform="translate(588.36157,-233.68506)">
	<g class="st0">
		<path class="st1" d="M158,606.3H157v-6.7c-0.3,0.2-0.6,0.5-1,0.7s-0.8,0.4-1.1,0.5v-1c0.6-0.3,1.1-0.6,1.5-1s0.8-0.8,0.9-1.1h0.7
			V606.3z"/>
		<path class="st1" d="M160.7,602.1c0-1,0.1-1.8,0.3-2.5s0.5-1.1,0.9-1.4s0.9-0.5,1.6-0.5c0.5,0,0.9,0.1,1.2,0.3s0.6,0.5,0.9,0.8
			s0.4,0.8,0.5,1.3s0.2,1.2,0.2,2c0,1-0.1,1.8-0.3,2.4s-0.5,1.1-0.9,1.4s-0.9,0.5-1.6,0.5c-0.8,0-1.5-0.3-2-0.9
			C161,604.9,160.7,603.7,160.7,602.1z M161.8,602.1c0,1.4,0.2,2.3,0.5,2.8s0.7,0.7,1.2,0.7s0.9-0.2,1.2-0.7s0.5-1.4,0.5-2.8
			c0-1.4-0.2-2.4-0.5-2.8s-0.7-0.7-1.2-0.7c-0.5,0-0.9,0.2-1.2,0.6C162,599.7,161.8,600.7,161.8,602.1z"/>
	</g>
	<g class="st0">
		<path class="st1" d="M166.3,598.6v-0.8h2.4v0.8H166.3z"/>
		<path class="st1" d="M172.3,600.5h-0.8v-5c-0.2,0.2-0.4,0.4-0.7,0.5c-0.3,0.2-0.6,0.3-0.8,0.4v-0.8c0.4-0.2,0.8-0.5,1.2-0.8
			s0.6-0.6,0.7-0.9h0.5V600.5z"/>
		<path class="st1" d="M178.5,599.8v0.8h-4.3c0-0.2,0-0.4,0.1-0.5c0.1-0.3,0.3-0.6,0.5-0.9c0.2-0.3,0.6-0.6,1-1
			c0.7-0.6,1.2-1,1.4-1.4c0.2-0.3,0.4-0.7,0.4-1c0-0.3-0.1-0.6-0.3-0.8c-0.2-0.2-0.5-0.3-0.9-0.3c-0.4,0-0.7,0.1-0.9,0.3
			s-0.3,0.5-0.3,0.9l-0.8-0.1c0.1-0.6,0.3-1.1,0.6-1.4c0.4-0.3,0.9-0.5,1.5-0.5c0.6,0,1.1,0.2,1.5,0.5c0.4,0.3,0.5,0.8,0.5,1.3
			c0,0.3-0.1,0.5-0.2,0.8s-0.3,0.5-0.5,0.8c-0.2,0.3-0.7,0.7-1.2,1.1c-0.5,0.4-0.8,0.7-0.9,0.8c-0.1,0.1-0.2,0.3-0.3,0.4H178.5z"/>
	</g>
</g>
<g>
	<path class="st1" d="M672,367.7c0-0.6,0-1.1,0-1.6h0.9l0,0.9h0c0.3-0.6,0.9-1.1,1.8-1.1c0.8,0,1.4,0.5,1.6,1.2h0
		c0.2-0.3,0.4-0.6,0.6-0.8c0.3-0.3,0.7-0.4,1.3-0.4c0.8,0,1.9,0.5,1.9,2.5v3.4h-1v-3.3c0-1.1-0.4-1.8-1.3-1.8c-0.6,0-1.1,0.4-1.2,1
		c0,0.1-0.1,0.3-0.1,0.5v3.6h-1v-3.5c0-0.9-0.4-1.6-1.2-1.6c-0.7,0-1.1,0.5-1.3,1.1c-0.1,0.2-0.1,0.3-0.1,0.5v3.5h-1V367.7z"/>
</g>
<g>
	<path class="st1" d="M672,367.7c0-0.6,0-1.1,0-1.6h0.9l0,0.9h0c0.3-0.6,0.9-1.1,1.8-1.1c0.8,0,1.4,0.5,1.6,1.2h0
		c0.2-0.3,0.4-0.6,0.6-0.8c0.3-0.3,0.7-0.4,1.3-0.4c0.8,0,1.9,0.5,1.9,2.5v3.4h-1v-3.3c0-1.1-0.4-1.8-1.3-1.8c-0.6,0-1.1,0.4-1.2,1
		c0,0.1-0.1,0.3-0.1,0.5v3.6h-1v-3.5c0-0.9-0.4-1.6-1.2-1.6c-0.7,0-1.1,0.5-1.3,1.1c-0.1,0.2-0.1,0.3-0.1,0.5v3.5h-1V367.7z"/>
</g>
<g class="st0">
</g>
<g class="st0">
	<path class="st1" d="M334.7,358.2C334.7,358.2,334.7,358.2,334.7,358.2l-0.1-8.5c0,0,0-0.1,0.1-0.1h1.3c0,0,0.1,0,0.1,0.1v7.1h4
		c0,0,0.1,0,0.1,0.1v1.2c0,0,0,0.1-0.1,0.1H334.7z"/>
	<path class="st1" d="M342.8,358.2C342.7,358.2,342.7,358.2,342.8,358.2l-2.2-8.4c0,0,0,0,0-0.1s0,0,0.1,0h1.3c0,0,0.1,0,0.1,0.1
		l1.3,5.7c0.3-1,0.5-1.9,0.8-2.9s0.5-1.9,0.8-2.9c0,0,0-0.1,0.1-0.1h0.9c0,0,0.1,0,0.1,0.1l1.6,5.7c0.2-1,0.4-1.9,0.6-2.9
		s0.4-1.9,0.6-2.9c0,0,0-0.1,0.1-0.1h1.3c0,0,0,0,0.1,0s0,0,0,0.1l-2.1,8.4c0,0,0,0.1-0.1,0.1h-1.1c0,0-0.1,0-0.1-0.1l-1.6-5.8
		c-0.3,1-0.5,2-0.8,2.9s-0.5,1.9-0.8,2.9c0,0,0,0.1-0.1,0.1H342.8z"/>
	<path class="st1" d="M362,358.2C362,358.2,362,358.2,362,358.2C361.9,358.2,361.9,358.2,362,358.2l3-8.5c0,0,0,0,0.1,0h1
		c0,0,0,0,0,0s0,0,0,0l3.1,8.4c0,0,0,0,0,0.1s0,0-0.1,0h-1.3c0,0-0.1,0-0.1,0l-0.6-1.9h-3.1c-0.1,0.3-0.2,0.6-0.3,0.9
		s-0.2,0.6-0.3,0.9c0,0,0,0,0,0s0,0,0,0H362z M366.7,355.1C366.7,355,366.7,355,366.7,355.1c0-0.1-0.1-0.1-0.1-0.2
		c-0.1-0.2-0.1-0.4-0.2-0.5s-0.1-0.3-0.1-0.4c0-0.1-0.1-0.2-0.1-0.2s0-0.1-0.1-0.2c0-0.1,0-0.1-0.1-0.2s0-0.1-0.1-0.2
		c0-0.1-0.1-0.2-0.1-0.3s-0.1-0.2-0.1-0.4c0-0.1,0-0.1-0.1-0.2s0-0.1-0.1-0.2c0,0,0-0.1,0-0.1s0,0,0-0.1s0,0,0-0.1s0-0.1,0-0.1
		c0,0.1-0.1,0.2-0.1,0.4s-0.1,0.2-0.1,0.3c0,0,0,0,0,0.1s0,0,0,0.1c0,0.1,0,0.1-0.1,0.2s0,0.1-0.1,0.2c0,0.1,0,0.1-0.1,0.2
		s0,0.1-0.1,0.2c0,0.1-0.1,0.2-0.1,0.4s-0.1,0.3-0.1,0.4s-0.1,0.3-0.2,0.5s-0.1,0.4-0.2,0.6H366.7z"/>
	<path class="st1" d="M370.4,358.2C370.3,358.2,370.3,358.2,370.4,358.2l-0.1-8.5c0,0,0-0.1,0.1-0.1h1.2c0,0,0,0,0.1,0l2.3,5.3
		c0.4-0.9,0.8-1.8,1.1-2.7s0.8-1.8,1.1-2.7c0,0,0,0,0.1,0h1.2c0,0,0.1,0,0.1,0.1v8.4c0,0,0,0.1-0.1,0.1h-1.3c0,0-0.1,0-0.1-0.1v-5
		c-0.3,0.6-0.5,1.3-0.8,1.9s-0.6,1.3-0.8,1.9c0,0,0,0-0.1,0h-1.1c0,0,0,0-0.1,0l-1.7-3.8v5c0,0,0,0.1-0.1,0.1H370.4z"/>
	<path class="st1" d="M396.7,358.2C396.7,358.2,396.7,358.2,396.7,358.2l-0.1-8.5c0,0,0-0.1,0.1-0.1h5.4c0,0,0.1,0,0.1,0.1v1.2
		c0,0,0,0.1-0.1,0.1h-4v2.3h3.4c0,0,0.1,0,0.1,0.1v1.1c0,0,0,0.1-0.1,0.1h-3.4v3.5c0,0,0,0.1-0.1,0.1H396.7z"/>
	<path class="st1" d="M403.2,358.2C403.1,358.2,403.1,358.2,403.2,358.2l-0.1-8.5c0,0,0-0.1,0.1-0.1h1.2c0,0,0,0,0.1,0l2.3,5.3
		c0.4-0.9,0.8-1.8,1.1-2.7s0.8-1.8,1.1-2.7c0,0,0,0,0.1,0h1.2c0,0,0.1,0,0.1,0.1v8.4c0,0,0,0.1-0.1,0.1h-1.3c0,0-0.1,0-0.1-0.1v-5
		c-0.3,0.6-0.5,1.3-0.8,1.9s-0.6,1.3-0.8,1.9c0,0,0,0-0.1,0h-1.1c0,0,0,0-0.1,0l-1.7-3.8v5c0,0,0,0.1-0.1,0.1H403.2z"/>
	<path class="st1" d="M415.1,358.2C415.1,358.2,415.1,358.2,415.1,358.2l-0.1-8.5c0,0,0-0.1,0.1-0.1h3.3c0.4,0,0.7,0,1,0.1
		s0.5,0.2,0.8,0.4c0.1,0.1,0.2,0.2,0.3,0.4s0.2,0.3,0.3,0.4s0.1,0.3,0.2,0.5s0.1,0.4,0.1,0.5c0,0.3,0,0.5-0.1,0.8s-0.2,0.5-0.3,0.7
		c-0.1,0.2-0.3,0.4-0.5,0.5s-0.4,0.3-0.7,0.4c0.3,0.6,0.6,1.2,1,1.8s0.6,1.2,1,1.8c0,0,0,0.1,0,0.1s0,0-0.1,0h-1.5c0,0,0,0,0,0
		s0,0,0,0l-1.7-3.5h-1.5v3.5c0,0,0,0.1-0.1,0.1H415.1z M416.5,351v2.4h1.9c0.5,0,0.8-0.1,1-0.4s0.3-0.5,0.3-0.9c0-0.2,0-0.4-0.1-0.5
		s-0.2-0.3-0.3-0.4c-0.1-0.1-0.2-0.1-0.4-0.2s-0.3-0.1-0.5-0.1H416.5z"/>
	<path class="st1" d="M425.5,358.3C425.5,358.3,425.4,358.2,425.5,358.3l-0.1-0.4c-0.1,0.1-0.1,0.1-0.2,0.2s-0.1,0.1-0.2,0.1
		c-0.1,0.1-0.3,0.1-0.4,0.1s-0.3,0-0.5,0c-0.7,0-1.2-0.2-1.5-0.6v0c-0.4-0.3-0.6-0.8-0.6-1.3c0-0.5,0.2-0.9,0.5-1.3
		c0.3-0.4,0.8-0.5,1.5-0.5h1.5v-0.6c0-0.5-0.4-0.7-1.1-0.7c-0.1,0-0.3,0-0.4,0s-0.2,0-0.3,0.1h0c-0.1,0-0.1,0.1-0.2,0.1
		s-0.1,0.1-0.2,0.2c0,0-0.1,0.1-0.1,0l-0.9-0.7c0,0,0,0,0,0s0,0,0,0c0.5-0.6,1.1-0.9,2-0.9c0.4,0,0.7,0,1,0.1s0.6,0.2,0.8,0.3
		c0.5,0.3,0.7,0.8,0.7,1.6v4.1c0,0,0,0.1-0.1,0.1H425.5z M425.4,355.7h-1.3c-0.6,0-0.9,0.2-0.9,0.7c0,0.2,0.1,0.3,0.2,0.5
		c0.2,0.1,0.4,0.2,0.8,0.2c0.5,0,0.8-0.1,1-0.2h0c0.2-0.1,0.2-0.4,0.2-0.8V355.7z"/>
	<path class="st1" d="M431.7,358.2C431.6,358.2,431.6,358.2,431.7,358.2l-0.1-0.5c-0.4,0.4-0.9,0.6-1.5,0.6c-0.4,0-0.7-0.1-1-0.2
		s-0.5-0.3-0.7-0.6h0c-0.2-0.2-0.3-0.5-0.4-0.8c-0.1-0.3-0.1-0.8-0.1-1.5c0-0.7,0-1.2,0.1-1.5c0-0.1,0.1-0.3,0.1-0.4
		s0.1-0.3,0.2-0.4h0c0.2-0.2,0.4-0.4,0.7-0.6s0.6-0.2,1-0.2c0.3,0,0.6,0.1,0.8,0.2s0.5,0.3,0.7,0.4v-2.9c0,0,0-0.1,0.1-0.1h1.2
		c0,0,0.1,0,0.1,0.1v8.3c0,0,0,0.1-0.1,0.1H431.7z M430.5,353.4c-0.5,0-0.9,0.2-1,0.5h0c-0.1,0.2-0.1,0.4-0.1,0.6s0,0.4,0,0.6
		c0,0.2,0,0.4,0,0.7s0.1,0.4,0.1,0.6h0c0.1,0.4,0.4,0.5,1,0.5c0.5,0,0.8-0.2,0.9-0.6c0.1-0.4,0.2-0.8,0.2-1.2c0-0.4-0.1-0.8-0.2-1.2
		C431.3,353.6,431,353.4,430.5,353.4z"/>
	<path class="st1" d="M434.4,351.1C434.3,351.1,434.3,351.1,434.4,351.1l-0.1-1.3c0,0,0-0.1,0.1-0.1h1.2c0,0,0.1,0,0.1,0.1v1.2
		c0,0,0,0.1-0.1,0.1H434.4z M434.4,358.2C434.3,358.2,434.3,358.2,434.4,358.2l-0.1-6c0,0,0-0.1,0.1-0.1h1.2c0,0,0.1,0,0.1,0.1v5.9
		c0,0,0,0.1-0.1,0.1H434.4z"/>
	<path class="st1" d="M436.9,355.2c0-0.6,0.1-1.1,0.2-1.4c0.1-0.3,0.3-0.6,0.5-0.9c0.2-0.2,0.4-0.3,0.7-0.5s0.7-0.3,1.2-0.3
		c0.5,0,0.9,0.1,1.2,0.3c0.2,0.1,0.3,0.2,0.4,0.3s0.2,0.2,0.3,0.3c0.2,0.3,0.4,0.5,0.5,0.9c0.1,0.3,0.2,0.8,0.2,1.4
		c0,0.6-0.1,1.1-0.2,1.5c-0.1,0.3-0.3,0.6-0.5,0.9c-0.2,0.2-0.4,0.4-0.7,0.5c-0.3,0.2-0.7,0.2-1.2,0.2c-0.5,0-0.9-0.1-1.2-0.2
		c-0.1-0.1-0.3-0.2-0.4-0.3s-0.2-0.2-0.3-0.3c-0.2-0.3-0.4-0.6-0.5-0.9C436.9,356.3,436.9,355.8,436.9,355.2z M440.6,355.2
		c0-0.4,0-0.7-0.1-0.9c0-0.2-0.1-0.3-0.2-0.5c-0.1-0.1-0.2-0.2-0.4-0.3s-0.3-0.1-0.5-0.1c-0.4,0-0.7,0.1-0.9,0.4
		c-0.1,0.1-0.1,0.2-0.1,0.2s-0.1,0.2-0.1,0.2c0,0.2-0.1,0.5-0.1,0.9c0,0.2,0,0.4,0,0.5s0,0.3,0,0.4c0,0.2,0.1,0.3,0.2,0.5
		c0.2,0.3,0.5,0.4,0.9,0.4c0.4,0,0.7-0.1,0.9-0.4c0.1-0.2,0.2-0.3,0.2-0.5C440.5,355.9,440.6,355.6,440.6,355.2z"/>
	<path class="st1" d="M452,358.2C451.9,358.2,451.9,358.2,452,358.2l-0.1-8.5c0,0,0-0.1,0.1-0.1h1.2c0,0,0,0,0.1,0l2.3,5.3
		c0.4-0.9,0.8-1.8,1.1-2.7s0.8-1.8,1.1-2.7c0,0,0,0,0.1,0h1.2c0,0,0.1,0,0.1,0.1v8.4c0,0,0,0.1-0.1,0.1h-1.3c0,0-0.1,0-0.1-0.1v-5
		c-0.3,0.6-0.5,1.3-0.8,1.9s-0.6,1.3-0.8,1.9c0,0,0,0-0.1,0H455c0,0,0,0-0.1,0l-1.7-3.8v5c0,0,0,0.1-0.1,0.1H452z"/>
	<path class="st1" d="M461,351.1C460.9,351.1,460.9,351.1,461,351.1l-0.1-1.3c0,0,0-0.1,0.1-0.1h1.2c0,0,0.1,0,0.1,0.1v1.2
		c0,0,0,0.1-0.1,0.1H461z M461,358.2C460.9,358.2,460.9,358.2,461,358.2l-0.1-6c0,0,0-0.1,0.1-0.1h1.2c0,0,0.1,0,0.1,0.1v5.9
		c0,0,0,0.1-0.1,0.1H461z"/>
	<path class="st1" d="M468.2,357.2C468.3,357.2,468.3,357.2,468.2,357.2C468.3,357.2,468.3,357.2,468.2,357.2
		c-0.1,0.3-0.3,0.4-0.4,0.5s-0.3,0.2-0.5,0.3s-0.4,0.2-0.6,0.2s-0.4,0.1-0.7,0.1c-0.7,0-1.3-0.2-1.9-0.7c-0.6-0.5-0.9-1.3-0.9-2.4
		c0-1.1,0.3-1.9,0.9-2.4c0.6-0.5,1.2-0.7,1.9-0.7c0.2,0,0.4,0,0.7,0.1s0.4,0.1,0.6,0.2s0.4,0.2,0.5,0.3s0.3,0.3,0.4,0.4
		c0,0,0,0,0,0.1s0,0,0,0l-0.9,0.8c0,0,0,0-0.1,0s0,0,0,0c-0.3-0.4-0.7-0.6-1.2-0.6c-1,0-1.5,0.6-1.5,1.8c0,1.2,0.5,1.8,1.5,1.8
		c0.5,0,0.8-0.2,1.2-0.6c0,0,0,0,0,0s0,0,0.1,0L468.2,357.2z"/>
	<path class="st1" d="M469.1,358.2C469.1,358.2,469.1,358.2,469.1,358.2l-0.1-6c0,0,0-0.1,0.1-0.1h1.2c0,0,0.1,0,0.1,0.1v0.5
		c0.4-0.4,0.9-0.6,1.5-0.6c0.4,0,0.9,0.2,1.3,0.5c0,0,0,0,0,0s0,0,0,0.1l-0.9,1c0,0-0.1,0-0.1,0c-0.3-0.2-0.5-0.3-0.8-0.3
		c-0.3,0-0.5,0.1-0.8,0.3c-0.2,0.2-0.3,0.5-0.3,0.9v3.6c0,0,0,0.1-0.1,0.1H469.1z"/>
	<path class="st1" d="M473.4,355.2c0-0.6,0.1-1.1,0.2-1.4c0.1-0.3,0.3-0.6,0.5-0.9c0.2-0.2,0.4-0.3,0.7-0.5s0.7-0.3,1.2-0.3
		c0.5,0,0.9,0.1,1.2,0.3c0.2,0.1,0.3,0.2,0.4,0.3s0.2,0.2,0.3,0.3c0.2,0.3,0.4,0.5,0.5,0.9c0.1,0.3,0.2,0.8,0.2,1.4
		c0,0.6-0.1,1.1-0.2,1.5c-0.1,0.3-0.3,0.6-0.5,0.9c-0.2,0.2-0.4,0.4-0.7,0.5c-0.3,0.2-0.7,0.2-1.2,0.2c-0.5,0-0.9-0.1-1.2-0.2
		c-0.1-0.1-0.3-0.2-0.4-0.3s-0.2-0.2-0.3-0.3c-0.2-0.3-0.4-0.6-0.5-0.9C473.5,356.3,473.4,355.8,473.4,355.2z M477.2,355.2
		c0-0.4,0-0.7-0.1-0.9c0-0.2-0.1-0.3-0.2-0.5c-0.1-0.1-0.2-0.2-0.4-0.3s-0.3-0.1-0.5-0.1c-0.4,0-0.7,0.1-0.9,0.4
		c-0.1,0.1-0.1,0.2-0.1,0.2s-0.1,0.2-0.1,0.2c0,0.2-0.1,0.5-0.1,0.9c0,0.2,0,0.4,0,0.5s0,0.3,0,0.4c0,0.2,0.1,0.3,0.2,0.5
		c0.2,0.3,0.5,0.4,0.9,0.4c0.4,0,0.7-0.1,0.9-0.4c0.1-0.2,0.2-0.3,0.2-0.5C477.1,355.9,477.2,355.6,477.2,355.2z"/>
	<path class="st1" d="M484.5,358.2C484.5,358.2,484.5,358.2,484.5,358.2C484.5,358.2,484.5,358.2,484.5,358.2l-1.2-4
		c-0.2,0.7-0.4,1.3-0.6,2s-0.4,1.3-0.6,2c0,0,0,0,0,0s0,0,0,0H481c0,0-0.1,0-0.1,0l-1.9-5.9c0,0,0,0,0-0.1s0,0,0.1,0h1.3
		c0,0,0.1,0,0.1,0.1l1.1,4c0.2-0.7,0.4-1.3,0.6-2s0.4-1.3,0.7-2c0,0,0,0,0.1,0h0.9c0,0,0.1,0,0.1,0l1.3,4c0.2-0.7,0.4-1.3,0.5-2
		s0.4-1.3,0.5-2c0,0,0-0.1,0.1-0.1h1.3c0,0,0,0,0.1,0s0,0,0,0.1l-1.9,5.9c0,0,0,0-0.1,0H484.5z"/>
	<path class="st1" d="M491.6,358.3C491.6,358.3,491.5,358.2,491.6,358.3l-0.1-0.4c-0.1,0.1-0.1,0.1-0.2,0.2s-0.1,0.1-0.2,0.1
		c-0.1,0.1-0.3,0.1-0.4,0.1s-0.3,0-0.5,0c-0.7,0-1.2-0.2-1.5-0.6v0c-0.4-0.3-0.6-0.8-0.6-1.3c0-0.5,0.2-0.9,0.5-1.3
		c0.3-0.4,0.8-0.5,1.5-0.5h1.5v-0.6c0-0.5-0.4-0.7-1.1-0.7c-0.1,0-0.3,0-0.4,0s-0.2,0-0.3,0.1h0c-0.1,0-0.1,0.1-0.2,0.1
		s-0.1,0.1-0.2,0.2c0,0-0.1,0.1-0.1,0l-0.9-0.7c0,0,0,0,0,0s0,0,0,0c0.5-0.6,1.1-0.9,2-0.9c0.4,0,0.7,0,1,0.1s0.6,0.2,0.8,0.3
		c0.5,0.3,0.7,0.8,0.7,1.6v4.1c0,0,0,0.1-0.1,0.1H491.6z M491.5,355.7h-1.3c-0.6,0-0.9,0.2-0.9,0.7c0,0.2,0.1,0.3,0.2,0.5
		c0.2,0.1,0.4,0.2,0.8,0.2c0.5,0,0.8-0.1,1-0.2h0c0.2-0.1,0.2-0.4,0.2-0.8V355.7z"/>
	<path class="st1" d="M495.6,358.2C495.6,358.2,495.5,358.2,495.6,358.2C495.5,358.2,495.5,358.2,495.6,358.2l-2.2-6c0,0,0,0,0-0.1
		s0,0,0.1,0h1.3c0,0,0.1,0,0.1,0l1.3,4c0.2-0.7,0.4-1.3,0.7-2s0.4-1.3,0.7-2c0,0,0,0,0.1,0h1.3c0,0,0,0,0.1,0s0,0,0,0.1l-2.2,5.9
		c0,0,0,0,0,0s0,0,0,0H495.6z"/>
	<path class="st1" d="M504.2,355.6C504.2,355.7,504.2,355.7,504.2,355.6l-3.7,0.1c0,0.4,0.1,0.8,0.4,1c0.3,0.2,0.6,0.4,1,0.4
		c0.5,0,0.9-0.2,1.3-0.6c0,0,0,0,0,0s0,0,0.1,0l0.9,0.7c0,0,0,0,0,0s0,0,0,0.1c-0.3,0.4-0.6,0.6-1,0.8s-0.8,0.2-1.2,0.2
		c-0.6,0-1.2-0.2-1.8-0.6c-0.6-0.4-0.9-1.2-0.9-2.5c0-1.2,0.3-2,0.8-2.4c0.6-0.5,1.1-0.7,1.7-0.7c0.7,0,1.3,0.2,1.8,0.7
		c0.5,0.5,0.8,1.1,0.8,1.9V355.6z M502.9,354.6c0-0.4-0.1-0.7-0.4-0.9s-0.5-0.3-0.8-0.3c-0.3,0-0.6,0.1-0.8,0.3
		c-0.1,0.1-0.2,0.2-0.2,0.4s-0.1,0.3-0.1,0.5H502.9z"/>
	<path class="st1" d="M504.8,358.3C504.8,358.3,504.8,358.3,504.8,358.3C504.8,358.3,504.8,358.2,504.8,358.3l2.7-8.6c0,0,0,0,0.1,0
		h0.9c0,0,0,0,0.1,0s0,0,0,0.1l-2.8,8.5c0,0,0,0-0.1,0H504.8z"/>
	<path class="st1" d="M511,358.2C510.9,358.2,510.9,358.2,511,358.2l-2.2-8.4c0,0,0,0,0-0.1s0,0,0.1,0h1.3c0,0,0.1,0,0.1,0.1
		l1.3,5.7c0.3-1,0.5-1.9,0.8-2.9s0.5-1.9,0.8-2.9c0,0,0-0.1,0.1-0.1h0.9c0,0,0.1,0,0.1,0.1l1.6,5.7c0.2-1,0.4-1.9,0.6-2.9
		s0.4-1.9,0.6-2.9c0,0,0-0.1,0.1-0.1h1.3c0,0,0,0,0.1,0s0,0,0,0.1l-2.1,8.4c0,0,0,0.1-0.1,0.1h-1.1c0,0-0.1,0-0.1-0.1l-1.6-5.8
		c-0.3,1-0.5,2-0.8,2.9s-0.5,1.9-0.8,2.9c0,0,0,0.1-0.1,0.1H511z"/>
	<path class="st1" d="M519.5,351.1C519.5,351.1,519.4,351.1,519.5,351.1l-0.1-1.3c0,0,0-0.1,0.1-0.1h1.2c0,0,0.1,0,0.1,0.1v1.2
		c0,0,0,0.1-0.1,0.1H519.5z M519.5,358.2C519.5,358.2,519.4,358.2,519.5,358.2l-0.1-6c0,0,0-0.1,0.1-0.1h1.2c0,0,0.1,0,0.1,0.1v5.9
		c0,0,0,0.1-0.1,0.1H519.5z"/>
	<path class="st1" d="M522.6,358.2C522.5,358.2,522.5,358.2,522.6,358.2l-0.1-5H522c0,0-0.1,0-0.1-0.1v-0.9c0,0,0-0.1,0.1-0.1h0.5
		v-0.7c0-0.3,0-0.5,0.1-0.7s0.2-0.4,0.4-0.5c0.3-0.3,0.7-0.4,1.2-0.4h0.8c0,0,0.1,0,0.1,0.1v1.1c0,0,0,0.1-0.1,0.1h-0.7
		c-0.3,0-0.5,0.1-0.5,0.4v0.7h1.1c0,0,0.1,0,0.1,0.1v0.9c0,0,0,0.1-0.1,0.1h-1.1v5c0,0,0,0.1-0.1,0.1H522.6z"/>
	<path class="st1" d="M525.7,351.1C525.7,351.1,525.7,351.1,525.7,351.1l-0.1-1.3c0,0,0-0.1,0.1-0.1h1.2c0,0,0.1,0,0.1,0.1v1.2
		c0,0,0,0.1-0.1,0.1H525.7z M525.7,358.2C525.7,358.2,525.7,358.2,525.7,358.2l-0.1-6c0,0,0-0.1,0.1-0.1h1.2c0,0,0.1,0,0.1,0.1v5.9
		c0,0,0,0.1-0.1,0.1H525.7z"/>
	<path class="st1" d="M540.2,358.2C540.1,358.2,540.1,358.2,540.2,358.2l-0.1-8.5c0,0,0-0.1,0.1-0.1h1.3c0,0,0.1,0,0.1,0.1v8.4
		c0,0,0,0.1-0.1,0.1H540.2z"/>
	<path class="st1" d="M543.2,358.2C543.1,358.2,543.1,358.2,543.2,358.2l-0.1-6c0,0,0-0.1,0.1-0.1h1.2c0,0,0.1,0,0.1,0.1v0.5
		c0.4-0.4,0.9-0.6,1.5-0.6c0.2,0,0.5,0,0.7,0.1s0.5,0.2,0.7,0.4c0.4,0.4,0.7,0.9,0.7,1.6v3.9c0,0,0,0.1-0.1,0.1h-1.2
		c0,0-0.1,0-0.1-0.1v-3.5c0-0.4-0.1-0.7-0.3-0.9c-0.2-0.2-0.5-0.3-0.8-0.3c-0.3,0-0.6,0.1-0.8,0.3c-0.2,0.2-0.3,0.5-0.3,0.9v3.5
		c0,0,0,0.1-0.1,0.1H543.2z"/>
	<path class="st1" d="M549.8,358.2C549.8,358.2,549.7,358.2,549.8,358.2l-0.1-5h-0.5c0,0-0.1,0-0.1-0.1v-0.9c0,0,0-0.1,0.1-0.1h0.5
		v-0.7c0-0.3,0-0.5,0.1-0.7s0.2-0.4,0.4-0.5c0.3-0.3,0.7-0.4,1.2-0.4h0.8c0,0,0.1,0,0.1,0.1v1.1c0,0,0,0.1-0.1,0.1h-0.7
		c-0.3,0-0.5,0.1-0.5,0.4v0.7h1.1c0,0,0.1,0,0.1,0.1v0.9c0,0,0,0.1-0.1,0.1h-1.1v5c0,0,0,0.1-0.1,0.1H549.8z"/>
	<path class="st1" d="M553,358.2C552.9,358.2,552.9,358.2,553,358.2l-0.1-6c0,0,0-0.1,0.1-0.1h1.2c0,0,0.1,0,0.1,0.1v0.5
		c0.4-0.4,0.9-0.6,1.5-0.6c0.4,0,0.9,0.2,1.3,0.5c0,0,0,0,0,0s0,0,0,0.1l-0.9,1c0,0-0.1,0-0.1,0c-0.3-0.2-0.5-0.3-0.8-0.3
		c-0.3,0-0.5,0.1-0.8,0.3c-0.2,0.2-0.3,0.5-0.3,0.9v3.6c0,0,0,0.1-0.1,0.1H553z"/>
	<path class="st1" d="M560.8,358.3C560.7,358.3,560.7,358.2,560.8,358.3l-0.1-0.4c-0.1,0.1-0.1,0.1-0.2,0.2s-0.1,0.1-0.2,0.1
		c-0.1,0.1-0.3,0.1-0.4,0.1s-0.3,0-0.5,0c-0.7,0-1.2-0.2-1.5-0.6v0c-0.4-0.3-0.6-0.8-0.6-1.3c0-0.5,0.2-0.9,0.5-1.3
		c0.3-0.4,0.8-0.5,1.5-0.5h1.5v-0.6c0-0.5-0.4-0.7-1.1-0.7c-0.1,0-0.3,0-0.4,0s-0.2,0-0.3,0.1h0c-0.1,0-0.1,0.1-0.2,0.1
		s-0.1,0.1-0.2,0.2c0,0-0.1,0.1-0.1,0l-0.9-0.7c0,0,0,0,0,0s0,0,0,0c0.5-0.6,1.1-0.9,2-0.9c0.4,0,0.7,0,1,0.1s0.6,0.2,0.8,0.3
		c0.5,0.3,0.7,0.8,0.7,1.6v4.1c0,0,0,0.1-0.1,0.1H560.8z M560.7,355.7h-1.3c-0.6,0-0.9,0.2-0.9,0.7c0,0.2,0.1,0.3,0.2,0.5
		c0.2,0.1,0.4,0.2,0.8,0.2c0.5,0,0.8-0.1,1-0.2h0c0.2-0.1,0.2-0.4,0.2-0.8V355.7z"/>
	<path class="st1" d="M563.4,358.2C563.3,358.2,563.3,358.2,563.4,358.2l-0.1-6c0,0,0-0.1,0.1-0.1h1.2c0,0,0.1,0,0.1,0.1v0.5
		c0.4-0.4,0.9-0.6,1.5-0.6c0.4,0,0.9,0.2,1.3,0.5c0,0,0,0,0,0s0,0,0,0.1l-0.9,1c0,0-0.1,0-0.1,0c-0.3-0.2-0.5-0.3-0.8-0.3
		c-0.3,0-0.5,0.1-0.8,0.3c-0.2,0.2-0.3,0.5-0.3,0.9v3.6c0,0,0,0.1-0.1,0.1H563.4z"/>
	<path class="st1" d="M572.7,355.6C572.7,355.7,572.7,355.7,572.7,355.6l-3.7,0.1c0,0.4,0.1,0.8,0.4,1c0.3,0.2,0.6,0.4,1,0.4
		c0.5,0,0.9-0.2,1.3-0.6c0,0,0,0,0,0s0,0,0.1,0l0.9,0.7c0,0,0,0,0,0s0,0,0,0.1c-0.3,0.4-0.6,0.6-1,0.8s-0.8,0.2-1.2,0.2
		c-0.6,0-1.2-0.2-1.8-0.6c-0.6-0.4-0.9-1.2-0.9-2.5c0-1.2,0.3-2,0.8-2.4c0.6-0.5,1.1-0.7,1.7-0.7c0.7,0,1.3,0.2,1.8,0.7
		c0.5,0.5,0.8,1.1,0.8,1.9V355.6z M571.4,354.6c0-0.4-0.1-0.7-0.4-0.9s-0.5-0.3-0.8-0.3c-0.3,0-0.6,0.1-0.8,0.3
		c-0.1,0.1-0.2,0.2-0.2,0.4s-0.1,0.3-0.1,0.5H571.4z"/>
	<path class="st1" d="M577.6,358.2C577.5,358.2,577.5,358.2,577.6,358.2l-0.1-0.5c-0.4,0.4-0.9,0.6-1.5,0.6c-0.4,0-0.7-0.1-1-0.2
		s-0.5-0.3-0.7-0.6h0c-0.2-0.2-0.3-0.5-0.4-0.8c-0.1-0.3-0.1-0.8-0.1-1.5c0-0.7,0-1.2,0.1-1.5c0-0.1,0.1-0.3,0.1-0.4
		s0.1-0.3,0.2-0.4h0c0.2-0.2,0.4-0.4,0.7-0.6s0.6-0.2,1-0.2c0.3,0,0.6,0.1,0.8,0.2s0.5,0.3,0.7,0.4v-2.9c0,0,0-0.1,0.1-0.1h1.2
		c0,0,0.1,0,0.1,0.1v8.3c0,0,0,0.1-0.1,0.1H577.6z M576.4,353.4c-0.5,0-0.9,0.2-1,0.5h0c-0.1,0.2-0.1,0.4-0.1,0.6s0,0.4,0,0.6
		c0,0.2,0,0.4,0,0.7s0.1,0.4,0.1,0.6h0c0.1,0.4,0.4,0.5,1,0.5c0.5,0,0.8-0.2,0.9-0.6c0.1-0.4,0.2-0.8,0.2-1.2c0-0.4-0.1-0.8-0.2-1.2
		C577.2,353.6,576.9,353.4,576.4,353.4z"/>
	<path class="st1" d="M590.9,358.2C590.9,358.2,590.8,358.2,590.9,358.2l-2.8-8.4c0,0,0,0,0-0.1s0,0,0.1,0h1.3c0,0,0.1,0,0.1,0.1
		l1.9,6.2c0.3-1,0.6-2.1,0.9-3.1s0.6-2.1,0.9-3.1c0,0,0-0.1,0.1-0.1h1.3c0,0,0,0,0.1,0s0,0,0,0.1l-2.8,8.4c0,0,0,0-0.1,0H590.9z"/>
	<path class="st1" d="M595.6,351.1C595.5,351.1,595.5,351.1,595.6,351.1l-0.1-1.3c0,0,0-0.1,0.1-0.1h1.2c0,0,0.1,0,0.1,0.1v1.2
		c0,0,0,0.1-0.1,0.1H595.6z M595.6,358.2C595.5,358.2,595.5,358.2,595.6,358.2l-0.1-6c0,0,0-0.1,0.1-0.1h1.2c0,0,0.1,0,0.1,0.1v5.9
		c0,0,0,0.1-0.1,0.1H595.6z"/>
	<path class="st1" d="M598.6,356.3C598.6,356.3,598.6,356.3,598.6,356.3c0.6,0.5,1.2,0.7,1.9,0.7c0.3,0,0.6-0.1,0.8-0.2
		c0.1-0.1,0.2-0.1,0.2-0.2s0.1-0.2,0.1-0.3c0-0.3-0.2-0.5-0.7-0.5l-1.1-0.1c-0.2,0-0.5-0.1-0.7-0.2s-0.4-0.2-0.6-0.3
		c-0.3-0.3-0.5-0.7-0.5-1.2c0-0.6,0.2-1.1,0.7-1.4c0.4-0.3,1-0.5,1.6-0.5c0.3,0,0.5,0,0.7,0.1s0.4,0.1,0.6,0.2s0.4,0.2,0.5,0.3
		s0.3,0.2,0.5,0.3c0,0,0,0,0,0s0,0,0,0.1l-0.7,0.9c0,0-0.1,0-0.1,0c-0.2-0.2-0.5-0.3-0.7-0.4s-0.5-0.1-0.8-0.1
		c-0.4,0-0.6,0.1-0.8,0.2c-0.1,0.1-0.2,0.3-0.2,0.5c0,0.1,0,0.2,0.1,0.3c0.1,0.1,0.3,0.2,0.6,0.2c0.2,0,0.3,0,0.5,0s0.3,0,0.5,0
		c0.3,0,0.6,0.1,0.8,0.2s0.4,0.2,0.6,0.4c0.3,0.4,0.4,0.8,0.4,1.2c0,0.6-0.2,1.1-0.7,1.4c-0.2,0.2-0.5,0.3-0.8,0.4s-0.6,0.1-1,0.1
		c-1,0-1.9-0.4-2.7-1.1c0,0,0-0.1,0-0.1L598.6,356.3z"/>
	<path class="st1" d="M604.2,351.1C604.2,351.1,604.1,351.1,604.2,351.1l-0.1-1.3c0,0,0-0.1,0.1-0.1h1.2c0,0,0.1,0,0.1,0.1v1.2
		c0,0,0,0.1-0.1,0.1H604.2z M604.2,358.2C604.2,358.2,604.1,358.2,604.2,358.2l-0.1-6c0,0,0-0.1,0.1-0.1h1.2c0,0,0.1,0,0.1,0.1v5.9
		c0,0,0,0.1-0.1,0.1H604.2z"/>
	<path class="st1" d="M607.1,358.2C607,358.2,607,358.2,607.1,358.2l-0.1-8.4c0,0,0-0.1,0.1-0.1h1.2c0,0,0.1,0,0.1,0.1v2.9
		c0.2-0.2,0.4-0.3,0.7-0.4s0.5-0.2,0.8-0.2c0.2,0,0.3,0,0.5,0.1s0.3,0.1,0.4,0.2s0.3,0.2,0.4,0.3s0.2,0.2,0.3,0.3
		c0.1,0.1,0.2,0.2,0.2,0.4s0.1,0.3,0.1,0.4v0c0.1,0.3,0.1,0.8,0.1,1.5c0,0.8,0,1.3-0.1,1.6v0c-0.1,0.3-0.2,0.5-0.3,0.8h0
		c-0.2,0.2-0.4,0.4-0.7,0.6s-0.6,0.2-1,0.2c-0.6,0-1.1-0.2-1.5-0.6v0.4c0,0,0,0.1-0.1,0.1H607.1z M609.4,353.4
		c-0.5,0-0.8,0.2-0.9,0.6c-0.1,0.2-0.1,0.4-0.1,0.6s0,0.4,0,0.6c0,0.2,0,0.4,0,0.6s0.1,0.4,0.1,0.6c0.1,0.4,0.4,0.6,0.9,0.6
		c0.5,0,0.8-0.2,0.9-0.5c0.1-0.4,0.2-0.8,0.2-1.3c0-0.4-0.1-0.9-0.2-1.2C610.3,353.6,610,353.4,609.4,353.4z"/>
	<path class="st1" d="M613.2,349.8C613.2,349.8,613.2,349.8,613.2,349.8l1.3-0.1c0,0,0.1,0,0.1,0.1v6.8c0,0.2,0.1,0.3,0.4,0.3h0.4
		c0,0,0.1,0,0.1,0.1v1.1c0,0,0,0.1-0.1,0.1h-0.5c-0.4,0-0.8-0.1-1.1-0.3c-0.3-0.2-0.5-0.6-0.5-1.2V349.8z"/>
	<path class="st1" d="M621,355.6C621,355.7,621,355.7,621,355.6l-3.7,0.1c0,0.4,0.1,0.8,0.4,1c0.3,0.2,0.6,0.4,1,0.4
		c0.5,0,0.9-0.2,1.3-0.6c0,0,0,0,0,0s0,0,0.1,0l0.9,0.7c0,0,0,0,0,0s0,0,0,0.1c-0.3,0.4-0.6,0.6-1,0.8s-0.8,0.2-1.2,0.2
		c-0.6,0-1.2-0.2-1.8-0.6c-0.6-0.4-0.9-1.2-0.9-2.5c0-1.2,0.3-2,0.8-2.4c0.6-0.5,1.1-0.7,1.7-0.7c0.7,0,1.3,0.2,1.8,0.7
		c0.5,0.5,0.8,1.1,0.8,1.9V355.6z M619.7,354.6c0-0.4-0.1-0.7-0.4-0.9s-0.5-0.3-0.8-0.3c-0.3,0-0.6,0.1-0.8,0.3
		c-0.1,0.1-0.2,0.2-0.2,0.4s-0.1,0.3-0.1,0.5H619.7z"/>
	<path class="st1" d="M651,349.8C651,349.7,651,349.7,651,349.8l1.3-0.1c0,0,0.1,0,0.1,0.1v5.4c0,0.6,0.2,1,0.5,1.3
		c0.3,0.3,0.7,0.4,1.2,0.4c0.5,0,0.8-0.1,1.2-0.4s0.5-0.7,0.5-1.3v-5.4c0,0,0-0.1,0.1-0.1h1.3c0,0,0.1,0,0.1,0.1v5.6
		c0,0.9-0.3,1.6-0.9,2.2c-0.6,0.5-1.3,0.8-2.2,0.8c-0.9,0-1.6-0.3-2.2-0.8c-0.6-0.5-0.9-1.3-0.9-2.2V349.8z"/>
	<path class="st1" d="M660.7,358.2C660.6,358.2,660.6,358.2,660.7,358.2l-2.8-8.4c0,0,0,0,0-0.1s0,0,0.1,0h1.3c0,0,0.1,0,0.1,0.1
		l1.9,6.2c0.3-1,0.6-2.1,0.9-3.1s0.6-2.1,0.9-3.1c0,0,0-0.1,0.1-0.1h1.3c0,0,0,0,0.1,0s0,0,0,0.1l-2.8,8.4c0,0,0,0-0.1,0H660.7z"/>
	<path class="st1" d="M668.3,358.2C668.3,358.2,668.3,358.2,668.3,358.2l-0.1-8.5c0,0,0-0.1,0.1-0.1h1.3c0,0,0.1,0,0.1,0.1v7.1h4
		c0,0,0.1,0,0.1,0.1v1.2c0,0,0,0.1-0.1,0.1H668.3z"/>
	<path class="st1" d="M674.9,351.1C674.9,351.1,674.8,351.1,674.9,351.1l-0.1-1.3c0,0,0-0.1,0.1-0.1h1.2c0,0,0.1,0,0.1,0.1v1.2
		c0,0,0,0.1-0.1,0.1H674.9z M674.9,358.2C674.9,358.2,674.8,358.2,674.9,358.2l-0.1-6c0,0,0-0.1,0.1-0.1h1.2c0,0,0.1,0,0.1,0.1v5.9
		c0,0,0,0.1-0.1,0.1H674.9z"/>
	<path class="st1" d="M681,357.7c-0.4,0.4-0.9,0.6-1.5,0.6c-0.4,0-0.7-0.1-1-0.2c-0.1-0.1-0.2-0.2-0.4-0.2s-0.2-0.2-0.3-0.3
		c-0.1-0.1-0.2-0.2-0.2-0.4s-0.1-0.2-0.1-0.4c-0.1-0.2-0.1-0.8-0.1-1.6c0-0.8,0-1.4,0.1-1.6c0-0.1,0.1-0.2,0.1-0.4s0.1-0.2,0.2-0.4
		c0.1-0.2,0.3-0.3,0.6-0.5c0.3-0.2,0.6-0.3,1-0.3c0.5,0,1,0.2,1.5,0.6v-0.5c0,0,0-0.1,0.1-0.1h1.2c0,0,0.1,0,0.1,0.1v5.8
		c0,0.9-0.3,1.6-0.8,2c-0.5,0.4-1.1,0.7-1.8,0.7c-0.4,0-0.8-0.1-1.1-0.3c-0.4-0.2-0.7-0.4-1-0.7c0,0,0,0,0-0.1s0,0,0,0l0.9-0.7
		c0,0,0.1,0,0.1,0c0.1,0.1,0.3,0.3,0.5,0.4s0.4,0.2,0.6,0.2c0.4,0,0.7-0.1,0.9-0.3c0.2-0.2,0.4-0.5,0.4-0.9V357.7z M678.8,355.2
		c0,0.2,0,0.4,0,0.6s0,0.3,0,0.4c0,0.1,0,0.2,0.1,0.2s0.1,0.1,0.1,0.2c0,0.1,0.1,0.1,0.1,0.2s0.1,0.1,0.2,0.1s0.2,0.1,0.3,0.1
		s0.2,0,0.3,0c0.1,0,0.2,0,0.3,0s0.2-0.1,0.2-0.1s0.1-0.1,0.2-0.1s0.1-0.1,0.1-0.2c0-0.1,0.1-0.1,0.1-0.2s0-0.1,0.1-0.2
		c0-0.1,0-0.2,0-0.4s0-0.4,0-0.6s0-0.4,0-0.6s0-0.3,0-0.4c0-0.1-0.1-0.3-0.2-0.4h0c0,0-0.1-0.1-0.1-0.1s-0.1-0.1-0.2-0.1
		s-0.2-0.1-0.2-0.1s-0.2,0-0.3,0c-0.1,0-0.2,0-0.3,0s-0.2,0.1-0.3,0.1s-0.1,0.1-0.2,0.1s-0.1,0.1-0.1,0.2c-0.1,0.1-0.2,0.3-0.2,0.4
		c0,0.1,0,0.2,0,0.4S678.8,355,678.8,355.2z"/>
	<path class="st1" d="M684,358.2C683.9,358.2,683.9,358.2,684,358.2l-0.1-8.4c0,0,0-0.1,0.1-0.1h1.2c0,0,0.1,0,0.1,0.1v2.9
		c0.4-0.4,0.9-0.6,1.5-0.6c0.2,0,0.5,0,0.7,0.1s0.5,0.2,0.7,0.4c0.4,0.4,0.7,0.9,0.7,1.6v3.9c0,0,0,0.1-0.1,0.1h-1.2
		c0,0-0.1,0-0.1-0.1v-3.5c0-0.4-0.1-0.7-0.3-0.9c-0.2-0.2-0.5-0.3-0.8-0.3c-0.3,0-0.6,0.1-0.8,0.3c-0.2,0.2-0.3,0.5-0.3,0.9v3.5
		c0,0,0,0.1-0.1,0.1H684z"/>
	<path class="st1" d="M690.5,358.2C690.4,358.2,690.4,358.2,690.5,358.2l-0.1-5h-0.5c0,0-0.1,0-0.1-0.1v-0.9c0,0,0-0.1,0.1-0.1h0.5
		v-0.9l1.2-1.3c0,0,0,0,0.1,0s0,0,0,0.1v2.1h0.8c0,0,0.1,0,0.1,0.1v0.9c0,0,0,0.1-0.1,0.1h-0.8v5c0,0,0,0.1-0.1,0.1H690.5z"/>
	<path class="st1" d="M709.5,358.2C709.5,358.2,709.5,358.2,709.5,358.2l-1.8-3.1c-0.3,0.5-0.6,1-0.9,1.5s-0.6,1-0.9,1.5
		c0,0,0,0-0.1,0h-1.4c0,0-0.1,0-0.1,0s0,0,0-0.1l2.5-4.3c-0.4-0.7-0.8-1.4-1.2-2s-0.8-1.3-1.2-2c0,0,0-0.1,0-0.1s0,0,0.1,0h1.4
		c0,0,0,0,0.1,0l1.6,2.8c0.3-0.5,0.5-0.9,0.8-1.4s0.5-0.9,0.8-1.4c0,0,0,0,0.1,0h1.4c0,0,0,0,0.1,0s0,0,0,0.1l-2.4,4.1
		c0.4,0.7,0.9,1.4,1.3,2.1s0.8,1.4,1.3,2.1c0,0,0,0.1,0,0.1s0,0-0.1,0H709.5z"/>
	<path class="st1" d="M711.5,355.6C711.5,355.6,711.5,355.6,711.5,355.6l-0.1-1.3c0,0,0-0.1,0.1-0.1h3.5c0,0,0.1,0,0.1,0.1v1.2
		c0,0,0,0.1-0.1,0.1H711.5z"/>
	<path class="st1" d="M716.6,358.2C716.5,358.2,716.5,358.2,716.6,358.2l-0.1-6c0,0,0-0.1,0.1-0.1h1.2c0,0,0.1,0,0.1,0.1v0.5
		c0.4-0.4,0.9-0.6,1.5-0.6c0.4,0,0.9,0.2,1.3,0.5c0,0,0,0,0,0s0,0,0,0.1l-0.9,1c0,0-0.1,0-0.1,0c-0.3-0.2-0.5-0.3-0.8-0.3
		c-0.3,0-0.5,0.1-0.8,0.3c-0.2,0.2-0.3,0.5-0.3,0.9v3.6c0,0,0,0.1-0.1,0.1H716.6z"/>
	<path class="st1" d="M724.4,358.3C724.3,358.3,724.3,358.2,724.4,358.3l-0.1-0.4c-0.1,0.1-0.1,0.1-0.2,0.2s-0.1,0.1-0.2,0.1
		c-0.1,0.1-0.3,0.1-0.4,0.1s-0.3,0-0.5,0c-0.7,0-1.2-0.2-1.5-0.6v0c-0.4-0.3-0.6-0.8-0.6-1.3c0-0.5,0.2-0.9,0.5-1.3
		c0.3-0.4,0.8-0.5,1.5-0.5h1.5v-0.6c0-0.5-0.4-0.7-1.1-0.7c-0.1,0-0.3,0-0.4,0s-0.2,0-0.3,0.1h0c-0.1,0-0.1,0.1-0.2,0.1
		s-0.1,0.1-0.2,0.2c0,0-0.1,0.1-0.1,0l-0.9-0.7c0,0,0,0,0,0s0,0,0,0c0.5-0.6,1.1-0.9,2-0.9c0.4,0,0.7,0,1,0.1s0.6,0.2,0.8,0.3
		c0.5,0.3,0.7,0.8,0.7,1.6v4.1c0,0,0,0.1-0.1,0.1H724.4z M724.3,355.7H723c-0.6,0-0.9,0.2-0.9,0.7c0,0.2,0.1,0.3,0.2,0.5
		c0.2,0.1,0.4,0.2,0.8,0.2c0.5,0,0.8-0.1,1-0.2h0c0.2-0.1,0.2-0.4,0.2-0.8V355.7z"/>
	<path class="st1" d="M728.2,357.9c-0.4-0.9-0.7-1.9-1.1-2.8s-0.7-1.9-1.1-2.8c0,0,0,0,0-0.1s0,0,0.1,0h1.3c0,0,0,0,0,0s0,0,0,0
		l1.4,4c0.2-0.7,0.5-1.3,0.7-2s0.5-1.3,0.7-2c0,0,0,0,0,0s0,0,0,0h1.3c0,0,0,0,0.1,0s0,0,0,0.1l-2.6,7.2c-0.2,0.5-0.4,0.8-0.7,1v0
		c-0.2,0.1-0.3,0.2-0.5,0.2s-0.3,0.1-0.5,0.1h-0.4c0,0-0.1,0-0.1-0.1v-1.1c0,0,0-0.1,0.1-0.1h0.4c0.3,0,0.5-0.2,0.7-0.5L728.2,357.9
		z"/>
	<path class="st1" d="M743.8,354.8C743.8,354.8,743.7,354.8,743.8,354.8l-0.1-1.3c0,0,0-0.1,0.1-0.1h3c0,0,0.1,0,0.1,0.1v1.7
		c0,0.9-0.3,1.6-0.9,2.2c-0.6,0.6-1.3,0.9-2.2,0.9c-0.7,0-1.2-0.2-1.7-0.5c-0.5-0.3-0.8-0.7-1-1.1h0c-0.1-0.1-0.1-0.3-0.2-0.4
		s-0.1-0.3-0.1-0.4c0-0.1,0-0.4-0.1-0.7s0-0.7,0-1.3s0-0.9,0-1.3s0-0.6,0.1-0.7c0-0.1,0.1-0.3,0.1-0.4s0.1-0.3,0.2-0.4h0
		c0.2-0.4,0.5-0.7,1-1.1c0.5-0.3,1-0.5,1.7-0.5c0.8,0,1.5,0.2,2,0.8c0.5,0.5,0.9,1.1,1,1.8c0,0,0,0,0,0.1s0,0-0.1,0h-1.3
		c0,0-0.1,0-0.1,0c-0.1-0.2-0.1-0.3-0.2-0.4s-0.2-0.3-0.3-0.4c-0.3-0.2-0.6-0.3-1-0.3c-0.3,0-0.5,0.1-0.8,0.2s-0.4,0.3-0.5,0.4
		c-0.1,0.1-0.1,0.2-0.2,0.3s-0.1,0.2-0.1,0.4c0,0.1-0.1,0.3-0.1,0.6s0,0.6,0,1c0,0.4,0,0.8,0,1.1s0,0.5,0.1,0.6
		c0,0.1,0.1,0.2,0.1,0.4s0.1,0.2,0.2,0.3c0.1,0.2,0.3,0.3,0.5,0.4s0.5,0.2,0.8,0.2c0.5,0,0.9-0.2,1.2-0.5c0.3-0.3,0.5-0.7,0.5-1.2
		v-0.4H743.8z"/>
	<path class="st1" d="M751.4,358.3C751.4,358.3,751.4,358.2,751.4,358.3l-0.1-0.4c-0.1,0.1-0.1,0.1-0.2,0.2s-0.1,0.1-0.2,0.1
		c-0.1,0.1-0.3,0.1-0.4,0.1s-0.3,0-0.5,0c-0.7,0-1.2-0.2-1.5-0.6v0c-0.4-0.3-0.6-0.8-0.6-1.3c0-0.5,0.2-0.9,0.5-1.3
		c0.3-0.4,0.8-0.5,1.5-0.5h1.5v-0.6c0-0.5-0.4-0.7-1.1-0.7c-0.1,0-0.3,0-0.4,0s-0.2,0-0.3,0.1h0c-0.1,0-0.1,0.1-0.2,0.1
		s-0.1,0.1-0.2,0.2c0,0-0.1,0.1-0.1,0l-0.9-0.7c0,0,0,0,0,0s0,0,0,0c0.5-0.6,1.1-0.9,2-0.9c0.4,0,0.7,0,1,0.1s0.6,0.2,0.8,0.3
		c0.5,0.3,0.7,0.8,0.7,1.6v4.1c0,0,0,0.1-0.1,0.1H751.4z M751.4,355.7H750c-0.6,0-0.9,0.2-0.9,0.7c0,0.2,0.1,0.3,0.2,0.5
		c0.2,0.1,0.4,0.2,0.8,0.2c0.5,0,0.8-0.1,1-0.2h0c0.2-0.1,0.2-0.4,0.2-0.8V355.7z"/>
	<path class="st1" d="M754.1,358.2C754.1,358.2,754.1,358.2,754.1,358.2l-0.1-6c0,0,0-0.1,0.1-0.1h1.2c0,0,0.1,0,0.1,0.1v0.5
		c0.4-0.4,0.9-0.6,1.5-0.6c0.4,0,0.8,0.1,1,0.2c0.1,0.1,0.2,0.1,0.3,0.2s0.2,0.2,0.3,0.3c0.5-0.5,1.1-0.7,1.9-0.7
		c0.5,0,0.9,0.2,1.4,0.5c0.4,0.4,0.7,0.9,0.7,1.6v3.9c0,0,0,0.1-0.1,0.1h-1.2c0,0-0.1,0-0.1-0.1v-3.5c0-0.4-0.1-0.7-0.3-0.9
		c-0.2-0.2-0.5-0.3-0.8-0.3c-0.3,0-0.6,0.1-0.8,0.3c-0.2,0.2-0.3,0.5-0.3,0.9v3.5c0,0,0,0.1-0.1,0.1h-1.2c0,0-0.1,0-0.1-0.1v-3.5
		c0-0.4-0.1-0.7-0.3-0.9s-0.5-0.3-0.8-0.3c-0.3,0-0.6,0.1-0.8,0.3c-0.2,0.2-0.3,0.5-0.3,0.9v3.5c0,0,0,0.1-0.1,0.1H754.1z"/>
	<path class="st1" d="M764.4,358.2C764.3,358.2,764.3,358.2,764.4,358.2l-0.1-6c0,0,0-0.1,0.1-0.1h1.2c0,0,0.1,0,0.1,0.1v0.5
		c0.4-0.4,0.9-0.6,1.5-0.6c0.4,0,0.8,0.1,1,0.2c0.1,0.1,0.2,0.1,0.3,0.2s0.2,0.2,0.3,0.3c0.5-0.5,1.1-0.7,1.9-0.7
		c0.5,0,0.9,0.2,1.4,0.5c0.4,0.4,0.7,0.9,0.7,1.6v3.9c0,0,0,0.1-0.1,0.1h-1.2c0,0-0.1,0-0.1-0.1v-3.5c0-0.4-0.1-0.7-0.3-0.9
		c-0.2-0.2-0.5-0.3-0.8-0.3c-0.3,0-0.6,0.1-0.8,0.3c-0.2,0.2-0.3,0.5-0.3,0.9v3.5c0,0,0,0.1-0.1,0.1h-1.2c0,0-0.1,0-0.1-0.1v-3.5
		c0-0.4-0.1-0.7-0.3-0.9s-0.5-0.3-0.8-0.3c-0.3,0-0.6,0.1-0.8,0.3c-0.2,0.2-0.3,0.5-0.3,0.9v3.5c0,0,0,0.1-0.1,0.1H764.4z"/>
	<path class="st1" d="M777.6,358.3C777.6,358.3,777.6,358.2,777.6,358.3l-0.1-0.4c-0.1,0.1-0.1,0.1-0.2,0.2s-0.1,0.1-0.2,0.1
		c-0.1,0.1-0.3,0.1-0.4,0.1s-0.3,0-0.5,0c-0.7,0-1.2-0.2-1.5-0.6v0c-0.4-0.3-0.6-0.8-0.6-1.3c0-0.5,0.2-0.9,0.5-1.3
		c0.3-0.4,0.8-0.5,1.5-0.5h1.5v-0.6c0-0.5-0.4-0.7-1.1-0.7c-0.1,0-0.3,0-0.4,0s-0.2,0-0.3,0.1h0c-0.1,0-0.1,0.1-0.2,0.1
		s-0.1,0.1-0.2,0.2c0,0-0.1,0.1-0.1,0l-0.9-0.7c0,0,0,0,0,0s0,0,0,0c0.5-0.6,1.1-0.9,2-0.9c0.4,0,0.7,0,1,0.1s0.6,0.2,0.8,0.3
		c0.5,0.3,0.7,0.8,0.7,1.6v4.1c0,0,0,0.1-0.1,0.1H777.6z M777.6,355.7h-1.3c-0.6,0-0.9,0.2-0.9,0.7c0,0.2,0.1,0.3,0.2,0.5
		c0.2,0.1,0.4,0.2,0.8,0.2c0.5,0,0.8-0.1,1-0.2h0c0.2-0.1,0.2-0.4,0.2-0.8V355.7z"/>
	<path class="st1" d="M783.1,358.2C783.1,358.2,783.1,358.2,783.1,358.2l-0.1-6c0,0,0-0.1,0.1-0.1h1.2c0,0,0.1,0,0.1,0.1v0.5
		c0.4-0.4,0.9-0.6,1.5-0.6c0.4,0,0.9,0.2,1.3,0.5c0,0,0,0,0,0s0,0,0,0.1l-0.9,1c0,0-0.1,0-0.1,0c-0.3-0.2-0.5-0.3-0.8-0.3
		c-0.3,0-0.5,0.1-0.8,0.3c-0.2,0.2-0.3,0.5-0.3,0.9v3.6c0,0,0,0.1-0.1,0.1H783.1z"/>
	<path class="st1" d="M790.9,358.3C790.9,358.3,790.9,358.2,790.9,358.3l-0.1-0.4c-0.1,0.1-0.1,0.1-0.2,0.2s-0.1,0.1-0.2,0.1
		c-0.1,0.1-0.3,0.1-0.4,0.1s-0.3,0-0.5,0c-0.7,0-1.2-0.2-1.5-0.6v0c-0.4-0.3-0.6-0.8-0.6-1.3c0-0.5,0.2-0.9,0.5-1.3
		c0.3-0.4,0.8-0.5,1.5-0.5h1.5v-0.6c0-0.5-0.4-0.7-1.1-0.7c-0.1,0-0.3,0-0.4,0s-0.2,0-0.3,0.1h0c-0.1,0-0.1,0.1-0.2,0.1
		s-0.1,0.1-0.2,0.2c0,0-0.1,0.1-0.1,0l-0.9-0.7c0,0,0,0,0,0s0,0,0,0c0.5-0.6,1.1-0.9,2-0.9c0.4,0,0.7,0,1,0.1s0.6,0.2,0.8,0.3
		c0.5,0.3,0.7,0.8,0.7,1.6v4.1c0,0,0,0.1-0.1,0.1H790.9z M790.9,355.7h-1.3c-0.6,0-0.9,0.2-0.9,0.7c0,0.2,0.1,0.3,0.2,0.5
		c0.2,0.1,0.4,0.2,0.8,0.2c0.5,0,0.8-0.1,1-0.2h0c0.2-0.1,0.2-0.4,0.2-0.8V355.7z"/>
	<path class="st1" d="M794.8,357.9c-0.4-0.9-0.7-1.9-1.1-2.8s-0.7-1.9-1.1-2.8c0,0,0,0,0-0.1s0,0,0.1,0h1.3c0,0,0,0,0,0s0,0,0,0
		l1.4,4c0.2-0.7,0.5-1.3,0.7-2s0.5-1.3,0.7-2c0,0,0,0,0,0s0,0,0,0h1.3c0,0,0,0,0.1,0s0,0,0,0.1l-2.6,7.2c-0.2,0.5-0.4,0.8-0.7,1v0
		c-0.2,0.1-0.3,0.2-0.5,0.2s-0.3,0.1-0.5,0.1h-0.4c0,0-0.1,0-0.1-0.1v-1.1c0,0,0-0.1,0.1-0.1h0.4c0.3,0,0.5-0.2,0.7-0.5L794.8,357.9
		z"/>
	<path class="st1" d="M338.3,372.6h-1.1v-6.7c-0.3,0.2-0.6,0.5-1,0.7s-0.8,0.4-1.1,0.5v-1c0.6-0.3,1.1-0.6,1.5-1s0.8-0.8,0.9-1.1
		h0.7V372.6z"/>
	<path class="st1" d="M341.3,372.6V364h1.1v4.9l2.5-2.5h1.4l-2.4,2.3l2.6,3.9h-1.3l-2.1-3.2l-0.7,0.7v2.5H341.3z"/>
	<path class="st1" d="M347.3,372.6v-6.2h0.9v0.9c0.2-0.3,0.5-0.5,0.8-0.7s0.7-0.3,1.1-0.3c0.5,0,0.8,0.1,1.1,0.3s0.5,0.5,0.6,0.8
		c0.5-0.7,1.1-1.1,1.9-1.1c0.6,0,1.1,0.2,1.4,0.5s0.5,0.9,0.5,1.6v4.3h-1v-3.9c0-0.4,0-0.7-0.1-0.9s-0.2-0.3-0.4-0.4
		s-0.4-0.2-0.6-0.2c-0.4,0-0.8,0.1-1.1,0.4s-0.4,0.8-0.4,1.4v3.6H351v-4c0-0.5-0.1-0.8-0.3-1.1s-0.5-0.4-0.8-0.4
		c-0.3,0-0.6,0.1-0.8,0.2s-0.4,0.4-0.5,0.7s-0.2,0.7-0.2,1.3v3.2H347.3z"/>
	<path class="st1" d="M364.3,372.6h-1.1v-6.7c-0.3,0.2-0.6,0.5-1,0.7s-0.8,0.4-1.1,0.5v-1c0.6-0.3,1.1-0.6,1.5-1s0.8-0.8,0.9-1.1
		h0.7V372.6z"/>
	<path class="st1" d="M367,368.4c0-1,0.1-1.8,0.3-2.5s0.5-1.1,0.9-1.4s0.9-0.5,1.6-0.5c0.5,0,0.9,0.1,1.2,0.3s0.6,0.5,0.9,0.8
		s0.4,0.8,0.5,1.3s0.2,1.2,0.2,2c0,1-0.1,1.8-0.3,2.4s-0.5,1.1-0.9,1.4s-0.9,0.5-1.6,0.5c-0.8,0-1.5-0.3-2-0.9
		C367.3,371.2,367,370,367,368.4z M368.1,368.4c0,1.4,0.2,2.3,0.5,2.8s0.7,0.7,1.2,0.7s0.9-0.2,1.2-0.7s0.5-1.4,0.5-2.8
		c0-1.4-0.2-2.4-0.5-2.8s-0.7-0.7-1.2-0.7c-0.5,0-0.9,0.2-1.2,0.6C368.3,366,368.1,367,368.1,368.4z"/>
	<path class="st1" d="M373.7,368.4c0-1,0.1-1.8,0.3-2.5s0.5-1.1,0.9-1.4s0.9-0.5,1.6-0.5c0.5,0,0.9,0.1,1.2,0.3s0.6,0.5,0.9,0.8
		s0.4,0.8,0.5,1.3s0.2,1.2,0.2,2c0,1-0.1,1.8-0.3,2.4s-0.5,1.1-0.9,1.4s-0.9,0.5-1.6,0.5c-0.8,0-1.5-0.3-2-0.9
		C374,371.2,373.7,370,373.7,368.4z M374.8,368.4c0,1.4,0.2,2.3,0.5,2.8s0.7,0.7,1.2,0.7s0.9-0.2,1.2-0.7s0.5-1.4,0.5-2.8
		c0-1.4-0.2-2.4-0.5-2.8s-0.7-0.7-1.2-0.7c-0.5,0-0.9,0.2-1.2,0.6C374.9,366,374.8,367,374.8,368.4z"/>
	<path class="st1" d="M380.6,372.6v-6.2h0.9v0.9c0.2-0.3,0.5-0.5,0.8-0.7s0.7-0.3,1.1-0.3c0.5,0,0.8,0.1,1.1,0.3s0.5,0.5,0.6,0.8
		c0.5-0.7,1.1-1.1,1.9-1.1c0.6,0,1.1,0.2,1.4,0.5s0.5,0.9,0.5,1.6v4.3h-1v-3.9c0-0.4,0-0.7-0.1-0.9s-0.2-0.3-0.4-0.4
		s-0.4-0.2-0.6-0.2c-0.4,0-0.8,0.1-1.1,0.4s-0.4,0.8-0.4,1.4v3.6h-1.1v-4c0-0.5-0.1-0.8-0.3-1.1s-0.5-0.4-0.8-0.4
		c-0.3,0-0.6,0.1-0.8,0.2s-0.4,0.4-0.5,0.7s-0.2,0.7-0.2,1.3v3.2H380.6z"/>
	<path class="st1" d="M397.6,372.6h-1.1v-6.7c-0.3,0.2-0.6,0.5-1,0.7s-0.8,0.4-1.1,0.5v-1c0.6-0.3,1.1-0.6,1.5-1s0.8-0.8,0.9-1.1
		h0.7V372.6z"/>
	<path class="st1" d="M400.6,372.6v-6.2h0.9v0.9c0.2-0.3,0.5-0.5,0.8-0.7s0.7-0.3,1.1-0.3c0.5,0,0.8,0.1,1.1,0.3s0.5,0.5,0.6,0.8
		c0.5-0.7,1.1-1.1,1.9-1.1c0.6,0,1.1,0.2,1.4,0.5s0.5,0.9,0.5,1.6v4.3h-1v-3.9c0-0.4,0-0.7-0.1-0.9s-0.2-0.3-0.4-0.4
		s-0.4-0.2-0.6-0.2c-0.4,0-0.8,0.1-1.1,0.4s-0.4,0.8-0.4,1.4v3.6h-1.1v-4c0-0.5-0.1-0.8-0.3-1.1s-0.5-0.4-0.8-0.4
		c-0.3,0-0.6,0.1-0.8,0.2s-0.4,0.4-0.5,0.7s-0.2,0.7-0.2,1.3v3.2H400.6z"/>
	<path class="st1" d="M456.3,372.6h-1.1v-6.7c-0.3,0.2-0.6,0.5-1,0.7s-0.8,0.4-1.1,0.5v-1c0.6-0.3,1.1-0.6,1.5-1s0.8-0.8,0.9-1.1
		h0.7V372.6z"/>
	<path class="st1" d="M459,368.4c0-1,0.1-1.8,0.3-2.5s0.5-1.1,0.9-1.4s0.9-0.5,1.6-0.5c0.5,0,0.9,0.1,1.2,0.3s0.6,0.5,0.9,0.8
		s0.4,0.8,0.5,1.3s0.2,1.2,0.2,2c0,1-0.1,1.8-0.3,2.4s-0.5,1.1-0.9,1.4s-0.9,0.5-1.6,0.5c-0.8,0-1.5-0.3-2-0.9
		C459.3,371.2,459,370,459,368.4z M460.1,368.4c0,1.4,0.2,2.3,0.5,2.8s0.7,0.7,1.2,0.7s0.9-0.2,1.2-0.7s0.5-1.4,0.5-2.8
		c0-1.4-0.2-2.4-0.5-2.8s-0.7-0.7-1.2-0.7c-0.5,0-0.9,0.2-1.2,0.6C460.3,366,460.1,367,460.1,368.4z"/>
	<path class="st1" d="M470,370.4l1,0.1c-0.1,0.7-0.4,1.3-0.9,1.7s-1,0.6-1.7,0.6c-0.9,0-1.5-0.3-2.1-0.8s-0.8-1.4-0.8-2.4
		c0-0.7,0.1-1.3,0.3-1.8s0.6-0.9,1-1.1s1-0.4,1.5-0.4c0.7,0,1.2,0.2,1.7,0.5s0.7,0.8,0.8,1.5l-1,0.2c-0.1-0.4-0.3-0.7-0.5-0.9
		s-0.5-0.3-0.9-0.3c-0.5,0-1,0.2-1.3,0.6s-0.5,1-0.5,1.8c0,0.8,0.2,1.4,0.5,1.8s0.7,0.6,1.3,0.6c0.4,0,0.8-0.1,1-0.4
		S469.9,370.9,470,370.4z"/>
	<path class="st1" d="M472,372.6v-6.2h0.9v0.9c0.2-0.3,0.5-0.5,0.8-0.7s0.7-0.3,1.1-0.3c0.5,0,0.8,0.1,1.1,0.3s0.5,0.5,0.6,0.8
		c0.5-0.7,1.1-1.1,1.9-1.1c0.6,0,1.1,0.2,1.4,0.5s0.5,0.9,0.5,1.6v4.3h-1v-3.9c0-0.4,0-0.7-0.1-0.9s-0.2-0.3-0.4-0.4
		s-0.4-0.2-0.6-0.2c-0.4,0-0.8,0.1-1.1,0.4s-0.4,0.8-0.4,1.4v3.6h-1.1v-4c0-0.5-0.1-0.8-0.3-1.1s-0.5-0.4-0.8-0.4
		c-0.3,0-0.6,0.1-0.8,0.2s-0.4,0.4-0.5,0.7s-0.2,0.7-0.2,1.3v3.2H472z"/>
	<path class="st1" d="M541,368.4c0-1,0.1-1.8,0.3-2.5s0.5-1.1,0.9-1.4s0.9-0.5,1.6-0.5c0.5,0,0.9,0.1,1.2,0.3s0.6,0.5,0.9,0.8
		s0.4,0.8,0.5,1.3s0.2,1.2,0.2,2c0,1-0.1,1.8-0.3,2.4s-0.5,1.1-0.9,1.4s-0.9,0.5-1.6,0.5c-0.8,0-1.5-0.3-2-0.9
		C541.3,371.2,541,370,541,368.4z M542.1,368.4c0,1.4,0.2,2.3,0.5,2.8s0.7,0.7,1.2,0.7s0.9-0.2,1.2-0.7s0.5-1.4,0.5-2.8
		c0-1.4-0.2-2.4-0.5-2.8s-0.7-0.7-1.2-0.7c-0.5,0-0.9,0.2-1.2,0.6C542.3,366,542.1,367,542.1,368.4z"/>
	<path class="st1" d="M548.3,372.6v-1.2h1.2v1.2H548.3z"/>
	<path class="st1" d="M551,368.4c0-1,0.1-1.8,0.3-2.5s0.5-1.1,0.9-1.4s0.9-0.5,1.6-0.5c0.5,0,0.9,0.1,1.2,0.3s0.6,0.5,0.9,0.8
		s0.4,0.8,0.5,1.3s0.2,1.2,0.2,2c0,1-0.1,1.8-0.3,2.4s-0.5,1.1-0.9,1.4s-0.9,0.5-1.6,0.5c-0.8,0-1.5-0.3-2-0.9
		C551.3,371.2,551,370,551,368.4z M552.1,368.4c0,1.4,0.2,2.3,0.5,2.8s0.7,0.7,1.2,0.7s0.9-0.2,1.2-0.7s0.5-1.4,0.5-2.8
		c0-1.4-0.2-2.4-0.5-2.8s-0.7-0.7-1.2-0.7c-0.5,0-0.9,0.2-1.2,0.6C552.3,366,552.1,367,552.1,368.4z"/>
	<path class="st1" d="M561.6,372.6h-1.1v-6.7c-0.3,0.2-0.6,0.5-1,0.7s-0.8,0.4-1.1,0.5v-1c0.6-0.3,1.1-0.6,1.5-1s0.8-0.8,0.9-1.1
		h0.7V372.6z"/>
	<path class="st1" d="M568.7,370.4l1,0.1c-0.1,0.7-0.4,1.3-0.9,1.7s-1,0.6-1.7,0.6c-0.9,0-1.5-0.3-2.1-0.8s-0.8-1.4-0.8-2.4
		c0-0.7,0.1-1.3,0.3-1.8s0.6-0.9,1-1.1s1-0.4,1.5-0.4c0.7,0,1.2,0.2,1.7,0.5s0.7,0.8,0.8,1.5l-1,0.2c-0.1-0.4-0.3-0.7-0.5-0.9
		c-0.2-0.2-0.5-0.3-0.9-0.3c-0.5,0-1,0.2-1.3,0.6s-0.5,1-0.5,1.8c0,0.8,0.2,1.4,0.5,1.8s0.7,0.6,1.3,0.6c0.4,0,0.8-0.1,1-0.4
		C568.4,371.3,568.6,370.9,568.7,370.4z"/>
	<path class="st1" d="M570.6,372.6v-6.2h0.9v0.9c0.2-0.3,0.5-0.5,0.8-0.7s0.7-0.3,1.1-0.3c0.5,0,0.8,0.1,1.1,0.3s0.5,0.5,0.6,0.8
		c0.5-0.7,1.1-1.1,1.9-1.1c0.6,0,1.1,0.2,1.4,0.5s0.5,0.9,0.5,1.6v4.3h-1v-3.9c0-0.4,0-0.7-0.1-0.9s-0.2-0.3-0.4-0.4
		s-0.4-0.2-0.6-0.2c-0.4,0-0.8,0.1-1.1,0.4s-0.4,0.8-0.4,1.4v3.6h-1.1v-4c0-0.5-0.1-0.8-0.3-1.1s-0.5-0.4-0.8-0.4
		c-0.3,0-0.6,0.1-0.8,0.2s-0.4,0.4-0.5,0.7s-0.2,0.7-0.2,1.3v3.2H570.6z"/>
</g>
<g>
	<path class="st1" d="M672,367.7c0-0.6,0-1.1,0-1.6h0.9l0,0.9h0c0.3-0.6,0.9-1.1,1.8-1.1c0.8,0,1.4,0.5,1.6,1.2h0
		c0.2-0.3,0.4-0.6,0.6-0.8c0.3-0.3,0.7-0.4,1.3-0.4c0.8,0,1.9,0.5,1.9,2.5v3.4h-1v-3.3c0-1.1-0.4-1.8-1.3-1.8c-0.6,0-1.1,0.4-1.2,1
		c0,0.1-0.1,0.3-0.1,0.5v3.6h-1v-3.5c0-0.9-0.4-1.6-1.2-1.6c-0.7,0-1.1,0.5-1.3,1.1c-0.1,0.2-0.1,0.3-0.1,0.5v3.5h-1V367.7z"/>
</g>
<g>
	<path class="st1" d="M729.6,367.7c0-0.6,0-1.1,0-1.6h0.9l0,0.9h0c0.3-0.6,0.9-1.1,1.8-1.1c0.8,0,1.4,0.5,1.6,1.2h0
		c0.2-0.3,0.4-0.6,0.6-0.8c0.3-0.3,0.7-0.4,1.3-0.4c0.8,0,1.9,0.5,1.9,2.5v3.4h-1v-3.3c0-1.1-0.4-1.8-1.3-1.8c-0.6,0-1.1,0.4-1.2,1
		c0,0.1-0.1,0.3-0.1,0.5v3.6h-1v-3.5c0-0.9-0.4-1.6-1.2-1.6c-0.7,0-1.1,0.5-1.3,1.1c-0.1,0.2-0.1,0.3-0.1,0.5v3.5h-1V367.7z"/>
</g>
<g>
	<path class="st1" d="M770,367.1c0-0.6,0-1.1,0-1.6h0.9l0,0.9h0c0.3-0.6,0.9-1.1,1.8-1.1c0.8,0,1.4,0.5,1.6,1.2h0
		c0.2-0.3,0.4-0.6,0.6-0.8c0.3-0.3,0.7-0.4,1.3-0.4c0.8,0,1.9,0.5,1.9,2.5v3.4h-1V368c0-1.1-0.4-1.8-1.3-1.8c-0.6,0-1.1,0.4-1.2,1
		c0,0.1-0.1,0.3-0.1,0.5v3.6h-1v-3.5c0-0.9-0.4-1.6-1.2-1.6c-0.7,0-1.1,0.5-1.3,1.1c-0.1,0.2-0.1,0.3-0.1,0.5v3.5h-1V367.1z"/>
</g>
</svg>
