<?xml version="1.0" encoding="utf-8"?>
<!-- Generator: Adobe Illustrator 24.2.3, SVG Export Plug-In . SVG Version: 6.00 Build 0)  -->
<svg version="1.1"
	 id="svg2" inkscape:output_extension="org.inkscape.output.svg.inkscape" inkscape:version="0.45.1" sodipodi:docbase="C:\Documents and Settings\JJB\My Documents" sodipodi:docname="EM Spectrum.svg" sodipodi:version="0.32" xmlns:cc="http://web.resource.org/cc/" xmlns:dc="http://purl.org/dc/elements/1.1/" xmlns:inkscape="http://www.inkscape.org/namespaces/inkscape" xmlns:rdf="http://www.w3.org/1999/02/22-rdf-syntax-ns#" xmlns:sodipodi="http://sodipodi.sourceforge.net/DTD/sodipodi-0.dtd" xmlns:svg="http://www.w3.org/2000/svg"
	 xmlns="http://www.w3.org/2000/svg" xmlns:xlink="http://www.w3.org/1999/xlink" x="0px" y="0px" viewBox="0 0 675 400"
	 style="enable-background:new 0 0 675 400;" xml:space="preserve">
<style type="text/css">
	.st0{fill:none;stroke:#FF0000;stroke-width:2;stroke-miterlimit:2;}
</style>
<sodipodi:namedview  bordercolor="#666666" borderopacity="1.0" gridspacingx="5px" gridspacingy="5px" gridtolerance="10000" guidetolerance="10" height="400px" id="base" inkscape:current-layer="layer1" inkscape:cx="520.50189" inkscape:cy="241.73341" inkscape:document-units="px" inkscape:grid-points="true" inkscape:guide-bbox="true" inkscape:pageopacity="0.0" inkscape:pageshadow="2" inkscape:window-height="874" inkscape:window-width="1382" inkscape:window-x="50" inkscape:window-y="0" inkscape:zoom="1" objecttolerance="10" pagecolor="#ffffff" showgrid="false" showguides="true" width="675px">
	</sodipodi:namedview>
<g id="g9821" transform="translate(100.5,-62.98945)">
	<path id="path6729" class="st0" d="M-70,179.7c0.9,0.4,1.8,0.7,2.6,1.1c0.9,0.4,1.8,0.8,2.6,1.2c0.9,0.4,1.8,0.8,2.6,1.2
		c0.9,0.4,1.8,0.9,2.6,1.3c0.9,0.5,1.8,0.9,2.6,1.4c0.9,0.5,1.8,1,2.6,1.5c0.9,0.5,1.8,1,2.6,1.6c0.9,0.5,1.8,1.1,2.6,1.6
		c0.9,0.6,1.8,1.1,2.6,1.7c0.9,0.6,1.8,1.2,2.6,1.8c0.9,0.6,1.8,1.2,2.6,1.8c0.9,0.6,1.8,1.2,2.6,1.9c0.9,0.6,1.8,1.3,2.6,1.9
		s1.8,1.3,2.6,1.9c0.9,0.6,1.8,1.3,2.6,1.9c0.9,0.6,1.8,1.3,2.6,1.9c0.9,0.6,1.8,1.3,2.6,1.9c0.9,0.6,1.8,1.2,2.6,1.8
		c0.9,0.6,1.8,1.2,2.6,1.7c0.9,0.6,1.8,1.1,2.6,1.6c0.9,0.5,1.8,1,2.6,1.5c0.9,0.5,1.8,0.9,2.6,1.3c0.9,0.4,1.8,0.8,2.6,1.1
		c0.9,0.3,1.8,0.6,2.6,0.9c0.9,0.2,1.8,0.5,2.6,0.6c0.9,0.2,1.8,0.3,2.6,0.3c0.9,0,1.8,0,2.6,0c0.9-0.1,1.8-0.2,2.6-0.4
		c0.9-0.2,1.8-0.5,2.6-0.8c0.9-0.3,1.8-0.7,2.6-1.2c0.9-0.5,1.8-1,2.6-1.6c0.9-0.6,1.8-1.3,2.6-2.1c0.9-0.8,1.8-1.6,2.6-2.5
		c0.9-0.9,1.8-1.9,2.6-2.9c0.9-1,1.8-2.1,2.6-3.3c0.9-1.1,1.8-2.3,2.6-3.6c0.9-1.2,1.8-2.5,2.6-3.8s1.8-2.6,2.6-4
		c0.9-1.3,1.8-2.7,2.6-4.1s1.8-2.7,2.6-4c0.9-1.3,1.8-2.6,2.6-3.8c0.9-1.2,1.8-2.4,2.6-3.5c0.9-1.1,1.8-2.1,2.6-3.1
		c0.9-0.9,1.8-1.8,2.6-2.5s1.8-1.3,2.6-1.7c0.9-0.4,1.8-0.7,2.6-0.9c0.9-0.1,1.8-0.1,2.6,0.1c0.9,0.2,1.8,0.6,2.6,1.1
		s1.8,1.3,2.6,2.2c0.9,0.9,1.8,2,2.6,3.2c0.9,1.2,1.8,2.6,2.6,4.1c0.9,1.5,1.8,3.2,2.6,4.9c0.9,1.8,1.8,3.6,2.6,5.5
		c0.9,1.9,1.8,3.9,2.6,5.9c0.9,2,1.8,4,2.6,5.9c0.9,1.9,1.8,3.8,2.6,5.5c0.9,1.7,1.8,3.4,2.6,4.8c0.9,1.4,1.8,2.7,2.6,3.7
		c0.9,1,1.8,1.8,2.6,2.3c0.9,0.5,1.8,0.7,2.6,0.7s1.8-0.5,2.6-1.2c0.9-0.7,1.8-1.7,2.6-3c0.9-1.3,1.8-2.9,2.6-4.8
		c0.9-1.8,1.8-3.9,2.6-6.2c0.9-2.3,1.8-4.7,2.6-7.2c0.9-2.5,1.8-5.1,2.6-7.6c0.9-2.5,1.8-5,2.6-7.3c0.9-2.3,1.8-4.4,2.6-6.2
		c0.9-1.8,1.8-3.3,2.6-4.4c0.9-1.1,1.8-1.8,2.6-2.1s1.8,0,2.6,0.7s1.8,1.9,2.6,3.5c0.9,1.6,1.8,3.7,2.6,6c0.9,2.4,1.8,5.1,2.6,8
		c0.9,2.9,1.8,6,2.6,9c0.9,3.1,1.8,6.1,2.6,8.9c0.9,2.8,1.8,5.4,2.6,7.5c0.9,2.1,1.8,3.8,2.6,4.9c0.9,1.1,1.8,1.6,2.6,1.4
		c0.9-0.2,1.8-1,2.6-2.5c0.9-1.5,1.8-3.6,2.6-6.2s1.8-5.7,2.6-9.1c0.9-3.4,1.8-7,2.6-10.5s1.8-7,2.6-10.1c0.9-3.1,1.8-5.7,2.6-7.7
		c0.9-2,1.8-3.3,2.6-3.7c0.9-0.4,1.8,0,2.6,1.3s1.8,3.4,2.6,6.2c0.9,2.8,1.8,6.3,2.6,10.1c0.9,3.8,1.8,7.9,2.6,11.9
		c0.9,4,1.8,7.8,2.6,11c0.9,3.2,1.8,5.8,2.6,7.4s1.8,2.2,2.6,1.7c0.9-0.5,1.8-2.1,2.6-4.7c0.9-2.6,1.8-6.1,2.6-10.1
		s1.8-8.6,2.6-13.1s1.8-8.8,2.6-12.4s1.8-6.4,2.6-8c0.9-1.6,1.8-2,2.6-1c0.9,1,1.8,3.3,2.6,6.7c0.9,3.4,1.8,7.8,2.6,12.6
		c0.9,4.8,1.8,9.9,2.6,14.5s1.8,8.7,2.6,11.5c0.9,2.8,1.8,4.3,2.6,4.1c0.9-0.1,1.8-1.9,2.6-5.1s1.8-7.7,2.6-12.8
		c0.9-5.1,1.8-10.7,2.6-15.8c0.9-5.1,1.8-9.5,2.6-12.5s1.8-4.3,2.6-3.8c0.9,0.5,1.8,3,2.6,7c0.9,3.9,1.8,9.4,2.6,15.1
		s1.8,11.7,2.6,16.6s1.8,8.6,2.6,10.3c0.9,1.7,1.8,1.2,2.6-1.3c0.9-2.5,1.8-7.1,2.6-12.8c0.9-5.6,1.8-12.2,2.6-18.1s1.8-11,2.6-13.9
		s1.8-3.7,2.6-2c0.9,1.7,1.8,6,2.6,11.6s1.8,12.6,2.6,19s1.8,12,2.6,15.3c0.9,3.3,1.8,4,2.6,2c0.9-2,1.8-6.9,2.6-13.1
		c0.9-6.2,1.8-13.8,2.6-20.3c0.9-6.5,1.8-11.8,2.6-14.1s1.8-1.6,2.6,2c0.9,3.6,1.8,10.1,2.6,17.3c0.9,7.2,1.8,15,2.6,20.6
		c0.9,5.6,1.8,8.9,2.6,8.6c0.9-0.3,1.8-4.2,2.6-10.4s1.8-14.6,2.6-22s1.8-13.6,2.6-16.2c0.9-2.6,1.8-1.3,2.6,3.3
		c0.9,4.6,1.8,12.6,2.6,20.7c0.9,8.1,1.8,16.1,2.6,20.6c0.9,4.5,1.8,5.3,2.6,2c0.9-3.3,1.8-10.8,2.6-19.1s1.8-17.3,2.6-22.9
		c0.9-5.5,1.8-7.4,2.6-4.6c0.9,2.8,1.8,10.2,2.6,18.9s1.8,18.1,2.6,23.9c0.9,5.8,1.8,7.5,2.6,4.2c0.9-3.3,1.8-11.6,2.6-20.7
		c0.9-9.1,1.8-18.7,2.6-23.7s1.8-5.1,2.6-0.2s1.8,14.8,2.6,24.2c0.9,9.5,1.8,18.1,2.6,20.9c0.9,2.9,1.8-0.2,2.6-7.7
		c0.9-7.5,1.8-18.9,2.6-27.7s1.8-14.4,2.6-13.4c0.9,1.1,1.8,8.8,2.6,18.6s1.8,21.2,2.6,27s1.8,5.5,2.6-0.9s1.8-18.3,2.6-28.3
		c0.9-10,1.8-17.1,2.6-16.5c0.9,0.5,1.8,8.8,2.6,19.4c0.9,10.6,1.8,22.6,2.6,27.7s1.8,2.8,2.6-5.5c0.9-8.3,1.8-21.9,2.6-31.1
		c0.9-9.2,1.8-13,2.6-8.4s1.8,17,2.6,28.3c0.9,11.3,1.8,20.1,2.6,19.6s1.8-10.4,2.6-22.1s1.8-24,2.6-27c0.9-3,1.8,3.8,2.6,15.1
		s1.8,25.7,2.6,31.3s1.8,1.7,2.6-8.8s1.8-26.1,2.6-33.5c0.9-7.5,1.8-5.5,2.6,4.4c0.9,9.9,1.8,26.2,2.6,34.7c0.9,8.4,1.8,7.4,2.6-2.4
		s1.8-26.7,2.6-35.4c0.9-8.7,1.8-7.4,2.6,2.9c0.9,10.3,1.8,27.7,2.6,35.9s1.8,5.3,2.6-6.2c0.9-11.4,1.8-29.1,2.6-35.7
		c0.9-6.7,1.8-0.7,2.6,12.3s1.8,29.9,2.6,33.7c0.9,3.9,1.8-6.5,2.6-20.8s1.8-28.7,2.6-28.3c0.9,0.4,1.8,15.9,2.6,30.3
		s1.8,23.6,2.6,17.6s1.8-25.7,2.6-37.8c0.9-12.1,1.8-12.7,2.6-1c0.9,11.7,1.8,32.3,2.6,38.7c0.9,6.3,1.8-3.9,2.6-19.3
		s1.8-30.7,2.6-28.1c0.9,2.6,1.8,22.5,2.6,36.5c0.9,14,1.8,16.7,2.6,4.7s1.8-34.4,2.6-40s1.8,7.9,2.6,24.4s1.8,28.8,2.6,21.6
		c0.9-7.2,1.8-31.3,2.6-41.9s1.8-2.7,2.6,13.8s1.8,34.1,2.6,29.7c0.9-4.3,1.8-28.8,2.6-41.4c0.9-12.6,1.8-6.6,2.6,10.2
		s1.8,35.8,2.6,31.1c0.9-4.6,1.8-30.7,2.6-42.7"/>
</g>
</svg>
